<svg xmlns="http://www.w3.org/2000/svg" xmlns:xlink="http://www.w3.org/1999/xlink" width="1080" zoomAndPan="magnify" viewBox="0 0 810 817.92" height="1080" preserveAspectRatio="xMidYMid meet" version="1.2"><g id="8f17ab19e4"><path style=" stroke:none;fill-rule:evenodd;fill:currentColor;fill-opacity:1;" d="M 262.632812 52.097656 C 249.421875 56.132812 236.042969 67.558594 229.183594 80.675781 L 225.457031 87.792969 L 225.03125 248.613281 C 224.613281 407.441406 224.648438 409.539062 227.855469 418.105469 C 232.40625 430.28125 241.671875 440.171875 254.375 446.425781 L 264.9375 451.625 L 545.0625 451.625 L 555.625 446.425781 C 568.300781 440.1875 577.589844 430.28125 582.117188 418.183594 C 585.21875 409.898438 585.332031 406.222656 585.332031 316.375 L 585.332031 223.160156 L 508.21875 222.707031 L 431.101562 222.253906 L 425.28125 218.632812 C 421.863281 216.511719 418.109375 212.222656 416.183594 208.25 C 413.011719 201.695312 412.910156 199.109375 412.910156 126.050781 L 412.910156 50.621094 L 339.746094 50.757812 C 299.507812 50.832031 264.804688 51.433594 262.632812 52.097656 M 463.53125 118.640625 L 463.53125 172.425781 L 571.871094 172.425781 L 518.105469 118.640625 C 488.53125 89.058594 464.15625 64.855469 463.933594 64.855469 C 463.714844 64.855469 463.53125 89.058594 463.53125 118.640625 M 321.160156 176.730469 C 305.402344 182.648438 299.316406 202.988281 309.632812 215.246094 C 316.617188 223.546875 320.535156 224.625 343.625 224.621094 C 361.824219 224.617188 365.355469 224.191406 369.816406 221.46875 C 385.832031 211.707031 385.089844 187.15625 368.519531 178.703125 C 363.375 176.078125 359.351562 175.605469 342.972656 175.714844 C 332.28125 175.78125 322.464844 176.238281 321.160156 176.730469 M 153.839844 226.386719 C 137.714844 229.070312 121.910156 239.789062 112.542969 254.386719 C 102.757812 269.632812 102.863281 268 102.863281 406.875 L 102.863281 533.09375 L 201.398438 533.09375 C 284.746094 533.09375 301.363281 533.464844 309.226562 535.511719 C 327.4375 540.257812 344.082031 551.097656 353.355469 564.253906 L 358.152344 571.058594 L 452.199219 571.058594 L 455.578125 565.589844 C 463.875 552.164062 484.667969 538.613281 502.757812 534.839844 C 508.355469 533.671875 543.707031 533.09375 609.140625 533.09375 L 707.136719 533.09375 L 707.136719 406.875 C 707.136719 297.980469 706.800781 279.367188 704.6875 271.246094 C 697.457031 243.488281 671.535156 224.722656 640.304688 224.640625 L 635.953125 224.625 L 635.898438 315.1875 C 635.835938 418.195312 635.445312 422.816406 625.023438 443.714844 C 610.839844 472.15625 586.304688 492.046875 556.835938 498.992188 C 541.449219 502.617188 268.550781 502.617188 253.164062 498.992188 C 223.675781 492.042969 199.09375 472.101562 185.011719 443.714844 C 174.390625 422.300781 174.046875 418.289062 174.046875 315.445312 L 174.046875 224.625 L 168.113281 224.8125 C 164.851562 224.914062 158.429688 225.621094 153.839844 226.386719 M 321.160156 252.636719 C 310.332031 256.804688 302.761719 269.40625 304.589844 280.226562 C 305.804688 287.414062 312.628906 296.09375 319.207031 298.820312 C 322.371094 300.132812 347.109375 300.515625 407.914062 300.203125 L 492.234375 299.765625 L 498.261719 293.300781 C 509.085938 281.695312 507.621094 265.140625 494.972656 256.117188 L 489.628906 252.308594 L 406.582031 252.019531 C 360.90625 251.855469 322.464844 252.136719 321.160156 252.636719 M 321.160156 328.570312 C 310.332031 332.734375 302.761719 345.335938 304.589844 356.15625 C 305.804688 363.347656 312.628906 372.027344 319.207031 374.75 C 322.371094 376.0625 347.109375 376.445312 407.914062 376.132812 L 492.234375 375.695312 L 498.261719 369.230469 C 509.085938 357.625 507.621094 341.070312 494.972656 332.046875 L 489.628906 328.238281 L 406.582031 327.949219 C 360.90625 327.785156 322.464844 328.066406 321.160156 328.570312 M 75.09375 588.855469 C 57.5 600.820312 49.335938 633.742188 56.332031 664.503906 C 58.996094 676.214844 64.449219 685.480469 89.328125 720.542969 C 105.164062 742.859375 114.683594 754.042969 120.339844 756.96875 C 127.164062 760.496094 682.835938 760.496094 689.660156 756.96875 C 695.316406 754.042969 704.835938 742.859375 720.671875 720.542969 C 745.550781 685.480469 751.003906 676.214844 753.667969 664.503906 C 760.664062 633.742188 752.5 600.820312 734.90625 588.855469 L 727.34375 583.710938 L 619.085938 583.710938 C 527.648438 583.710938 510.140625 584.070312 506.398438 586.003906 C 501.457031 588.558594 493.855469 596.695312 489.460938 604.132812 L 486.574219 609.023438 L 323.425781 609.023438 L 320.539062 604.132812 C 316.144531 596.695312 308.542969 588.558594 303.601562 586.003906 C 299.859375 584.070312 282.351562 583.710938 190.914062 583.710938 L 82.65625 583.710938 Z M 75.09375 588.855469 "/></g></svg>