<svg xmlns="http://www.w3.org/2000/svg" xmlns:xlink="http://www.w3.org/1999/xlink" width="1080" zoomAndPan="magnify" viewBox="0 0 810 817.92" height="1080" preserveAspectRatio="xMidYMid meet" version="1.2"><g id="d118de868e"><path style=" stroke:none;fill-rule:evenodd;fill:currentColor;fill-opacity:1;" d="M 15.859375 33.996094 L 15.859375 52.175781 L 372.175781 52.582031 L 728.492188 52.992188 L 734.820312 56.414062 C 749.414062 64.304688 756.886719 76.539062 756.878906 92.539062 C 756.871094 105.667969 753.417969 113.46875 743.730469 122.21875 C 731.527344 133.246094 737.332031 132.875 575.949219 132.898438 C 417.75 132.917969 423.574219 132.597656 405.4375 142.261719 C 382.390625 154.546875 365.453125 182.703125 365.453125 208.722656 L 365.453125 215.136719 L 402.984375 215.136719 L 404.019531 206.316406 C 405.960938 189.78125 413.0625 179.164062 426.289062 173.003906 L 434.265625 169.292969 L 578.394531 169.277344 C 669.203125 169.265625 725.679688 168.664062 731.046875 167.65625 C 745.34375 164.960938 761.730469 156.148438 772.039062 145.613281 C 795.492188 121.644531 800.710938 85.703125 785.007812 56.273438 C 779.292969 45.5625 763.570312 29.867188 753.390625 24.710938 C 734.703125 15.242188 759.5 15.820312 371.449219 15.820312 L 15.859375 15.820312 Z M 52.164062 233.097656 C 37.03125 237.199219 24.671875 248.640625 19 263.800781 C 15.855469 272.214844 15.800781 275.046875 16.21875 410.25 L 16.648438 548.121094 L 20.324219 555.511719 C 27.835938 570.613281 42.675781 581.164062 59.128906 583.097656 L 67.808594 584.117188 L 68.335938 562.164062 C 68.839844 541.34375 68.691406 540.046875 65.449219 537.046875 C 59.472656 531.515625 58.570312 527.570312 58.570312 507.015625 C 58.570312 475.316406 60.957031 472.980469 93.34375 472.980469 C 117.625 472.980469 123.167969 474.613281 127.109375 482.914062 C 128.5625 485.976562 129.753906 489.980469 129.753906 491.808594 C 129.753906 493.632812 129.929688 495.121094 130.148438 495.109375 C 130.367188 495.101562 134.039062 494.03125 138.308594 492.738281 C 142.582031 491.441406 148.277344 490.359375 150.964844 490.328125 C 155.167969 490.285156 156.519531 489.128906 160.601562 482.070312 C 166.453125 471.953125 176.398438 465.394531 187.976562 464.023438 L 196.191406 463.046875 L 196.191406 444.507812 L 134.394531 444.507812 C 95.035156 444.507812 71.492188 443.914062 69.554688 442.878906 C 63.304688 439.535156 61.734375 433.183594 61.734375 411.289062 C 61.734375 389.394531 63.304688 383.042969 69.554688 379.699219 C 71.535156 378.636719 102.28125 378.070312 157.453125 378.070312 L 242.308594 378.070312 L 246.933594 382.691406 C 249.476562 385.234375 251.558594 389.011719 251.558594 391.089844 C 251.558594 393.742188 253.597656 396.296875 258.4375 399.710938 C 262.746094 402.746094 266.738281 407.445312 269.113281 412.273438 C 272.542969 419.238281 272.964844 422.414062 273.449219 444.902344 L 273.984375 469.816406 L 375.953125 469.816406 C 463.328125 469.816406 478.578125 470.15625 482.496094 472.179688 C 491.167969 476.667969 492.003906 479.46875 492.003906 504.15625 L 492.003906 526.714844 L 487.386719 531.878906 L 482.773438 537.046875 L 273.703125 537.90625 L 273.703125 543.40625 C 273.703125 547.738281 275.082031 550.289062 280.171875 555.378906 C 287.355469 562.5625 291.105469 570.09375 291.105469 577.335938 L 291.105469 582.128906 L 512.566406 582.128906 L 512.582031 576.988281 C 512.605469 570.113281 518.914062 557.121094 525.023438 551.382812 L 529.96875 546.738281 L 530.039062 483.363281 C 530.109375 417.625 530.59375 412.136719 536.9375 405.125 C 538.324219 403.59375 539.460938 400.058594 539.460938 397.269531 C 539.460938 390.445312 543.21875 381.871094 547.132812 379.777344 C 551.265625 377.566406 598.710938 377.496094 602.820312 379.699219 C 609.117188 383.066406 610.648438 389.359375 610.589844 411.605469 C 610.546875 426.855469 609.910156 433.730469 608.269531 436.597656 C 607.027344 438.773438 605.984375 444.546875 605.953125 449.429688 L 605.898438 458.304688 L 613.699219 459.226562 C 617.992188 459.734375 624.285156 461.574219 627.691406 463.308594 C 634.410156 466.738281 642.964844 475.566406 644.621094 480.785156 C 645.457031 483.421875 646.976562 484.054688 652.476562 484.054688 C 658.527344 484.054688 659.515625 483.53125 661.21875 479.417969 C 664.464844 471.582031 670.777344 469.816406 695.511719 469.824219 C 728.898438 469.832031 730.839844 471.902344 730.855469 507.464844 C 730.863281 522.816406 731.4375 527.988281 733.582031 531.984375 C 735.617188 535.777344 736.507812 542.515625 737.140625 558.875 L 737.984375 580.703125 L 747.808594 575.789062 C 759.027344 570.175781 764.4375 564.464844 770.269531 552.074219 L 774.367188 543.375 L 774.367188 404.960938 C 774.367188 266.679688 774.363281 266.539062 770.96875 259.191406 C 766.632812 249.8125 757.410156 240.589844 747.410156 235.632812 L 739.566406 231.746094 L 399.464844 231.449219 C 134.09375 231.214844 57.777344 231.578125 52.164062 233.097656 M 74.1875 285.851562 C 71.902344 286.203125 68.34375 288.289062 66.277344 290.488281 C 62.660156 294.339844 62.523438 295.375 62.523438 319.007812 L 62.523438 343.527344 L 67.691406 348.144531 L 72.855469 352.757812 L 95.847656 352.757812 C 130.574219 352.757812 132.917969 350.585938 132.914062 318.402344 C 132.910156 287.621094 129.910156 284.808594 97.324219 285.0625 C 86.882812 285.144531 76.472656 285.5 74.1875 285.851562 M 193.523438 286.480469 C 190.75 287.285156 187.015625 289.808594 185.21875 292.089844 C 182.265625 295.847656 181.957031 298.402344 181.957031 319.121094 L 181.957031 342 L 187.332031 347.378906 L 192.710938 352.757812 L 215.910156 352.757812 C 250.992188 352.757812 251.472656 352.296875 251.523438 318.566406 C 251.558594 295.136719 251.480469 294.582031 247.59375 290.695312 C 245.414062 288.515625 240.960938 286.289062 237.707031 285.75 C 228.96875 284.308594 199.347656 284.796875 193.523438 286.480469 M 313.289062 286.355469 C 303.175781 288.734375 302.179688 291.597656 302.179688 318.238281 C 302.179688 331.4375 302.898438 343.238281 303.808594 344.9375 C 307.210938 351.296875 313.417969 352.757812 336.980469 352.757812 C 360.542969 352.757812 366.75 351.296875 370.152344 344.9375 C 371.0625 343.238281 371.78125 331.4375 371.78125 318.238281 C 371.78125 291.25 370.878906 288.820312 359.917969 286.28125 C 352.261719 284.503906 320.9375 284.554688 313.289062 286.355469 M 433.511719 286.355469 C 423.355469 288.742188 422.402344 291.535156 422.402344 318.835938 C 422.402344 342.1875 422.542969 343.257812 426.214844 347.527344 L 430.027344 351.96875 L 481.027344 352.976562 L 492.003906 342 L 492.003906 319.121094 C 492.003906 293.074219 490.628906 289.425781 479.671875 286.382812 C 472.84375 284.484375 441.535156 284.46875 433.511719 286.355469 M 552.777344 286.351562 C 542.640625 289.472656 541.832031 291.882812 541.832031 319.042969 L 541.832031 343.527344 L 547 348.140625 L 552.164062 352.757812 L 601.101562 352.757812 L 606.269531 348.140625 L 611.433594 343.527344 L 611.433594 294.300781 L 607.070312 289.9375 C 602.753906 285.621094 602.453125 285.566406 580.179688 285.210938 C 567.789062 285.015625 555.457031 285.527344 552.777344 286.351562 M 674.582031 286.351562 C 664.453125 289.472656 663.636719 291.902344 663.636719 318.878906 L 663.636719 343.195312 L 668.019531 347.582031 C 672.378906 351.945312 672.519531 351.96875 696.492188 352.398438 C 723.609375 352.882812 726.851562 352.027344 731.257812 343.246094 C 733.425781 338.929688 734.027344 333.675781 734.027344 319.09375 C 734.03125 298.640625 732.078125 291.128906 725.859375 287.703125 C 721.328125 285.203125 681.691406 284.160156 674.582031 286.351562 M 306.800781 382.691406 L 302.179688 387.316406 L 302.179688 435.257812 L 306.800781 439.882812 L 311.425781 444.507812 L 362.53125 444.507812 L 371.78125 435.257812 L 371.78125 387.316406 L 367.15625 382.691406 L 362.53125 378.070312 L 311.425781 378.070312 Z M 429.519531 379.894531 C 422.878906 383.527344 422.402344 385.644531 422.402344 411.449219 L 422.402344 436.316406 L 427.269531 440.410156 C 432.054688 444.441406 432.539062 444.507812 456.929688 444.472656 C 491.28125 444.421875 492.003906 443.738281 492.003906 411.3125 C 492.003906 388.523438 490.542969 383.238281 483.347656 379.957031 C 477.996094 377.519531 433.957031 377.46875 429.519531 379.894531 M 670.929688 380.277344 C 664.0625 384.082031 662.960938 388.402344 662.902344 411.839844 L 662.847656 433.75 L 668.222656 439.128906 L 673.601562 444.507812 L 698.855469 444.507812 C 723.71875 444.507812 724.167969 444.445312 728.082031 440.53125 C 733.132812 435.484375 734.050781 430.675781 733.941406 409.902344 C 733.839844 390.757812 731.796875 382.972656 726.121094 380.109375 C 720.511719 377.28125 676.09375 377.414062 670.929688 380.277344 M 560.6875 406.363281 C 550.664062 412.472656 550.53125 413.507812 550.53125 485.550781 L 550.53125 550.628906 L 542.097656 558.867188 C 532.621094 568.121094 532.460938 568.707031 530.507812 601.402344 C 529.296875 621.671875 530.945312 628.898438 539.953125 642.765625 C 548.066406 655.257812 554.851562 670.15625 557.007812 680.210938 L 558.703125 688.117188 L 700.214844 688.117188 L 702.304688 679.8125 C 703.457031 675.246094 707.125 664.703125 710.457031 656.386719 C 721.320312 629.265625 721.742188 626.636719 722.472656 581.339844 C 723.074219 543.972656 722.875 539.710938 720.277344 534.726562 C 712.738281 520.261719 691.929688 519.464844 683.503906 533.320312 C 680.882812 537.628906 680.875 537.609375 680.710938 526.875 C 680.53125 515.230469 677.777344 507.976562 672.003906 503.933594 C 663.253906 497.804688 650.15625 499.652344 643.125 508.007812 L 639.117188 512.769531 L 639.109375 505.136719 C 639.097656 494.53125 636.523438 486.320312 631.414062 480.601562 C 627.941406 476.71875 625.464844 475.585938 619.117188 474.972656 C 609.441406 474.046875 602.375 477.230469 597.925781 484.527344 L 594.835938 489.589844 L 594.832031 454.765625 C 594.824219 424.066406 594.484375 419.300781 591.933594 414.550781 C 586.390625 404.210938 570.878906 400.148438 560.6875 406.363281 M 225.457031 412.648438 C 214.269531 419.558594 214.433594 418.902344 213.902344 459.183594 L 213.421875 495.6875 L 210.414062 490.738281 C 201.976562 476.863281 179.285156 478.082031 173.160156 492.738281 C 171.8125 495.960938 170.867188 503.550781 170.847656 511.289062 L 170.808594 524.390625 L 167.398438 518.503906 C 161.195312 507.804688 146.273438 504.425781 135.941406 511.390625 C 128.480469 516.417969 126.640625 521.003906 126.605469 534.675781 L 126.578125 546.539062 L 123.488281 541.476562 C 114.90625 527.394531 93.4375 528.457031 86.390625 543.308594 C 83.90625 548.539062 83.679688 553.640625 84.234375 592.136719 C 84.835938 633.851562 84.976562 635.449219 88.988281 646.195312 C 98.65625 672.085938 102.820312 684.332031 102.839844 686.929688 C 102.863281 689.527344 107.34375 689.699219 174.691406 689.699219 L 246.519531 689.699219 L 249.261719 680.976562 C 250.769531 676.179688 254.765625 667.101562 258.136719 660.808594 C 275.070312 629.210938 274.398438 631.480469 275.039062 603.90625 C 275.601562 579.683594 275.511719 578.835938 271.652344 572.269531 C 269.46875 568.558594 265.480469 563.898438 262.785156 561.914062 L 257.886719 558.308594 L 257.886719 492.550781 C 257.886719 435.441406 257.550781 426.089844 255.34375 421.4375 C 250.269531 410.746094 235.546875 406.417969 225.457031 412.648438 M 90.820312 707.066406 C 88.984375 707.808594 85.957031 710.351562 84.097656 712.71875 C 80.894531 716.789062 80.714844 718.714844 80.714844 749.3125 C 80.714844 784.789062 81.589844 788.953125 89.761719 792.335938 C 93.015625 793.683594 117.800781 794.0625 181.726562 793.746094 L 269.234375 793.3125 L 273.050781 788.871094 C 276.828125 784.476562 276.867188 784.09375 276.867188 750.40625 C 276.867188 730.097656 276.210938 715.15625 275.238281 713.339844 C 271.082031 705.574219 270.296875 705.511719 179.265625 705.617188 C 132.457031 705.671875 92.660156 706.324219 90.820312 707.066406 M 540.683594 707.960938 C 538.3125 709.257812 535.644531 711.6875 534.753906 713.351562 C 533.789062 715.152344 533.132812 730.191406 533.132812 750.40625 C 533.132812 784.09375 533.171875 784.476562 536.949219 788.871094 L 540.765625 793.3125 L 628.273438 793.746094 C 692.199219 794.0625 716.980469 793.683594 720.234375 792.335938 C 728.417969 788.949219 729.285156 784.804688 729.285156 749.121094 L 729.285156 716.640625 L 724.671875 711.472656 L 720.054688 706.308594 L 632.527344 705.953125 C 557.4375 705.652344 544.382812 705.9375 540.683594 707.960938 "/></g></svg>