<svg xmlns="http://www.w3.org/2000/svg" xmlns:xlink="http://www.w3.org/1999/xlink" width="1080" zoomAndPan="magnify" viewBox="0 0 810 817.92" height="1080" preserveAspectRatio="xMidYMid meet" version="1.2"><defs><clipPath id="fadaf15752"><path d="M 80 0 L 730 0 L 730 809.921875 L 80 809.921875 Z M 80 0 "/></clipPath></defs><g id="92d38cb8ef"><g clip-rule="nonzero" clip-path="url(#fadaf15752)"><path style=" stroke:none;fill-rule:evenodd;fill:currentColor;fill-opacity:1;" d="M 370.199219 2.234375 C 286.746094 16.988281 220.757812 73.070312 194.730469 151.359375 C 184.4375 182.320312 184.605469 180.273438 183.960938 282.074219 C 183.4375 364.753906 183.664062 376.113281 185.96875 384.105469 C 194.019531 412.007812 215.617188 433.390625 242.925781 440.503906 C 249.03125 442.09375 259.484375 442.925781 273.375 442.925781 L 294.523438 442.925781 L 282.886719 431.289062 C 254.652344 403.054688 237.203125 366.6875 232.597656 326.488281 C 231.457031 316.527344 230.984375 287.449219 231.292969 246.492188 C 231.765625 184.367188 231.898438 181.992188 235.046875 177.777344 C 236.839844 175.375 240.269531 171.945312 242.671875 170.148438 C 246.835938 167.039062 249.683594 166.847656 304.269531 165.984375 C 358.433594 165.128906 362.046875 164.886719 371.78125 161.488281 C 392.566406 154.226562 403.195312 147.285156 423.464844 127.742188 C 443.539062 108.386719 447.234375 105.984375 456.910156 105.992188 C 466.605469 106 471.800781 110.710938 487.085938 133.328125 C 500.664062 153.421875 506.527344 159.476562 516.523438 163.703125 C 518.261719 164.4375 529.457031 165.484375 541.398438 166.023438 C 564.859375 167.085938 567.714844 168.085938 574.953125 177.777344 C 578.101562 181.992188 578.234375 184.367188 578.707031 246.492188 C 579.015625 287.449219 578.542969 316.527344 577.402344 326.488281 C 572.808594 366.574219 555.5 402.730469 527.230469 431.273438 L 515.695312 442.925781 L 536.734375 442.925781 C 550.527344 442.925781 560.984375 442.089844 567.074219 440.503906 C 594.382812 433.390625 615.980469 412.007812 624.03125 384.105469 C 626.335938 376.113281 626.5625 364.753906 626.039062 282.074219 C 625.394531 180.273438 625.5625 182.320312 615.269531 151.359375 C 590.285156 76.207031 528.652344 21.464844 449.292969 3.933594 C 433.253906 0.390625 386.320312 -0.617188 370.199219 2.234375 M 444.546875 172.679688 C 428.070312 187.621094 403.203125 201.132812 381.242188 207.074219 C 363.21875 211.949219 345.703125 213.554688 310.421875 213.554688 L 278.246094 213.554688 L 278.804688 273.269531 C 279.34375 330.613281 279.511719 333.425781 283.019531 344.058594 C 297.203125 387.027344 327.652344 417.226562 370.199219 430.519531 C 380.347656 433.691406 385.375 434.226562 405 434.226562 C 424.648438 434.226562 429.632812 433.695312 439.746094 430.515625 C 483.089844 416.90625 512.414062 387.832031 526.957031 344.058594 C 530.496094 333.402344 530.65625 330.738281 531.191406 273.617188 L 531.75 214.253906 L 517.125 211.488281 C 508.65625 209.886719 498.140625 206.574219 492.140625 203.625 C 480.429688 197.859375 464.273438 183.554688 457.671875 173.105469 C 455.238281 169.253906 452.890625 166.128906 452.457031 166.164062 C 452.019531 166.199219 448.460938 169.132812 444.546875 172.679688 M 346.46875 481.355469 L 346.46875 489.730469 L 375.070312 524.066406 C 390.800781 542.949219 404.269531 558.402344 405 558.402344 C 405.730469 558.402344 419.199219 542.949219 434.929688 524.066406 L 463.53125 489.730469 L 463.53125 481.355469 C 463.53125 476.75 462.808594 472.980469 461.925781 472.980469 C 461.046875 472.980469 455.261719 474.382812 449.070312 476.101562 C 442.882812 477.816406 430.433594 480.015625 421.410156 480.984375 C 402.398438 483.03125 379.171875 481.15625 360.929688 476.101562 C 354.738281 474.382812 348.953125 472.980469 348.074219 472.980469 C 347.191406 472.980469 346.46875 476.75 346.46875 481.355469 M 188.105469 492.765625 C 145.238281 501.304688 106.652344 533.6875 90.109375 575.007812 C 81.40625 596.734375 80.714844 604.257812 80.714844 676.949219 C 80.714844 742.871094 80.722656 743.023438 84.277344 748.304688 C 91.476562 758.980469 93.484375 759.410156 133.992188 758.933594 L 170.265625 758.511719 L 161.921875 705.515625 C 157.332031 676.371094 153.554688 648.140625 153.53125 642.777344 C 153.410156 618.671875 168.929688 592.8125 189.949219 582.085938 C 207.042969 573.367188 204.578125 573.617188 281.953125 572.703125 L 354.265625 571.847656 L 320.289062 531.113281 L 286.3125 490.382812 L 242.4375 490.53125 C 213.058594 490.628906 195.109375 491.367188 188.105469 492.765625 M 489.710938 531.113281 L 455.734375 571.847656 L 528.046875 572.703125 C 605.421875 573.617188 602.957031 573.367188 620.050781 582.085938 C 641.070312 592.8125 656.589844 618.671875 656.46875 642.777344 C 656.445312 648.140625 652.667969 676.371094 648.078125 705.515625 L 639.734375 758.507812 L 676.007812 758.933594 C 716.515625 759.410156 718.523438 758.980469 725.722656 748.304688 C 729.277344 743.023438 729.285156 742.871094 729.285156 676.949219 C 729.285156 604.257812 728.59375 596.734375 719.890625 575.007812 C 706.296875 541.050781 676.570312 511.648438 643.054688 499.007812 C 623.476562 491.625 612.40625 490.382812 566.234375 490.382812 L 523.6875 490.382812 Z M 214.296875 621.601562 C 209.550781 623.539062 201.394531 633.394531 200.261719 638.566406 C 199.695312 641.148438 204.304688 675.082031 211.183594 718.960938 C 223.894531 800.0625 223.679688 799.238281 234.140625 806.363281 L 239.371094 809.921875 L 570.628906 809.921875 L 575.859375 806.363281 C 586.316406 799.246094 586.105469 800.046875 598.859375 718.960938 C 612.132812 634.605469 612.078125 636.246094 601.898438 626.378906 L 596.230469 620.886719 L 406.890625 620.582031 C 302.753906 620.414062 216.085938 620.871094 214.296875 621.601562 M 366.410156 692.871094 C 349.570312 698.101562 344.953125 720.445312 358.289062 732.15625 C 365.484375 738.472656 370.539062 739.078125 410.820312 738.460938 C 447.492188 737.894531 448.382812 737.675781 456.222656 727.175781 C 460.558594 721.367188 460.558594 708.648438 456.222656 702.839844 C 448.261719 692.179688 447.917969 692.101562 407.65625 691.757812 C 387.488281 691.585938 368.929688 692.085938 366.410156 692.871094 "/></g></g></svg>