<svg xmlns="http://www.w3.org/2000/svg" xmlns:xlink="http://www.w3.org/1999/xlink" width="1080" zoomAndPan="magnify" viewBox="0 0 810 817.92" height="1080" preserveAspectRatio="xMidYMid meet" version="1.2"><g id="10db637049"><path style=" stroke:none;fill-rule:evenodd;fill:currentColor;fill-opacity:1;" d="M 375.734375 40.5625 C 363.335938 43.183594 344.46875 50.867188 330.941406 58.796875 C 319.363281 65.585938 293.414062 91.535156 286.625 103.113281 C 270.410156 130.765625 265.792969 149.792969 265.792969 188.96875 C 265.792969 219.164062 265.277344 217.691406 275.207031 215.703125 C 280.257812 214.695312 280.265625 214.675781 279.214844 207.027344 C 278.238281 199.949219 278.523438 199 282.929688 194.59375 L 287.699219 189.824219 L 333.480469 189.824219 L 344.898438 161.324219 C 356.324219 132.816406 360.3125 126.550781 367.035156 126.550781 C 373.757812 126.550781 377.746094 132.816406 389.171875 161.324219 L 400.589844 189.824219 L 436.054688 189.824219 L 440.679688 180.152344 C 445.582031 169.894531 450.863281 164.515625 456.027344 164.515625 C 457.820312 164.515625 464.734375 169.945312 472.136719 177.171875 L 485.101562 189.824219 L 503.699219 189.824219 C 522.28125 189.824219 522.308594 189.832031 527.070312 194.59375 C 531.476562 199 531.761719 199.949219 530.785156 207.027344 C 529.734375 214.675781 529.742188 214.695312 534.792969 215.703125 C 544.722656 217.691406 544.203125 219.164062 544.203125 188.96875 C 544.203125 149.792969 539.589844 130.765625 523.375 103.113281 C 516.582031 91.535156 490.636719 65.585938 479.058594 58.796875 C 465.027344 50.570312 446.480469 43.15625 433.144531 40.445312 C 418.007812 37.367188 390.59375 37.421875 375.734375 40.5625 M 359.378906 191.414062 C 350.078125 214.96875 349.835938 215.136719 324.445312 215.136719 L 304.425781 215.136719 L 308.71875 266.511719 C 313.074219 318.6875 314.921875 329.390625 321.96875 343.296875 C 331.382812 361.882812 350.550781 378.457031 372.570312 387.058594 C 382.570312 390.96875 385.644531 391.394531 404.210938 391.449219 C 428.953125 391.527344 439.769531 388.472656 458.054688 376.242188 C 470.789062 367.722656 478.699219 359.464844 485.851562 347.222656 C 494.710938 332.054688 496.660156 321.867188 501.265625 266.703125 L 505.574219 215.136719 L 477.578125 215.136719 L 469.214844 207.226562 C 464.613281 202.875 460.117188 199.316406 459.21875 199.316406 C 458.320312 199.316406 456.691406 201.476562 455.597656 204.117188 C 451.347656 214.382812 448.75 215.136719 417.65625 215.136719 C 383.054688 215.136719 384.335938 215.84375 374.691406 191.414062 C 370.914062 181.851562 367.46875 174.027344 367.035156 174.027344 C 366.601562 174.027344 363.15625 181.851562 359.378906 191.414062 M 265.671875 244.042969 C 257.472656 249.566406 253.140625 257.074219 253.140625 265.753906 C 253.140625 279.660156 264.730469 291.066406 278.863281 291.066406 L 286.71875 291.066406 L 285.816406 284.34375 C 285.320312 280.644531 284.488281 271.210938 283.960938 263.382812 C 282.472656 241.144531 282.238281 240.445312 276.183594 240.445312 C 273.335938 240.445312 268.605469 242.0625 265.671875 244.042969 M 527.8125 244.796875 C 527.359375 247.1875 526.5625 255.550781 526.039062 263.382812 C 525.511719 271.210938 524.679688 280.644531 524.183594 284.34375 L 523.28125 291.066406 L 531.136719 291.066406 C 545.269531 291.066406 556.859375 279.660156 556.859375 265.753906 C 556.859375 253.253906 545.195312 240.445312 533.816406 240.445312 C 529.421875 240.445312 528.511719 241.101562 527.8125 244.796875 M 264.53125 325.253906 C 261.097656 345.96875 248.1875 363.804688 230.285156 372.5625 C 225.453125 374.925781 221.503906 377.1875 221.503906 377.589844 C 221.503906 380.234375 234.800781 397.480469 243.429688 406.023438 C 253.277344 415.777344 275.539062 431.023438 282.53125 432.804688 C 285.105469 433.460938 324.089844 425.542969 338.957031 421.347656 C 341.242188 420.703125 341.726562 418.707031 341.726562 409.957031 L 341.726562 399.347656 L 331.988281 392.265625 C 321.921875 384.945312 308.824219 369.90625 301.71875 357.503906 C 296.8125 348.941406 289.523438 327.710938 289.523438 321.976562 C 289.523438 317.238281 288.921875 316.960938 275.921875 315.65625 L 266.277344 314.691406 Z M 529.308594 316.226562 L 521.527344 317.167969 L 519.578125 326.65625 C 514.359375 352.070312 498.1875 377.59375 478.011719 392.265625 L 468.273438 399.347656 L 468.273438 420.488281 L 488.445312 425.214844 C 528.453125 434.589844 525.34375 434.242188 533.226562 430.234375 C 552.410156 420.480469 571.707031 403.617188 582.769531 386.953125 C 585.921875 382.207031 588.496094 377.992188 588.496094 377.589844 C 588.496094 377.1875 584.546875 374.925781 579.714844 372.5625 C 561.832031 363.8125 548.902344 345.96875 545.476562 325.304688 C 543.550781 313.667969 544.789062 314.363281 529.308594 316.226562 M 367.023438 421.859375 C 367.011719 434.363281 365.925781 436.375 352.097656 449.476562 L 342.699219 458.382812 L 344.648438 464.890625 C 345.722656 468.472656 347.332031 471.398438 348.230469 471.398438 C 349.128906 471.398438 364.828125 464.992188 383.113281 457.164062 C 401.398438 449.332031 417.324219 442.925781 418.5 442.925781 C 424.496094 442.925781 428.933594 450.578125 439.136719 478.519531 C 444.859375 494.179688 450.078125 507.550781 450.734375 508.230469 C 451.390625 508.914062 455.367188 498.046875 459.566406 484.085938 L 467.199219 458.703125 L 442.964844 433.796875 L 442.964844 422.433594 C 442.964844 412.351562 442.652344 411.167969 440.195312 411.914062 C 429.414062 415.183594 419.410156 416.484375 405 416.484375 C 390.589844 416.484375 380.585938 415.183594 369.804688 411.914062 C 367.355469 411.171875 367.035156 412.324219 367.023438 421.859375 M 306.925781 453.832031 C 303.59375 454.757812 301.804688 458 295.457031 474.609375 C 291.324219 485.433594 287.941406 495.128906 287.941406 496.160156 C 287.941406 497.71875 320.925781 484.816406 323.492188 482.253906 C 323.910156 481.832031 322.457031 475.644531 320.261719 468.5 C 318.066406 461.355469 316.703125 454.8125 317.226562 453.960938 C 318.300781 452.230469 312.929688 452.160156 306.925781 453.832031 M 482.097656 493.964844 C 475.339844 516.792969 468.832031 538.703125 467.632812 542.660156 C 465.472656 549.789062 465.539062 550.09375 474.628906 574.8125 C 479.671875 588.535156 484.28125 600.246094 484.867188 600.832031 C 485.457031 601.417969 488.546875 598.925781 491.738281 595.289062 C 494.929688 591.65625 501.664062 584.066406 506.703125 578.429688 L 515.867188 568.179688 L 504.726562 551.277344 C 498.597656 541.980469 493.585938 533.054688 493.585938 531.445312 C 493.585938 525.6875 500.421875 520.503906 514.148438 515.863281 C 523.160156 512.820312 527.4375 510.605469 527.113281 509.15625 C 526.851562 507.964844 522.285156 495.363281 516.972656 481.148438 C 509.015625 459.871094 506.636719 455.050781 503.507812 453.863281 C 494.800781 450.550781 495.117188 449.957031 482.097656 493.964844 M 249.976562 466.808594 C 221.546875 473.496094 211.917969 477.019531 198.972656 485.472656 C 177.261719 499.644531 161.40625 521.734375 155.019531 546.710938 C 152.148438 557.9375 151.90625 564.277344 151.964844 626.28125 C 152.023438 685.753906 152.347656 694.523438 154.734375 701.09375 C 160.796875 717.777344 173.847656 730.015625 190.65625 734.773438 C 196.167969 736.335938 227.328125 738.230469 293.476562 741.03125 C 345.679688 743.238281 394.972656 745.492188 403.023438 746.035156 L 417.65625 747.023438 L 417.65625 683.371094 L 227.828125 683.371094 L 227.828125 658.0625 L 251.558594 658.0625 C 264.609375 658.0625 275.285156 657.585938 275.285156 657.007812 C 275.285156 656.429688 264.476562 627.867188 251.261719 593.539062 C 223.335938 520.980469 223.890625 526.613281 243.714844 517.066406 L 255.648438 511.316406 L 264.105469 488.589844 C 268.757812 476.089844 272.894531 464.972656 273.300781 463.886719 C 274.292969 461.242188 272.917969 461.414062 249.976562 466.808594 M 536.296875 462.507812 C 536.296875 462.839844 540.921875 475.378906 546.578125 490.382812 C 552.234375 505.382812 556.859375 518.542969 556.859375 519.625 C 556.859375 524.695312 550.035156 529.835938 537.957031 533.859375 L 525.410156 538.035156 L 534.808594 552.347656 C 539.976562 560.21875 544.207031 567.847656 544.207031 569.296875 C 544.207031 573.304688 540.738281 577.6875 516.707031 604.066406 L 494.5625 628.371094 L 499.027344 641.238281 C 504.703125 657.582031 506.683594 660.71875 512.117188 661.941406 C 518.441406 663.363281 530.847656 672.882812 535.410156 679.808594 C 547.5 698.164062 546.789062 735.457031 534.027344 752.1875 C 524.09375 765.210938 505.304688 772.921875 488.046875 771.058594 C 482.828125 770.496094 473.070312 767.9375 466.367188 765.371094 C 459.664062 762.804688 451.800781 760.320312 448.894531 759.847656 C 444.363281 759.113281 443.355469 759.5625 441.78125 763.019531 C 438.773438 769.617188 432.871094 772.519531 424.730469 771.402344 L 417.65625 770.433594 L 417.65625 784.609375 L 556.859375 784.609375 L 556.859375 620.09375 L 582.171875 620.09375 L 582.171875 784.609375 L 619.34375 784.609375 C 655.664062 784.609375 656.519531 784.535156 656.519531 781.394531 C 656.519531 769.171875 633.820312 564.578125 631.269531 553.789062 C 623.042969 519.023438 600.117188 489.824219 567.933594 473.121094 C 554.765625 466.285156 536.296875 460.089844 536.296875 462.507812 M 332.449219 505.429688 C 291.238281 523.164062 257.265625 537.929688 256.949219 538.246094 C 256.632812 538.5625 266.625 565.472656 279.152344 598.046875 L 301.925781 657.269531 L 368.628906 658.0625 L 435.332031 658.851562 L 438.980469 663.097656 C 440.988281 665.429688 442.949219 668.277344 443.332031 669.421875 C 443.902344 671.109375 445.828125 671 453.386719 668.851562 C 467.570312 664.828125 479.304688 660.554688 479.328125 659.40625 C 479.339844 658.84375 464.679688 618.621094 446.75 570.03125 C 428.820312 521.4375 413.445312 479.722656 412.582031 477.332031 C 411.722656 474.9375 410.199219 473.027344 409.195312 473.082031 C 408.191406 473.140625 373.65625 487.695312 332.449219 505.429688 M 475.394531 687.503906 C 467.527344 690.816406 448.835938 695.894531 444.101562 696 C 443.421875 696.011719 443.066406 704.742188 443.3125 715.398438 L 443.757812 734.773438 L 452.472656 735.859375 C 457.265625 736.457031 466.636719 739.128906 473.300781 741.796875 C 493.730469 749.976562 508.085938 747.742188 515.738281 735.191406 C 520.296875 727.71875 520.296875 702.296875 515.738281 694.824219 C 508.414062 682.808594 493.121094 680.03125 475.394531 687.503906 M 253.140625 774.328125 L 253.140625 784.609375 L 392.34375 784.609375 L 392.34375 770.570312 L 385.621094 769.730469 C 380.046875 769.035156 264.804688 763.96875 255.90625 764.027344 C 253.558594 764.042969 253.140625 765.597656 253.140625 774.328125 "/></g></svg>