<svg xmlns="http://www.w3.org/2000/svg" xmlns:xlink="http://www.w3.org/1999/xlink" width="1080" zoomAndPan="magnify" viewBox="0 0 810 817.92" height="1080" preserveAspectRatio="xMidYMid meet" version="1.2"><defs><clipPath id="2816bd4fdd"><path d="M 70 0 L 740 0 L 740 809.921875 L 70 809.921875 Z M 70 0 "/></clipPath></defs><g id="a2f596cf5e"><g clip-rule="nonzero" clip-path="url(#2816bd4fdd)"><path style=" stroke:none;fill-rule:evenodd;fill:currentColor;fill-opacity:1;" d="M 383.25 1.578125 C 366.113281 3.996094 349.421875 9.320312 331.441406 18.113281 C 300.261719 33.355469 274.214844 58.667969 258.605469 88.886719 C 245.257812 114.730469 240.640625 132.746094 239.332031 164.054688 L 238.457031 184.949219 L 106.816406 185.871094 L 98.84375 190.078125 C 89.144531 195.199219 78.460938 206.46875 73.851562 216.4375 L 70.433594 223.835938 L 70.433594 631.960938 L 74.621094 640.894531 C 82.191406 657.042969 95.855469 667.359375 114.136719 670.742188 C 119.875 671.800781 220.6875 672.203125 410.632812 671.925781 L 698.4375 671.507812 L 707.488281 667.851562 C 718.953125 663.21875 729.832031 652.734375 735.324219 641.007812 L 739.566406 631.960938 L 739.566406 223.835938 L 735.136719 214.8125 C 729.589844 203.519531 717.691406 192.625 706.210938 188.328125 C 697.976562 185.246094 694.214844 185.078125 633.519531 185.078125 L 569.515625 185.078125 L 569.515625 188.863281 C 569.515625 191.621094 570.632812 192.925781 573.644531 193.683594 C 575.914062 194.253906 581.179688 198.21875 585.347656 202.492188 L 592.917969 210.269531 L 645.675781 210.722656 C 698.074219 211.175781 698.472656 211.207031 703.617188 214.871094 C 706.460938 216.902344 710.199219 221.324219 711.921875 224.695312 C 714.980469 230.695312 715.046875 234.585938 715.023438 404.5 L 714.996094 578.175781 L 711.464844 584.382812 C 709.257812 588.253906 705.304688 591.980469 700.957031 594.269531 L 693.984375 597.949219 L 116.015625 597.949219 L 109.125 594.304688 C 104.417969 591.816406 101.085938 588.484375 98.59375 583.777344 L 94.953125 576.886719 L 94.976562 403.527344 L 95.003906 230.164062 L 98.5625 223.882812 C 100.519531 220.429688 104.527344 215.976562 107.46875 213.996094 C 112.78125 210.417969 113.21875 210.390625 167.15625 210.390625 L 221.492188 210.390625 L 237.890625 193.78125 L 239.335938 203.269531 C 240.5 210.910156 240.257812 214.238281 238.089844 220.308594 C 234.9375 229.144531 235.824219 236.535156 240.792969 242.851562 C 244.386719 247.417969 252.46875 251.519531 257.878906 251.519531 C 261.035156 251.519531 261.125 250.820312 260.699219 229.765625 L 260.257812 208.015625 L 254.726562 208.566406 C 251.683594 208.867188 247.910156 209.800781 246.34375 210.640625 C 244.570312 211.589844 246.148438 208.105469 250.539062 201.390625 L 257.582031 190.617188 L 258.382812 168.46875 C 260.113281 120.535156 277.320312 82.742188 310.324219 54.367188 C 355.851562 15.21875 426.480469 9.042969 478.171875 39.691406 C 518.992188 63.894531 545.804688 107.480469 550.398438 157.097656 C 551.214844 165.964844 551.496094 176.539062 551.019531 180.601562 C 550.203125 187.53125 550.601562 188.574219 557.460938 197.484375 C 561.480469 202.710938 564.769531 207.398438 564.769531 207.902344 C 564.769531 208.40625 562.457031 208.636719 559.628906 208.417969 L 554.488281 208.015625 L 554.046875 229.765625 C 553.621094 250.820312 553.710938 251.519531 556.867188 251.519531 C 562.277344 251.519531 570.359375 247.417969 573.953125 242.851562 C 581.097656 233.765625 579.75 220.285156 570.953125 212.882812 L 566.273438 208.945312 L 567.894531 191.871094 C 571.089844 158.167969 569.257812 137.125 561.023438 112.929688 C 547.863281 74.277344 519.9375 40.886719 483.902344 20.722656 C 472.519531 14.351562 451.921875 6.835938 437.585938 3.820312 C 423.546875 0.867188 396.261719 -0.257812 383.25 1.578125 M 387.800781 68.046875 C 334.46875 75.480469 292.226562 116.257812 282.546875 169.65625 C 281.566406 175.058594 281.785156 175.589844 284.996094 175.589844 C 291.894531 175.589844 301.253906 181.609375 305.609375 188.84375 L 309.832031 195.859375 L 322.058594 197.003906 C 352.6875 199.875 384.5 192.246094 411.707031 175.503906 C 415.875 172.941406 420.316406 170.84375 421.578125 170.84375 C 422.84375 170.84375 428.246094 173.667969 433.585938 177.117188 C 450.890625 188.304688 472.324219 194.496094 493.90625 194.542969 L 506.089844 194.570312 L 508.808594 188.847656 C 511.671875 182.808594 518.199219 177.921875 525.554688 176.304688 C 530.804688 175.152344 530.734375 175.921875 526.933594 161.0625 C 515.285156 115.515625 482.78125 82.78125 437.78125 71.273438 C 423.03125 67.5 401.628906 66.121094 387.800781 68.046875 M 412.117188 196.085938 C 391.417969 208.152344 356.097656 215.90625 327.09375 214.746094 L 308.503906 214.003906 L 308.550781 255.472656 L 333.816406 275.640625 L 359.078125 295.8125 L 369.980469 295.8125 C 377.945312 295.8125 381.4375 295.144531 382.941406 293.332031 C 386.609375 288.914062 393.597656 286.320312 401.835938 286.320312 C 416.636719 286.320312 425.5625 294.089844 425.5625 306.976562 C 425.5625 313.3125 424.773438 315.339844 420.734375 319.378906 C 411.015625 329.101562 392.007812 329.191406 383.902344 319.554688 C 380.464844 315.46875 379.175781 315.09375 366.804688 314.570312 L 353.425781 314.003906 L 334.851562 299.175781 C 324.640625 291.019531 315.984375 284.640625 315.621094 285.003906 C 314.15625 286.46875 326.488281 308.429688 333.46875 316.785156 C 347.488281 333.566406 369.503906 347.253906 388.972656 351.296875 C 403.070312 354.222656 427.566406 352.441406 439.214844 347.640625 C 473.375 333.5625 498.300781 301.082031 504.566406 262.488281 C 505.472656 256.890625 506.222656 243.332031 506.226562 232.355469 L 506.238281 212.40625 L 487.652344 211.613281 C 472.304688 210.960938 466.445312 209.941406 454.039062 205.773438 C 445.773438 202.996094 435.285156 198.625 430.730469 196.0625 C 426.175781 193.503906 421.902344 191.421875 421.238281 191.441406 C 420.570312 191.460938 416.46875 193.550781 412.117188 196.085938 M 280.902344 195.503906 C 278.734375 197.675781 278.445312 202.535156 278.8125 230.53125 C 279.195312 259.492188 279.542969 263.230469 282.007812 264.785156 C 284.027344 266.058594 285.527344 266.058594 287.546875 264.785156 C 290.015625 263.230469 290.359375 259.464844 290.742188 229.996094 C 291.128906 200.324219 290.894531 196.746094 288.464844 194.96875 C 284.949219 192.398438 283.9375 192.46875 280.902344 195.503906 M 526.28125 194.96875 C 523.851562 196.746094 523.617188 200.324219 524.003906 229.996094 C 524.386719 259.464844 524.730469 263.230469 527.199219 264.785156 C 529.21875 266.058594 530.71875 266.058594 532.738281 264.785156 C 535.207031 263.230469 535.550781 259.464844 535.933594 229.996094 C 536.316406 200.324219 536.085938 196.746094 533.652344 194.96875 C 532.164062 193.878906 530.507812 192.988281 529.96875 192.988281 C 529.429688 192.988281 527.773438 193.878906 526.28125 194.96875 M 114.816406 231.308594 C 112.625 234.4375 112.355469 253.425781 112.375 404.125 C 112.390625 497.242188 112.925781 574.214844 113.5625 575.171875 C 116.617188 579.742188 122.417969 580.546875 152.308594 580.546875 L 182.980469 580.546875 L 188.183594 551.679688 C 206.054688 452.542969 207.3125 447.933594 220.757812 432.226562 C 229.632812 421.859375 236.734375 417.839844 277.316406 400.210938 C 298.007812 391.222656 316.675781 382.261719 318.792969 380.296875 C 323.261719 376.15625 344.40625 370.878906 350.453125 372.398438 C 354.226562 373.34375 354.378906 373.085938 354.378906 365.761719 C 354.378906 361.566406 353.527344 357.28125 352.480469 356.238281 C 351.09375 354.851562 338.515625 354.339844 305.765625 354.339844 C 257.15625 354.339844 253.519531 353.804688 247.160156 345.71875 C 245.316406 343.378906 243.355469 338.433594 242.800781 334.734375 C 241.839844 328.335938 244.574219 275.707031 246.144531 270.3125 C 246.65625 268.566406 245.277344 267.085938 241.796875 265.644531 C 229.855469 260.699219 220.746094 248.476562 218.882812 234.914062 L 217.910156 227.789062 L 167.59375 227.789062 C 117.394531 227.789062 117.273438 227.796875 114.816406 231.308594 M 595.859375 234.914062 C 593.941406 248.925781 584.234375 261.507812 571.90625 265.964844 L 566.183594 268.035156 L 567.453125 288.644531 C 569.710938 325.238281 569.207031 339.222656 565.449219 344.339844 C 558.472656 353.839844 555.636719 354.335938 508.136719 354.335938 C 457.175781 354.339844 455.621094 354.691406 455.621094 366.144531 L 455.621094 373.125 L 460.761719 372.296875 C 468.382812 371.074219 487.296875 375.949219 491.984375 380.34375 C 494.171875 382.394531 513.636719 391.742188 535.242188 401.113281 C 577.863281 419.605469 584.761719 424.078125 594.789062 439.707031 C 603.242188 452.882812 605.46875 461.277344 616.289062 520.800781 C 622.023438 552.355469 627.269531 578.75 627.949219 579.457031 C 628.625 580.160156 643.578125 580.515625 661.171875 580.25 C 690.699219 579.796875 693.335938 579.523438 695.402344 576.6875 C 697.308594 574.082031 697.648438 547.800781 697.648438 403.320312 C 697.648438 240.351562 697.523438 232.914062 694.753906 230.40625 C 692.199219 228.09375 686.339844 227.789062 644.347656 227.789062 L 596.835938 227.789062 Z M 263.375 274.140625 C 261.679688 278.898438 259.785156 331.410156 261.210938 334.078125 C 262.609375 336.691406 265.480469 336.941406 294.324219 336.941406 C 311.695312 336.941406 325.90625 336.574219 325.90625 336.125 C 325.90625 335.679688 322.6875 331.359375 318.753906 326.53125 C 311.519531 317.648438 301.074219 298.433594 297.515625 287.460938 C 295.664062 281.753906 295.328125 281.527344 290.175781 282.496094 C 282.0625 284.019531 274.5 282.003906 268.992188 276.859375 C 265.882812 273.953125 263.800781 272.945312 263.375 274.140625 M 543.691406 278.988281 C 540.21875 281.613281 536.941406 282.375 528.925781 282.414062 L 518.621094 282.464844 L 514.230469 293.746094 C 509.386719 306.207031 502.269531 318.484375 494.152344 328.402344 C 491.230469 331.972656 488.839844 335.351562 488.839844 335.917969 C 488.839844 336.480469 502.277344 336.941406 518.703125 336.941406 C 543.214844 336.941406 548.914062 336.515625 550.515625 334.585938 C 552.054688 332.730469 552.09375 326.261719 550.691406 304.246094 C 549.714844 288.855469 548.746094 276.117188 548.535156 275.9375 C 548.328125 275.761719 546.148438 277.132812 543.691406 278.988281 M 396.402344 305.132812 C 394.988281 307.425781 401.378906 310.40625 405.148438 309.210938 C 406.902344 308.652344 408.066406 307.367188 407.734375 306.355469 C 406.964844 304.011719 397.714844 303.015625 396.402344 305.132812 M 371.78125 372.523438 L 371.78125 379.84375 L 388.636719 387.894531 L 405.488281 395.945312 L 421.855469 387.808594 L 438.21875 379.667969 L 438.21875 373.332031 C 438.21875 369.847656 437.6875 367.011719 437.03125 367.035156 C 436.378906 367.054688 432.644531 367.816406 428.726562 368.722656 C 424.8125 369.632812 414.828125 370.398438 406.539062 370.421875 C 393.425781 370.464844 386.730469 369.539062 374.550781 366.003906 C 372.195312 365.320312 371.78125 366.296875 371.78125 372.523438 M 341.242188 390.195312 C 339.671875 390.632812 338.605469 391.472656 338.871094 392.0625 C 343.226562 401.738281 362.910156 436.636719 363.8125 436.285156 C 365.945312 435.453125 389.183594 410.117188 389.121094 408.695312 C 389.03125 406.808594 354.675781 390.9375 348.84375 390.089844 C 346.234375 389.707031 342.8125 389.753906 341.242188 390.195312 M 459.589844 390.277344 C 457.859375 390.730469 448.28125 394.949219 438.308594 399.65625 L 420.175781 408.207031 L 434.253906 422.351562 L 448.332031 436.492188 L 452.898438 428.242188 C 460.542969 414.421875 471.667969 392.007812 471.136719 391.476562 C 469.957031 390.296875 462.476562 389.519531 459.589844 390.277344 M 287.148438 415.035156 C 239.617188 436.042969 239.289062 436.246094 229.632812 450.335938 C 223.816406 458.820312 221.734375 467.085938 211.957031 520.394531 C 206.769531 548.695312 202.109375 573.808594 201.605469 576.199219 L 200.6875 580.546875 L 404.875 580.546875 C 517.175781 580.546875 609.0625 580.089844 609.0625 579.523438 C 609.0625 578.960938 604.417969 553.15625 598.746094 522.183594 C 583.699219 440.042969 584.953125 441.910156 528.195312 417.28125 C 508.726562 408.832031 491.609375 401.484375 490.164062 400.949219 C 488.054688 400.175781 484.652344 405.507812 473.027344 427.800781 C 465.046875 443.101562 457.460938 456.679688 456.164062 457.972656 C 451.226562 462.910156 447.429688 460.570312 426.082031 439.433594 C 408.070312 421.601562 404.679688 418.875 402.917969 420.84375 C 384.128906 441.863281 366.136719 460.398438 363.796875 461.140625 C 362.164062 461.660156 359.421875 461.332031 357.707031 460.414062 C 355.992188 459.492188 347.597656 445.585938 339.058594 429.5 C 330.519531 413.417969 322.820312 400.28125 321.953125 400.308594 C 321.082031 400.332031 305.421875 406.960938 287.148438 415.035156 M 364.324219 692.441406 C 363.746094 693.976562 359.136719 705.875 354.082031 718.878906 C 349.023438 731.878906 344.890625 743.089844 344.890625 743.792969 C 344.890625 744.492188 371.9375 745.0625 405 745.0625 C 438.0625 745.0625 465.109375 744.507812 465.109375 743.828125 C 465.109375 743.148438 460.5625 730.871094 455 716.539062 L 444.894531 690.488281 L 405.132812 690.066406 C 368.347656 689.675781 365.296875 689.851562 364.324219 692.441406 M 266.070312 766.125 C 262.914062 769.488281 262.632812 771.425781 262.632812 789.851562 L 262.632812 809.921875 L 547.367188 809.921875 L 547.367188 789.632812 C 547.367188 770.46875 547.164062 769.152344 543.707031 765.902344 L 540.046875 762.464844 L 269.511719 762.464844 Z M 266.070312 766.125 "/></g></g></svg>