<svg xmlns="http://www.w3.org/2000/svg" width="1080" height="1080" viewBox="0 0 810 817.92" preserveAspectRatio="xMidYMid meet" version="1.2">
  <g>
    <path 
      style="stroke:none; fill-rule:evenodd; fill:currentColor; fill-opacity:1;" 
      d="M 332.511719 19.933594 C 326.984375 22.6875 322.628906 26.410156 319.324219 31.214844 C 314.769531 37.835938 314.128906 40.464844 311.046875 65.296875 C 308.582031 85.132812 307.082031 92.507812 305.335938 93.375 C 304.035156 94.015625 297.628906 96.125 291.105469 98.058594 C 284.578125 99.992188 271.65625 105.484375 262.386719 110.269531 L 245.53125 118.964844 L 226.003906 104.207031 C 215.261719 96.085938 204.011719 88.183594 201 86.640625 C 194.1875 83.15625 181.847656 83.023438 175.152344 86.367188 C 168.304688 89.785156 89.140625 168.628906 85.566406 175.589844 C 77.261719 191.769531 79.65625 200.421875 99.933594 227.492188 L 115.703125 248.546875 L 108.632812 263.082031 C 104.742188 271.078125 99.253906 285.09375 96.4375 294.230469 C 93.617188 303.363281 90.53125 311.644531 89.574219 312.625 C 88.617188 313.609375 78.222656 315.621094 66.476562 317.09375 C 54.734375 318.570312 42.726562 320.402344 39.796875 321.164062 C 31.117188 323.425781 23.972656 329.308594 19.785156 337.644531 L 15.859375 345.472656 L 15.859375 466.292969 L 20.277344 474.777344 C 23.601562 481.164062 26.679688 484.453125 32.710938 488.078125 C 39.738281 492.300781 43.683594 493.257812 64.6875 495.839844 C 77.867188 497.460938 89.234375 499.566406 89.953125 500.515625 C 90.667969 501.46875 92.898438 506.871094 94.90625 512.527344 C 96.914062 518.183594 102.371094 531.667969 107.035156 542.496094 C 111.699219 553.320312 115.515625 562.757812 115.515625 563.464844 C 115.515625 564.171875 108.621094 575.101562 100.1875 587.753906 C 85.980469 609.078125 84.8125 611.429688 84.199219 619.902344 C 83.6875 626.953125 84.277344 630.464844 86.765625 635.25 C 90.585938 642.59375 169.535156 721.566406 176.417969 724.925781 C 192.042969 732.550781 200.945312 729.984375 227.667969 710.164062 C 239.324219 701.519531 249.480469 694.445312 250.238281 694.445312 C 250.996094 694.445312 258.542969 697.898438 267.007812 702.128906 C 275.476562 706.351562 287.386719 711.761719 293.476562 714.152344 C 299.566406 716.539062 305.261719 719.167969 306.132812 719.992188 C 307.003906 720.816406 309.21875 732.796875 311.058594 746.613281 C 315.128906 777.203125 318.046875 783.570312 330.941406 789.992188 L 339.183594 794.101562 L 460.003906 794.101562 L 468.464844 789.683594 C 482.246094 782.484375 485.414062 775.746094 489.40625 745.171875 L 492.699219 719.9375 L 506.628906 714.953125 C 514.296875 712.214844 527.707031 706.476562 536.441406 702.207031 C 545.171875 697.9375 552.921875 694.445312 553.660156 694.445312 C 554.402344 694.445312 565.214844 701.488281 577.683594 710.101562 C 590.558594 718.992188 603.277344 726.542969 607.109375 727.570312 C 614.777344 729.628906 623.140625 728.53125 631.207031 724.40625 C 634.253906 722.851562 655.011719 703.191406 677.335938 680.722656 C 715.421875 642.394531 718.085938 639.335938 720.453125 631.238281 C 724.78125 616.445312 723.085938 611.867188 702.15625 581.878906 C 694.457031 570.84375 688.15625 561.148438 688.15625 560.335938 C 688.15625 559.523438 692.355469 550.035156 697.484375 539.253906 C 702.617188 528.46875 708.125 515.902344 709.726562 511.328125 C 711.324219 506.753906 713.710938 502.691406 715.027344 502.296875 C 716.34375 501.902344 727.742188 499.75 740.359375 497.507812 C 752.972656 495.269531 766.273438 492.351562 769.917969 491.027344 C 778.023438 488.074219 787.023438 478.453125 789.28125 470.324219 C 790.332031 466.542969 790.964844 441.292969 790.96875 402.902344 C 790.976562 336.335938 791.101562 337.339844 782.023438 328.71875 C 775.511719 322.535156 769.261719 320.441406 742.730469 315.5625 C 729.679688 313.164062 718.195312 310.566406 717.207031 309.792969 C 716.222656 309.019531 713.136719 301.816406 710.351562 293.792969 C 707.566406 285.769531 702.054688 273.117188 698.101562 265.679688 L 690.914062 252.160156 L 708.539062 229.296875 C 730.921875 200.265625 732.855469 193.761719 724.257812 176.453125 C 720.34375 168.574219 645.390625 92.722656 637.535156 88.691406 C 629.476562 84.554688 621.113281 83.457031 613.4375 85.519531 C 609.574219 86.554688 597.050781 94.03125 584.160156 102.988281 C 571.769531 111.597656 561.015625 118.640625 560.265625 118.640625 C 559.519531 118.640625 552.214844 115.53125 544.039062 111.734375 C 535.867188 107.933594 521.6875 102.199219 512.535156 98.988281 L 495.894531 93.15625 L 491.375 68.46875 C 485.5 36.34375 484.84375 34.183594 478.878906 27.390625 C 468.835938 15.953125 468.433594 15.894531 400.960938 15.855469 L 340.765625 15.820312 Z M 377.316406 168.601562 C 285.964844 182.707031 209.179688 249.371094 182.878906 337.410156 C 174.769531 364.566406 173.316406 375.339844 173.355469 408.125 C 173.386719 433.953125 173.960938 441.59375 176.894531 455.085938 C 183.6875 486.378906 196.046875 515.746094 213.542969 542.1875 L 223.222656 556.816406 L 230.792969 547.722656 C 253.710938 520.1875 284.765625 498.84375 328.035156 480.878906 L 340.445312 475.722656 L 354.46875 481.460938 C 385.738281 494.25 412.253906 494.914062 451.117188 483.878906 C 478.941406 475.980469 478.984375 475.984375 505.964844 488.84375 C 535.898438 503.109375 563.804688 523.796875 584.402344 546.988281 L 593.230469 556.925781 L 602.894531 542.242188 C 622.933594 511.792969 636.628906 479.738281 647.316406 438.28125 C 653.59375 413.953125 653.65625 413.40625 652.789062 392.304688 C 648.625 290.871094 576.609375 201.097656 477.765625 174.113281 C 448.90625 166.238281 407.386719 163.957031 377.316406 168.601562 M 391.367188 246.691406 C 370.757812 249.917969 352.1875 259.367188 336.847656 274.425781 C 325.757812 285.316406 318.136719 297.511719 312.652344 313.140625 C 308.46875 325.074219 307.917969 328.699219 307.972656 344.058594 C 308.0625 371.453125 315.78125 390.964844 334.386719 410.855469 C 362.199219 440.585938 407.535156 449.230469 445.195312 431.988281 C 472.140625 419.652344 492.847656 394.523438 500.066406 365.414062 C 503.070312 353.292969 502.65625 328.855469 499.246094 317.253906 C 489.273438 283.324219 463.4375 257.632812 430.964844 249.355469 C 418.804688 246.253906 401.558594 245.09375 391.367188 246.691406"
    />
  </g>
</svg>
