<svg xmlns="http://www.w3.org/2000/svg" xmlns:xlink="http://www.w3.org/1999/xlink" width="1080" zoomAndPan="magnify" viewBox="0 0 810 817.92" height="1080" preserveAspectRatio="xMidYMid meet" version="1.2">
  <g id="b13d74066b">
    <path style="stroke:none;fill-rule:evenodd;fill:currentColor;fill-opacity:1;" d="M 363.121094 111.660156 C 259.40625 127.777344 172.53125 199.925781 138.285156 298.390625 L 133.8125 311.253906 L 124.597656 312.089844 C 105.328125 313.835938 79.109375 331.488281 66.425781 351.261719 C 45.550781 383.789062 41.132812 439.769531 55.988281 483.4375 C 69.304688 522.578125 94.117188 548.425781 123.445312 553.703125 C 132.371094 555.3125 135.738281 555.132812 149.28125 552.328125 C 177.421875 546.5 186.703125 539.023438 186.699219 522.179688 C 186.695312 517.308594 182.058594 482.488281 176.394531 444.808594 C 166.339844 377.933594 166.136719 375.953125 167.855469 361.761719 C 183.78125 230.292969 305.472656 136.316406 436.636719 154.183594 C 543.660156 168.765625 626.054688 250.863281 641.492188 358.296875 L 643.988281 375.695312 L 636.78125 423.941406 C 629.003906 475.980469 627.40625 481.820312 614.3125 505.957031 C 586.707031 556.839844 535.824219 599.222656 480.304688 617.582031 C 453.820312 626.335938 438.859375 628.425781 395.378906 629.4375 L 354.917969 630.378906 L 349.332031 634.640625 C 340.753906 641.191406 338.5625 647.40625 338.5625 665.203125 C 338.5625 683.507812 341.703125 690.859375 352.128906 696.972656 C 358.574219 700.75 358.882812 700.769531 404.925781 700.769531 C 449.78125 700.769531 451.429688 700.660156 457.460938 697.273438 C 465.59375 692.703125 470.449219 684.652344 471.4375 674.121094 L 472.230469 665.660156 L 491.097656 659.476562 C 547.964844 640.835938 600.636719 602.777344 632.910156 557.015625 C 636.664062 551.6875 640.261719 547.328125 640.898438 547.328125 C 641.53125 547.328125 648.691406 549.105469 656.800781 551.277344 C 674.628906 556.054688 681.570312 556.207031 694.710938 552.09375 C 719.335938 544.382812 742.296875 517.882812 753.894531 483.789062 C 766.53125 446.628906 765.601562 400.417969 751.53125 366.722656 C 738.296875 335.035156 717.289062 317.046875 688.660156 312.894531 L 675.722656 311.015625 L 672.230469 300.648438 C 637.828125 198.46875 546.589844 123.933594 439.84375 110.800781 C 421.417969 108.53125 380.285156 108.996094 363.121094 111.660156 M 369.5625 198.601562 C 323.917969 207.1875 281.242188 232.132812 253.964844 266.164062 C 230.769531 295.101562 217.933594 324.105469 211.976562 361.03125 C 208.828125 380.546875 210.707031 421.089844 215.628906 439.878906 C 223.011719 468.054688 235.953125 493.71875 253.757812 515.480469 L 262.433594 526.085938 L 256.109375 554.503906 C 249.242188 585.359375 249.167969 590.957031 255.546875 597.335938 C 262.183594 603.972656 267.101562 602.585938 297.917969 585.421875 L 326.082031 569.730469 L 332.734375 572.675781 C 344.65625 577.945312 370.082031 583.660156 387.726562 585.03125 C 490.617188 593.027344 577.226562 528.027344 596.558594 428.300781 C 600.296875 409.023438 600.570312 376.414062 597.164062 356.523438 C 584.042969 279.898438 529.773438 221.644531 452.589844 201.339844 C 439.800781 197.976562 433.097656 197.265625 409.746094 196.800781 C 389.851562 196.402344 378.542969 196.910156 369.5625 198.601562 M 293.332031 356.886719 C 282.207031 360.832031 272.441406 372.871094 270.003906 385.636719 C 268.5625 393.203125 271.679688 405.457031 276.867188 412.617188 C 279.691406 416.515625 284.703125 420.476562 290.257812 423.191406 C 304.386719 430.105469 320.214844 427.550781 331.308594 416.574219 C 341.453125 406.53125 344.6875 388.703125 338.742188 375.605469 C 333.203125 363.414062 317.972656 354.078125 304.246094 354.464844 C 301.804688 354.535156 296.894531 355.625 293.332031 356.886719 M 393.527344 356.503906 C 383.953125 360.070312 376.464844 366.8125 372.417969 375.511719 C 365.59375 390.167969 368.164062 404.59375 379.644531 416.078125 C 398.214844 434.644531 427.769531 428.898438 438.179688 404.695312 C 443.746094 391.765625 441.03125 376.351562 431.3125 365.65625 C 423.035156 356.546875 405.082031 352.195312 393.527344 356.503906 M 493.328125 356.210938 C 485.578125 358.273438 474.847656 367.703125 471.257812 375.605469 C 465.3125 388.703125 468.546875 406.53125 478.695312 416.574219 C 485.292969 423.109375 491.324219 425.761719 501.691406 426.703125 C 519.328125 428.300781 535.546875 416.191406 539.316406 398.609375 C 541.339844 389.179688 540.292969 382.777344 535.148438 373.113281 C 527.195312 358.164062 510.832031 351.546875 493.328125 356.210938 "/>
    <path style="stroke:none;fill-rule:evenodd;fill:currentColor;fill-opacity:1;" d="M 363.121094 111.660156 C 259.40625 127.777344 172.53125 199.925781 138.285156 298.390625 L 133.8125 311.253906 L 124.597656 312.089844 C 105.328125 313.835938 79.109375 331.488281 66.425781 351.261719 C 45.550781 383.789062 41.132812 439.769531 55.988281 483.4375 C 69.304688 522.578125 94.117188 548.425781 123.445312 553.703125 C 132.371094 555.3125 135.738281 555.132812 149.28125 552.328125 C 177.421875 546.5 186.703125 539.023438 186.699219 522.179688 C 186.695312 517.308594 182.058594 482.488281 176.394531 444.808594 C 166.339844 377.933594 166.136719 375.953125 167.855469 361.761719 C 183.78125 230.292969 305.472656 136.316406 436.636719 154.183594 C 543.660156 168.765625 626.054688 250.863281 641.492188 358.296875 L 643.988281 375.695312 L 636.78125 423.941406 C 629.003906 475.980469 627.40625 481.820312 614.3125 505.957031 C 586.707031 556.839844 535.824219 599.222656 480.304688 617.582031 C 453.820312 626.335938 438.859375 628.425781 395.378906 629.4375 L 354.917969 630.378906 L 349.332031 634.640625 C 340.753906 641.191406 338.5625 647.40625 338.5625 665.203125 C 338.5625 683.507812 341.703125 690.859375 352.128906 696.972656 C 358.574219 700.75 358.882812 700.769531 404.925781 700.769531 C 449.78125 700.769531 451.429688 700.660156 457.460938 697.273438 C 465.59375 692.703125 470.449219 684.652344 471.4375 674.121094 L 472.230469 665.660156 L 491.097656 659.476562 C 547.964844 640.835938 600.636719 602.777344 632.910156 557.015625 C 636.664062 551.6875 640.261719 547.328125 640.898438 547.328125 C 641.53125 547.328125 648.691406 549.105469 656.800781 551.277344 C 674.628906 556.054688 681.570312 556.207031 694.710938 552.09375 C 719.335938 544.382812 742.296875 517.882812 753.894531 483.789062 C 766.53125 446.628906 765.601562 400.417969 751.53125 366.722656 C 738.296875 335.035156 717.289062 317.046875 688.660156 312.894531 L 675.722656 311.015625 L 672.230469 300.648438 C 637.828125 198.46875 546.589844 123.933594 439.84375 110.800781 C 421.417969 108.53125 380.285156 108.996094 363.121094 111.660156 M 369.5625 198.601562 C 323.917969 207.1875 281.242188 232.132812 253.964844 266.164062 C 230.769531 295.101562 217.933594 324.105469 211.976562 361.03125 C 208.828125 380.546875 210.707031 421.089844 215.628906 439.878906 C 223.011719 468.054688 235.953125 493.71875 253.757812 515.480469 L 262.433594 526.085938 L 256.109375 554.503906 C 249.242188 585.359375 249.167969 590.957031 255.546875 597.335938 C 262.183594 603.972656 267.101562 602.585938 297.917969 585.421875 L 326.082031 569.730469 L 332.734375 572.675781 C 344.65625 577.945312 370.082031 583.660156 387.726562 585.03125 C 490.617188 593.027344 577.226562 528.027344 596.558594 428.300781 C 600.296875 409.023438 600.570312 376.414062 597.164062 356.523438 C 584.042969 279.898438 529.773438 221.644531 452.589844 201.339844 C 439.800781 197.976562 433.097656 197.265625 409.746094 196.800781 C 389.851562 196.402344 378.542969 196.910156 369.5625 198.601562 M 293.332031 356.886719 C 282.207031 360.832031 272.441406 372.871094 270.003906 385.636719 C 268.5625 393.203125 271.679688 405.457031 276.867188 412.617188 C 279.691406 416.515625 284.703125 420.476562 290.257812 423.191406 C 304.386719 430.105469 320.214844 427.550781 331.308594 416.574219 C 341.453125 406.53125 344.6875 388.703125 338.742188 375.605469 C 333.203125 363.414062 317.972656 354.078125 304.246094 354.464844 C 301.804688 354.535156 296.894531 355.625 293.332031 356.886719 M 393.527344 356.503906 C 383.953125 360.070312 376.464844 366.8125 372.417969 375.511719 C 365.59375 390.167969 368.164062 404.59375 379.644531 416.078125 C 398.214844 434.644531 427.769531 428.898438 438.179688 404.695312 C 443.746094 391.765625 441.03125 376.351562 431.3125 365.65625 C 423.035156 356.546875 405.082031 352.195312 393.527344 356.503906 M 493.328125 356.210938 C 485.578125 358.273438 474.847656 367.703125 471.257812 375.605469 C 465.3125 388.703125 468.546875 406.53125 478.695312 416.574219 C 485.292969 423.109375 491.324219 425.761719 501.691406 426.703125 C 519.328125 428.300781 535.546875 416.191406 539.316406 398.609375 C 541.339844 389.179688 540.292969 382.777344 535.148438 373.113281 C 527.195312 358.164062 510.832031 351.546875 493.328125 356.210938 "/>
  </g>
</svg>
