<svg xmlns="http://www.w3.org/2000/svg" xmlns:xlink="http://www.w3.org/1999/xlink" width="1080" zoomAndPan="magnify" viewBox="0 0 810 817.92" height="1080" preserveAspectRatio="xMidYMid meet" version="1.2"><g id="fecd228d7e"><path style=" stroke:none;fill-rule:evenodd;fill:currentColor;fill-opacity:1;" d="M 62.9375 15.726562 C 40.238281 22.984375 21.894531 41.820312 15.203125 64.75 C 12.957031 72.445312 12.695312 101.890625 12.695312 347.367188 C 12.695312 611.328125 12.804688 621.746094 15.675781 630.972656 C 19.804688 644.246094 25.140625 652.742188 35.464844 662.511719 C 46.273438 672.730469 60.472656 679.597656 75.179688 681.714844 C 85.195312 683.15625 349.632812 684.226562 349.632812 682.828125 C 349.632812 682.527344 348.171875 678.078125 346.382812 672.941406 C 329.78125 625.238281 331.140625 575.753906 350.429688 525.886719 C 355.828125 511.925781 370.855469 484.164062 380.980469 469.449219 C 383.75 465.421875 386.015625 461.65625 386.015625 461.082031 C 386.015625 460.503906 384.59375 458.222656 382.855469 456.011719 C 380.148438 452.574219 379.691406 449.59375 379.691406 435.472656 C 379.691406 419.324219 379.792969 418.851562 384.3125 414.328125 C 388.878906 409.765625 389.164062 409.707031 406.855469 409.699219 L 424.773438 409.695312 L 439.28125 392.695312 C 447.261719 383.347656 456.714844 372.355469 460.285156 368.273438 L 466.785156 360.847656 L 456.410156 346.628906 L 422.675781 346.527344 L 388.9375 346.429688 L 384.3125 341.808594 C 379.816406 337.3125 379.691406 336.742188 379.691406 321.316406 C 379.691406 293.484375 380.996094 292.648438 424.488281 292.648438 L 455.363281 292.648438 L 458.6875 287.265625 C 462.207031 281.574219 472.644531 271.449219 476.355469 270.132812 C 477.835938 269.605469 474.535156 265.1875 466.289062 256.652344 C 453.460938 243.375 446.519531 231.371094 444.964844 219.773438 L 444.132812 213.554688 L 274.683594 213.546875 C 109.644531 213.542969 105.101562 213.460938 100.191406 210.464844 C 92.960938 206.058594 91.808594 199.835938 91.796875 165.109375 C 91.785156 130.316406 92.304688 126.464844 97.734375 121.035156 L 101.710938 117.058594 L 289.84375 117.058594 C 421.582031 117.058594 478.933594 117.570312 481.167969 118.765625 C 486.027344 121.367188 488.839844 129.996094 488.839844 142.292969 L 488.839844 153.394531 L 497.933594 152.527344 C 503.679688 151.976562 510.234375 152.527344 515.730469 154.015625 C 520.875 155.410156 524.652344 155.757812 524.972656 154.871094 C 525.269531 154.042969 527.761719 150.023438 530.507812 145.933594 C 536.914062 136.402344 549.03125 127.246094 559.75 123.832031 L 568.179688 121.148438 L 567.660156 93.398438 C 567.148438 65.972656 567.082031 65.523438 562.105469 55.011719 C 553.261719 36.34375 536.511719 21.671875 517.167969 15.652344 C 507.910156 12.769531 499.1875 12.660156 289.777344 12.742188 C 83.058594 12.820312 71.554688 12.972656 62.9375 15.726562 M 563.585938 148.859375 C 555.234375 152.996094 550.082031 158.996094 546.464844 168.804688 C 542.925781 178.390625 540.378906 181.367188 533.867188 183.515625 C 529.429688 184.980469 527.242188 184.636719 519.082031 181.203125 C 501.898438 173.972656 487.304688 176.609375 476.515625 188.898438 C 471.621094 194.472656 468.300781 203.070312 468.285156 210.207031 C 468.257812 220.609375 472.101562 226.988281 488.636719 244.003906 L 505.160156 261.007812 L 651.269531 261.007812 L 667.984375 243.871094 C 685.199219 226.21875 688.128906 221.179688 688.144531 209.152344 C 688.160156 202.347656 684.292969 193.304688 678.976562 187.703125 C 668.339844 176.496094 653.894531 174.238281 637.351562 181.203125 C 629.1875 184.636719 627 184.980469 622.5625 183.515625 C 615.902344 181.316406 613.019531 178.003906 610.574219 169.746094 C 604.707031 149.890625 581.945312 139.773438 563.585938 148.859375 M 492.683594 289.3125 C 479.03125 295.511719 471.039062 311.859375 474.648438 326.191406 C 476.953125 335.332031 484.40625 344.421875 492.683594 348.183594 C 498.671875 350.902344 504.652344 351.105469 578.214844 351.105469 C 666.824219 351.105469 664.710938 351.359375 675.03125 339.605469 C 683.171875 330.332031 685.125 320.050781 680.976562 308.292969 C 677.96875 299.765625 671.929688 293.15625 663.636719 289.320312 C 657.746094 286.589844 651.871094 286.390625 578.214844 286.390625 C 504.652344 286.390625 498.671875 286.59375 492.683594 289.3125 M 117.890625 294.140625 C 110.34375 297.230469 108.425781 301.675781 107.847656 317.417969 C 107.496094 326.933594 108.007812 334.089844 109.253906 337.101562 C 112.824219 345.714844 116.410156 346.429688 155.898438 346.429688 L 191.691406 346.429688 L 196.3125 341.808594 C 200.84375 337.273438 200.9375 336.847656 200.9375 320.347656 C 200.9375 311.089844 200.167969 302.074219 199.230469 300.320312 C 195.730469 293.78125 188.90625 292.640625 153.925781 292.746094 C 135.847656 292.800781 119.628906 293.429688 117.890625 294.140625 M 253.753906 294.199219 C 251.917969 294.9375 248.890625 297.484375 247.03125 299.847656 C 244.121094 303.546875 243.648438 306.222656 243.648438 319.039062 C 243.648438 334.828125 245.746094 341.738281 251.472656 344.800781 C 253.304688 345.785156 269.039062 346.429688 291.121094 346.429688 L 327.730469 346.429688 L 332.355469 341.808594 C 336.851562 337.3125 336.980469 336.742188 336.980469 321.316406 C 336.980469 293.230469 335.957031 292.609375 290.074219 292.746094 C 271.9375 292.800781 255.589844 293.457031 253.753906 294.199219 M 474.40625 389.632812 C 433.398438 435.621094 397.230469 485.550781 379.773438 520.269531 C 331.671875 615.941406 370.230469 723.578125 470.648438 773.945312 C 523.359375 800.382812 598.910156 805.050781 657.386719 785.484375 C 721.160156 764.144531 770 716.964844 789.296875 658.0625 C 800.421875 624.097656 799.871094 583.0625 787.800781 547.035156 C 774.792969 508.210938 739.574219 455.457031 683.9375 391.46875 L 668.382812 373.574219 L 662.054688 374.632812 C 653.691406 376.039062 502.414062 376.007812 494.742188 374.605469 C 488.78125 373.511719 488.773438 373.515625 474.40625 389.632812 M 115.121094 411.414062 C 109.796875 414.515625 107.605469 421.621094 107.605469 435.808594 C 107.605469 450.253906 109.859375 457.296875 115.429688 460.277344 C 117.269531 461.261719 133.113281 461.90625 155.453125 461.90625 L 192.4375 461.90625 L 196.6875 457.472656 C 200.769531 453.210938 200.9375 452.347656 200.9375 435.808594 C 200.9375 419.265625 200.769531 418.402344 196.6875 414.144531 L 192.4375 409.707031 L 155.164062 409.753906 C 132.800781 409.785156 116.78125 410.449219 115.121094 411.414062 M 248.273438 414.328125 C 243.742188 418.863281 243.648438 419.289062 243.648438 435.808594 C 243.648438 452.324219 243.742188 452.753906 248.273438 457.285156 L 252.894531 461.90625 L 327.730469 461.90625 L 332.355469 457.285156 C 336.886719 452.753906 336.980469 452.324219 336.980469 435.808594 C 336.980469 419.289062 336.886719 418.863281 332.355469 414.328125 L 327.730469 409.707031 L 252.894531 409.707031 Z M 571.128906 451.285156 C 565.839844 453.960938 563.238281 459.617188 563.210938 468.507812 C 563.1875 475.550781 562.949219 475.945312 558.046875 477.007812 C 543.375 480.183594 525.945312 493.613281 519.03125 507.070312 C 508.617188 527.34375 512.945312 552.765625 529.398438 567.929688 C 539.097656 576.867188 552.355469 582.546875 575.050781 587.480469 C 596.722656 592.191406 609.824219 598.121094 614.769531 605.453125 C 629.164062 626.820312 608.511719 647.0625 574.335938 645.085938 C 564.859375 644.535156 560.449219 643.394531 553.757812 639.753906 C 544.6875 634.824219 537.15625 626.039062 535.488281 618.441406 C 533.171875 607.882812 519.179688 603.851562 511.5 611.527344 C 507.867188 615.164062 507.515625 616.484375 508.339844 623.449219 C 510.777344 644.027344 531.128906 664.378906 555.890625 671.003906 L 562.847656 672.863281 L 563.519531 682.132812 C 564.300781 692.9375 567.566406 697.234375 576.054688 698.609375 C 580.507812 699.332031 582.535156 698.722656 586.210938 695.5625 C 590.015625 692.289062 590.949219 690.042969 591.628906 682.523438 L 592.453125 673.433594 L 600.828125 671.300781 C 629.980469 663.863281 647.132812 644.910156 647.214844 620.050781 C 647.3125 588.429688 627.792969 570.132812 583.332031 560.167969 C 557.175781 554.304688 549.3125 550.363281 544.503906 540.71875 C 538.082031 527.839844 543.269531 515.285156 558.238281 507.464844 C 577.164062 497.578125 602.269531 503.703125 612.296875 520.65625 C 618.820312 531.679688 622.445312 534.675781 629.277344 534.675781 C 633.609375 534.675781 636.355469 533.632812 638.660156 531.113281 C 644.128906 525.140625 644.4375 521.179688 640.160156 511.84375 C 632.902344 495.984375 618.378906 483.472656 600.480469 477.652344 L 592.453125 475.046875 L 591.628906 465.9375 C 590.957031 458.503906 590 456.140625 586.398438 453.042969 C 581.5 448.828125 577.003906 448.3125 571.128906 451.285156 M 115.339844 527.554688 C 108.984375 531.007812 107.222656 537.296875 107.847656 554.328125 C 108.359375 568.34375 108.707031 569.71875 112.78125 573.792969 L 117.164062 578.175781 L 152.183594 578.660156 C 200.699219 579.328125 200.9375 579.195312 200.9375 551.601562 C 200.9375 534.734375 200.855469 534.351562 196.3125 529.808594 L 191.691406 525.183594 L 155.582031 525.246094 C 127.480469 525.296875 118.554688 525.808594 115.339844 527.554688 M 252.035156 526.785156 C 245.921875 529.246094 243.648438 536.289062 243.648438 552.761719 C 243.648438 567.1875 243.847656 568.070312 248.261719 573.007812 L 252.875 578.175781 L 287.785156 578.65625 C 336.019531 579.320312 336.980469 578.765625 336.980469 550.296875 C 336.980469 534.871094 336.851562 534.300781 332.355469 529.808594 L 327.730469 525.183594 L 291.621094 525.28125 C 271.761719 525.339844 253.949219 526.011719 252.035156 526.785156 "/></g></svg>