<svg xmlns="http://www.w3.org/2000/svg" xmlns:xlink="http://www.w3.org/1999/xlink" width="1080" zoomAndPan="magnify" viewBox="0 0 810 809.999993" height="1080" preserveAspectRatio="xMidYMid meet" version="1.2"><g id="598416eee1"><path style=" stroke:none;fill-rule:evenodd;fill:currentColor;fill-opacity:1;" d="M 287.929688 74.164062 C 255.90625 81.140625 224.40625 99.058594 202.941406 122.507812 C 171.023438 157.375 155.136719 204.183594 159.820312 249.566406 C 162.019531 270.894531 166.363281 285.769531 176.335938 306.125 C 199.4375 353.269531 241.363281 384.945312 293.765625 394.835938 C 312.492188 398.371094 345.089844 397.207031 363.074219 392.359375 C 414.101562 378.613281 455.238281 342.230469 474.457031 293.851562 C 490.164062 254.308594 489.027344 205.425781 471.496094 166.761719 C 460.785156 143.140625 441.515625 119.355469 419.613281 102.722656 C 406.238281 92.566406 381.199219 80.308594 364.65625 75.816406 C 346.46875 70.878906 306.921875 70.027344 287.929688 74.164062 M 588.277344 274.472656 C 528.714844 285.800781 483.570312 331.152344 473.003906 390.273438 C 470.199219 405.96875 471.765625 437.128906 476.128906 452.460938 C 489.921875 500.917969 528.941406 538.722656 578.316406 551.46875 C 592.648438 555.167969 596.097656 555.464844 616.992188 554.789062 C 643.707031 553.925781 654.132812 551.375 676.921875 540.125 L 691.765625 532.800781 L 723.59375 564.445312 C 741.097656 581.847656 756.976562 596.875 758.875 597.839844 C 763.265625 600.0625 775.230469 600.097656 781.023438 597.902344 C 790.082031 594.46875 798.820312 582.136719 798.882812 572.695312 C 798.960938 560.753906 796.273438 557.050781 763.347656 523.703125 L 731.273438 491.21875 L 735.796875 484.101562 C 747.609375 465.507812 755.601562 431.625 754.085938 406.582031 C 750.308594 344.289062 707.507812 292.203125 647.363281 276.710938 C 631.0625 272.511719 603.976562 271.484375 588.277344 274.472656 M 595.050781 331.5 C 556.132812 339.945312 528.398438 373.964844 528.398438 413.25 C 528.398438 437.609375 536.4375 457.488281 552.894531 473.816406 C 569.296875 490.097656 589.253906 498.339844 612.246094 498.339844 C 635.929688 498.339844 654.707031 490.597656 671.714844 473.816406 C 685.136719 460.578125 691.917969 447.832031 695.664062 428.816406 C 704.328125 384.851562 674.605469 340.828125 629.855469 331.339844 C 616.984375 328.613281 608.171875 328.652344 595.050781 331.5 M 137.636719 429.503906 C 123.984375 432.574219 103.984375 442.675781 93.832031 451.628906 C 84.820312 459.570312 73.238281 476.140625 68.917969 487.265625 C 67.398438 491.179688 53.992188 532.117188 39.128906 578.230469 C 12.597656 660.542969 12.097656 662.339844 11.992188 676.316406 C 11.890625 689.15625 12.375 691.601562 16.910156 701.191406 C 23.613281 715.363281 34.273438 726.496094 47.261719 732.890625 L 57.675781 738.015625 L 587.722656 738.015625 L 597.117188 733.269531 C 610.117188 726.703125 620.816406 715.789062 626.945312 702.855469 C 631.605469 693.015625 632.023438 690.84375 632.023438 676.316406 C 632.023438 660.953125 631.683594 659.449219 620.242188 624.109375 C 613.761719 604.097656 608.421875 587.617188 608.375 587.484375 C 608.328125 587.351562 601.851562 586.464844 593.984375 585.511719 C 565.921875 582.121094 538.730469 572.296875 516.21875 557.414062 C 504.851562 549.898438 484.324219 530.503906 475.460938 518.90625 C 460.90625 499.863281 448.476562 473.09375 443.992188 451.128906 C 442.6875 444.738281 441.328125 439.21875 440.96875 438.863281 C 440.613281 438.507812 436.269531 439.609375 431.3125 441.3125 C 420.109375 445.167969 391.425781 451.511719 372.570312 454.304688 C 353.984375 457.058594 291.882812 457.078125 272.902344 454.339844 C 246.796875 450.574219 227.253906 445.917969 201.230469 437.261719 C 171.4375 427.355469 155.710938 425.433594 137.636719 429.503906 "/></g></svg>