<svg xmlns="http://www.w3.org/2000/svg" xmlns:xlink="http://www.w3.org/1999/xlink" width="1080" zoomAndPan="magnify" viewBox="0 0 810 817.92" height="1080" preserveAspectRatio="xMidYMid meet" version="1.2"><g id="4ac670d89d"><path style=" stroke:none;fill-rule:evenodd;fill:currentColor;fill-opacity:1;" d="M 70.09375 27.605469 C 53.847656 32.683594 37.914062 46.855469 30.378906 62.929688 L 26.140625 71.976562 L 26.140625 737.945312 L 30.40625 747.046875 C 36.371094 759.773438 48.925781 772.519531 61.617188 778.730469 L 72.015625 783.820312 L 459.574219 783.820312 L 468.675781 779.554688 C 481.363281 773.609375 494.089844 761.085938 500.332031 748.402344 L 505.449219 738.015625 L 505.878906 601.660156 L 506.308594 465.308594 L 500.339844 466.816406 C 496.109375 467.890625 491.878906 468.972656 487.652344 470.066406 L 480.929688 471.808594 L 480.929688 552.144531 L 485.160156 558.53125 C 492.414062 569.496094 492.273438 587.703125 484.84375 598.652344 L 480.929688 604.417969 L 480.929688 664.171875 C 480.929688 733.035156 480.449219 736.46875 469.273438 747.644531 C 456.964844 759.953125 468.363281 759.300781 265.792969 759.300781 C 67.589844 759.300781 75.601562 759.691406 63.988281 749.496094 C 60.90625 746.789062 56.824219 741.65625 54.917969 738.09375 L 51.449219 731.617188 L 51.449219 404.960938 C 51.449219 89.273438 51.550781 78.117188 54.398438 72.765625 C 58.527344 65.015625 64.613281 58.820312 72.015625 54.824219 L 78.34375 51.410156 L 445.640625 50.558594 L 447.53125 42.101562 C 448.574219 37.449219 450.4375 32.300781 451.679688 30.664062 C 452.921875 29.023438 453.960938 27.148438 453.988281 26.496094 C 454.015625 25.84375 369.152344 25.359375 265.398438 25.417969 C 114.035156 25.5 75.441406 25.933594 70.09375 27.605469 M 475.808594 40.355469 C 473.625 42.539062 471.410156 46.988281 470.886719 50.242188 C 468.917969 62.492188 458.585938 97.238281 451.597656 115.113281 C 427.878906 175.789062 391.261719 228.847656 345.6875 268.578125 L 334.628906 278.222656 L 338.773438 282.667969 C 344.347656 288.636719 433.5 443.386719 436.566406 452.414062 L 439.113281 459.917969 C 439.1875 460.125 447.734375 457.445312 458.109375 453.960938 C 497.09375 440.859375 530.582031 435.84375 579.007812 435.84375 C 624.714844 435.84375 656.917969 440.347656 696.757812 452.308594 C 708.804688 455.925781 713.0625 456.585938 716.515625 455.382812 C 721.734375 453.5625 725.230469 447.785156 724.246094 442.617188 C 723.242188 437.363281 495.710938 42.503906 491.753906 39.152344 C 487.078125 35.1875 480.476562 35.683594 475.808594 40.355469 M 644.34375 70.394531 C 642.476562 71.699219 639.859375 76.148438 638.519531 80.28125 C 634.160156 93.730469 626.460938 126.242188 626.460938 131.203125 C 626.460938 136.042969 630.980469 142.210938 634.765625 142.542969 C 640.292969 143.035156 644.953125 141.828125 647.632812 139.222656 C 650.761719 136.175781 664.363281 88.324219 664.40625 80.210938 C 664.453125 70.738281 652.320312 64.804688 644.34375 70.394531 M 96.699219 80.097656 C 87.582031 84.640625 80.160156 93.359375 77.46875 102.679688 C 76.355469 106.53125 75.980469 204.78125 76.296875 408.25 L 76.761719 708.136719 L 81.546875 715.882812 C 84.515625 720.679688 89.28125 725.445312 94.078125 728.414062 L 101.824219 733.199219 L 429.765625 733.199219 L 437.511719 728.414062 C 442.304688 725.445312 447.078125 720.679688 450.042969 715.886719 L 454.828125 708.148438 L 455.296875 664.910156 C 455.554688 641.132812 455.40625 621.675781 454.972656 621.675781 C 454.539062 621.675781 443.699219 627.820312 430.882812 635.332031 C 400.679688 653.027344 396.554688 654.820312 385.933594 654.863281 C 368.980469 654.929688 365.464844 652.011719 326.128906 605.230469 C 286.199219 557.738281 288.011719 559.027344 270.765625 565.777344 C 239.511719 578.007812 207.769531 576.835938 178 562.363281 C 154.398438 550.886719 137.675781 534.449219 126.503906 511.738281 C 117.414062 493.257812 114.796875 481.753906 114.804688 460.324219 C 114.8125 445.78125 115.550781 439.769531 118.476562 430.324219 C 125.878906 406.46875 138.945312 386.492188 155.828125 373.226562 C 163.464844 367.222656 167.046875 363.09375 169.441406 357.523438 C 171.230469 353.367188 174.601562 348.152344 176.929688 345.933594 C 179.261719 343.714844 206.320312 327.378906 237.066406 309.632812 C 267.8125 291.882812 299.132812 273.003906 306.667969 267.675781 C 361.765625 228.722656 407.296875 166.773438 431.710938 97.554688 C 434.421875 89.871094 436.636719 82.898438 436.636719 82.050781 C 436.636719 78.238281 425.308594 75.929688 406.5625 75.929688 C 388.386719 75.929688 387.265625 76.117188 383.574219 79.8125 C 379.9375 83.449219 379.691406 84.769531 379.691406 100.5 C 379.691406 116.960938 379.597656 117.394531 375.066406 121.925781 L 370.441406 126.550781 L 186.457031 126.550781 L 181.832031 121.925781 C 177.304688 117.394531 177.210938 116.960938 177.210938 100.5 C 177.210938 84.769531 176.960938 83.449219 173.328125 79.8125 C 169.457031 75.945312 169.324219 75.929688 137.253906 75.929688 C 105.648438 75.929688 104.914062 76.007812 96.699219 80.097656 M 723.707031 159.085938 C 710.679688 166.542969 698.773438 174.09375 697.25 175.871094 C 690.761719 183.445312 696.976562 196.152344 707.175781 196.152344 C 712.125 196.152344 752.941406 173.972656 760.527344 167.160156 C 765.433594 162.75 765.382812 153.632812 760.425781 148.972656 C 754.214844 143.136719 749.140625 144.539062 723.707031 159.085938 M 594.824219 165.554688 C 594.824219 167.050781 662.9375 285.105469 665.277344 287.660156 C 666.875 289.410156 668.140625 288.464844 672.320312 282.390625 C 681.445312 269.128906 684.167969 259.246094 684.089844 239.652344 C 684.007812 218.894531 680.90625 209.277344 669.410156 194.140625 C 654.941406 175.089844 633.0625 164.515625 608.105469 164.515625 C 600.800781 164.515625 594.824219 164.984375 594.824219 165.554688 M 709.441406 261.730469 C 704.835938 266.332031 704.4375 272.910156 708.445312 278.121094 C 710.679688 281.023438 716.839844 283.246094 738.070312 288.792969 C 752.816406 292.644531 766.890625 295.800781 769.347656 295.804688 C 774.992188 295.8125 783.070312 288.074219 783.070312 282.664062 C 783.070312 274.46875 779.015625 272.246094 750.609375 264.886719 C 719.070312 256.71875 714.777344 256.390625 709.441406 261.730469 M 304.527344 299.179688 C 278.476562 313.09375 196.285156 361.648438 193.425781 364.816406 C 191.46875 366.980469 189.863281 370.332031 189.863281 372.261719 C 189.863281 377.105469 280.253906 533.117188 285.199219 536.808594 C 288.589844 539.339844 289.960938 539.511719 294.492188 537.980469 C 297.414062 536.988281 324.695312 521.78125 355.117188 504.183594 C 412.136719 471.199219 416.066406 468.265625 413.980469 460.21875 C 412.332031 453.835938 324.535156 303.203125 320.230469 299.371094 C 315.269531 294.945312 312.511719 294.914062 304.527344 299.179688 M 162.121094 400.117188 C 144.8125 417.957031 136.839844 437.507812 136.921875 461.90625 C 137.089844 511.425781 176.09375 550.492188 225.359375 550.492188 C 237.960938 550.492188 257.886719 546.445312 257.886719 543.886719 C 257.886719 542.121094 174.433594 397.160156 171.71875 394.210938 C 170.207031 392.566406 168.308594 393.738281 162.121094 400.117188 M 362.398438 528.433594 C 338.535156 542.273438 318.417969 554.183594 317.699219 554.90625 C 316.4375 556.164062 367.050781 617.921875 376.636719 626.820312 C 379.210938 629.210938 382.945312 631.167969 384.933594 631.167969 C 387.996094 631.167969 421.761719 612.703125 454.429688 593.160156 C 463.167969 587.933594 466.691406 583.375 466.691406 577.300781 C 466.691406 574.632812 409.597656 504.316406 406.808594 503.546875 C 406.25 503.394531 386.265625 514.589844 362.398438 528.433594 "/></g></svg>