<svg xmlns="http://www.w3.org/2000/svg" xmlns:xlink="http://www.w3.org/1999/xlink" width="1080" zoomAndPan="magnify" viewBox="0 0 810 817.92" height="1080" preserveAspectRatio="xMidYMid meet" version="1.2"><g id="d874ecc289"><path style=" stroke:none;fill-rule:evenodd;fill:currentColor;fill-opacity:1;" d="M 298.320312 18.332031 C 251.542969 28.777344 213.25 65.523438 200.597656 112.109375 C 196.171875 128.414062 195.84375 160.644531 199.957031 175.589844 C 205.550781 195.921875 215.175781 215.398438 215.175781 206.390625 C 215.175781 205.058594 217.40625 199.554688 220.128906 194.15625 C 226.464844 181.605469 240.066406 168.285156 253.703125 161.277344 C 261.171875 157.4375 264.097656 155.109375 263.539062 153.441406 C 263.105469 152.136719 260.960938 146.085938 258.777344 139.996094 C 252.253906 121.816406 253.746094 99.714844 262.679688 82.175781 C 266.90625 73.875 278.910156 61.160156 288.066406 55.285156 C 292.492188 52.445312 300.84375 48.808594 306.625 47.207031 C 348.921875 35.480469 390.402344 62.835938 397.121094 106.894531 C 399.082031 119.738281 396.59375 135.683594 390.886719 146.875 C 389.078125 150.417969 387.597656 153.640625 387.597656 154.035156 C 387.597656 154.425781 392.402344 157.429688 398.277344 160.703125 C 416.484375 170.851562 430.902344 187.707031 437.394531 206.433594 C 438.308594 209.078125 439.246094 208.113281 443.082031 200.589844 C 452.0625 182.964844 454.84375 169.417969 454.699219 143.949219 C 454.582031 123.429688 454.109375 119.597656 450.210938 107.566406 C 436.253906 64.515625 402.152344 31.351562 359.917969 19.757812 C 346.191406 15.988281 312.324219 15.203125 298.320312 18.332031 M 638.328125 18.160156 C 614.089844 23.492188 594.3125 34.035156 576.105469 51.324219 C 557.730469 68.773438 547.484375 85.527344 540.0625 110.246094 C 536.53125 122.003906 535.867188 127.261719 535.808594 143.949219 C 535.734375 165.488281 538.011719 177.945312 545.136719 194.953125 C 551.402344 209.921875 552.023438 210.222656 556.066406 200.273438 C 563.089844 182.996094 577.019531 168.636719 595.957031 159.15625 L 604.210938 155.023438 L 601.234375 149.882812 C 593.046875 135.742188 590.902344 112.207031 596.242188 95.054688 C 607.59375 58.582031 645.855469 37.15625 682.5625 46.71875 C 710.457031 53.984375 730.988281 76.664062 735.746094 105.476562 C 738.335938 121.167969 735.265625 137.207031 726.511719 153.660156 C 726.21875 154.214844 730.628906 157.273438 736.3125 160.453125 C 752.800781 169.671875 764.726562 181.792969 771.980469 196.703125 L 778.199219 209.480469 L 782.113281 200.628906 C 791.40625 179.613281 793.355469 170.039062 793.308594 145.53125 C 793.265625 118.75 791.246094 109.5 780.722656 87.792969 C 759.210938 43.425781 714.203125 15.574219 664.621094 15.945312 C 655.378906 16.011719 643.546875 17.011719 638.328125 18.160156 M 314.789062 63.84375 C 297.78125 67.507812 284.878906 78.097656 277.03125 94.839844 C 271.023438 107.648438 271.15625 125.160156 277.355469 138.414062 C 286.421875 157.796875 304.464844 169.261719 325.90625 169.261719 C 346.910156 169.261719 365.4375 157.914062 374.46875 139.527344 C 378.324219 131.675781 378.898438 128.660156 378.898438 116.269531 C 378.898438 103.914062 378.320312 100.851562 374.515625 93.105469 C 363.675781 71.03125 338.554688 58.722656 314.789062 63.84375 M 655.363281 63.359375 C 637.921875 66.800781 624.457031 77.097656 616.640625 92.96875 C 612.046875 102.304688 611.441406 105.035156 611.480469 116.234375 C 611.535156 131.714844 616.253906 143.316406 626.773438 153.835938 C 638.214844 165.277344 646.601562 168.46875 665.21875 168.46875 C 679.792969 168.46875 681.703125 168.101562 689.496094 163.785156 C 720.976562 146.347656 727.878906 106.339844 703.929688 80.136719 C 691.628906 66.675781 672.335938 60.011719 655.363281 63.359375 M 265.90625 175.171875 C 252.929688 181.628906 240.734375 192.949219 235.816406 203.109375 C 233.914062 207.042969 231.679688 215.042969 230.851562 220.882812 C 229.382812 231.246094 229.453125 231.617188 233.730469 236.160156 C 247.589844 250.882812 271.792969 264.835938 293.671875 270.710938 C 311.414062 275.472656 340.757812 275.46875 358.335938 270.699219 C 380.988281 264.550781 402.300781 252.4375 416.699219 237.523438 C 422.796875 231.207031 422.847656 231.050781 421.78125 221.96875 C 419.429688 201.980469 406.757812 185.390625 385.847656 174.929688 L 374.574219 169.289062 L 369.804688 173.304688 C 353.421875 187.089844 325.164062 191.710938 302.96875 184.238281 C 298.617188 182.777344 291.007812 178.886719 286.058594 175.601562 L 277.054688 169.625 Z M 606.109375 174.273438 C 584.148438 184.816406 569.519531 204.730469 569.515625 224.097656 C 569.515625 233.738281 569.601562 233.925781 577.027344 240.539062 C 587.335938 249.714844 603.152344 259.820312 615.007812 264.808594 C 631.960938 271.9375 644.445312 274.226562 666.007812 274.148438 C 682.695312 274.09375 687.957031 273.429688 699.714844 269.898438 C 722.0625 263.191406 740.792969 252.378906 754.429688 238.324219 C 761.363281 231.175781 761.382812 231.125 760.449219 222.089844 C 759.191406 209.914062 751.535156 194.742188 742.742188 187.003906 C 735.300781 180.449219 718.5625 170.84375 714.589844 170.84375 C 713.277344 170.84375 708.597656 173.269531 704.191406 176.230469 C 691.753906 184.601562 681.769531 187.386719 664.425781 187.316406 C 647.535156 187.25 637.097656 184.082031 623.425781 174.882812 L 615.691406 169.675781 Z M 426.023438 300.941406 C 414.386719 312.464844 404.460938 323.503906 403.96875 325.472656 C 402.554688 331.113281 407.28125 336.941406 413.277344 336.941406 C 417.632812 336.941406 421.160156 334.09375 439.339844 315.914062 C 457.140625 298.117188 460.367188 294.148438 460.367188 290.058594 C 460.367188 287.386719 459.070312 284.058594 457.472656 282.609375 C 451.445312 277.15625 448.046875 279.136719 426.023438 300.941406 M 179.964844 333.394531 L 153.488281 359.90625 L 193.027344 399.425781 L 232.570312 438.941406 L 286.367188 385.214844 L 247.222656 346.050781 C 225.695312 324.507812 207.710938 306.882812 207.257812 306.882812 C 206.808594 306.882812 194.523438 318.816406 179.964844 333.394531 M 327.949219 329.417969 C 316.308594 340.9375 306.386719 351.980469 305.890625 353.945312 C 304.464844 359.628906 309.203125 365.414062 315.285156 365.414062 C 319.761719 365.414062 323.109375 362.714844 341.550781 344.234375 C 358.605469 327.144531 362.683594 322.199219 362.683594 318.625 C 362.683594 313.621094 357.441406 308.464844 352.359375 308.464844 C 350.304688 308.464844 341.304688 316.1875 327.949219 329.417969 M 494.046875 370.621094 C 475.867188 388.796875 473.019531 392.324219 473.019531 396.683594 C 473.019531 402.679688 478.847656 407.40625 484.488281 405.992188 C 489.496094 404.734375 529.96875 363.542969 529.96875 359.703125 C 529.96875 354.199219 525.453125 349.59375 520.054688 349.59375 C 515.765625 349.59375 512.132812 352.535156 494.046875 370.621094 M 639.117188 356.738281 C 613.46875 361.980469 589.921875 375.046875 571.796875 394.097656 C 555.292969 411.445312 546.953125 425.8125 540.0625 448.765625 C 536.53125 460.523438 535.867188 465.785156 535.808594 482.472656 C 535.765625 495.847656 536.601562 505.742188 538.398438 513.046875 C 541.269531 524.738281 550.164062 547.328125 551.890625 547.328125 C 552.476562 547.328125 554.195312 543.832031 555.714844 539.558594 C 561.261719 523.9375 577.746094 506.957031 596.667969 497.367188 L 604.210938 493.546875 L 601.234375 488.40625 C 586.066406 462.210938 592.789062 423.425781 616.179688 402.171875 C 644.863281 376.113281 688.183594 377.132812 715.5625 404.511719 C 736.878906 425.828125 742.449219 457.019531 729.976562 485.222656 C 726.921875 492.128906 726.496094 494.390625 728.0625 495.382812 C 729.167969 496.085938 730.628906 496.671875 731.300781 496.6875 C 731.972656 496.699219 737.113281 499.605469 742.726562 503.152344 C 756.027344 511.550781 766.5 523.304688 772.929688 537.046875 L 778.109375 548.121094 L 782.070312 539.210938 C 791.390625 518.234375 793.355469 508.597656 793.308594 484.054688 C 793.261719 457.699219 791.242188 448.121094 781.394531 427.621094 C 767.175781 398.015625 740.535156 373.609375 710.09375 362.308594 C 688.960938 354.460938 661.007812 352.265625 639.117188 356.738281 M 100.285156 413.265625 C 59.277344 454.71875 50 466.273438 37.292969 491.710938 C 5.347656 555.664062 9.351562 635.957031 47.503906 696.539062 C 77.953125 744.886719 126.125 778.132812 183.539062 790.429688 C 202.539062 794.5 248.417969 794.445312 267.375 790.324219 C 284.019531 786.710938 304.210938 779.667969 318.789062 772.390625 C 343.757812 759.933594 355.390625 750.546875 397.089844 709.222656 L 437.429688 669.25 L 397.960938 629.710938 L 358.492188 590.175781 L 322.011719 626.09375 C 283.253906 664.253906 274.445312 670.949219 254.722656 677.242188 C 240.625 681.746094 219.101562 682.753906 204.316406 679.613281 C 167.601562 671.8125 138.148438 642.355469 130.347656 605.644531 C 127.203125 590.859375 128.214844 569.335938 132.714844 555.238281 C 139.011719 535.515625 145.707031 526.707031 183.863281 487.949219 L 219.785156 451.46875 L 180.691406 412.394531 C 159.1875 390.90625 141.191406 373.324219 140.695312 373.324219 C 140.203125 373.324219 122.019531 391.296875 100.285156 413.265625 M 396.675781 399.839844 C 373.816406 422.742188 372.046875 425.789062 378.109375 431.851562 C 384.210938 437.957031 387.269531 436.179688 410.160156 413.246094 C 433.054688 390.308594 435.316406 386.402344 429 380.6875 C 422.789062 375.066406 419.394531 377.074219 396.675781 399.839844 M 646.652344 404.101562 C 632.535156 409.503906 621.558594 420.082031 614.960938 434.648438 C 609.726562 446.199219 610.140625 464.460938 615.921875 476.9375 C 632.136719 511.949219 678.042969 519.242188 703.929688 490.921875 C 727.875 464.71875 720.933594 424.503906 689.496094 407.339844 C 682.210938 403.359375 679.066406 402.660156 666.800781 402.28125 C 657.292969 401.984375 650.597656 402.589844 646.652344 404.101562 M 488.839844 447.316406 C 487.535156 447.707031 477.035156 457.367188 465.507812 468.785156 C 447.285156 486.832031 444.546875 490.210938 444.546875 494.621094 C 444.546875 500.105469 449.109375 504.617188 454.65625 504.617188 C 458.496094 504.617188 499.6875 464.148438 500.945312 459.136719 C 502.605469 452.527344 495.292969 445.382812 488.839844 447.316406 M 602.777344 514.953125 C 582.035156 526.128906 571.152344 541.316406 569.871094 560.875 L 569.136719 572.050781 L 578.421875 580.378906 C 617.738281 615.644531 675.492188 623.398438 722.574219 599.722656 C 738.023438 591.957031 758.960938 575.488281 760.332031 570.023438 C 763.261719 558.359375 755.246094 537.640625 743.558594 526.65625 C 735.820312 519.386719 719.027344 509.363281 714.589844 509.363281 C 713.277344 509.363281 708.597656 511.789062 704.191406 514.753906 C 691.421875 523.351562 681.796875 525.988281 663.636719 525.875 C 646.246094 525.765625 637.042969 523.023438 624.019531 514.0625 C 620.265625 511.476562 616.253906 509.378906 615.105469 509.402344 C 613.957031 509.421875 608.410156 511.917969 602.777344 514.953125 M 397.476562 549.984375 C 383.34375 564.496094 371.78125 576.777344 371.78125 577.285156 C 371.78125 577.789062 389.40625 595.8125 410.945312 617.339844 L 450.113281 656.484375 L 476.976562 629.585938 L 503.835938 602.6875 L 464.316406 563.144531 C 442.582031 541.394531 424.433594 523.601562 423.988281 523.601562 C 423.542969 523.601562 411.613281 535.472656 397.476562 549.984375 "/></g></svg>