<svg xmlns="http://www.w3.org/2000/svg" xmlns:xlink="http://www.w3.org/1999/xlink" width="1080" zoomAndPan="magnify" viewBox="0 0 810 817.92" height="1080" preserveAspectRatio="xMidYMid meet" version="1.2"><g id="ca86352631"><path style=" stroke:none;fill-rule:evenodd;fill:currentColor;fill-opacity:1;" d="M 406.027344 16.214844 C 403.167969 18.824219 399.109375 28.9375 390.78125 54.179688 C 384.535156 73.101562 378.953125 88.585938 378.371094 88.585938 C 372.46875 88.589844 299.972656 99.882812 297.554688 101.175781 C 293.074219 103.574219 291.105469 107.878906 291.105469 115.285156 C 291.105469 126.097656 294.40625 128.164062 330.652344 140.046875 C 348.488281 145.890625 363.714844 151.253906 364.488281 151.960938 C 365.28125 152.6875 359.265625 168.699219 350.644531 188.804688 C 342.257812 208.363281 335.398438 225.902344 335.398438 227.78125 C 335.398438 232.597656 343.71875 240.445312 348.824219 240.445312 C 354.921875 240.445312 357.171875 238.941406 387.195312 214.824219 C 402.21875 202.753906 415.527344 192.492188 416.769531 192.015625 C 418.136719 191.492188 430.113281 200.089844 447.132812 213.820312 C 479.167969 239.664062 480.121094 240.3125 486.191406 240.390625 C 491.441406 240.453125 499.914062 232.855469 499.914062 228.082031 C 499.914062 226.367188 493.152344 209.050781 484.890625 189.597656 C 476.628906 170.148438 470.050781 153.667969 470.277344 152.980469 C 470.503906 152.292969 485.628906 146.796875 503.890625 140.765625 C 541.238281 128.429688 544.207031 126.53125 544.207031 114.949219 C 544.207031 106.660156 540.941406 101.796875 534.113281 99.914062 C 531.222656 99.113281 512.398438 96.125 492.285156 93.269531 L 455.714844 88.074219 L 444.445312 53.925781 C 431.554688 14.859375 430.125 12.65625 417.65625 12.65625 C 411.84375 12.65625 408.953125 13.539062 406.027344 16.214844 M 191.867188 129.660156 C 187.78125 133.46875 188.019531 132.644531 181.820312 164.121094 L 176.753906 189.824219 L 142.902344 189.824219 C 109.0625 189.824219 109.042969 189.828125 105.164062 193.707031 C 100.234375 198.636719 99.683594 210.375 104.171875 214.863281 C 105.761719 216.453125 119.109375 222.5625 133.832031 228.4375 C 148.554688 234.3125 161.183594 239.679688 161.898438 240.367188 C 162.609375 241.054688 156.738281 254.515625 148.847656 270.28125 C 139.363281 289.21875 134.5 300.730469 134.5 304.21875 C 134.5 311.015625 139.96875 316.375 146.902344 316.375 C 151.273438 316.375 155.410156 313.132812 176.648438 293.042969 C 190.21875 280.207031 201.878906 269.710938 202.5625 269.710938 C 203.246094 269.710938 214.890625 280.207031 228.445312 293.042969 C 250.082031 313.535156 253.726562 316.375 258.371094 316.375 C 265.171875 316.375 270.539062 310.910156 270.539062 303.996094 C 270.539062 300.789062 265.296875 288.464844 256.191406 270.28125 C 248.300781 254.515625 242.429688 241.054688 243.140625 240.367188 C 243.855469 239.679688 256.484375 234.3125 271.207031 228.4375 C 285.929688 222.5625 299.277344 216.453125 300.867188 214.863281 C 305.355469 210.375 304.804688 198.636719 299.875 193.707031 L 295.996094 189.824219 L 226.839844 189.824219 L 221.914062 161.976562 C 216.140625 129.300781 214.636719 126.550781 202.542969 126.550781 C 197.4375 126.550781 194.191406 127.496094 191.867188 129.660156 M 622.140625 129.660156 C 618.050781 133.46875 618.289062 132.644531 612.089844 164.121094 L 607.027344 189.824219 L 573.171875 189.824219 C 539.335938 189.824219 539.3125 189.828125 535.433594 193.707031 C 530.503906 198.636719 529.957031 210.375 534.441406 214.863281 C 536.03125 216.453125 549.378906 222.5625 564.101562 228.4375 C 578.824219 234.3125 591.453125 239.679688 592.167969 240.367188 C 592.882812 241.054688 587.007812 254.515625 579.117188 270.28125 C 569.636719 289.21875 564.769531 300.730469 564.769531 304.21875 C 564.769531 311.015625 570.238281 316.375 577.171875 316.375 C 581.546875 316.375 585.679688 313.132812 606.921875 293.042969 C 620.488281 280.207031 632.148438 269.710938 632.832031 269.710938 C 633.515625 269.710938 645.160156 280.207031 658.714844 293.042969 C 680.351562 313.535156 683.996094 316.375 688.640625 316.375 C 695.441406 316.375 700.8125 310.910156 700.8125 303.996094 C 700.8125 300.789062 695.566406 288.464844 686.464844 270.28125 C 678.570312 254.515625 672.699219 241.054688 673.414062 240.367188 C 674.125 239.679688 686.757812 234.3125 701.476562 228.4375 C 716.199219 222.5625 729.546875 216.453125 731.136719 214.863281 C 735.625 210.375 735.074219 198.636719 730.148438 193.707031 L 726.265625 189.824219 L 657.109375 189.824219 L 652.1875 161.976562 C 646.410156 129.300781 644.90625 126.550781 632.8125 126.550781 C 627.707031 126.550781 624.464844 127.496094 622.140625 129.660156 M 409.222656 268.324219 C 398.941406 271.484375 389.308594 281.402344 382.347656 296.011719 C 379.289062 302.425781 371.367188 324.757812 364.746094 345.640625 C 351.738281 386.652344 347.046875 398.042969 337.222656 412.511719 C 324.90625 430.648438 304.933594 449.28125 282.238281 463.816406 C 270.417969 471.386719 243.722656 484.082031 229.738281 488.777344 L 215.964844 493.40625 L 215.5625 632.703125 L 215.15625 772 L 543.664062 771.164062 L 551.40625 766.378906 C 576.441406 750.898438 575.171875 713.34375 549.171875 700.386719 L 541.199219 696.414062 L 549.019531 695.660156 C 553.867188 695.195312 559.6875 693.148438 564.324219 690.285156 C 589.097656 674.96875 587.671875 637.335938 561.828125 624.457031 L 553.851562 620.484375 L 561.675781 619.730469 C 566.523438 619.265625 572.34375 617.21875 576.980469 614.355469 C 601.753906 599.039062 600.324219 561.40625 574.484375 548.527344 L 566.507812 544.554688 L 574.332031 543.800781 C 585.042969 542.773438 595.878906 535.800781 601.902344 526.054688 C 606.140625 519.203125 606.6875 516.921875 606.6875 506.199219 C 606.6875 495.480469 606.140625 493.199219 601.902344 486.34375 C 598.933594 481.546875 594.167969 476.78125 589.371094 473.8125 L 581.632812 469.027344 L 506.761719 468.585938 C 465.582031 468.34375 431.890625 467.9375 431.890625 467.683594 C 431.890625 467.429688 435.855469 461.222656 440.695312 453.886719 C 450.578125 438.921875 458.390625 423.394531 463.722656 408.125 C 466.8125 399.273438 467.402344 393.875 467.933594 369.367188 C 469.152344 313.3125 460.667969 279.058594 443.117188 269.195312 C 435.773438 265.066406 421.050781 264.6875 409.222656 268.324219 M 75.96875 620.09375 L 75.96875 797.265625 L 202.519531 797.265625 L 202.519531 442.925781 L 75.96875 442.925781 Z M 75.96875 620.09375 "/></g></svg>