<svg xmlns="http://www.w3.org/2000/svg" xmlns:xlink="http://www.w3.org/1999/xlink" width="1080" zoomAndPan="magnify" viewBox="0 0 810 817.92" height="1080" preserveAspectRatio="xMidYMid meet" version="1.2"><g id="26a607a796"><path style=" stroke:none;fill-rule:evenodd;fill:currentColor;fill-opacity:1;" d="M 370.199219 27.863281 C 349.742188 30.34375 328.621094 34.222656 310.878906 38.753906 C 177.761719 72.777344 72.925781 177.550781 38.8125 310.667969 C 29.769531 345.953125 27.753906 363.132812 27.753906 404.960938 C 27.753906 446.789062 29.769531 463.96875 38.8125 499.253906 C 66.023438 605.425781 139.019531 695.335938 237.375 743.824219 C 273.382812 761.578125 309.609375 773.035156 349.691406 779.347656 C 375.222656 783.371094 434.777344 783.371094 460.308594 779.347656 C 507.304688 771.945312 551.71875 756.410156 594.953125 732.253906 L 606.949219 725.550781 L 671.992188 743.214844 C 707.769531 752.933594 739.246094 760.882812 741.941406 760.882812 C 752.570312 760.882812 760.921875 752.53125 760.921875 741.898438 C 760.921875 739.203125 753.003906 707.804688 743.324219 672.128906 L 725.722656 607.269531 L 731.523438 596.675781 C 757.140625 549.886719 771.894531 507.839844 779.390625 460.269531 C 783.410156 434.738281 783.410156 375.179688 779.390625 349.652344 C 755.855469 200.292969 649.289062 79.777344 506.039062 40.527344 C 470.882812 30.894531 451.246094 28.230469 411.328125 27.679688 C 391.75 27.414062 373.242188 27.492188 370.199219 27.863281 M 361.5 111.535156 C 304.679688 120.5625 251.304688 145.363281 208.492188 182.636719 C 166.175781 219.480469 132.839844 273.816406 118.117188 329.957031 C 105.964844 376.273438 105.882812 433.058594 117.898438 478.804688 C 125.757812 508.734375 145.074219 552.457031 155.253906 563.351562 C 160.710938 569.195312 167.882812 569.453125 173.328125 564.011719 C 178.3125 559.027344 178.347656 552.234375 173.433594 544.445312 C 171.355469 541.152344 166.992188 533.179688 163.742188 526.722656 C 125.328125 450.441406 125.066406 360.273438 163.042969 284.59375 C 189.183594 232.507812 232.601562 189.117188 284.785156 162.929688 C 359.878906 125.246094 449.855469 125.386719 526.011719 163.304688 C 540.71875 170.625 568.296875 188.40625 566.984375 189.71875 C 566.492188 190.210938 558.90625 191.042969 550.125 191.570312 C 535.304688 192.453125 533.894531 192.828125 530.480469 196.800781 C 523.886719 204.46875 527.070312 215.164062 536.652344 217.523438 C 538.628906 218.011719 555.507812 217.417969 574.148438 216.203125 C 607.820312 214.015625 608.074219 213.972656 611.71875 209.734375 C 615.949219 204.816406 615.890625 206.613281 613.152344 165.402344 C 611.082031 134.28125 610.996094 133.808594 606.804688 130.203125 C 601.113281 125.308594 594.179688 125.46875 589.035156 130.617188 C 584.988281 134.660156 584.976562 134.777344 586.097656 152.78125 L 587.230469 170.878906 L 569.613281 158.972656 C 538.417969 137.894531 502 122.484375 464.429688 114.480469 C 447.984375 110.972656 440.511719 110.328125 410.535156 109.839844 C 385.585938 109.433594 371.707031 109.910156 361.5 111.535156 M 637.597656 246.464844 C 634.953125 249.109375 632.789062 252.757812 632.789062 254.570312 C 632.789062 256.382812 637.023438 265.871094 642.199219 275.652344 C 674.054688 335.851562 682.929688 398.191406 668.925781 463.34375 C 652.175781 541.285156 598.066406 610.433594 525.214844 646.992188 C 440.277344 689.617188 336.257812 683.359375 256.855469 630.847656 C 246.964844 624.304688 242.726562 620.65625 244.046875 619.816406 C 245.132812 619.125 251.359375 618.550781 257.886719 618.535156 C 272.699219 618.503906 280.109375 615.253906 282.1875 607.886719 C 283.292969 603.96875 283.007812 601.855469 280.953125 598.71875 C 276.207031 591.472656 273.734375 591.191406 236.511719 593.65625 C 202.171875 595.929688 201.902344 595.976562 198.269531 600.199219 C 194.050781 605.105469 194.105469 603.3125 196.847656 644.519531 C 198.917969 675.636719 199.003906 676.113281 203.195312 679.714844 C 208.886719 684.613281 215.820312 684.449219 220.964844 679.304688 C 225.011719 675.261719 225.023438 675.144531 223.898438 657.140625 L 222.769531 639.039062 L 240.300781 650.886719 C 272.550781 672.683594 310.332031 688.355469 349.792969 696.308594 C 365.535156 699.484375 372.550781 699.949219 405 699.960938 C 437.664062 699.980469 444.378906 699.535156 460.367188 696.304688 C 581.230469 671.890625 671.929688 581.191406 696.34375 460.324219 C 699.570312 444.363281 700.019531 437.582031 700.019531 404.960938 C 700.019531 372.390625 699.566406 365.550781 696.367188 349.753906 C 691.101562 323.742188 681.738281 296.441406 670.003906 272.875 C 658.0625 248.890625 654.398438 243.96875 647.484375 242.636719 C 643.238281 241.816406 641.625 242.441406 637.597656 246.464844 M 493.316406 312.429688 C 490.996094 313.710938 488.351562 317.082031 487.441406 319.917969 C 484.253906 329.867188 446.128906 484.039062 446.128906 486.980469 C 446.128906 488.617188 447.605469 491.832031 449.40625 494.121094 C 453.742188 499.636719 463.011719 499.941406 467.898438 494.730469 C 470.429688 492.03125 476.222656 471.242188 491.902344 408.542969 C 503.269531 363.097656 512.566406 324.519531 512.566406 322.8125 C 512.566406 318.617188 506.347656 311.9375 501.496094 310.925781 C 499.320312 310.472656 495.640625 311.148438 493.316406 312.429688 M 229.300781 326.355469 C 207.175781 332.609375 192.046875 350.597656 190.246094 372.792969 C 189.523438 381.707031 189.804688 382.898438 193.542969 386.632812 C 198.886719 391.980469 206.070312 392.0625 211.292969 386.839844 C 213.425781 384.703125 215.175781 381.253906 215.175781 379.167969 C 215.175781 369.410156 222.226562 358.152344 231.308594 353.410156 C 233.660156 352.179688 238.847656 351.175781 242.84375 351.175781 C 261.964844 351.175781 274.191406 368.121094 268.996094 387.417969 C 266.335938 397.304688 254.460938 408.292969 232.132812 421.527344 C 209.195312 435.125 199.277344 443.640625 193.960938 454.308594 C 188.902344 464.457031 188.457031 475.632812 192.886719 481.109375 L 195.910156 484.84375 L 287.949219 485.773438 L 291.898438 481.820312 C 295.785156 477.9375 296.996094 471.476562 294.871094 465.949219 C 292.785156 460.507812 287.519531 459.542969 255.511719 458.746094 L 223.875 457.953125 L 236.261719 450.042969 C 243.074219 445.695312 253.753906 438.847656 259.992188 434.832031 C 274.574219 425.445312 285.351562 414.445312 290.761719 403.429688 C 296.742188 391.253906 297.617188 371.777344 292.769531 358.851562 C 283.535156 334.238281 254.320312 319.28125 229.300781 326.355469 M 370.429688 327.054688 C 368.625 328.578125 354.664062 351.699219 339.40625 378.4375 C 309.585938 430.707031 308.183594 434.351562 315.328125 441.066406 C 318.820312 444.347656 320.378906 444.507812 348.550781 444.507812 L 378.109375 444.507812 L 378.109375 460.449219 C 378.109375 475.957031 378.234375 476.511719 382.730469 481.011719 C 388.386719 486.667969 393.832031 486.925781 399.769531 481.820312 C 404.035156 478.15625 404.230469 477.347656 404.75 461.257812 L 405.289062 444.507812 L 413.949219 444.507812 C 424.433594 444.507812 427.679688 442.949219 430.285156 436.65625 C 431.882812 432.796875 431.882812 430.90625 430.285156 427.046875 C 427.671875 420.738281 424.4375 419.199219 413.804688 419.199219 L 405 419.199219 L 405 411.207031 C 405 398.460938 400.621094 392.304688 391.554688 392.304688 C 382.488281 392.304688 378.109375 398.460938 378.109375 411.207031 L 378.109375 419.199219 L 363.082031 419.199219 C 354.816406 419.199219 348.050781 418.589844 348.050781 417.851562 C 348.050781 417.113281 357.664062 399.605469 369.40625 378.945312 C 383.515625 354.132812 390.761719 339.800781 390.761719 336.71875 C 390.761719 326.761719 377.984375 320.6875 370.429688 327.054688 M 544.925781 328.167969 C 540.816406 332.277344 539.792969 339.558594 542.589844 344.789062 C 545.207031 349.679688 553.242188 351.175781 576.875 351.175781 L 599.578125 351.175781 L 570.3125 409.699219 C 551.523438 447.257812 541.042969 469.945312 541.042969 473.042969 C 541.042969 478.628906 547.121094 485.636719 551.96875 485.636719 C 561.507812 485.636719 562.121094 484.664062 598.960938 410.890625 C 618.4375 371.890625 634.371094 338.53125 634.371094 336.757812 C 634.371094 334.984375 632.292969 331.453125 629.75 328.910156 L 625.125 324.285156 L 548.808594 324.285156 Z M 544.925781 328.167969 "/></g></svg>