<svg xmlns="http://www.w3.org/2000/svg" xmlns:xlink="http://www.w3.org/1999/xlink" width="1080" zoomAndPan="magnify" viewBox="0 0 810 817.92" height="1080" preserveAspectRatio="xMidYMid meet" version="1.2"><defs><clipPath id="3984434ace"><path d="M 0.0390625 0 L 809.960938 0 L 809.960938 809.921875 L 0.0390625 809.921875 Z M 0.0390625 0 "/></clipPath></defs><g id="f53fc9f131"><g clip-rule="nonzero" clip-path="url(#3984434ace)"><path style=" stroke:none;fill-rule:evenodd;fill:currentColor;fill-opacity:1;" d="M 349.984375 4.0625 C 334.378906 11.863281 329.070312 22.652344 329.070312 46.550781 L 329.070312 63.148438 L 278.71875 63.605469 L 228.363281 64.066406 L 220.625 68.851562 C 215.839844 71.8125 211.058594 76.59375 208.097656 81.375 C 203.425781 88.929688 203.296875 89.660156 202.804688 112.226562 C 202.355469 132.980469 202.664062 136.304688 205.816406 144.738281 C 212.203125 161.808594 232.402344 177.171875 248.453125 177.171875 C 253.03125 177.171875 253.140625 176.984375 253.140625 169.140625 C 253.140625 162.371094 253.867188 160.378906 257.765625 156.484375 L 262.386719 151.859375 L 319.820312 151.859375 L 324.445312 156.484375 C 328.34375 160.378906 329.070312 162.371094 329.070312 169.140625 L 329.070312 177.171875 L 480.929688 177.171875 L 480.929688 169.140625 C 480.929688 162.371094 481.65625 160.378906 485.554688 156.484375 L 490.175781 151.859375 L 547.613281 151.859375 L 552.234375 156.484375 C 556.132812 160.378906 556.859375 162.371094 556.859375 169.140625 C 556.859375 176.984375 556.96875 177.171875 561.546875 177.171875 C 577.597656 177.171875 597.796875 161.808594 604.183594 144.738281 C 607.335938 136.304688 607.644531 132.980469 607.195312 112.226562 C 606.703125 89.660156 606.574219 88.929688 601.902344 81.375 C 598.941406 76.59375 594.160156 71.8125 589.375 68.851562 L 581.636719 64.066406 L 531.414062 63.605469 L 481.191406 63.148438 L 480.664062 44.492188 C 480.171875 26.933594 479.859375 25.382812 475.351562 18.101562 C 472.390625 13.316406 467.609375 8.539062 462.824219 5.578125 L 455.085938 0.789062 L 358.335938 -0.109375 Z M 359.003906 29.933594 C 354.574219 34.363281 354.378906 35.15625 354.378906 48.917969 L 354.378906 63.273438 L 455.621094 63.273438 L 455.621094 48.917969 C 455.621094 35.15625 455.425781 34.363281 450.996094 29.933594 L 446.371094 25.308594 L 363.628906 25.308594 Z M 278.449219 189.824219 L 278.449219 202.480469 L 303.761719 202.480469 L 303.761719 177.171875 L 278.449219 177.171875 Z M 506.238281 189.824219 L 506.238281 202.480469 L 531.550781 202.480469 L 531.550781 177.171875 L 506.238281 177.171875 Z M 202.519531 225.449219 L 202.519531 267.589844 L 206.871094 266.683594 C 226.453125 262.621094 309.675781 250.972656 323.535156 250.351562 C 345.832031 249.359375 361.390625 252.230469 385.113281 261.722656 C 395.007812 265.679688 404.039062 268.917969 405.183594 268.917969 C 406.332031 268.917969 415.238281 265.695312 424.980469 261.75 C 460.609375 247.332031 473.898438 246.917969 547.167969 257.9375 C 576.425781 262.335938 601.960938 266.328125 603.921875 266.808594 L 607.480469 267.679688 L 607.480469 225.496094 C 607.480469 192.15625 607.066406 183.566406 605.503906 184.523438 C 604.417969 185.191406 600.679688 187.613281 597.199219 189.902344 C 588.660156 195.523438 579.777344 198.8125 567.289062 200.988281 L 556.859375 202.804688 L 556.859375 210.675781 C 556.859375 217.261719 556.105469 219.296875 552.234375 223.167969 L 547.613281 227.789062 L 490.175781 227.789062 L 485.554688 223.167969 C 481.65625 219.269531 480.929688 217.277344 480.929688 210.511719 L 480.929688 202.480469 L 329.070312 202.480469 L 329.070312 210.511719 C 329.070312 217.277344 328.34375 219.269531 324.445312 223.167969 L 319.824219 227.789062 L 262.386719 227.789062 L 257.765625 223.167969 C 253.894531 219.296875 253.140625 217.261719 253.140625 210.675781 L 253.140625 202.804688 L 242.707031 200.988281 C 230.222656 198.8125 221.339844 195.523438 212.800781 189.902344 C 209.320312 187.613281 205.585938 185.191406 204.496094 184.523438 C 202.933594 183.566406 202.519531 192.144531 202.519531 225.449219 M 53.039062 253.496094 C 49.066406 256.917969 47.976562 262.332031 24.476562 395.355469 C 11.035156 471.421875 0.0390625 535.25 0.0390625 537.199219 C 0.0390625 546.90625 3.796875 548.929688 30.523438 553.628906 C 53.183594 557.613281 58.480469 556.851562 61.582031 549.171875 C 63.753906 543.789062 111.023438 276.25 111.058594 269.121094 C 111.105469 260.101562 107.136719 257.800781 84.378906 253.664062 C 59.3125 249.109375 58.128906 249.101562 53.039062 253.496094 M 735.613281 251.519531 C 732.566406 252.214844 724.796875 253.652344 718.347656 254.710938 C 704.5 256.984375 699.207031 261.015625 699.265625 269.242188 C 699.28125 272.109375 710.257812 336.265625 723.652344 411.808594 C 748.652344 552.808594 748.855469 553.707031 756.3125 556.074219 C 758.675781 556.820312 785.175781 552.921875 800.113281 549.625 C 805.988281 548.328125 809.960938 543.183594 809.960938 536.871094 C 809.960938 529.417969 763.019531 263.15625 760.691406 257.390625 C 759.707031 254.964844 757.628906 252.296875 756.0625 251.457031 C 752.753906 249.6875 743.515625 249.714844 735.613281 251.519531 M 314.832031 274.78125 C 312.65625 275.160156 278.84375 280.347656 239.695312 286.308594 L 168.507812 297.144531 L 151.199219 294.148438 C 141.675781 292.5 133.554688 291.480469 133.15625 291.882812 C 132.4375 292.601562 88.679688 538.492188 88.644531 542.011719 C 88.632812 543.003906 90.988281 544.257812 93.875 544.796875 C 97.957031 545.5625 99.75 547.101562 101.914062 551.699219 C 103.445312 554.949219 106.859375 561 109.496094 565.144531 L 114.289062 572.679688 L 120.707031 565.390625 C 130.121094 554.695312 187.8125 506.589844 196.671875 502.046875 C 225.039062 487.503906 259.773438 499.65625 273.042969 528.765625 C 276.679688 536.734375 277.550781 540.90625 277.601562 550.492188 C 277.632812 557.019531 277.070312 564.667969 276.347656 567.5 C 275.183594 572.046875 275.40625 572.640625 278.265625 572.640625 C 285 572.640625 299.160156 579.40625 306.796875 586.273438 C 316.683594 595.160156 323.957031 609.386719 325.300781 622.46875 L 326.277344 631.960938 L 337.617188 632.113281 C 353.53125 632.332031 365.835938 638.023438 377.394531 650.507812 C 384.558594 658.25 386.660156 661.898438 389.488281 671.511719 L 392.914062 683.144531 L 399.351562 679.714844 C 404.71875 676.851562 408.429688 676.277344 421.609375 676.265625 C 435.363281 676.253906 438.5625 676.789062 446.128906 680.355469 C 464.621094 689.078125 476.378906 706.648438 477.492188 727.210938 L 478.105469 738.625 L 486.207031 743.820312 C 493.4375 748.464844 495.519531 749.019531 505.671875 749.019531 C 515.757812 749.019531 517.800781 748.480469 523.757812 744.273438 C 531.542969 738.773438 536.375 730.402344 537.492188 720.480469 C 538.113281 715 537.347656 711.585938 533.953125 704.648438 C 529.675781 695.90625 529.109375 695.460938 485.613281 666.746094 C 461.40625 650.765625 440.839844 636.273438 439.910156 634.535156 C 438.980469 632.796875 438.21875 629.875 438.21875 628.035156 C 438.21875 623.3125 445.144531 616.933594 450.269531 616.933594 C 453.203125 616.933594 471.3125 627.996094 507.6875 652.019531 C 536.90625 671.320312 563.65625 688.105469 567.125 689.316406 C 580.554688 694.015625 597.816406 686.515625 604.273438 673.179688 C 607.082031 667.375 607.707031 663.847656 607.1875 656.695312 C 606.007812 640.351562 604.953125 639.386719 545.1875 599.949219 C 515.5625 580.402344 490.433594 563.234375 489.34375 561.800781 C 484.175781 555.007812 490.339844 542.582031 498.875 542.582031 C 501.265625 542.582031 526.953125 558.597656 566.574219 584.792969 C 601.6875 608.003906 633.257812 627.992188 636.730469 629.207031 C 645.035156 632.113281 654.25 630.632812 663.203125 624.957031 C 676.886719 616.277344 681.375 596.851562 672.996094 582.554688 C 669.390625 576.402344 661.152344 570.449219 603.40625 532.269531 L 537.902344 488.960938 L 528.792969 490.453125 C 500.296875 495.121094 465.328125 488.257812 439.527344 472.925781 C 425.855469 464.804688 407.105469 447.269531 398.808594 434.839844 C 395.410156 429.753906 392.382812 424.847656 392.078125 423.9375 C 391.722656 422.867188 384.21875 423.789062 370.878906 426.535156 L 350.230469 430.78125 L 341.113281 444.636719 C 329.242188 462.671875 321.113281 470.675781 308.503906 476.738281 C 299 481.308594 296.96875 481.679688 281.613281 481.679688 C 266.972656 481.679688 263.949219 481.1875 256.113281 477.511719 C 231.664062 466.050781 219.792969 441.511719 226.886719 417.105469 C 230.714844 403.949219 280.167969 329.910156 290.675781 321.617188 C 295.628906 317.703125 311.214844 310.078125 335.046875 299.90625 C 355.25 291.285156 371.78125 283.761719 371.78125 283.191406 C 371.78125 281.640625 356.582031 277.199219 344.890625 275.332031 C 334.660156 273.695312 322.375 273.472656 314.832031 274.78125 M 463.53125 275.355469 C 458.746094 276.195312 452.335938 277.660156 449.292969 278.609375 C 437.492188 282.289062 310.011719 337.335938 306.019531 340.476562 C 300.355469 344.929688 252.152344 417.589844 250.21875 424.585938 C 248.390625 431.207031 250.144531 440.261719 254.359375 445.96875 C 261.988281 456.285156 280.066406 461.136719 293.664062 456.507812 C 304.707031 452.753906 308.320312 449.191406 322.671875 427.929688 L 335.460938 408.976562 L 363.507812 403.109375 C 393.953125 396.734375 401.511719 395.996094 405.253906 399.027344 C 406.59375 400.117188 410.40625 405.988281 413.722656 412.078125 C 421.941406 427.175781 441.722656 446.746094 456.410156 454.316406 C 492.222656 472.765625 532.289062 471.738281 567.140625 451.46875 C 589.289062 438.589844 588.128906 439 594.175781 441.882812 C 599.933594 444.628906 602.160156 449.765625 600.488281 456.433594 C 599.527344 460.261719 584.546875 471.386719 573.691406 476.332031 C 571.394531 477.378906 569.515625 478.746094 569.515625 479.375 C 569.515625 480 595.4375 497.660156 627.121094 518.613281 C 673.65625 549.398438 685.710938 558.097656 689.871094 563.886719 C 692.703125 567.832031 695.460938 571.058594 696 571.058594 C 697.109375 571.058594 705.949219 556.671875 708.863281 550.125 C 710.214844 547.082031 712.355469 545.503906 716.082031 544.804688 C 718.992188 544.261719 721.367188 543.003906 721.355469 542.011719 C 721.316406 538.1875 677.527344 292.566406 676.75 291.785156 C 676.292969 291.332031 668.238281 292.335938 658.847656 294.023438 L 641.773438 297.085938 L 570.449219 286.117188 C 495.695312 274.628906 477.875 272.832031 463.53125 275.355469 M 209.996094 522.484375 C 202.910156 525.5625 141.519531 577.609375 137.148438 584.246094 C 129.152344 596.378906 130.308594 610.703125 140.15625 621.605469 C 143.175781 624.945312 148.050781 628.820312 150.988281 630.214844 C 157.515625 633.3125 169.207031 633.496094 176.074219 630.613281 C 184.5 627.074219 245.515625 574.910156 249.957031 567.449219 C 254.601562 559.648438 255.160156 546.269531 251.160156 538.628906 C 243.535156 524.058594 224.007812 516.402344 209.996094 522.484375 M 257.09375 598.578125 C 254.484375 599.722656 235.621094 614.671875 215.175781 631.792969 C 172.273438 667.714844 168.324219 672.621094 169.859375 688.027344 C 171.503906 704.523438 184.417969 716.515625 200.59375 716.566406 C 205.1875 716.578125 211.238281 715.605469 214.039062 714.40625 C 219.078125 712.242188 284.507812 658.097656 293.289062 648.820312 C 299.332031 642.4375 302.367188 630.695312 300.382812 621.378906 C 296.441406 602.90625 274.0625 591.117188 257.09375 598.578125 M 322.574219 659.253906 C 319.4375 660.890625 304.667969 672.449219 289.757812 684.941406 C 260.164062 709.726562 256.304688 714.722656 256.304688 728.242188 C 256.304688 742.136719 265.929688 754.707031 279.613281 758.683594 C 293.792969 762.808594 300.15625 759.878906 328.277344 736.28125 C 341.328125 725.332031 354.699219 713.765625 357.988281 710.578125 C 372.421875 696.585938 370.480469 673.171875 353.933594 661.707031 C 345.679688 655.988281 331.023438 654.839844 322.574219 659.253906 M 411.953125 700.898438 C 409.253906 701.683594 393.828125 713.378906 377.675781 726.890625 C 346.011719 753.375 341.726562 758.71875 341.726562 771.714844 C 341.726562 784.320312 348.273438 794.847656 359.785156 800.75 C 364.574219 803.207031 368.199219 803.789062 375.722656 803.308594 C 387.171875 802.578125 388.8125 801.503906 423.984375 771.652344 C 440.714844 757.449219 447.882812 750.273438 450.480469 745.125 C 462.871094 720.546875 438.9375 693.070312 411.953125 700.898438 M 442.707031 787.5 C 429.59375 798.703125 421.648438 806.546875 422.511719 807.445312 C 423.292969 808.257812 428.175781 809.230469 433.363281 809.605469 C 449.609375 810.78125 462.097656 801.980469 466.765625 786.0625 C 468.34375 780.683594 467.367188 768.679688 465.367188 768.914062 C 464.792969 768.980469 454.59375 777.34375 442.707031 787.5 "/></g></g></svg>