<svg xmlns="http://www.w3.org/2000/svg" xmlns:xlink="http://www.w3.org/1999/xlink" width="1080" zoomAndPan="magnify" viewBox="0 0 810 817.92" height="1080" preserveAspectRatio="xMidYMid meet" version="1.2"><defs><clipPath id="0734e4ee8f"><path d="M 57 0 L 753 0 L 753 809.921875 L 57 809.921875 Z M 57 0 "/></clipPath></defs><g id="a2631e337e"><g clip-rule="nonzero" clip-path="url(#0734e4ee8f)"><path style=" stroke:none;fill-rule:evenodd;fill:currentColor;fill-opacity:1;" d="M 228.621094 2.304688 C 197.4375 7.988281 165 21.71875 141.394531 39.222656 C 75.082031 88.390625 44.480469 171.261719 63.265625 250.8125 C 78.851562 316.835938 129.152344 373.230469 192.851562 396.109375 C 217.246094 404.867188 231.109375 407.125 261.050781 407.214844 C 291.636719 407.308594 304.675781 405.289062 329.070312 396.683594 C 428.667969 361.550781 485.070312 257.503906 460.058594 155.054688 C 440.972656 76.863281 375.722656 16.222656 295.96875 2.554688 C 278.226562 -0.484375 244.605469 -0.609375 228.621094 2.304688 M 247.128906 66.753906 C 245.992188 67.890625 245.222656 73.449219 245.207031 80.597656 C 245.191406 87.164062 244.660156 93.332031 244.019531 94.304688 C 243.382812 95.273438 236.714844 98.992188 229.210938 102.5625 C 207.167969 113.046875 196.730469 125.644531 192.867188 146.425781 C 190.636719 158.414062 191.882812 168.847656 196.839844 179.675781 C 204.296875 195.964844 220.292969 207.460938 255.078125 221.527344 C 277.59375 230.636719 285.660156 238.902344 284.28125 251.464844 C 281.855469 273.566406 249.113281 278.082031 211.671875 261.472656 C 206.699219 259.269531 201.65625 257.839844 200.460938 258.296875 C 198.390625 259.09375 189.863281 285.84375 189.863281 291.546875 C 189.863281 296.738281 207.253906 304.359375 228.621094 308.535156 C 233.839844 309.554688 239.003906 311.113281 240.089844 311.996094 C 241.347656 313.015625 242.066406 317.84375 242.066406 325.269531 C 242.066406 341.070312 244.207031 343.265625 259.570312 343.265625 C 276.152344 343.265625 276.867188 342.589844 276.867188 326.953125 C 276.867188 311.375 278.582031 308.214844 288.933594 304.6875 C 300.03125 300.90625 308.609375 295.347656 316.71875 286.675781 C 334.867188 267.277344 338.40625 242.882812 326.582031 218.714844 C 318.410156 202.011719 304.144531 191.460938 271.667969 178.105469 C 248.152344 168.4375 240.484375 161.832031 240.484375 151.246094 C 240.484375 140.363281 251.5625 132.878906 267.664062 132.878906 C 278.164062 132.878906 292.308594 135.851562 302.796875 140.261719 C 310.59375 143.539062 312.464844 143.832031 314.242188 142.058594 C 316.496094 139.800781 324.324219 115.292969 324.324219 110.484375 C 324.324219 106.398438 314.210938 101.738281 296.203125 97.535156 L 280.847656 93.949219 L 279.742188 87.707031 C 279.128906 84.273438 278.589844 78.585938 278.542969 75.058594 C 278.492188 71.535156 277.59375 67.800781 276.550781 66.753906 C 274 64.203125 249.679688 64.203125 247.128906 66.753906 M 588.339844 191.414062 C 560.167969 197.492188 537.339844 209.171875 520.46875 226.148438 C 509.222656 237.464844 504.683594 246.277344 497.640625 270.5 C 490.65625 294.503906 475.648438 325.890625 461.710938 345.640625 C 440.933594 375.082031 404.5 406.644531 372.832031 422.628906 C 294.5 462.171875 200.632812 456.714844 127.03125 408.339844 L 112.449219 398.753906 L 109.273438 405.933594 C 89.679688 450.226562 85.164062 508.023438 97.492188 556.792969 C 102.554688 576.820312 107.589844 589.820312 120.183594 615.390625 C 135.441406 646.363281 148.367188 665.679688 169.28125 688.761719 C 188.703125 710.191406 200.1875 732.578125 205.859375 760.058594 C 207.480469 767.90625 208.816406 778.800781 208.828125 784.265625 C 208.835938 789.730469 209.859375 796.625 211.09375 799.585938 C 215.355469 809.785156 216.289062 809.921875 281.691406 809.921875 L 340.460938 809.921875 L 345.835938 804.542969 L 351.214844 799.164062 L 351.214844 783.1875 C 351.214844 769.011719 351.527344 767.214844 353.984375 767.242188 C 355.507812 767.261719 366.71875 767.890625 378.898438 768.644531 C 391.078125 769.394531 408.613281 769.558594 417.859375 769.003906 L 434.671875 768 L 435.394531 783.03125 C 436.167969 799.128906 437.75 803.28125 444.660156 807.363281 C 450.945312 811.078125 562.398438 811.226562 569.546875 807.53125 C 576.972656 803.691406 578.0625 799.910156 579.132812 774.328125 C 580.804688 734.214844 587.105469 721.023438 620.300781 688.117188 C 632.148438 676.371094 645.402344 662.488281 649.75 657.269531 C 667.121094 636.421875 683.75 607.648438 692.714844 582.921875 L 697.308594 570.265625 L 713.691406 569.429688 C 735.003906 568.339844 741.628906 564.816406 749.269531 550.492188 C 751.898438 545.5625 752.277344 540.3125 752.734375 502.652344 C 753.335938 452.460938 752.476562 446.355469 743.328125 435.960938 C 735.496094 427.066406 726.289062 423.941406 707.894531 423.941406 L 694.984375 423.941406 L 693.046875 417.21875 C 689.636719 405.402344 672.617188 373.019531 661.664062 357.503906 C 655.808594 349.214844 641.546875 332.902344 629.847656 321.121094 C 617.824219 309.011719 608.089844 297.847656 607.359375 295.339844 C 601.726562 275.933594 605.109375 252.640625 617.050781 228.582031 C 621.367188 219.878906 624.894531 210.625 624.886719 208.015625 C 624.863281 201.25 619.394531 193.179688 613.03125 190.519531 C 606.335938 187.722656 605.269531 187.761719 588.339844 191.414062 M 575.050781 380.300781 C 557.585938 388.0625 554.683594 412.921875 569.886719 424.519531 C 587.074219 437.628906 611.324219 425.71875 611.324219 404.167969 C 611.324219 393.691406 606.472656 385.722656 597.429688 381.34375 C 589.707031 377.605469 581.929688 377.246094 575.050781 380.300781 "/></g></g></svg>