<svg xmlns="http://www.w3.org/2000/svg" xmlns:xlink="http://www.w3.org/1999/xlink" width="1080" zoomAndPan="magnify" viewBox="0 0 810 817.92" height="1080" preserveAspectRatio="xMidYMid meet" version="1.2"><g id="fa953d1862"><path style=" stroke:none;fill-rule:evenodd;fill:currentColor;fill-opacity:1;" d="M 593.269531 21.015625 C 587.75 23.808594 585.574219 30.695312 588.550781 35.96875 C 590.378906 39.214844 594.328125 41.234375 607.222656 45.53125 C 616.21875 48.527344 622.980469 51.492188 622.25 52.125 C 621.523438 52.753906 583.554688 67.558594 537.878906 85.019531 C 288.539062 180.339844 152.382812 233.074219 149.921875 235.285156 C 145.617188 239.152344 146.339844 247.484375 151.324219 251.402344 C 153.613281 253.207031 156.390625 254.683594 157.492188 254.683594 C 158.59375 254.683594 165.792969 252.257812 173.492188 249.292969 C 181.191406 246.328125 284.304688 206.738281 402.628906 161.316406 C 520.953125 115.894531 621.1875 77.382812 625.378906 75.730469 L 632.992188 72.734375 L 627.273438 82.636719 C 615.453125 103.097656 614.75 105.011719 617.171875 110.0625 C 620.070312 116.117188 626.886719 118.53125 632.300781 115.425781 C 634.890625 113.9375 642.316406 102.597656 652.984375 83.839844 C 669.808594 54.253906 671.992188 48.015625 667.207031 43.230469 C 665.363281 41.386719 601.53125 18.941406 598.320312 19.007812 C 597.703125 19.019531 595.429688 19.921875 593.269531 21.015625 M 666.007812 312.421875 L 666.007812 485.636719 L 784.648438 485.636719 L 784.648438 139.207031 L 666.007812 139.207031 Z M 452.457031 300.605469 L 452.457031 392.402344 L 458.273438 397.496094 C 466.4375 404.644531 475.671875 419.53125 479.371094 431.507812 C 483.183594 443.855469 483.550781 464.3125 480.15625 475.496094 C 478.859375 479.769531 477.792969 483.796875 477.785156 484.449219 C 477.773438 485.101562 484.515625 485.636719 492.761719 485.636719 L 507.761719 485.636719 L 519.257812 474.007812 C 532.167969 460.953125 544.796875 453.957031 561.210938 450.765625 L 571.097656 448.839844 L 571.097656 208.808594 L 452.457031 208.808594 Z M 238.902344 364.417969 L 238.902344 448.839844 L 248.789062 450.761719 C 265.203125 453.957031 277.832031 460.953125 290.742188 474.007812 L 302.238281 485.636719 L 317.238281 485.636719 C 325.484375 485.636719 332.226562 485.101562 332.214844 484.449219 C 332.207031 483.796875 331.140625 479.769531 329.84375 475.496094 C 326.449219 464.3125 326.816406 443.855469 330.628906 431.507812 C 334.328125 419.53125 343.5625 404.644531 351.726562 397.496094 L 357.542969 392.402344 L 357.542969 279.992188 L 238.902344 279.992188 Z M 25.351562 418.40625 L 25.351562 485.636719 L 143.992188 485.636719 L 143.992188 351.175781 L 25.351562 351.175781 Z M 395.699219 398.917969 C 377.550781 401.753906 361.429688 414.1875 352.996094 431.851562 C 349.464844 439.25 348.84375 442.6875 348.84375 454.789062 C 348.84375 466.9375 349.46875 470.359375 353.09375 478.101562 C 373.453125 521.539062 434.769531 522.691406 455.773438 480.03125 C 476.230469 438.472656 441.625 391.742188 395.699219 398.917969 M 214 474.75 C 203.757812 478.6875 190.3125 490.730469 184.785156 500.917969 C 166.394531 534.824219 187.15625 576.765625 225.871094 583.921875 C 237.027344 585.984375 250.683594 583.609375 261.585938 577.707031 C 272.078125 572.027344 283.828125 558.753906 287.828125 548.054688 C 292.324219 536.042969 292.265625 518.914062 287.683594 506.65625 C 282.960938 494.015625 268.492188 479.542969 255.847656 474.820312 C 243.734375 470.292969 225.675781 470.261719 214 474.75 M 553.695312 474.898438 C 541.496094 479.578125 526.921875 494.328125 522.316406 506.65625 C 517.734375 518.914062 517.675781 536.042969 522.171875 548.054688 C 526.203125 558.835938 538.804688 573.035156 548.859375 578.128906 C 583.636719 595.753906 624.097656 575.460938 631.09375 536.890625 C 633.238281 525.0625 631.054688 511.714844 625.207031 500.917969 C 619.523438 490.425781 606.246094 478.675781 595.550781 474.675781 C 583.671875 470.230469 565.621094 470.328125 553.695312 474.898438 M 374.945312 547.445312 C 350.097656 553.949219 324.363281 570.480469 309.394531 589.550781 C 300.714844 600.609375 296.042969 609.257812 298.304688 610.066406 C 305.3125 612.566406 322.1875 624.449219 332.597656 634.207031 C 346.265625 647.027344 356.140625 659.957031 363.5 674.671875 C 368.519531 684.710938 376.527344 708.453125 376.527344 713.304688 C 376.527344 715.792969 378.460938 716.332031 390.761719 717.296875 C 398.59375 717.90625 411.230469 717.921875 418.839844 717.328125 L 432.683594 716.242188 L 435.59375 704.15625 C 439.203125 689.160156 448.574219 668.804688 457.84375 655.8125 C 469.914062 638.898438 498.171875 614.894531 511.695312 610.066406 C 513.957031 609.257812 509.285156 600.609375 500.605469 589.550781 C 485.289062 570.035156 459.660156 553.6875 434.40625 547.320312 C 417.578125 543.078125 391.417969 543.132812 374.945312 547.445312 M 205.914062 619.921875 C 199.515625 621.546875 187.414062 626.28125 179.019531 630.441406 C 166.011719 636.894531 161.523438 640.246094 148.542969 653.214844 C 134.996094 666.746094 132.441406 670.246094 125.335938 684.992188 C 112.382812 711.863281 108.667969 738.03125 115.726562 752.617188 C 124.691406 771.132812 160.933594 785.257812 210.136719 789.410156 C 254.488281 793.15625 304.046875 786.230469 331.15625 772.492188 C 340.972656 767.515625 352.648438 756.808594 355.40625 750.253906 C 359.71875 739.992188 356.699219 713.28125 349.097656 694.460938 C 342.539062 678.226562 335.171875 667.332031 321.160156 653.15625 C 305.992188 637.808594 291.648438 628.914062 271.332031 622.261719 C 254.035156 616.597656 223.316406 615.5 205.914062 619.921875 M 549.742188 619.269531 C 525.667969 624.554688 506.714844 635.105469 488.839844 653.171875 C 474.832031 667.328125 467.464844 678.21875 460.902344 694.460938 C 453.300781 713.28125 450.28125 739.992188 454.59375 750.253906 C 457.347656 756.808594 469.03125 767.523438 478.808594 772.464844 C 505.996094 786.203125 555.691406 793.164062 599.863281 789.417969 C 649.632812 785.199219 685.296875 771.15625 694.496094 752.15625 C 697.703125 745.53125 697.992188 743.160156 697.191406 730.265625 C 696.125 713.164062 691.839844 698.359375 682.925781 680.996094 C 677.921875 671.253906 672.957031 664.851562 661.332031 653.175781 C 648.410156 640.191406 644.070312 636.945312 631.207031 630.617188 C 610.988281 620.675781 595.390625 616.898438 575.195312 617.054688 C 566.417969 617.125 554.960938 618.121094 549.742188 619.269531 "/></g></svg>