<svg xmlns="http://www.w3.org/2000/svg" xmlns:xlink="http://www.w3.org/1999/xlink" width="1080" zoomAndPan="magnify" viewBox="0 0 810 817.92" height="1080" preserveAspectRatio="xMidYMid meet" version="1.2"><g id="fe70732aff"><path style=" stroke:none;fill-rule:evenodd;fill:currentColor;fill-opacity:1;" d="M 368.519531 84.574219 C 273.511719 100.097656 195.738281 171.167969 173.914062 262.40625 L 170.089844 278.382812 L 162.019531 278.398438 C 150.277344 278.417969 106.898438 288.808594 95.433594 294.351562 C 78.59375 302.488281 65.535156 317.746094 59.871094 335.894531 C 57.449219 343.644531 56.988281 350.683594 56.988281 379.648438 C 56.988281 408.617188 57.449219 415.65625 59.871094 423.40625 C 65.535156 441.554688 78.59375 456.808594 95.433594 464.953125 C 109.496094 471.753906 153.015625 481.515625 164.589844 480.464844 C 180.382812 479.035156 193.71875 469.574219 201.109375 454.566406 L 204.894531 446.878906 L 205.867188 367.785156 C 206.902344 283.996094 207.082031 281.90625 215.28125 257.507812 C 250.917969 151.492188 366.984375 94.847656 471.839844 132.296875 C 529.15625 152.769531 575.324219 199.816406 594.71875 257.507812 C 602.917969 281.90625 603.097656 283.996094 604.132812 367.785156 L 605.105469 446.878906 L 608.890625 454.566406 C 616.269531 469.554688 629.617188 479.035156 645.351562 480.460938 C 657.023438 481.519531 700.667969 471.765625 714.566406 464.988281 C 731.347656 456.8125 743.546875 442.65625 749.789062 424.117188 C 752.644531 415.640625 753.011719 410.578125 753.011719 379.652344 C 753.011719 348.722656 752.644531 343.660156 749.789062 335.183594 C 743.542969 316.644531 731.347656 302.488281 714.566406 294.3125 C 703.003906 288.679688 660.042969 278.410156 648.035156 278.410156 L 639.75 278.410156 L 637.761719 268.789062 C 623.613281 200.273438 572.402344 135.902344 507.753906 105.355469 C 489.574219 96.765625 472.183594 90.8125 453.246094 86.691406 C 434.289062 82.570312 387.886719 81.410156 368.519531 84.574219 M 370.988281 186.609375 C 305.902344 200.75 257.191406 246.789062 239.335938 311.042969 C 235.390625 325.25 234.996094 329.082031 234.996094 353.550781 C 234.996094 378.019531 235.390625 381.847656 239.335938 396.054688 C 256.367188 457.347656 302.546875 503.367188 363.871094 520.171875 L 378.898438 524.289062 L 458.746094 524.816406 C 502.660156 525.109375 540.195312 524.945312 542.160156 524.449219 C 547.90625 523.007812 556.320312 514.601562 559.183594 507.441406 C 564.179688 494.960938 559.867188 484.46875 545.171875 473.347656 L 535.109375 465.726562 L 542.835938 455.515625 C 551.671875 443.832031 563.046875 421.601562 567.898438 406.542969 C 577.285156 377.398438 578.285156 338.824219 570.390625 310.21875 C 554.027344 250.90625 508.558594 205.429688 449.125 188.921875 C 428.289062 183.136719 391.9375 182.0625 370.988281 186.609375 M 333.816406 338.0625 C 318.722656 345.777344 320.667969 367.042969 336.910156 371.90625 C 345.335938 374.433594 353.96875 370.246094 358.195312 361.589844 C 360.941406 355.96875 361.011719 354.8125 358.988281 349.078125 C 355.007812 337.824219 343.839844 332.9375 333.816406 338.0625 M 397.089844 338.0625 C 382 345.777344 383.941406 367.042969 400.183594 371.90625 C 408.609375 374.433594 417.246094 370.246094 421.46875 361.589844 C 424.214844 355.96875 424.289062 354.8125 422.261719 349.078125 C 418.28125 337.824219 407.117188 332.9375 397.089844 338.0625 M 460.367188 338.0625 C 445.273438 345.777344 447.21875 367.042969 463.460938 371.90625 C 471.886719 374.433594 480.519531 370.246094 484.746094 361.589844 C 487.488281 355.96875 487.5625 354.8125 485.535156 349.078125 C 481.554688 337.824219 470.390625 332.9375 460.367188 338.0625 M 192.652344 515.003906 C 182.8125 520.34375 180.855469 533.25 188.203125 544.339844 C 194.847656 554.375 216.984375 576.15625 231.570312 587.019531 C 261.785156 609.519531 304.851562 625.78125 342.535156 628.921875 L 355.171875 629.976562 L 355.171875 645.203125 C 355.171875 658.402344 355.734375 661.632812 359.394531 669.445312 C 364.78125 680.9375 375.792969 691.949219 387.289062 697.339844 C 395.070312 700.988281 398.347656 701.5625 411.328125 701.5625 C 424.308594 701.5625 427.582031 700.988281 435.367188 697.339844 C 446.859375 691.949219 457.871094 680.9375 463.261719 669.445312 C 466.910156 661.660156 467.484375 658.386719 467.484375 645.40625 C 467.484375 632.425781 466.910156 629.148438 463.261719 621.367188 C 457.871094 609.867188 446.859375 598.855469 435.367188 593.480469 C 425.507812 588.863281 428.046875 588.992188 369.40625 590.195312 C 332.667969 590.949219 312.363281 586.464844 279.242188 570.289062 C 258.644531 560.226562 240.1875 546.074219 226.324219 529.703125 C 220.898438 523.300781 214.570312 516.824219 212.257812 515.304688 C 207.15625 511.957031 198.515625 511.824219 192.652344 515.003906 "/></g></svg>