<svg xmlns="http://www.w3.org/2000/svg" xmlns:xlink="http://www.w3.org/1999/xlink" width="1080" zoomAndPan="magnify" viewBox="0 0 810 817.92" height="1080" preserveAspectRatio="xMidYMid meet" version="1.2"><g id="2d29e2f065"><path style=" stroke:none;fill-rule:evenodd;fill:currentColor;fill-opacity:1;" d="M 380.808594 41.402344 C 295.203125 50.191406 218.464844 112.078125 190.875 194.570312 C 185.855469 209.574219 180.375 236.34375 180.375 245.847656 C 180.375 251.753906 179.589844 253.785156 176.203125 256.671875 C 158.710938 271.550781 158.222656 273.46875 158.242188 327.335938 C 158.257812 369.765625 158.359375 371.167969 161.972656 378.925781 C 168.574219 393.101562 180.769531 400.597656 197.261719 400.605469 C 215.078125 400.613281 228.585938 390.621094 233.511719 373.785156 C 235.476562 367.082031 235.835938 357.480469 235.4375 322.371094 C 234.882812 273.34375 234.511719 271.71875 221.238281 260.359375 L 214.542969 254.628906 L 216.429688 239.679688 C 218.746094 221.339844 225.984375 198.207031 234.992188 180.332031 C 282.515625 86.085938 397.316406 48.652344 492.003906 96.53125 C 544.035156 122.84375 581.523438 173.546875 592.382812 232.3125 C 596.097656 252.429688 595.835938 254.300781 588.445312 260.632812 C 584.933594 263.636719 580.484375 269.042969 578.558594 272.648438 C 575.171875 278.972656 575.050781 280.765625 575.050781 324.285156 C 575.050781 349.082031 575.5625 371.1875 576.191406 373.410156 C 577.230469 377.101562 576.480469 377.933594 567.492188 383.066406 C 548.839844 393.710938 525.234375 401.457031 501.367188 404.765625 C 490.367188 406.289062 489.675781 406.195312 485.328125 402.539062 C 478.445312 396.746094 469.542969 395.03125 450.433594 395.808594 C 436.609375 396.371094 432.585938 397.09375 429.175781 399.640625 C 414.667969 410.472656 414.382812 428.277344 428.566406 437.753906 C 433.5 441.046875 435.710938 441.34375 455.457031 441.332031 C 478.34375 441.320312 481.050781 440.578125 488.933594 432.117188 C 491.050781 429.84375 494.019531 428.6875 497.75 428.6875 C 506.679688 428.6875 533.261719 422.785156 548.457031 417.425781 C 564.335938 411.828125 575.175781 406.617188 585.082031 399.828125 L 591.949219 395.117188 L 598.167969 397.921875 C 605.707031 401.320312 620.371094 401.484375 628.085938 398.25 C 635.992188 394.9375 643.472656 388.148438 647.492188 380.636719 C 650.816406 374.425781 651.003906 371.988281 651.46875 329.316406 C 652.046875 276.09375 651.613281 273.832031 638.503906 261.320312 L 630.097656 253.296875 L 629.066406 240.9375 C 625.054688 192.851562 601.445312 144.109375 564.046875 106.710938 C 525.480469 68.144531 480.070312 46.625 425.792969 41.1875 C 407.300781 39.335938 400.613281 39.367188 380.808594 41.402344 M 374.351562 114.773438 C 358.21875 117.976562 344.195312 122.925781 328.5 130.953125 C 289.855469 150.722656 260.058594 185.367188 246.308594 226.527344 C 239.605469 246.59375 239.539062 248.335938 245.15625 257.195312 C 253.765625 270.761719 254.722656 276.753906 254.722656 317.082031 L 254.722656 353.601562 L 261.140625 364.582031 C 288.109375 410.738281 335.945312 440.898438 390.347656 446.054688 C 399.582031 446.925781 407.445312 447.335938 407.824219 446.957031 C 408.199219 446.578125 407.117188 444.273438 405.414062 441.832031 C 393.863281 425.25 397.308594 400.488281 413.046875 387.015625 C 423.441406 378.117188 432.566406 376.089844 459.292969 376.738281 C 480.246094 377.242188 482.222656 377.5625 489.328125 381.570312 C 497.636719 386.253906 499.921875 386.175781 522.015625 380.453125 C 540.539062 375.652344 544.644531 373.054688 550.207031 362.617188 L 555.277344 353.105469 L 555.277344 316.835938 C 555.277344 276.84375 556.25 270.738281 564.761719 257.320312 C 570.402344 248.429688 570.261719 246.054688 562.835938 224.625 C 548.875 184.339844 518.757812 149.539062 481.722656 130.890625 C 455.5 117.691406 432.355469 112.230469 403.640625 112.460938 C 393.511719 112.542969 380.332031 113.582031 374.351562 114.769531 M 277.910156 476.261719 C 236.71875 482.441406 200.414062 500.769531 170.050781 530.71875 C 130.910156 569.324219 111.9375 614.296875 111.992188 668.34375 C 112.027344 701.75 118.9375 722.832031 135.183594 739.078125 C 150.316406 754.207031 169.289062 761.957031 203.113281 766.824219 C 220.476562 769.320312 239.605469 769.582031 405 769.582031 C 570.394531 769.582031 589.523438 769.320312 606.886719 766.824219 C 640.710938 761.957031 659.683594 754.207031 674.816406 739.078125 C 691.0625 722.832031 697.972656 701.75 698.007812 668.34375 C 698.0625 614.222656 677.289062 565.730469 637.949219 528.144531 C 612.546875 503.875 586.308594 489.46875 549.742188 479.710938 L 533.921875 475.488281 L 410.535156 475.183594 C 342.675781 475.015625 282.992188 475.5 277.910156 476.261719 "/></g></svg>