<svg xmlns="http://www.w3.org/2000/svg" xmlns:xlink="http://www.w3.org/1999/xlink" width="1080" zoomAndPan="magnify" viewBox="0 0 810 817.92" height="1080" preserveAspectRatio="xMidYMid meet" version="1.2"><g id="f1c7aae708"><path style=" stroke:none;fill-rule:evenodd;fill:currentColor;fill-opacity:1;" d="M 360.707031 53.628906 C 337.03125 57.421875 325.476562 60.261719 305.894531 67.097656 C 216.972656 98.136719 147.757812 167.632812 117.347656 256.40625 C 107.441406 285.324219 101.285156 319.480469 101.273438 345.597656 L 101.269531 358.296875 L 91.304688 363.445312 C 73.4375 372.683594 58.816406 390.382812 53.179688 409.597656 C 49.609375 421.765625 49.546875 487.03125 53.09375 500.640625 C 59.714844 526.0625 81.417969 547.765625 106.839844 554.386719 C 113.039062 556 123.445312 556.820312 137.761719 556.820312 C 157.589844 556.820312 159.773438 556.527344 164.679688 553.222656 C 167.613281 551.246094 171.636719 547.226562 173.613281 544.289062 L 177.210938 538.953125 L 177.210938 372.210938 L 173.613281 366.871094 C 169.136719 360.230469 160.59375 354.339844 155.433594 354.339844 L 151.527344 354.339844 L 152.566406 342.082031 C 158.328125 274.128906 180.058594 224.359375 223.785156 178.96875 C 313.675781 85.667969 458.171875 75.761719 560.816406 155.867188 C 615.507812 198.550781 649.214844 260.621094 656.441406 331.964844 C 658.726562 354.519531 658.742188 354.339844 654.378906 354.339844 C 649.386719 354.339844 640.800781 360.316406 636.386719 366.871094 L 632.789062 372.210938 L 632.789062 538.953125 L 636.386719 544.289062 C 638.363281 547.226562 642.457031 551.304688 645.484375 553.359375 C 650.808594 556.976562 651.777344 557.070312 676.292969 556.449219 C 697.800781 555.902344 702.964844 555.273438 710.6875 552.25 C 729.621094 544.835938 747.242188 527.214844 754.855469 508.085938 C 758.167969 499.761719 758.480469 496.144531 759.007812 460.042969 C 759.644531 416.609375 758.5 408.214844 749.863281 393.117188 C 743.691406 382.335938 728.683594 368.21875 717.625 362.792969 L 708.71875 358.425781 L 708.71875 345.664062 C 708.71875 294.984375 689.058594 232.632812 658.808594 187.390625 C 611.558594 116.71875 540.050781 69.765625 456.410156 54.492188 C 434.132812 50.421875 383.558594 49.96875 360.707031 53.628906 M 234.828125 306.972656 C 225.78125 310.453125 215.710938 318.476562 211.699219 325.398438 L 209.011719 330.035156 L 305.621094 391.292969 C 358.757812 424.980469 402.824219 452.695312 403.546875 452.878906 C 405.230469 453.300781 601.128906 330.191406 601.144531 328.707031 C 601.148438 328.09375 597.414062 323.757812 592.84375 319.078125 C 586.972656 313.066406 581.847656 309.5625 575.382812 307.144531 L 566.234375 303.71875 L 404.542969 303.800781 C 248.0625 303.882812 242.601562 303.984375 234.828125 306.972656 M 202.605469 448.859375 C 202.683594 532.296875 202.964844 542.507812 205.375 548.78125 C 206.847656 552.625 208.769531 556.003906 209.644531 556.296875 C 211.324219 556.855469 331.8125 437.140625 330.582031 436.132812 C 328.449219 434.382812 203.925781 355.921875 203.285156 355.921875 C 202.863281 355.921875 202.558594 397.742188 202.605469 448.859375 M 542.644531 395.472656 C 508.292969 417.148438 479.996094 435.449219 479.765625 436.140625 C 479.0625 438.242188 599.085938 557.304688 600.820312 556.234375 C 601.710938 555.683594 603.574219 551.90625 604.957031 547.835938 C 607.152344 541.398438 607.480469 528.445312 607.480469 448.179688 C 607.480469 397.4375 606.945312 355.957031 606.292969 355.996094 C 605.640625 356.035156 577 373.800781 542.644531 395.472656 M 289.582031 511.675781 C 255.390625 545.875 227.867188 574.582031 228.417969 575.472656 C 228.964844 576.363281 232.746094 578.222656 236.8125 579.609375 C 243.398438 581.855469 261.941406 582.121094 405.675781 582.046875 C 553.550781 581.964844 567.730469 581.734375 574.128906 579.277344 C 577.972656 577.800781 581.355469 575.878906 581.648438 575.003906 C 581.9375 574.132812 554.179688 545.429688 519.960938 511.222656 L 457.746094 449.023438 L 433.351562 464.429688 C 416.726562 474.929688 407.441406 479.847656 404.210938 479.878906 C 399.730469 479.914062 396.484375 478.074219 359.785156 454.632812 L 351.75 449.496094 Z M 632.039062 592.015625 C 626.96875 639.246094 599.90625 677.59375 558.1875 696.660156 C 541.082031 704.480469 528.640625 707.105469 503.472656 708.191406 L 480.929688 709.164062 L 480.929688 704.234375 C 480.929688 688.085938 465.675781 667.785156 448.789062 661.46875 C 440.484375 658.359375 436.632812 658.0625 405 658.0625 C 373.367188 658.0625 369.515625 658.359375 361.210938 661.46875 C 348.925781 666.066406 337.074219 677.914062 332.476562 690.203125 C 322.585938 716.636719 335.667969 746.335938 361.449219 755.984375 C 370.726562 759.453125 371.386719 759.476562 453.148438 758.925781 C 544.914062 758.308594 542.613281 758.554688 573.457031 746.167969 C 610.542969 731.277344 646.585938 698.078125 664.816406 662.015625 C 675.050781 641.769531 683.410156 609.675781 683.410156 590.625 L 683.410156 582.128906 L 633.101562 582.128906 Z M 632.039062 592.015625 "/></g></svg>