<svg xmlns="http://www.w3.org/2000/svg" xmlns:xlink="http://www.w3.org/1999/xlink" width="1080" zoomAndPan="magnify" viewBox="0 0 810 817.92" height="1080" preserveAspectRatio="xMidYMid meet" version="1.2"><g id="5be9e0b327"><path style=" stroke:none;fill-rule:evenodd;fill:currentColor;fill-opacity:1;" d="M 578.214844 65.777344 C 552.214844 71.5 529.640625 84.171875 509.40625 104.40625 C 488.375 125.4375 476.054688 147.96875 470.546875 175.472656 C 466.59375 195.207031 468.003906 224.011719 473.808594 242.027344 C 481.429688 265.679688 491.410156 282.679688 507.375 299.191406 L 514.46875 306.527344 L 498.492188 318.625 C 482.269531 330.910156 479.578125 334.957031 484.410156 339.785156 C 486.890625 342.269531 615.082031 342.476562 628.941406 340.023438 C 657.605469 334.945312 681.53125 322.734375 702.964844 302.234375 C 721.691406 284.328125 735.46875 261.367188 742.890625 235.699219 C 747.054688 221.285156 747.074219 184.238281 742.921875 168.46875 C 732.320312 128.191406 704.355469 94.300781 667.128906 76.625 C 647.097656 67.109375 636.066406 64.597656 611.433594 63.9375 C 595.429688 63.507812 586.21875 64.019531 578.214844 65.777344 M 542.625 186.203125 C 527.53125 193.917969 529.476562 215.179688 545.71875 220.046875 C 554.140625 222.570312 562.777344 218.386719 567.003906 209.730469 C 569.746094 204.109375 569.820312 202.953125 567.792969 197.21875 C 563.8125 185.964844 552.648438 181.078125 542.625 186.203125 M 599.570312 186.203125 C 584.480469 193.917969 586.421875 215.179688 602.664062 220.046875 C 611.089844 222.570312 619.726562 218.386719 623.949219 209.730469 C 626.695312 204.109375 626.769531 202.953125 624.742188 197.21875 C 620.761719 185.964844 609.597656 181.078125 599.570312 186.203125 M 656.519531 186.203125 C 641.425781 193.917969 643.371094 215.179688 659.613281 220.046875 C 668.039062 222.570312 676.671875 218.386719 680.898438 209.730469 C 683.644531 204.109375 683.714844 202.953125 681.6875 197.21875 C 677.710938 185.964844 666.542969 181.078125 656.519531 186.203125 M 352.007812 235.1875 C 349.398438 235.511719 340.226562 237.238281 331.632812 239.023438 C 287.113281 248.25 247.078125 270.046875 214.378906 302.863281 C 195.589844 321.714844 184.386719 336.828125 172.453125 359.425781 L 164.859375 373.800781 L 152.445312 373.480469 C 125.449219 372.785156 98.332031 388.054688 80.472656 414.011719 C 73.585938 424.023438 64.152344 445.03125 60.742188 457.953125 C 56.601562 473.632812 56.601562 513.457031 60.742188 529.136719 C 64.152344 542.058594 73.585938 563.066406 80.472656 573.078125 C 92.671875 590.808594 111.652344 605.214844 130.257812 610.867188 C 144.964844 615.332031 165.695312 614.410156 179.703125 608.664062 L 189.3125 604.722656 L 198.652344 616.585938 C 220.746094 644.652344 260.105469 673.46875 293.15625 685.777344 C 300.507812 688.515625 300.703125 688.75 299.484375 693.5 C 298.789062 696.195312 298.253906 703.738281 298.292969 710.261719 C 298.378906 724.039062 301.496094 731.382812 311.140625 740.539062 C 323.292969 752.078125 323.800781 752.183594 367.035156 752.183594 C 410.269531 752.183594 410.777344 752.078125 422.929688 740.539062 C 433.078125 730.910156 435.808594 724.148438 435.808594 708.679688 C 435.808594 692.824219 432.980469 686.109375 422.046875 676.03125 C 412.078125 666.84375 404.734375 664.753906 378.898438 663.753906 C 353.542969 662.769531 336.933594 659.984375 317.691406 653.480469 C 250.574219 630.792969 200.441406 573.089844 187.675781 503.828125 C 183.523438 481.3125 183.023438 465.769531 185.777344 444.847656 C 194.449219 378.894531 233.988281 322.609375 291.894531 293.78125 C 335.316406 272.164062 378.710938 267.347656 427.996094 278.667969 C 442.390625 281.972656 442.664062 281.976562 448.707031 279.027344 C 460.917969 273.066406 463.546875 258.105469 454.050781 248.609375 C 449.105469 243.664062 432.632812 238.785156 410.535156 235.71875 C 400.019531 234.257812 362.15625 233.914062 352.007812 235.1875 M 349.464844 306.183594 C 313.722656 312.652344 278.667969 332.992188 254.65625 361.1875 C 188.234375 439.1875 207.910156 558.035156 295.851562 609.984375 C 375.015625 656.746094 477.363281 629.429688 522.992188 549.363281 C 538.496094 522.160156 545.042969 494.332031 543.753906 461.117188 C 542.539062 429.847656 534.375 403.820312 518.238281 379.773438 L 510.195312 367.785156 L 495.078125 366.800781 C 486.265625 366.222656 477.949219 364.769531 475.144531 363.320312 C 463.410156 357.253906 455.96875 342.765625 457.917969 329.78125 L 458.902344 323.1875 L 449.386719 318.917969 C 417.621094 304.660156 382.554688 300.191406 349.464844 306.183594 M 565.265625 363.753906 C 554.871094 370.089844 554.566406 378.753906 563.851562 404.066406 C 571.621094 425.25 574.785156 444.019531 574.792969 469.027344 C 574.808594 501.417969 568.5 527.722656 553.613281 557.378906 C 545.09375 574.347656 544.160156 580.230469 548.78125 587.816406 C 552.492188 593.898438 568.171875 604.515625 580.214844 609.105469 C 592.996094 613.972656 614.875 615.0625 627.300781 611.449219 C 654.417969 603.566406 674.585938 584.875 689.328125 553.96875 C 706.875 517.175781 706.875 469.914062 689.328125 433.125 C 670.675781 394.015625 641.183594 372.667969 606.953125 373.5 C 594.957031 373.789062 594.472656 373.65625 591.628906 369.316406 C 585.820312 360.464844 574.554688 358.085938 565.265625 363.753906 M 321.160156 502.644531 C 314.289062 506.078125 309.390625 515.242188 310.859375 521.925781 C 313.539062 534.128906 334.613281 551.867188 354.378906 558.554688 C 362.117188 561.175781 368.378906 562.035156 379.691406 562.035156 C 391 562.035156 397.261719 561.175781 405 558.554688 C 424.765625 551.867188 445.84375 534.128906 448.523438 521.925781 C 450.035156 515.03125 445.097656 506.0625 437.832031 502.515625 C 429.34375 498.367188 423.492188 500.191406 412.90625 510.285156 C 401.328125 521.332031 392.855469 525.113281 379.691406 525.113281 C 366.644531 525.113281 357.773438 521.242188 347.261719 510.953125 C 339.992188 503.839844 333.292969 499.871094 328.570312 499.875 C 327.539062 499.875 324.207031 501.121094 321.160156 502.644531 "/></g></svg>