<svg xmlns="http://www.w3.org/2000/svg" xmlns:xlink="http://www.w3.org/1999/xlink" width="1080" zoomAndPan="magnify" viewBox="0 0 810 817.92" height="1080" preserveAspectRatio="xMidYMid meet" version="1.2"><g id="abeb23216a"><path style=" stroke:none;fill-rule:evenodd;fill:currentColor;fill-opacity:1;" d="M 153.09375 72.84375 C 114.890625 77.292969 80.347656 101.832031 62.71875 137.046875 C 50.722656 161.003906 51.449219 149.457031 51.449219 316.375 C 51.449219 484.257812 50.621094 471.808594 63.46875 496.710938 C 75.335938 519.699219 92.425781 536.492188 116.09375 548.410156 C 128.863281 554.839844 147.695312 559.984375 158.480469 559.984375 L 166.136719 559.984375 L 166.152344 598.34375 L 166.167969 636.707031 L 170.886719 644.9375 C 178.832031 658.789062 194.8125 665.382812 210.445312 661.257812 C 216.78125 659.585938 222.921875 654.03125 267.375 609.734375 L 317.207031 560.078125 L 442.175781 559.617188 L 567.140625 559.15625 L 577.425781 555.46875 C 611.265625 543.332031 638.484375 518.28125 650.824219 487.90625 C 659.667969 466.144531 659.683594 465.886719 659.683594 316.582031 C 659.683594 166.441406 659.65625 165.972656 650.554688 144.304688 C 633.859375 104.578125 597.828125 77.804688 554.34375 72.824219 C 537.667969 70.914062 169.511719 70.929688 153.09375 72.84375 M 683.0625 312.023438 C 683.554688 475.808594 683.726562 472.609375 673.15625 497.214844 C 665.425781 515.210938 658.710938 525.664062 646.277344 539.046875 C 625.457031 561.449219 605.339844 573.332031 574.261719 581.589844 C 565.054688 584.03125 551.535156 584.375 445.246094 584.878906 L 326.511719 585.441406 L 301.3125 610.679688 L 276.113281 635.914062 L 492.816406 635.914062 L 540.261719 683.476562 C 566.578125 709.863281 590.457031 732.472656 593.886719 734.257812 C 606.535156 740.835938 624.359375 737.5 634.683594 726.621094 C 643.160156 717.691406 643.863281 713.613281 643.863281 673.488281 L 643.863281 636.613281 L 657.988281 634.691406 C 702.558594 628.621094 739.453125 597.859375 754.242188 554.449219 L 758.550781 541.792969 L 758.550781 241.234375 L 754.214844 228.582031 C 743.613281 197.636719 725.613281 178.738281 696.769531 168.269531 C 691.082031 166.203125 685.574219 164.515625 684.527344 164.515625 C 683.050781 164.515625 682.71875 197.796875 683.0625 312.023438 M 268.996094 190.699219 C 252.179688 195.375 240.132812 205.398438 232.289062 221.246094 C 229.238281 227.40625 228.652344 231.113281 228.640625 244.398438 C 228.621094 259.433594 228.890625 260.714844 234.046875 270.226562 C 248.71875 297.285156 281.066406 307.34375 308.585938 293.398438 C 312.617188 291.355469 319.582031 285.671875 324.0625 280.765625 C 345.972656 256.792969 341.953125 218.394531 315.546875 199.429688 C 302.195312 189.84375 284.207031 186.46875 268.996094 190.699219 M 346.996094 307.160156 C 289.890625 364.242188 243.4375 411.90625 242.925781 413.953125 C 240.808594 422.386719 249.46875 430.375 258.28125 428.121094 C 260.238281 427.621094 307.929688 381.082031 364.265625 324.703125 C 462.445312 226.449219 466.691406 221.957031 466.691406 216.410156 C 466.691406 212.039062 465.671875 209.816406 462.523438 207.339844 C 453.433594 200.191406 457.695312 196.511719 346.996094 307.160156 M 268.753906 216.726562 C 238.832031 232.539062 251.984375 277.703125 285.699219 274.90625 C 301.851562 273.566406 312.03125 262.523438 312.929688 245.363281 C 313.421875 235.980469 313 234.160156 308.796875 227.621094 C 300.449219 214.625 282.152344 209.644531 268.753906 216.726562 M 416.5 333.796875 C 398.867188 337.449219 385.574219 347.636719 377.777344 363.46875 C 373.058594 373.0625 372.570312 375.378906 372.570312 388.316406 C 372.570312 400.476562 373.195312 403.921875 376.796875 411.597656 C 390.023438 439.820312 424.394531 451.609375 452.269531 437.484375 C 461.613281 432.746094 473.769531 419.820312 477.867188 410.261719 C 490.085938 381.753906 475.847656 347.875 446.890625 336.574219 C 438.542969 333.316406 424.851562 332.066406 416.5 333.796875 M 413.515625 360.53125 C 400.726562 366.335938 393.074219 382.601562 396.953125 395.726562 C 401.507812 411.132812 414.1875 420.136719 429.535156 418.867188 C 445.875 417.511719 457.390625 404.929688 457.539062 388.265625 C 457.742188 365.675781 434.476562 351.015625 413.515625 360.53125 "/></g></svg>