<svg xmlns="http://www.w3.org/2000/svg" version="1.1" xmlns:xlink="http://www.w3.org/1999/xlink" width="1112.18" height="971.43"><svg id="SvgjsSvg1163" data-name="Layer 2" xmlns="http://www.w3.org/2000/svg" viewBox="0 0 1112.18 971.43">
  <defs>
    <style>
      .cls-1 {
        fill: #f60;
      }
    </style>
  </defs>
  <g id="SvgjsG1162" data-name="Layer 1">
    <g>
      <path d="M964.62,378.72c-35.39,37.59-72.62,73.41-111.3,107.64-3.22,2.85-5.08,6.91-5.23,11.22-6.09,175.7-150.28,316.31-327.47,316.31-48.16,0-93.74-10.63-134.91-29.3-3.71-.09-8.66-.21-12.37-.3-50.3,20.36-101.82,38.19-154.41,53.62-12.03,3.53-15.25,19.17-5.46,27.01,5.5,4.4,11.1,8.69,16.81,12.86,2.72,1.99,5.33,4.1,8.08,6.04.04.02.06.08.1.1.1.07.2.13.29.19.04.02.06.08.1.1.17.09.33.19.49.29.32.15.55.45.88.58.03.01.07-.01.1,0,78.4,54.27,173.37,86.36,275.94,86.36,268.28,0,485.76-217.49,485.76-485.76,0-21.14-1.86-41.79-4.48-62.22,0-.03,0-.07,0-.1-.11-.88-.27-1.75-.39-2.63,0-.03,0-.06,0-.1,0-.03,0-.07,0-.1-.02-.2-.07-.38-.1-.58-1.55-11.43-3.51-22.72-5.84-33.87-2.57-12.28-17.97-16.5-26.57-7.36Z"></path>
      <path class="cls-1" d="M520.62,158.22c126.83,0,236.6,72.13,291.13,177.5-153.09,156.75-344.36,324.33-567.32,369.87-28.01-48.29-51.64-159.69-51.64-219.54,0-181.06,146.77-327.83,327.83-327.83ZM516.24,0C247.96,0,30.48,217.39,30.48,485.66c0,44.65,6.44,87.75,17.72,128.82,2.49,9.07,5.18,18.02,8.18,26.87,3.43,10.12,6.94,20.18,11,29.99,9.1,21.97,20.13,42.88,32.23,63.09-10.36,12.06-25.6,19.86-42.74,19.86-3.74,0-7.37-.38-10.91-1.07-3.31-.65-6.47-1.62-9.54-2.82-1.21-.48-2.33-1.1-3.51-1.66-1.63-.78-3.23-1.61-4.77-2.53-4.53-2.72-8.59-6.09-12.17-9.93-.76-.82-1.43-1.67-2.14-2.53-3.28-3.97-6.16-8.27-8.28-13.05-.87-1.97-1.54-4.02-2.19-6.11-.41-1.32-1.04-3.49-1.35-4.84-.6-2.68-1.05-5.43-1.23-8.23C.62,703.95,0,706.27,0,708.73,0,773.33,52.34,825.67,116.94,825.67c5.15,0,10.12-.82,15.09-1.46.07,0,.13-.09.19-.1.03-.01.07,0,.1,0,.06-.02.13.01.19,0,.03,0,.06,0,.1,0,7.85-1.92,15.75-3.64,23.56-5.65.1-.03.19-.08.29-.1.18-.07.4-.03.58-.1,1.47-.54,3.04-.87,4.48-1.46.03.03.07.06.1.1,60.61-15.98,119.7-35.51,177.4-57.93.02.02.07-.01.1,0,23.48-9.13,46.66-18.78,69.62-28.92,21.7-9.58,43.06-19.72,64.26-30.18,6.95-3.43,13.75-7.09,20.64-10.61,6.04-3.09,11.99-6.33,18.01-9.44,3.47-1.83,6.93-3.66,10.42-5.45,3.63-1.95,7.38-3.67,11-5.65.23-.13.45-.26.68-.39.29-.16.58-.33.88-.49,9.47-5.18,18.78-10.61,28.14-15.97,4.7-2.69,9.34-5.47,14.02-8.18,1.43-.84,2.85-1.7,4.28-2.53,4.58-2.7,9.27-5.24,13.83-7.98.04-.02.06-.08.1-.1.12-.07.27-.12.39-.19,8.93-5.38,17.76-10.91,26.58-16.46.62-.39,1.23-.78,1.85-1.17,2.91-1.83,5.77-3.7,8.67-5.55,7.8-4.98,15.56-9.99,23.27-15.09.19-.13.39-.26.58-.39.12-.08.27-.11.39-.19.17-.11.31-.27.49-.39.15-.11.33-.19.49-.29,7.7-5.11,15.37-10.24,22.98-15.48.04-.03.06-.07.1-.1.06-.04.14-.06.19-.1.19-.13.39-.26.58-.39,9.83-6.78,19.54-13.76,29.21-20.74.51-.37,1.05-.7,1.56-1.07.49-.35.97-.72,1.46-1.07.49-.35.97-.72,1.46-1.07.04-.03.06-.07.1-.1.19-.14.4-.25.58-.39,7.13-5.16,14.29-10.3,21.32-15.58.35-.27.72-.51,1.07-.78.07-.05.12-.14.19-.19.32-.24.66-.44.97-.68,9.47-7.15,18.73-14.57,28.04-21.91.87-.69,1.76-1.35,2.63-2.04,1.23-.98,2.47-1.94,3.7-2.92.52-.42,1.03-.85,1.56-1.27.52-.42,1.03-.85,1.56-1.27,5.34-4.27,10.78-8.42,16.07-12.75,17.97-14.75,35.73-29.8,53.07-45.28,44.5-39.75,87.04-81.64,127.06-125.89,21.82-24.12,42.6-49.11,63-74.49l23.66,19.47,13.26,10.87c9.79,8.02,24.55,1.64,25.41-10.98l3.87-56.35,3.89-56.67,5.86-85.5c.74-10.87-9.61-19.12-20.03-15.98l-93.51,28.16-93.34,28.09c-11.94,3.59-15.03,19.05-5.39,26.96l44.2,36.28c-8.78,13.23-17.85,26.22-27.17,39.04C829.36,83.66,682.61,0,516.24,0Z"></path>
    </g>
  </g>
</svg><style>@media (prefers-color-scheme: light) { :root { filter: none; } }
@media (prefers-color-scheme: dark) { :root { filter: none; } }
</style></svg>