<svg xmlns="http://www.w3.org/2000/svg" xmlns:xlink="http://www.w3.org/1999/xlink" width="1080" zoomAndPan="magnify" viewBox="0 0 810 817.92" height="1080" preserveAspectRatio="xMidYMid meet" version="1.2"><g id="2394cf515d"><path style=" stroke:none;fill-rule:evenodd;fill:currentColor;fill-opacity:1;" d="M 105.164062 41.847656 L 101.28125 45.730469 L 101.28125 164.515625 L 708.71875 164.515625 L 708.71875 45.730469 L 700.953125 37.964844 L 109.046875 37.964844 Z M 165.613281 65.84375 C 148.269531 71.171875 136.777344 90.871094 140.722656 108.511719 C 145.625 130.421875 166.277344 143.066406 187.214844 136.980469 C 207.832031 130.988281 218.753906 111.234375 212.804688 90.695312 C 209.34375 78.753906 199.925781 69.25 188.046875 65.726562 C 178.136719 62.78125 175.535156 62.796875 165.613281 65.84375 M 279.507812 65.84375 C 262.164062 71.171875 250.671875 90.871094 254.617188 108.511719 C 259.519531 130.421875 280.171875 143.066406 301.109375 136.980469 C 321.726562 130.988281 332.648438 111.234375 326.699219 90.695312 C 323.242188 78.753906 313.820312 69.25 301.945312 65.726562 C 292.03125 62.78125 289.429688 62.796875 279.507812 65.84375 M 393.40625 65.84375 C 376.058594 71.171875 364.566406 90.871094 368.511719 108.511719 C 373.417969 130.421875 394.066406 143.066406 415.003906 136.980469 C 435.625 130.988281 446.542969 111.234375 440.59375 90.695312 C 437.136719 78.753906 427.714844 69.25 415.839844 65.726562 C 405.925781 62.78125 403.324219 62.796875 393.40625 65.84375 M 507.300781 65.84375 C 489.953125 71.171875 478.460938 90.871094 482.40625 108.511719 C 487.3125 130.421875 507.960938 143.066406 528.898438 136.980469 C 549.519531 130.988281 560.4375 111.234375 554.488281 90.695312 C 551.03125 78.753906 541.609375 69.25 529.734375 65.726562 C 519.820312 62.78125 517.21875 62.796875 507.300781 65.84375 M 621.195312 65.84375 C 603.847656 71.171875 592.355469 90.871094 596.300781 108.511719 C 601.207031 130.421875 621.859375 143.066406 642.792969 136.980469 C 663.414062 130.988281 674.332031 111.234375 668.382812 90.695312 C 664.925781 78.753906 655.507812 69.25 643.628906 65.726562 C 633.71875 62.78125 631.113281 62.796875 621.195312 65.84375 M 168.4375 92.46875 C 165.988281 94.914062 164.554688 98.160156 164.554688 101.238281 C 164.554688 104.320312 165.988281 107.566406 168.4375 110.011719 C 170.886719 112.460938 174.128906 113.894531 177.210938 113.894531 C 180.292969 113.894531 183.535156 112.460938 185.980469 110.011719 C 193.828125 102.164062 188.269531 88.585938 177.210938 88.585938 C 174.128906 88.585938 170.886719 90.019531 168.4375 92.46875 M 282.332031 92.46875 C 274.484375 100.316406 280.046875 113.894531 291.105469 113.894531 C 294.1875 113.894531 297.429688 112.460938 299.875 110.011719 C 307.722656 102.164062 302.164062 88.585938 291.105469 88.585938 C 288.023438 88.585938 284.78125 90.019531 282.332031 92.46875 M 396.226562 92.46875 C 393.78125 94.914062 392.34375 98.160156 392.34375 101.238281 C 392.34375 104.320312 393.78125 107.566406 396.226562 110.011719 C 404.074219 117.859375 417.65625 112.300781 417.65625 101.238281 C 417.65625 94.738281 411.503906 88.585938 405 88.585938 C 401.917969 88.585938 398.675781 90.019531 396.226562 92.46875 M 510.125 92.46875 C 502.277344 100.316406 507.835938 113.894531 518.894531 113.894531 C 525.398438 113.894531 531.550781 107.742188 531.550781 101.238281 C 531.550781 94.738281 525.398438 88.585938 518.894531 88.585938 C 515.8125 88.585938 512.570312 90.019531 510.125 92.46875 M 624.019531 92.46875 C 616.171875 100.316406 621.730469 113.894531 632.789062 113.894531 C 639.292969 113.894531 645.445312 107.742188 645.445312 101.238281 C 645.445312 94.738281 639.292969 88.585938 632.789062 88.585938 C 629.707031 88.585938 626.464844 90.019531 624.019531 92.46875 M 101.28125 359.269531 L 101.28125 528.714844 L 104.839844 527.605469 C 134.890625 518.234375 159.90625 517.199219 187.257812 524.203125 C 200.9375 527.703125 205.277344 528.253906 208.613281 526.910156 C 214.640625 524.488281 231.796875 520.871094 243.050781 519.644531 L 252.734375 518.589844 L 253.519531 507.621094 C 254.058594 500.089844 255.585938 494.179688 258.390625 488.769531 L 262.480469 480.890625 L 258.203125 472.648438 C 254.15625 464.835938 253.929688 463.238281 253.929688 442.195312 C 253.929688 423.5625 254.40625 419.097656 256.878906 414.453125 C 261.007812 406.703125 267.09375 400.507812 274.496094 396.511719 C 280.457031 393.292969 283.304688 393.066406 323.84375 392.589844 L 366.867188 392.082031 L 367.347656 330.105469 C 367.785156 273.214844 368.066406 267.675781 370.773438 262.589844 C 374.902344 254.84375 380.988281 248.644531 388.390625 244.648438 L 394.71875 241.234375 L 551.71875 240.804688 L 708.71875 240.371094 L 708.71875 189.824219 L 101.28125 189.824219 Z M 396.226562 269.640625 L 392.34375 273.519531 L 392.34375 392.304688 L 417.65625 392.304688 L 417.65625 300.3125 L 422.277344 295.6875 L 426.902344 291.066406 L 737.4375 291.066406 L 742.0625 295.6875 L 746.683594 300.3125 L 746.683594 458.988281 L 742.0625 463.613281 L 737.4375 468.234375 L 658.617188 468.25 L 579.796875 468.257812 L 576.253906 474.464844 L 572.714844 480.664062 L 577.046875 489.015625 C 581.148438 496.917969 581.378906 498.523438 581.378906 518.855469 C 581.378906 539.117188 581.136719 540.8125 577.105469 548.582031 L 572.832031 556.820312 L 577.105469 565.058594 C 581.136719 572.828125 581.378906 574.523438 581.378906 594.785156 C 581.378906 615.046875 581.136719 616.742188 577.105469 624.511719 L 572.832031 632.75 L 577.105469 640.988281 C 581.136719 648.757812 581.378906 650.453125 581.378906 670.714844 C 581.378906 690.976562 581.136719 692.671875 577.105469 700.441406 L 572.832031 708.679688 L 577.101562 716.917969 C 580.84375 724.121094 581.445312 727.351562 581.933594 742.707031 C 582.242188 752.359375 581.765625 762.886719 580.875 766.105469 L 579.261719 771.957031 L 764.230469 771.957031 L 768.113281 768.070312 L 771.996094 764.191406 L 771.996094 273.519531 L 768.113281 269.640625 L 764.230469 265.753906 L 400.109375 265.753906 Z M 442.964844 354.25 L 442.964844 392.121094 L 498.726562 392.609375 C 552.355469 393.078125 554.730469 393.226562 560.816406 396.511719 C 574.15625 403.710938 580.449219 414.15625 581.742188 431.246094 L 582.628906 442.925781 L 721.375 442.925781 L 721.375 316.375 L 442.964844 316.375 Z M 282.332031 421.5 C 278.675781 425.15625 278.449219 426.40625 278.449219 442.925781 C 278.449219 459.445312 278.675781 460.695312 282.332031 464.351562 L 286.214844 468.234375 L 549.09375 468.234375 L 552.976562 464.351562 C 556.632812 460.695312 556.859375 459.445312 556.859375 442.925781 C 556.859375 426.40625 556.632812 425.15625 552.976562 421.5 L 549.09375 417.617188 L 286.214844 417.617188 Z M 282.332031 497.429688 C 279.015625 500.746094 278.449219 502.792969 278.449219 511.472656 L 278.449219 521.636719 L 289.042969 524.296875 C 300.417969 527.152344 319.90625 535.601562 327.355469 540.910156 C 331.867188 544.121094 333.421875 544.164062 440.511719 544.164062 L 549.09375 544.164062 L 552.976562 540.28125 C 556.632812 536.625 556.859375 535.375 556.859375 518.855469 C 556.859375 502.335938 556.632812 501.085938 552.976562 497.429688 L 549.09375 493.546875 L 286.214844 493.546875 Z M 624.757812 498.167969 L 620.136719 502.792969 L 620.136719 636.15625 L 624.757812 640.78125 L 629.382812 645.40625 L 737.4375 645.40625 L 742.0625 640.78125 L 746.683594 636.15625 L 746.683594 502.792969 L 742.0625 498.167969 L 737.4375 493.546875 L 629.382812 493.546875 Z M 645.445312 569.476562 L 645.445312 620.09375 L 721.375 620.09375 L 721.375 518.855469 L 645.445312 518.855469 Z M 123.707031 547.375 C 84.992188 557.515625 54.015625 587.488281 42.003906 626.421875 C 40.527344 631.207031 38.957031 642.953125 38.507812 652.523438 C 37.464844 674.863281 40.320312 688.910156 49.753906 707.890625 C 62.050781 732.621094 77.34375 747.914062 102.070312 760.203125 C 158.585938 788.292969 225.351562 765.433594 254.21875 708.105469 C 275.84375 665.167969 266.875 611.832031 232.195312 577.152344 C 217.75 562.710938 197.238281 551.359375 176.945312 546.574219 C 162.847656 543.25 138.023438 543.625 123.707031 547.375 M 236.234375 545.085938 C 235.128906 545.59375 239.269531 550.613281 246.316406 557.308594 C 275.746094 585.261719 290.0625 618.234375 290.0625 658.0625 C 290.0625 697.925781 275.75 730.855469 246.238281 758.886719 C 234.628906 769.917969 234.34375 770.359375 238.242188 771.339844 C 247.03125 773.542969 275.742188 770.886719 288.730469 766.660156 C 322.894531 755.554688 349.429688 729.03125 361.777344 693.652344 C 365.839844 682.019531 366.195312 679.144531 366.160156 658.0625 C 366.128906 637.417969 365.699219 633.855469 361.875 622.46875 C 355.867188 604.582031 347.535156 591.257812 333.742188 577.460938 C 311.523438 555.242188 289.078125 545.667969 257.09375 544.765625 C 246.652344 544.46875 237.265625 544.613281 236.234375 545.085938 M 139.246094 575.730469 C 139.246094 581.714844 138.988281 582.035156 133.3125 583.0625 C 121.21875 585.25 111.417969 592.449219 105.511719 603.484375 C 102.667969 608.800781 102.125 612.472656 102.125 626.421875 C 102.125 640.433594 102.664062 644.046875 105.5625 649.511719 C 113.75 664.929688 126.707031 670.714844 153.050781 670.714844 C 168.347656 670.714844 169.703125 670.976562 173.328125 674.597656 C 176.71875 677.992188 177.210938 679.898438 177.210938 689.699219 C 177.210938 699.496094 176.71875 701.40625 173.328125 704.796875 C 169.671875 708.453125 168.417969 708.679688 151.898438 708.679688 C 135.382812 708.679688 134.128906 708.453125 130.472656 704.796875 C 128.335938 702.660156 126.589844 699.8125 126.589844 698.46875 C 126.589844 696.46875 124.289062 696.027344 113.863281 696.027344 L 101.136719 696.027344 L 102.214844 701.957031 C 104.933594 716.957031 114.875 727.734375 129.824219 731.890625 C 139.238281 734.507812 139.246094 734.515625 139.246094 740.578125 L 139.246094 746.644531 L 164.554688 746.644531 L 164.554688 734.507812 L 174.34375 731.789062 C 194.105469 726.292969 203.8125 709.882812 202.097656 684.878906 C 200.898438 667.351562 194.542969 656.6875 181.164062 649.738281 C 176.050781 647.085938 170.785156 646.277344 153.734375 645.535156 C 127.789062 644.402344 126.589844 643.550781 126.589844 626.175781 C 126.589844 616.636719 127.097656 614.699219 130.472656 611.324219 C 134.128906 607.667969 135.382812 607.441406 151.898438 607.441406 C 168.417969 607.441406 169.671875 607.667969 173.328125 611.324219 C 175.460938 613.460938 177.210938 616.308594 177.210938 617.652344 C 177.210938 619.652344 179.511719 620.09375 189.9375 620.09375 L 202.664062 620.09375 L 201.585938 614.164062 C 198.648438 597.96875 186.671875 585.992188 170.488281 583.0625 C 164.8125 582.035156 164.554688 581.714844 164.554688 575.730469 L 164.554688 569.476562 L 139.246094 569.476562 Z M 361.265625 570.660156 C 361.675781 571.316406 365.164062 576.539062 369.015625 582.269531 C 375.414062 591.796875 386.015625 614.328125 386.015625 618.402344 C 386.015625 619.582031 410.71875 620.09375 467.554688 620.09375 L 549.09375 620.09375 L 552.976562 616.210938 C 556.632812 612.554688 556.859375 611.304688 556.859375 594.785156 C 556.859375 578.269531 556.632812 577.015625 552.976562 573.359375 L 549.09375 569.476562 L 454.808594 569.476562 C 402.949219 569.476562 360.855469 570.007812 361.265625 570.660156 M 391.351562 660.832031 C 391.242188 669.3125 390.089844 680.703125 388.796875 686.140625 L 386.441406 696.027344 L 549.09375 696.027344 L 552.976562 692.140625 C 556.632812 688.488281 556.859375 687.234375 556.859375 670.714844 C 556.859375 654.199219 556.632812 652.945312 552.976562 649.289062 L 549.09375 645.40625 L 470.324219 645.410156 L 391.554688 645.410156 Z M 624.757812 675.339844 L 620.136719 679.964844 L 620.136719 737.398438 L 624.757812 742.023438 L 629.382812 746.644531 L 737.4375 746.644531 L 742.0625 742.023438 L 746.683594 737.398438 L 746.683594 679.964844 L 742.0625 675.339844 L 737.4375 670.714844 L 629.382812 670.714844 Z M 645.445312 708.679688 L 645.445312 721.335938 L 721.375 721.335938 L 721.375 696.027344 L 645.445312 696.027344 Z M 369.359375 733.378906 C 365.035156 740.007812 355.234375 751.394531 347.578125 758.691406 L 333.652344 771.957031 L 549.09375 771.957031 L 552.976562 768.070312 C 556.632812 764.417969 556.859375 763.164062 556.859375 746.644531 C 556.859375 730.128906 556.632812 728.875 552.976562 725.21875 L 549.09375 721.335938 L 377.21875 721.335938 Z M 369.359375 733.378906 "/></g></svg>