<svg xmlns="http://www.w3.org/2000/svg" xmlns:xlink="http://www.w3.org/1999/xlink" width="1080" zoomAndPan="magnify" viewBox="0 0 810 817.92" height="1080" preserveAspectRatio="xMidYMid meet" version="1.2"><g id="fafcdf3b37"><path style=" stroke:none;fill-rule:evenodd;fill:currentColor;fill-opacity:1;" d="M 87.820312 20.351562 C 79.84375 23.972656 71.894531 32.914062 69.738281 40.691406 C 68.824219 43.976562 68.074219 59.609375 68.070312 75.433594 L 68.058594 104.199219 L 116.703125 104.695312 L 165.34375 105.195312 L 175.226562 109.757812 C 186.550781 114.988281 196.386719 124.742188 201.457031 135.761719 C 204.089844 141.484375 204.867188 146.214844 204.875 156.640625 C 204.890625 168.703125 204.34375 171.230469 199.679688 180.707031 C 194.117188 192.007812 187.339844 198.710938 175.628906 204.5 C 168.847656 207.851562 166.148438 208.054688 118.679688 208.808594 L 68.851562 209.597656 L 67.992188 270.332031 L 117.460938 270.8125 L 166.925781 271.292969 L 175.851562 275.671875 C 186.289062 280.800781 196.664062 291.417969 201.4375 301.859375 C 205.984375 311.816406 206.179688 331.230469 201.84375 342.472656 C 197.851562 352.828125 185.554688 365.6875 175.15625 370.394531 C 167.167969 374.007812 165.488281 374.128906 117.492188 374.59375 L 68.058594 375.070312 L 68.058594 434.851562 L 117.492188 435.328125 C 165.488281 435.792969 167.167969 435.914062 175.15625 439.527344 C 185.554688 444.230469 197.851562 457.09375 201.84375 467.449219 C 203.941406 472.886719 204.894531 479.300781 204.894531 488.007812 C 204.894531 498.632812 204.191406 502.09375 200.511719 509.589844 C 195.398438 520 184.800781 530.371094 174.324219 535.210938 C 167.324219 538.445312 164.269531 538.65625 117.492188 539.109375 L 68.058594 539.585938 L 68.058594 597.746094 L 117.492188 598.242188 L 166.925781 598.742188 L 175.851562 603.121094 C 186.273438 608.242188 196.644531 618.847656 201.457031 629.308594 C 206.640625 640.570312 206.316406 660.597656 200.765625 672.296875 C 195.65625 683.0625 187.445312 691.578125 176.714844 697.234375 L 168.507812 701.5625 L 118.171875 702.039062 L 67.835938 702.519531 L 68.34375 736.050781 C 68.894531 772.433594 69.296875 774.296875 78.589844 783.679688 C 87.757812 792.929688 79.800781 792.519531 249.683594 792.519531 L 406.097656 792.519531 L 401.988281 784.21875 L 397.882812 775.917969 L 397.882812 356.648438 L 403.039062 346.171875 C 409.039062 333.980469 417.617188 325.617188 430.121094 319.753906 L 439.011719 315.585938 L 546.207031 315.144531 L 653.40625 314.707031 L 652.5625 40.089844 L 647.816406 32.425781 C 644.703125 27.394531 640.679688 23.5 636.101562 21.082031 L 629.128906 17.402344 L 361.644531 17.433594 C 106.339844 17.46875 93.871094 17.601562 87.820312 20.351562 M 33.894531 132.726562 C 14.753906 141.421875 12.964844 169.359375 30.703125 182.609375 C 34.917969 185.757812 37.25 185.882812 97.835938 186.292969 C 168.238281 186.765625 166.777344 186.972656 176.175781 175.207031 C 184.753906 164.46875 183.242188 146.578125 172.96875 137.289062 C 164.976562 130.058594 161.59375 129.710938 99.351562 129.75 C 45.261719 129.78125 39.839844 130.027344 33.894531 132.726562 M 33.636719 297.566406 C 13.027344 307.769531 13.183594 338.757812 33.894531 348.164062 C 39.847656 350.867188 45.289062 351.109375 100.515625 351.140625 C 167.976562 351.179688 166.675781 351.382812 176.378906 339.394531 C 180.660156 334.109375 181.164062 332.34375 181.164062 322.703125 C 181.164062 313.0625 180.660156 311.296875 176.378906 306.011719 C 166.679688 294.03125 167.96875 294.230469 100.515625 294.230469 C 42.53125 294.230469 40.136719 294.351562 33.636719 297.566406 M 439.695312 342.175781 C 431.988281 346.242188 426.453125 353.257812 424.007812 362.0625 C 421.601562 370.726562 421.832031 758.800781 424.25 768.398438 C 426.949219 779.125 436.789062 788.476562 447.90625 790.878906 C 454.136719 792.226562 498.296875 792.585938 613.015625 792.222656 C 756.824219 791.769531 770.023438 791.507812 774.53125 789.042969 C 780.855469 785.574219 789.015625 776.261719 790.558594 770.742188 C 791.226562 768.363281 791.769531 675.304688 791.769531 563.9375 L 791.769531 361.457031 L 788.179688 354.738281 C 786.203125 351.039062 781.628906 346.058594 778.011719 343.664062 L 771.4375 339.3125 L 609.074219 338.894531 L 446.710938 338.480469 Z M 485.792969 401.21875 C 482.640625 405.222656 482.511719 407.230469 482.511719 452.703125 L 482.511719 500.015625 L 490.277344 507.78125 L 605.140625 507.78125 C 720.339844 507.78125 724.605469 507.59375 728.074219 502.402344 C 728.714844 501.445312 729.246094 478.777344 729.261719 452.019531 C 729.28125 405.46875 729.148438 403.242188 726.121094 400.214844 C 723.015625 397.109375 720.847656 397.050781 606.015625 397.050781 L 489.070312 397.050781 Z M 35.601562 460.949219 C 28.941406 463.851562 21.058594 473.324219 19.027344 480.871094 C 15.703125 493.214844 22.007812 506.699219 33.769531 512.390625 C 40.3125 515.558594 42.96875 515.691406 99.800781 515.65625 C 154.023438 515.625 159.5625 515.375 165.46875 512.691406 C 186.832031 502.988281 187.164062 472.292969 166.023438 461.515625 C 161.132812 459.023438 154.667969 458.753906 100.488281 458.808594 C 54.390625 458.855469 39.265625 459.351562 35.601562 460.949219 M 529.835938 545.535156 C 526.871094 547.941406 526.070312 550.40625 525.53125 558.808594 L 524.875 569.128906 L 514.746094 569.773438 C 503.585938 570.484375 500.503906 572.449219 499.03125 579.804688 C 498.335938 583.289062 498.992188 585.707031 501.484375 588.878906 C 504.5625 592.789062 505.863281 593.203125 515.054688 593.203125 L 525.222656 593.203125 L 525.222656 602.480469 C 525.222656 614.351562 529.128906 620.09375 537.203125 620.09375 C 545.871094 620.09375 548.949219 615.746094 548.949219 603.484375 L 548.949219 593.203125 L 559.234375 593.203125 C 571.492188 593.203125 575.84375 590.125 575.84375 581.457031 C 575.84375 573.382812 570.097656 569.476562 558.226562 569.476562 L 548.949219 569.476562 L 548.949219 559.308594 C 548.949219 550.207031 548.511719 548.796875 544.78125 545.863281 C 539.613281 541.796875 534.589844 541.6875 529.835938 545.535156 M 639.835938 573.359375 C 635.09375 578.101562 634.882812 583.507812 639.234375 589.035156 L 642.511719 593.203125 L 675.554688 593.203125 C 707.507812 593.203125 708.703125 593.089844 711.824219 589.742188 C 716.214844 585.027344 715.941406 578.132812 711.164062 573.359375 C 707.300781 569.492188 707.136719 569.476562 675.5 569.476562 C 643.867188 569.476562 643.703125 569.492188 639.835938 573.359375 M 32.859375 626.53125 C 14.652344 636.144531 13.382812 663.796875 30.625 675.207031 L 36.984375 679.414062 L 163.996094 679.414062 L 169.558594 675.605469 C 188.523438 662.605469 187.5 636.515625 167.632812 626.378906 C 161.851562 623.429688 158.183594 623.261719 100.15625 623.328125 C 42.117188 623.394531 38.472656 623.570312 32.859375 626.53125 M 640.175781 663.207031 C 635.808594 666.402344 635.078125 675.613281 638.828125 680.242188 L 642 684.160156 L 675.5 684.160156 C 708.796875 684.160156 709.019531 684.140625 712.023438 680.425781 C 715.945312 675.585938 715.882812 668.386719 711.882812 664.386719 C 708.921875 661.425781 706.613281 661.222656 675.804688 661.222656 C 651.917969 661.222656 642.140625 661.769531 640.175781 663.207031 M 510.125 673.015625 C 504.257812 678.882812 505.128906 683.898438 513.574219 692.929688 L 520.910156 700.769531 L 513.574219 708.613281 C 505.054688 717.722656 504.25 722.652344 510.300781 728.703125 C 515.808594 734.210938 522.296875 732.804688 531.070312 724.191406 L 537.761719 717.628906 L 545.660156 725.019531 C 550.007812 729.082031 554.625 732.410156 555.925781 732.410156 C 563.65625 732.410156 570.605469 724.289062 568.605469 717.59375 C 568.046875 715.738281 564.703125 711.222656 561.171875 707.5625 L 554.75 700.90625 L 561.164062 693.949219 C 568.789062 685.671875 570.359375 681.578125 567.761719 676.707031 C 562.550781 666.925781 555.996094 666.855469 545.71875 676.46875 L 537.878906 683.804688 L 530.035156 676.46875 C 521.003906 668.023438 515.988281 667.152344 510.125 673.015625 M 640.175781 712.246094 C 635.808594 715.441406 635.078125 724.648438 638.828125 729.28125 L 642 733.199219 L 675.5 733.199219 C 708.796875 733.199219 709.019531 733.175781 712.023438 729.464844 C 715.945312 724.625 715.882812 717.421875 711.882812 713.425781 C 708.921875 710.464844 706.613281 710.261719 675.804688 710.261719 C 651.917969 710.261719 642.140625 710.808594 640.175781 712.246094 "/></g></svg>