<svg xmlns="http://www.w3.org/2000/svg" xmlns:xlink="http://www.w3.org/1999/xlink" width="1080" zoomAndPan="magnify" viewBox="0 0 810 817.92" height="1080" preserveAspectRatio="xMidYMid meet" version="1.2"><g id="19f64c7473"><path style=" stroke:none;fill-rule:evenodd;fill:currentColor;fill-opacity:1;" d="M 150.84375 18.746094 C 140.535156 22.308594 132.757812 28.210938 126.625 37.121094 C 116.433594 51.9375 117.023438 27.96875 117.476562 409.023438 L 117.890625 755.347656 L 122.003906 764.117188 C 127.683594 776.226562 134.707031 783.703125 145.285156 788.898438 L 154.273438 793.3125 L 401.761719 793.726562 C 673.402344 794.179688 658.175781 794.6875 671.90625 784.742188 C 675.472656 782.160156 680.582031 776.859375 683.257812 772.96875 C 693.382812 758.253906 692.902344 771.367188 692.902344 509.824219 L 692.902344 272.082031 L 604.710938 272.050781 C 555.929688 272.035156 511.574219 271.328125 505.449219 270.472656 C 473.515625 266.003906 444.996094 239.242188 438.386719 207.542969 C 437.226562 201.980469 436.636719 168.304688 436.636719 107.488281 L 436.636719 15.820312 L 297.828125 15.871094 C 168.753906 15.917969 158.445312 16.121094 150.84375 18.746094 M 468.621094 112.707031 L 469.066406 204.851562 L 472.691406 211.648438 C 478.285156 222.121094 486.660156 230.425781 496.492188 235.257812 L 505.449219 239.65625 L 596.875 240.109375 L 688.300781 240.566406 L 685.691406 235.363281 C 682.996094 229.980469 496.703125 42.046875 480.453125 28.320312 C 475.40625 24.054688 470.578125 20.5625 469.726562 20.5625 C 468.730469 20.5625 468.335938 53.355469 468.621094 112.707031 M 254.722656 104.199219 L 254.722656 110.320312 L 244.886719 112.253906 C 218.160156 117.511719 202.257812 135.335938 202.335938 159.941406 C 202.410156 183.628906 213.066406 195.472656 242.859375 204.976562 L 253.929688 208.507812 L 254.367188 232.386719 C 254.738281 252.671875 254.449219 256.265625 252.449219 256.265625 C 247.507812 256.265625 231.960938 249.359375 222.261719 242.855469 L 212.15625 236.078125 L 204.175781 245.253906 C 199.785156 250.300781 196.191406 255.117188 196.191406 255.949219 C 196.191406 257.984375 204.519531 264.207031 215.175781 270.136719 C 224.996094 275.601562 243.257812 281.574219 250.140625 281.574219 C 254.683594 281.574219 254.722656 281.652344 254.722656 291.066406 L 254.722656 300.554688 L 268.957031 300.554688 L 268.957031 291.886719 C 268.957031 282.363281 268.203125 282.988281 282.40625 280.765625 C 290.625 279.476562 303.222656 273.710938 309.601562 268.316406 C 312.378906 265.96875 316.824219 259.691406 319.488281 254.367188 C 327.953125 237.425781 325.464844 216.109375 313.554688 203.515625 C 308.203125 197.855469 291.144531 189.148438 278.566406 185.652344 L 268.957031 182.980469 L 268.957031 137.21875 L 275.679688 138.21875 C 279.378906 138.769531 287.304688 141.691406 293.292969 144.710938 C 299.28125 147.734375 304.800781 149.820312 305.558594 149.351562 C 307.132812 148.378906 319.578125 130.335938 319.578125 129.027344 C 319.578125 128.558594 314.730469 125.730469 308.804688 122.746094 C 298.144531 117.375 286.363281 113.5 274.890625 111.578125 C 269.203125 110.628906 268.957031 110.328125 268.957031 104.332031 L 268.957031 98.078125 L 254.722656 98.078125 Z M 244.316406 139.039062 C 235.429688 143.078125 230.992188 149.140625 230.992188 157.257812 C 230.992188 160.863281 232.109375 165.402344 233.472656 167.347656 C 235.894531 170.808594 244.078125 175.671875 251.164062 177.863281 L 254.722656 178.964844 L 254.722656 157.503906 C 254.722656 133.738281 254.980469 134.195312 244.316406 139.039062 M 268.957031 234.816406 C 268.957031 246.511719 269.492188 256.386719 270.144531 256.765625 C 273.242188 258.566406 286.359375 252.726562 290.941406 247.507812 C 300.386719 236.75 296.226562 224.125 280.847656 216.894531 C 268.707031 211.1875 268.957031 210.808594 268.957031 234.816406 M 559.074219 347.851562 C 555.679688 350.371094 532.984375 372.433594 508.636719 396.878906 L 464.367188 441.316406 L 419.199219 396.246094 C 370.902344 348.058594 371.011719 348.140625 361.023438 353.445312 C 355.867188 356.1875 206.75 505.535156 204.265625 510.445312 C 201.371094 516.175781 202.273438 521.695312 206.972656 526.957031 C 210.664062 531.082031 212.597656 531.941406 218.222656 531.941406 L 225.011719 531.941406 L 296.421875 460.558594 L 367.824219 389.171875 L 412.964844 434.238281 C 453.640625 474.851562 458.617188 479.308594 463.269531 479.308594 C 466.109375 479.308594 470.355469 478.292969 472.703125 477.054688 C 475.054688 475.816406 501.355469 450.324219 531.15625 420.40625 L 585.332031 366.011719 L 585.332031 359.261719 C 585.332031 353.914062 584.375 351.554688 580.710938 347.890625 C 574.523438 341.703125 567.363281 341.691406 559.074219 347.851562 M 556.859375 599.53125 L 556.859375 729.246094 L 626.460938 729.246094 L 626.460938 469.816406 L 556.859375 469.816406 Z M 308.503906 640.660156 L 308.503906 729.246094 L 378.109375 729.246094 L 378.109375 552.074219 L 308.503906 552.074219 Z M 183.539062 656.480469 L 183.539062 729.246094 L 253.140625 729.246094 L 253.140625 583.710938 L 183.539062 583.710938 Z M 431.890625 682.578125 L 431.890625 729.246094 L 501.496094 729.246094 L 501.496094 635.914062 L 431.890625 635.914062 Z M 431.890625 682.578125 "/></g></svg>