<svg xmlns="http://www.w3.org/2000/svg" xmlns:xlink="http://www.w3.org/1999/xlink" width="1080" zoomAndPan="magnify" viewBox="0 0 810 817.92" height="1080" preserveAspectRatio="xMidYMid meet" version="1.2"><defs><clipPath id="4d11baac3b"><path d="M 25 0 L 785 0 L 785 809.921875 L 25 809.921875 Z M 25 0 "/></clipPath></defs><g id="c27b82ab60"><g clip-rule="nonzero" clip-path="url(#4d11baac3b)"><path style=" stroke:none;fill-rule:evenodd;fill:currentColor;fill-opacity:1;" d="M 405 94.914062 L 405 189.824219 L 215.175781 189.824219 L 215.175781 287.363281 L 227.433594 290.027344 C 243.28125 293.472656 262.460938 301.308594 278.824219 311.015625 C 296.570312 321.546875 322.320312 347.300781 332.855469 365.054688 C 348.808594 391.941406 356.3125 419.414062 356.28125 450.835938 C 356.246094 482.941406 348.089844 511.839844 331.574219 538.335938 C 322.742188 552.503906 302.792969 574.1875 290.550781 582.921875 C 285.671875 586.402344 281.667969 589.605469 281.65625 590.039062 C 281.640625 590.476562 286.785156 593.488281 293.089844 596.734375 C 332.46875 617.023438 372.628906 662.371094 388.371094 704.332031 L 391.195312 711.84375 L 784.648438 711.84375 L 784.648438 0 L 405 0 Z M 292.6875 78.304688 L 228.636719 142.367188 L 357.542969 142.367188 L 357.542969 78.304688 C 357.542969 43.066406 357.363281 14.238281 357.140625 14.238281 C 356.917969 14.238281 327.914062 43.066406 292.6875 78.304688 M 547.367188 121.09375 L 547.367188 147.277344 L 542.039062 149.503906 C 535.5 152.234375 523.574219 161.210938 517.339844 168.09375 C 505.519531 181.140625 498.742188 204.207031 501.417969 222.253906 C 506.640625 257.457031 531.046875 280.242188 567.4375 283.898438 C 585.597656 285.71875 594.8125 293.992188 594.8125 308.464844 C 594.8125 332.519531 563.070312 341.316406 550.523438 320.738281 C 548.796875 317.90625 547.378906 313.984375 547.375 312.023438 C 547.367188 308.492188 547.191406 308.464844 523.671875 308.464844 L 499.972656 308.464844 L 500.933594 315.980469 C 502.753906 330.214844 508.414062 343.203125 517.449219 353.875 C 522.820312 360.226562 535.347656 369.722656 542.039062 372.515625 L 547.367188 374.742188 L 547.367188 427.105469 L 594.824219 427.105469 L 594.824219 374.742188 L 600.15625 372.515625 C 606.695312 369.785156 618.621094 360.808594 624.855469 353.925781 C 636.671875 340.878906 643.453125 317.8125 640.777344 299.765625 C 635.554688 264.5625 611.148438 241.777344 574.757812 238.121094 C 556.597656 236.300781 547.378906 228.027344 547.378906 213.554688 C 547.378906 189.5 579.125 180.703125 591.667969 201.28125 C 593.398438 204.113281 594.816406 208.035156 594.820312 209.992188 C 594.824219 213.527344 595.003906 213.554688 618.523438 213.554688 L 642.222656 213.554688 L 641.257812 206.039062 C 639.4375 191.800781 633.777344 178.816406 624.746094 168.140625 C 619.371094 161.792969 606.847656 152.296875 600.15625 149.503906 L 594.824219 147.277344 L 594.824219 94.914062 L 547.367188 94.914062 Z M 166.714844 334.453125 C 143.433594 339.761719 124.664062 350.144531 107.710938 367.097656 C 82.816406 391.996094 71.671875 420.890625 73.289062 456.371094 C 75.640625 507.875 108.042969 549.308594 158.226562 564.980469 C 168.207031 568.097656 173.484375 568.683594 191.445312 568.683594 C 209.433594 568.683594 214.664062 568.097656 224.609375 564.976562 C 264.726562 552.378906 293.117188 524.011719 305.589844 484.054688 C 308.707031 474.074219 309.296875 468.796875 309.296875 450.835938 C 309.296875 432.871094 308.707031 427.59375 305.589844 417.617188 C 293.21875 377.992188 264.878906 349.460938 225.457031 336.953125 C 211.265625 332.449219 181.136719 331.167969 166.714844 334.453125 M 405 498.292969 L 405 522.019531 L 689.738281 522.019531 L 689.738281 474.5625 L 405 474.5625 Z M 405 593.203125 L 405 616.933594 L 689.738281 616.933594 L 689.738281 569.476562 L 405 569.476562 Z M 166.007812 618.429688 C 152.75 620.859375 134.503906 626.390625 123.933594 631.179688 C 98.425781 642.75 69.707031 666.925781 54.949219 689.257812 C 33.878906 721.148438 25.351562 750.046875 25.351562 789.5625 L 25.351562 809.921875 L 357.542969 809.921875 L 357.542969 789.5625 C 357.542969 750.046875 349.015625 721.148438 327.945312 689.257812 C 313.152344 666.875 284.46875 642.75 258.816406 631.117188 C 238.699219 621.996094 221.558594 618.316406 196.191406 617.679688 C 183.578125 617.359375 169.996094 617.699219 166.007812 618.429688 "/></g></g></svg>