<svg xmlns="http://www.w3.org/2000/svg" xmlns:xlink="http://www.w3.org/1999/xlink" width="1080" zoomAndPan="magnify" viewBox="0 0 810 817.92" height="1080" preserveAspectRatio="xMidYMid meet" version="1.2"><g id="9071c94f9d"><path style=" stroke:none;fill-rule:evenodd;fill:currentColor;fill-opacity:1;" d="M 281.613281 84.3125 C 281.613281 129.351562 280.972656 159.496094 279.886719 165.363281 C 275.410156 189.585938 257.523438 206.816406 233.199219 210.332031 C 227.203125 211.199219 190.792969 211.921875 152.296875 211.941406 L 82.296875 211.972656 L 82.296875 653.316406 L 373.074219 653.316406 L 393.722656 665.179688 C 405.074219 671.703125 414.769531 677.042969 415.261719 677.042969 C 415.753906 677.042969 415.960938 666.1875 415.71875 652.917969 L 415.28125 628.796875 L 286.449219 628.390625 L 157.621094 627.984375 L 153.96875 624.554688 C 149.125 620.003906 149.222656 613.136719 154.203125 608.160156 L 158.082031 604.277344 L 416.15625 604.277344 L 415.28125 557.613281 L 286.449219 557.207031 L 157.621094 556.800781 L 153.96875 553.371094 C 149.125 548.820312 149.222656 541.953125 154.203125 536.976562 L 158.082031 533.09375 L 416.144531 533.09375 L 415.710938 503.433594 L 415.28125 473.773438 L 399.5 473.316406 C 385.933594 472.921875 383.210938 472.382812 380.121094 469.480469 L 376.527344 466.101562 L 376.527344 259.285156 L 380.410156 255.402344 C 384.183594 251.628906 384.949219 251.519531 407.816406 251.519531 C 440.835938 251.519531 438.21875 247.132812 438.21875 302.453125 L 438.21875 346.0625 L 447.894531 342.15625 C 454.75 339.386719 461.90625 337.988281 472.414062 337.359375 L 487.257812 336.476562 L 487.257812 268.140625 C 487.257812 200.679688 487.300781 199.769531 490.585938 196.792969 C 493.550781 194.113281 496.53125 193.78125 517.617188 193.78125 L 541.316406 193.78125 L 548.949219 202.65625 L 548.949219 336.941406 L 621.765625 336.941406 L 621.34375 186.007812 L 620.925781 35.074219 L 616.109375 28.214844 C 613.460938 24.441406 608.121094 19.574219 604.246094 17.402344 L 597.199219 13.445312 L 281.613281 12.59375 Z M 170.089844 100.449219 L 84.671875 185.871094 L 157.4375 186.304688 C 239.183594 186.792969 238.839844 186.832031 248.996094 175.589844 C 252.046875 172.210938 254.964844 167.09375 255.480469 164.214844 C 256 161.335938 256.214844 126.589844 255.964844 87.003906 L 255.511719 15.027344 Z M 427.144531 89.011719 C 421.667969 91.835938 418.789062 98.277344 420.730469 103.382812 C 422.859375 108.980469 427.785156 111.640625 440.195312 113.894531 C 446.070312 114.960938 450.855469 116.289062 450.832031 116.84375 C 450.8125 117.394531 418.957031 136.164062 380.042969 158.546875 C 221.757812 249.597656 182.605469 272.40625 179.714844 275.25 C 175.164062 279.726562 175.761719 287.609375 180.988281 292.105469 C 183.355469 294.144531 186.535156 295.8125 188.046875 295.8125 C 190.765625 295.8125 205.328125 287.53125 375.539062 189.214844 C 423.28125 161.636719 462.6875 139.421875 463.113281 139.84375 C 463.535156 140.265625 462.378906 145.058594 460.542969 150.496094 C 456.066406 163.753906 456.234375 168.273438 461.371094 172.308594 C 466.828125 176.605469 473.238281 176.492188 477.261719 172.027344 C 479.023438 170.074219 484.835938 155.503906 490.175781 139.660156 C 503.5 100.109375 504.199219 101.328125 463.53125 93.425781 C 449.175781 90.636719 436.003906 88.042969 434.265625 87.664062 C 432.523438 87.285156 429.320312 87.890625 427.144531 89.011719 M 273.734375 310.433594 C 265.808594 314.570312 265.761719 315.078125 266.1875 393.328125 C 266.566406 462.582031 266.742188 466.492188 269.597656 469.652344 C 272.410156 472.757812 274.226562 472.980469 296.710938 472.980469 C 318.082031 472.980469 321.234375 472.640625 324.542969 469.957031 L 328.277344 466.933594 L 328.277344 316.464844 L 324.679688 312.859375 C 321.335938 309.511719 319.554688 309.226562 299.371094 308.820312 C 283.9375 308.511719 276.523438 308.980469 273.734375 310.433594 M 456.410156 364.878906 C 448.949219 368.8125 444.824219 373.273438 442.171875 380.285156 C 439.992188 386.042969 439.765625 408.699219 440.152344 582.246094 L 440.59375 777.726562 L 444.546875 783.566406 C 446.84375 786.957031 451.785156 791.058594 456.324219 793.339844 L 464.152344 797.265625 L 616.09375 797.230469 C 760.089844 797.199219 768.375 797.042969 774.433594 794.292969 C 782.339844 790.699219 788.789062 783.242188 790.960938 775.183594 C 792.074219 771.054688 792.472656 706.3125 792.191406 576.332031 L 791.769531 383.605469 L 787.441406 376.242188 C 784.433594 371.128906 781.019531 367.867188 776.261719 365.566406 C 769.449219 362.265625 768.601562 362.25 615.285156 362.3125 C 477.886719 362.371094 460.640625 362.648438 456.410156 364.878906 M 160.085938 370.65625 C 156.714844 374.242188 156.644531 375.261719 156.644531 420.484375 C 156.644531 464.542969 156.789062 466.796875 159.808594 469.816406 C 162.699219 472.707031 165.082031 472.980469 187.375 472.980469 L 211.78125 472.980469 L 215.058594 468.8125 C 218.203125 464.820312 218.339844 462.773438 218.339844 419.703125 L 218.339844 374.761719 L 214.453125 370.878906 C 210.679688 367.105469 209.917969 366.996094 187.050781 366.996094 C 164.503906 366.996094 163.382812 367.148438 160.085938 370.65625 M 492.058594 415.929688 C 491.121094 417.683594 490.421875 430.128906 490.421875 445.105469 C 490.421875 470.296875 490.542969 471.308594 493.9375 473.683594 C 497.042969 475.859375 511.316406 476.144531 616.535156 476.144531 C 733.503906 476.144531 735.667969 476.089844 738.777344 472.980469 C 741.683594 470.074219 741.941406 467.707031 741.941406 443.828125 C 741.941406 422.3125 741.511719 417.414062 739.453125 415.355469 C 737.238281 413.136719 723.800781 412.871094 615.332031 412.871094 C 496.695312 412.871094 493.65625 412.945312 492.058594 415.929688 M 493.039062 517.003906 C 490.855469 519.414062 490.421875 523.707031 490.421875 542.789062 C 490.421875 558.484375 491.019531 566.273438 492.320312 567.578125 C 494.972656 570.230469 541.234375 570.230469 543.890625 567.578125 C 545.195312 566.273438 545.785156 558.394531 545.785156 542.378906 C 545.785156 523.308594 545.335938 518.628906 543.300781 516.59375 C 541.273438 514.570312 536.652344 514.109375 518.238281 514.109375 C 498.371094 514.109375 495.34375 514.457031 493.039062 517.003906 M 590.984375 516.59375 C 588.949219 518.628906 588.496094 523.308594 588.496094 542.378906 C 588.496094 558.394531 589.089844 566.273438 590.394531 567.578125 C 591.707031 568.886719 599.769531 569.476562 616.441406 569.476562 C 638.695312 569.476562 640.71875 569.234375 642.226562 566.417969 C 643.128906 564.726562 643.863281 553.492188 643.863281 541.351562 C 643.863281 512.730469 645.285156 514.109375 615.773438 514.109375 C 597.605469 514.109375 593.007812 514.570312 590.984375 516.59375 M 689.34375 515.816406 C 686.898438 517.242188 686.574219 520.25 686.574219 541.554688 C 686.574219 558.210938 687.164062 566.265625 688.472656 567.578125 C 689.785156 568.886719 697.847656 569.476562 714.519531 569.476562 C 736.773438 569.476562 738.792969 569.234375 740.300781 566.417969 C 741.203125 564.734375 741.941406 553.699219 741.941406 541.898438 C 741.941406 513.132812 742.910156 514.09375 713.863281 514.15625 C 701.898438 514.183594 690.863281 514.929688 689.34375 515.816406 M 492.058594 607.335938 C 491.152344 609.027344 490.421875 620.300781 490.421875 632.535156 C 490.421875 650.550781 490.886719 655.132812 492.90625 657.15625 C 494.9375 659.183594 499.566406 659.640625 518.105469 659.640625 C 536.640625 659.640625 541.273438 659.183594 543.300781 657.15625 C 545.335938 655.121094 545.785156 650.445312 545.785156 631.371094 C 545.785156 615.359375 545.195312 607.480469 543.890625 606.175781 C 542.578125 604.863281 534.515625 604.277344 517.84375 604.277344 C 495.589844 604.277344 493.566406 604.515625 492.058594 607.335938 M 590.394531 606.175781 C 589.085938 607.488281 588.496094 615.550781 588.496094 632.21875 C 588.496094 654.472656 588.738281 656.496094 591.558594 658.003906 C 593.246094 658.910156 604.480469 659.640625 616.621094 659.640625 C 645.183594 659.640625 643.863281 660.976562 643.863281 632.128906 C 643.863281 620.171875 643.125 609.019531 642.226562 607.335938 C 640.71875 604.515625 638.695312 604.277344 616.441406 604.277344 C 599.769531 604.277344 591.707031 604.863281 590.394531 606.175781 M 688.472656 606.175781 C 685.742188 608.90625 685.742188 743.597656 688.472656 746.328125 C 689.785156 747.640625 697.847656 748.226562 714.519531 748.226562 C 736.773438 748.226562 738.792969 747.988281 740.300781 745.167969 C 741.355469 743.195312 741.941406 718.445312 741.941406 675.679688 C 741.941406 617.398438 741.632812 608.941406 739.453125 606.761719 C 737.417969 604.726562 732.742188 604.277344 713.671875 604.277344 C 697.65625 604.277344 689.777344 604.871094 688.472656 606.175781 M 26.769531 682.238281 C 19.015625 687.453125 17.617188 693.308594 17.617188 720.542969 C 17.617188 747.78125 19.015625 753.636719 26.769531 758.851562 C 31.582031 762.085938 34.023438 762.464844 50.101562 762.464844 L 68.058594 762.464844 L 68.058594 678.625 L 50.101562 678.625 C 34.023438 678.625 31.582031 679.003906 26.769531 682.238281 M 92.15625 720.140625 L 92.578125 761.671875 L 355.171875 761.671875 L 355.171875 679.414062 L 91.734375 678.609375 Z M 379.691406 720.542969 C 379.691406 739.25 380.121094 754.554688 380.648438 754.554688 C 383.390625 754.554688 424.324219 729.976562 425.625 727.550781 C 426.460938 725.988281 427.144531 722.832031 427.144531 720.542969 C 427.144531 718.253906 426.460938 715.101562 425.625 713.539062 C 424.324219 711.113281 383.390625 686.535156 380.648438 686.535156 C 380.121094 686.535156 379.691406 701.839844 379.691406 720.542969 M 493.9375 695.324219 C 490.574219 697.679688 490.421875 698.800781 490.421875 721.109375 C 490.421875 737.136719 491.015625 745.023438 492.320312 746.328125 C 494.972656 748.984375 541.234375 748.984375 543.890625 746.328125 C 545.195312 745.023438 545.785156 737.144531 545.785156 721.132812 C 545.785156 702.058594 545.335938 697.382812 543.300781 695.347656 C 539.6875 691.734375 499.089844 691.714844 493.9375 695.324219 M 590.984375 695.347656 C 588.949219 697.382812 588.496094 702.058594 588.496094 721.132812 C 588.496094 737.144531 589.089844 745.023438 590.394531 746.328125 C 591.707031 747.640625 599.769531 748.226562 616.441406 748.226562 C 638.695312 748.226562 640.71875 747.988281 642.226562 745.167969 C 643.132812 743.476562 643.863281 732.199219 643.863281 719.945312 C 643.863281 691.664062 645.132812 692.863281 615.152344 692.863281 C 597.550781 692.863281 593 693.332031 590.984375 695.347656 "/></g></svg>