<?xml version="1.0" encoding="UTF-8"?>
<svg xmlns="http://www.w3.org/2000/svg" viewBox="0 0 397.4 397.4">
  <g>
    <!-- Outer circle will follow Tailwind text color -->
    <path fill="currentColor" d="M397.4,198.7c0,109.7-89,198.7-198.7,198.7h0C89,397.4,0,308.4,0,198.7h0C0,89,89,0,198.7,0h0c109.7,0,198.7,89,198.7,198.7h0Z"/>
    
    <!-- "F" logo stays white -->
    <path fill="#fff" d="M257.6,183.3l-3.3,26.6c-.6,4.4-4.3,7.8-8.8,7.8h-43v111.1c-4.5.4-9.1.6-13.8.6-10.4,0-20.6-1-30.4-3v-108.7h-33.1c-3,0-5.5-2.5-5.5-5.5v-33.3c0-3,2.5-5.5,5.5-5.5h33.1v-49.9c0-30.6,24.7-55.4,55.2-55.4h38.6c3,0,5.5,2.5,5.5,5.5v33.3c0,3-2.5,5.5-5.5,5.5h-27.6c-12.2,0-22.1,9.9-22.1,22.2v38.8h46.4c5.3,0,9.4,4.7,8.8,10v-.1Z"/>
  </g>
</svg>


