<svg xmlns="http://www.w3.org/2000/svg" viewBox="0 0 397.4 397.4">
  <g>
    <!-- Outer circle uses currentColor -->
    <path fill="currentColor" d="M397.4,198.7c0,109.7-89,198.7-198.7,198.7S0,308.4,0,198.7,89,0,198.7,0,397.4,89,397.4,198.7Z"/>
    
    <!-- Camera body -->
    <path fill="#fff" d="M252.6,94.5h-107.8c-27.8,0-50.3,22.5-50.3,50.3v107.8c0,27.8,22.5,50.3,50.3,50.3h107.8c27.8,0,50.3-22.5,50.3-50.3v-107.8c0-27.8-22.5-50.3-50.3-50.3ZM285,249c0,19.8-16.1,35.9-35.9,35.9h-100.6c-19.8,0-35.9-16.1-35.9-35.9v-100.6c0-19.8,16.1-35.9,35.9-35.9h100.6c19.8,0,35.9,16.1,35.9,35.9v100.6Z"/>
    
    <!-- Camera lens -->
    <path fill="#fff" d="M198.8,144.8c-29.8,0-53.9,24.1-53.9,53.9s24.1,53.9,53.9,53.9,53.9-24.1,53.9-53.9-24.1-53.9-53.9-53.9ZM198.8,234.6c-19.8,0-35.9-16.1-35.9-35.9s16.1-35.9,35.9-35.9,35.9,16.1,35.9,35.9-16.1,35.9-35.9,35.9Z"/>
    
    <!-- Small circle (flash) -->
    <path fill="#fff" d="M256.3,151.9c-5.9,0-10.8-4.8-10.8-10.8s4.8-10.8,10.8-10.8,10.8,4.8,10.8,10.8-4.8,10.8-10.8,10.8Z"/>
  </g>
</svg>
