<svg xmlns="http://www.w3.org/2000/svg" viewBox="0 0 397.4 397.4">
  <g>
    <!-- Outer circle uses currentColor -->
    <path fill="currentColor" d="M397.4,198.7c0,109.7-89,198.7-198.7,198.7S0,308.4,0,198.7,89,0,198.7,0,397.4,89,397.4,198.7Z"/>
    
    <!-- Inner LinkedIn icon elements -->
    <circle fill="#fff" cx="128.3" cy="120" r="25.6"/>
    <rect fill="#fff" x="107" y="162.6" width="42.6" height="127.9" rx="1.9" ry="1.9"/>
    <path fill="#fff" d="M294.7,209.6v72.5c0,4.7-3.8,8.5-8.5,8.5h-25.6c-4.7,0-8.5-3.8-8.5-8.5v-59.7c0-11.8-9.6-21.3-21.3-21.3s-21.3,9.6-21.3,21.3v59.7c0,4.7-3.8,8.5-8.5,8.5h-25.6c-4.7,0-8.5-3.8-8.5-8.5v-110.9c0-4.7,3.8-8.5,8.5-8.5h25.6c4.7,0,8.5,3.8,8.5,8.5v5.5c8.5-11,22.6-18.3,38.4-18.3,23.5,0,46.9,17.1,46.9,51.2Z"/>
  </g>
</svg>
