<svg xmlns="http://www.w3.org/2000/svg" viewBox="0 0 397.4 397.4">
  <g>
    <!-- Outer circle uses currentColor -->
    <path fill="currentColor" d="M397.4,198.7c0,109.7-89,198.7-198.7,198.7S0,308.4,0,198.7,89,0,198.7,0,397.4,89,397.4,198.7Z"/>
    
    <!-- Inner Pinterest icon -->
    <path fill="#fff" d="M238.1,249.9v-98.4s11.1,18.5,51.2,19.6c2.1,0,3.9-1.7,3.9-3.8v-27.8c0-2.1-1.7-3.7-3.7-3.8-31.1-1.8-45.9-25.6-47.4-47.5-.1-2-1.9-3.6-3.9-3.6h-31.7c-2.1,0-3.8,1.7-3.8,3.8v156.5c0,17-13,31.8-30,32.6-19.4.9-35.2-15.7-32.8-35.4,1.7-13.9,12.9-25.3,26.7-27.2,2.8-.4,5.5-.4,8.1-.1s4.3-1.5,4.3-3.8v-27.9c0-2-1.5-3.7-3.5-3.8-4-.3-8.1-.2-12.2.3-30.6,3.5-55.3,28.2-58.7,58.9-4.5,40.4,27,74.6,66.5,74.6s66.9-30,66.9-66.9"/>
  </g>
</svg>
