<?xml version="1.0" encoding="UTF-8"?>
<svg id="Layer_2" data-name="Layer 2" xmlns="http://www.w3.org/2000/svg" viewBox="0 0 2858.09 501.48">
  <defs>
    <style>
      .cls-1 {
        fill: #f60;
      }
    </style>
  </defs>
  <g id="Layer_1-2" data-name="Layer 1">
    <g>
      <path d="M1234.73,501.48c-44.45,0-79.46-9.17-105.01-27.5-22.54-16.17-35.86-38.16-39.96-65.99-.89-6.06,3.76-11.52,9.89-11.52h70.32c4.12,0,7.76,2.54,9.31,6.36,2.67,6.6,7.83,12.45,15.46,17.54,10,6.67,24.07,10,42.23,10,12.96,0,24.17-1.94,33.62-5.83,9.45-3.89,14.17-10.28,14.17-19.17,0-7.78-3.71-14.17-11.11-19.17-7.41-5-20.93-8.42-40.56-10.28l-21.11-2.22c-39.27-4.07-68.16-14.81-86.68-32.23-18.53-17.41-27.78-39.26-27.78-65.56,0-22.59,5.56-41.2,16.67-55.84,11.11-14.63,26.48-25.65,46.12-33.06,19.63-7.41,42.04-11.11,67.23-11.11,41.12,0,74.26,8.99,99.46,26.95,22.27,15.89,35.27,37.93,39.01,66.12.8,6.02-3.83,11.39-9.91,11.39h-70.35c-4.16,0-7.9-2.56-9.34-6.46-2.41-6.51-6.85-12.23-13.31-17.15-8.52-6.48-20.75-9.72-36.67-9.72-11.49,0-20.84,2.04-28.06,6.11-7.22,4.08-10.83,9.82-10.83,17.22,0,7.78,3.42,13.53,10.28,17.22,6.85,3.71,17.87,6.49,33.06,8.33l21.11,2.22c39.26,4.08,69.54,14.92,90.85,32.5,21.3,17.6,31.95,40.66,31.95,69.18,0,21.11-5.65,39.27-16.95,54.45-11.3,15.19-27.42,26.86-48.34,35-20.93,8.14-45.84,12.22-74.73,12.22Z"/>
      <path d="M995.72,403.41c-7.15-7.15-10.73-17.51-10.73-31.08l.23-110h73.33c5.54,0,10.02-4.5,10-10.04l-.23-53.88c-.02-5.51-4.49-9.96-10-9.96h-72.94l.16-77.92h-1.73c-48.55,5.81-86.66,69.97-90.84,77.24v.68h-34.66c-5.54,0-10.02,4.5-10,10.04l.23,53.88c.02,5.51,4.49,9.96,10,9.96h34.27l-.23,107.25c0,31.9,4.4,57.2,13.2,75.9,8.8,18.7,23,32.09,42.62,40.15,19.61,8.06,45.92,6.76,78.92,6.76h31.25c5.52,0,10-4.48,10-10v-54.3c0-5.52-4.48-10-10-10h-31.8c-13.57,0-23.93-7.53-31.08-14.68Z"/>
      <path d="M1720.62,271.16c-7.89-19.06-19.16-35.75-33.83-50.05-14.67-14.3-32.36-25.48-53.08-33.55-20.72-8.06-44.09-12.1-70.12-12.1s-48.95,4.04-69.85,12.1c-20.9,8.07-38.69,19.25-53.35,33.55-14.67,14.3-25.94,30.99-33.82,50.05-7.89,19.07-11.83,39.6-11.83,61.6v13.2c0,21.27,3.75,41.25,11.27,59.95,7.51,18.7,18.51,35.2,33,49.5,14.48,14.3,32.18,25.49,53.08,33.55,20.9,8.06,44.73,12.1,71.5,12.1s50.6-4.04,71.5-12.1c20.9-8.06,38.59-19.25,53.08-33.55,14.48-14.3,25.48-30.8,33-49.5,7.51-18.7,11.28-38.68,11.28-59.95v-13.2c0-22-3.95-42.53-11.83-61.6ZM1624.64,379.78c-5.14,11.92-12.74,21.17-22.82,27.77-10.09,6.6-22.83,9.9-38.23,9.9s-27.69-3.3-37.95-9.9c-10.27-6.6-17.97-15.86-23.1-27.77-5.14-11.91-7.7-25.39-7.7-40.43s2.66-29.61,7.98-41.52c5.31-11.91,13.11-21.36,23.38-28.32,9.79-6.64,21.61-10.12,35.42-10.42-.49-.02-.99-.03-1.49-.03h66.4c2.8,0,5.05,2.3,5,5.1l-1.07,53.53c0-.11-.03-.3-.1-.53,1.33,6.92,2,14.33,2,22.21,0,15.04-2.57,28.51-7.7,40.43Z"/>
      <path d="M749.45,424.11c1.72,5.16,5.06,10.08,8.34,14.5,18.13,24.41,40.69,49.3,70.8,53.49l-.63-293.66c-.01-5.51-4.49-9.98-10-9.98h-80.14c-5.52,0-10,4.48-10,10.01l.08,152.67c0,10.97-.09,22.41-5.03,32.21-6.66,13.21-21.38,21.06-36.12,22.36-17.45,1.53-36.47-6.39-44.26-22.09-4.85-9.78-4.95-21.14-4.94-32.06.03-51.03.07-102.06.1-153.09,0-5.53-4.48-10.01-10-10.01h-79.44c-5.63.01-10.14,4.66-9.99,10.29.67,25.58-1.05,90.58-1.2,97.79-.74,35.89-.62,72.04,5.36,107.53,1.41,8.37,2.37,18.11,5.63,25.99,1.17,2.81,2.99,5.31,4.2,8.16,1.44,3.39,3.13,6.67,5.06,9.82,7.73,12.65,19.02,23.03,31.92,30.26,18.05,10.12,39.02,14.32,59.71,14.32,20.62,0,41.71-4.26,59.01-15.49,21.77-14.12,35.77-38.4,40.79-63.85-.87,3.67-.44,7.31.73,10.83Z"/>
      <path d="M2244.99,188.46c-33.37,0-58.94,7.69-76.72,31.89-14.19,19.3-22.7,34.1-25.58,60.87v-92.77h-1.81c-43.81,6.75-77.39,67.38-77.39,67.38v226.22c0,5.52,4.48,10,10,10h80.1c5.52,0,10-4.48,10-10v-141.8c0-22.73,6.14-40.15,18.42-52.25,12.28-12.1,29.6-25.82,51.97-25.82h13.1c5.52,0,10-4.48,10-10v-53.72c0-5.52-4.48-10-10-10h-2.1Z"/>
      <path d="M1964.54,423.75c2.21,6.97,7.08,13.45,11.8,19.27,17.82,22,38.95,45.27,67.11,48.25-.19-96.72-.38-193.45-.57-290.17,0-3.96-.25-8.46-3.27-11.03-2.46-2.09-5.98-2.19-9.21-2.18-25.17.03-50.35.05-75.52.08-3.51,0-7.44.18-9.83,2.75-2.19,2.35-2.31,5.9-2.31,9.11.04,49.35.07,98.69.11,148.04.01,14.31-.35,29.76-9.02,41.14-7.28,9.55-19.37,14.46-31.32,15.66-14.84,1.5-31.1-2.81-40.37-14.51-9.39-11.85-9.79-28.25-9.76-43.37.08-48.87.17-97.73.25-146.6,0-2.62-.03-5.4-1.42-7.63-2.5-4.02-8.05-4.51-12.79-4.56-24.93-.23-49.85-.23-74.78,0-2.33.02-4.82.1-6.7,1.46-2.73,1.98-3.14,5.83-3.29,9.2-1.67,36.69-2.25,73.42-1.74,110.15.25,18.36.78,36.72,1.57,55.06.7,16.07-1.03,35.5,4.79,50.5,7.68,19.79,15.47,39.43,31.82,53.85,20.4,18.03,49.11,23.7,76.33,23.16,19.83-.39,40.21-3.95,56.84-14.75,21.49-13.96,34.16-38.45,40.27-63.34-.5,3.6-.05,7.09,1.02,10.47Z"/>
      <g>
        <path d="M2393.56,408.96l-.11-.15,128.61-144.29c1.63-1.83,2.53-4.2,2.54-6.65v-59.41c0-5.52-4.48-10-10-10h-226.4c-5.52,0-10,4.48-10,10v53.22c0,5.52,4.48,10,10,10h112.83l7.27,9.92-128.63,142.79c-1.65,1.84-2.57,4.22-2.57,6.69v60.97c0,5.52,4.48,10,10,10h32.13l74.34-83.1Z"/>
        <path d="M2517.89,417.25l-77.92.45c-5.5.03-9.94,4.5-9.94,10v64.36h87.86c5.52,0,10-4.47,10-10v-54.81c0-5.52-4.48-10-10-10Z"/>
      </g>
      <path d="M2839.94,254.91c-12.1-24.01-29.52-43.36-52.25-58.02-22.74-14.66-50.42-22-83.05-22-24.57,0-46.57,4.31-66,12.93-19.44,8.62-35.84,20.26-49.23,34.92-13.39,14.67-23.65,31.44-30.8,50.33-7.15,18.89-10.72,38.59-10.72,59.12v11c0,19.8,3.58,39.05,10.72,57.75,7.15,18.7,17.51,35.57,31.08,50.6,13.56,15.04,30.25,26.95,50.05,35.75,19.8,8.8,42.53,13.2,68.2,13.2s49.04-4.59,69.03-13.75c19.98-9.16,36.48-21.81,49.5-37.95,10.18-12.62,17.73-26.59,22.64-41.91,2.07-6.47-2.73-13.09-9.52-13.09h-72.38c-3.37,0-6.55,1.66-8.35,4.51-3.79,5.99-9.3,10.9-16.54,14.74-8.99,4.77-20.44,7.15-34.38,7.15-15.77,0-28.6-3.3-38.5-9.9-9.9-6.6-17.24-16.04-22-28.32-2.01-5.18-3.57-10.78-4.73-16.77h205.38c5.52,0,10-4.48,10-10v-21.9c0-28.23-6.05-54.36-18.15-78.38ZM2670.27,264.26c9.71-6.05,21.17-9.07,34.37-9.07l55.82-.57c2.84-.03,5.14,2.31,5.05,5.15l-1.6,51.51s0,0,0-.01c0,0,0,0,0,.01h-121.47c1.28-7.22,3.12-13.73,5.54-19.52,5.13-12.28,12.56-21.45,22.28-27.5Z"/>
      <g>
        <path d="M485.79,190.72c-17.82,18.93-36.57,36.97-56.05,54.21-1.62,1.44-2.56,3.48-2.63,5.65-3.07,88.49-75.68,159.3-164.92,159.3-24.25,0-47.21-5.35-67.94-14.76-1.87-.05-4.36-.11-6.23-.15-25.33,10.25-51.28,19.24-77.76,27-6.06,1.78-7.68,9.66-2.75,13.6,2.77,2.22,5.59,4.37,8.46,6.47,1.37,1,2.68,2.07,4.07,3.04.02.01.03.04.05.05.05.03.1.06.15.1.02.01.03.04.05.05.09.04.17.09.25.15.16.08.28.22.44.29.01,0,.04,0,.05,0,39.48,27.33,87.31,43.49,138.96,43.49,135.11,0,244.63-109.53,244.63-244.63,0-10.65-.93-21.05-2.26-31.33,0-.02,0-.03,0-.05-.06-.44-.13-.88-.2-1.32,0-.02,0-.03,0-.05,0-.02,0-.03,0-.05,0-.1-.04-.19-.05-.29-.78-5.76-1.77-11.44-2.94-17.06-1.3-6.19-9.05-8.31-13.38-3.71Z"/>
        <path class="cls-1" d="M262.19,79.68c63.87,0,119.15,36.33,146.61,89.39-77.1,78.94-173.42,163.33-285.71,186.27-14.11-24.32-26.01-80.42-26.01-110.56,0-91.19,73.91-165.1,165.1-165.1ZM259.98,0C124.88,0,15.35,109.48,15.35,244.58c0,22.49,3.24,44.19,8.92,64.87,1.25,4.57,2.61,9.08,4.12,13.53,1.73,5.1,3.5,10.16,5.54,15.1,4.58,11.07,10.14,21.6,16.23,31.77-5.22,6.07-12.89,10-21.53,10-1.88,0-3.71-.19-5.49-.54-1.67-.33-3.26-.81-4.81-1.42-.61-.24-1.18-.55-1.77-.83-.82-.39-1.63-.81-2.4-1.27-2.28-1.37-4.33-3.07-6.13-5-.39-.41-.72-.84-1.08-1.27-1.65-2-3.1-4.16-4.17-6.57-.44-.99-.78-2.03-1.11-3.08-.21-.67-.53-1.76-.68-2.44-.3-1.35-.53-2.73-.62-4.14C.31,354.51,0,355.68,0,356.92,0,389.46,26.36,415.81,58.89,415.81c2.59,0,5.1-.41,7.6-.74.03,0,.07-.04.1-.05.01,0,.04,0,.05,0,.03,0,.07,0,.1,0,.02,0,.03,0,.05,0,3.95-.97,7.93-1.83,11.87-2.84.05-.02.1-.04.15-.05.09-.03.2-.01.29-.05.74-.27,1.53-.44,2.26-.74.02.02.03.03.05.05,30.52-8.05,60.28-17.88,89.34-29.18.01,0,.04,0,.05,0,11.83-4.6,23.5-9.46,35.06-14.56,10.93-4.83,21.68-9.93,32.36-15.2,3.5-1.73,6.92-3.57,10.4-5.34,3.04-1.55,6.04-3.19,9.07-4.76,1.75-.92,3.49-1.85,5.25-2.75,1.83-.98,3.72-1.85,5.54-2.84.12-.06.23-.13.34-.2.15-.08.29-.16.44-.25,4.77-2.61,9.46-5.35,14.17-8.04,2.37-1.35,4.7-2.75,7.06-4.12.72-.42,1.43-.86,2.16-1.27,2.31-1.36,4.67-2.64,6.96-4.02.02-.01.03-.04.05-.05.06-.04.13-.06.2-.1,4.5-2.71,8.94-5.49,13.39-8.29.31-.2.62-.39.93-.59,1.46-.92,2.91-1.86,4.36-2.79,3.93-2.51,7.84-5.03,11.72-7.6.1-.06.2-.13.29-.2.06-.04.14-.06.2-.1.09-.06.16-.14.25-.2.08-.06.17-.09.25-.15,3.88-2.58,7.74-5.16,11.57-7.8.02-.01.03-.04.05-.05.03-.02.07-.03.1-.05.1-.07.2-.13.29-.2,4.95-3.41,9.84-6.93,14.71-10.44.26-.19.53-.35.78-.54.25-.18.49-.36.74-.54.25-.18.49-.36.74-.54.02-.01.03-.04.05-.05.1-.07.2-.13.29-.2,3.59-2.6,7.19-5.19,10.74-7.85.18-.13.36-.26.54-.39.04-.03.06-.07.1-.1.16-.12.33-.22.49-.34,4.77-3.6,9.43-7.34,14.12-11.03.44-.35.89-.68,1.32-1.03.62-.49,1.24-.98,1.86-1.47.26-.21.52-.43.78-.64.26-.21.52-.43.78-.64,2.69-2.15,5.43-4.24,8.09-6.42,9.05-7.43,18-15.01,26.72-22.8,22.41-20.02,43.83-41.12,63.99-63.4,10.99-12.15,21.45-24.73,31.73-37.51l11.92,9.81,6.68,5.47c4.93,4.04,12.36.83,12.8-5.53l1.95-28.38,1.96-28.54,2.95-43.06c.38-5.47-4.84-9.63-10.09-8.05l-47.09,14.18-47.01,14.15c-6.01,1.81-7.57,9.59-2.72,13.58l22.26,18.27c-4.42,6.66-8.99,13.2-13.68,19.66C417.67,42.13,343.77,0,259.98,0Z"/>
      </g>
    </g>
  </g>
</svg>