<svg xmlns="http://www.w3.org/2000/svg" xmlns:xlink="http://www.w3.org/1999/xlink" width="1080" zoomAndPan="magnify" viewBox="0 0 810 817.92" height="1080" preserveAspectRatio="xMidYMid meet" version="1.2"><g id="644cdc7332"><path style=" stroke:none;fill-rule:evenodd;fill:currentColor;fill-opacity:1;" d="M 232.269531 68.621094 C 228.183594 69.738281 223.558594 71.625 221.988281 72.816406 C 213.824219 79.003906 209.675781 83.796875 206.289062 90.957031 C 202.628906 98.699219 202.550781 99.835938 202.535156 144.347656 L 202.519531 189.824219 L 240.152344 189.824219 C 282.136719 189.824219 288.917969 190.847656 307.726562 200.027344 C 324.679688 208.300781 335.539062 219.316406 353.589844 246.539062 L 369.40625 270.402344 L 473.019531 270.480469 C 587.667969 270.5625 588.960938 270.660156 608.53125 280.515625 C 634.789062 293.738281 652.832031 317.183594 658.941406 346.011719 C 660.78125 354.683594 661.214844 376.738281 661.238281 462.40625 L 661.265625 568.097656 L 699.625 567.597656 C 734.578125 567.148438 738.617188 566.808594 745.121094 563.800781 C 754.210938 559.59375 762.113281 551.691406 766.320312 542.601562 C 769.605469 535.5 769.621094 534.625 769.621094 358.296875 C 769.621094 157.675781 770.578125 172.484375 756.789062 159.773438 C 744.0625 148.042969 752.082031 148.695312 621.011719 148.695312 L 503.148438 148.695312 L 478.988281 112.714844 C 455.273438 77.394531 454.65625 76.644531 445.453125 71.980469 L 436.074219 67.230469 L 337.882812 66.910156 C 262.121094 66.667969 238 67.058594 232.269531 68.621094 M 68.585938 244.957031 C 56.851562 249.007812 49.96875 254.925781 44.851562 265.347656 L 40.378906 274.457031 L 40.378906 492.753906 C 40.378906 710.792969 40.378906 711.0625 43.679688 718.1875 C 47.886719 727.28125 55.789062 735.179688 64.878906 739.386719 L 72.015625 742.691406 L 324.324219 742.691406 C 553.84375 742.691406 577.144531 742.457031 582.285156 740.121094 C 591.125 736.097656 599.730469 727.625 603.761719 718.972656 L 607.449219 711.054688 L 607.429688 533.09375 C 607.410156 357.460938 607.367188 355.039062 604.1875 348.011719 C 600.214844 339.238281 594.40625 332.960938 586.125 328.488281 C 579.839844 325.097656 578.96875 325.070312 460.367188 324.285156 L 340.933594 323.492188 L 317.996094 289.511719 C 293.019531 252.511719 287.386719 246.691406 273.695312 243.753906 C 268.363281 242.609375 233.6875 242.042969 171.199219 242.078125 C 84.726562 242.125 76.070312 242.367188 68.585938 244.957031 M 185.128906 394.851562 C 170.324219 400.222656 159.875 410.097656 153.054688 425.15625 C 150.515625 430.75 149.644531 435.847656 149.59375 445.332031 C 149.535156 456.554688 150.128906 459.242188 154.726562 468.582031 C 164.238281 487.898438 180.953125 498.292969 202.519531 498.292969 C 224.085938 498.292969 240.804688 487.898438 250.3125 468.582031 C 254.882812 459.292969 255.511719 456.484375 255.511719 445.296875 C 255.511719 434.109375 254.882812 431.300781 250.304688 422 C 244.601562 410.410156 236.566406 402.476562 224.882812 396.886719 C 215.097656 392.207031 195.214844 391.1875 185.128906 394.851562 M 351.214844 431.851562 L 351.214844 458.746094 L 539.460938 458.746094 L 539.460938 404.960938 L 351.214844 404.960938 Z M 351.214844 540.210938 L 351.214844 566.3125 L 539.460938 566.3125 L 539.460938 514.109375 L 351.214844 514.109375 Z M 179.136719 543.292969 C 164.082031 546.941406 147.484375 556.378906 136.183594 567.722656 C 120.105469 583.855469 109.1875 607.851562 109.1875 627.046875 L 109.1875 634.332031 L 295.851562 634.332031 L 295.851562 627.046875 C 295.851562 607.808594 284.9375 583.859375 268.773438 567.636719 C 257.1875 556.011719 238.738281 545.878906 223.402344 542.726562 C 212.386719 540.460938 189.632812 540.75 179.136719 543.292969 "/></g></svg>