<svg xmlns="http://www.w3.org/2000/svg" xmlns:xlink="http://www.w3.org/1999/xlink" width="1080" zoomAndPan="magnify" viewBox="0 0 810 817.92" height="1080" preserveAspectRatio="xMidYMid meet" version="1.2"><defs><clipPath id="cdc0dce73a"><path d="M 0.0390625 58 L 809.960938 58 L 809.960938 752 L 0.0390625 752 Z M 0.0390625 58 "/></clipPath></defs><g id="e6406df3ca"><g clip-rule="nonzero" clip-path="url(#cdc0dce73a)"><path style=" stroke:none;fill-rule:evenodd;fill:currentColor;fill-opacity:1;" d="M 371.78125 60.855469 C 281.261719 76.140625 210.976562 146.390625 196.828125 235.722656 C 192.996094 259.917969 194.429688 297.09375 200.054688 319.480469 C 214.039062 375.117188 249.765625 422.609375 299.804688 452.089844 C 311.199219 458.804688 332.582031 468.234375 336.40625 468.234375 C 338.023438 468.234375 338.5625 465.386719 338.578125 456.765625 C 338.589844 448.019531 339.488281 443.375 342.367188 437.1875 C 344.445312 432.726562 346.929688 428.589844 347.890625 428 C 352.886719 424.910156 347.816406 423.941406 326.644531 423.941406 C 300.269531 423.941406 295.464844 422.632812 288.546875 413.550781 L 283.988281 407.570312 L 284.03125 363.949219 C 284.078125 320.523438 284.097656 320.273438 288.414062 307.945312 C 290.796875 301.136719 295.105469 291.882812 297.992188 287.382812 C 309.617188 269.25 333.351562 252.796875 354.0625 248.507812 C 358.671875 247.554688 368.640625 246.765625 376.207031 246.757812 L 389.972656 246.742188 L 377.09375 240.457031 C 334.484375 219.664062 325.703125 165.371094 359.734375 133.1875 C 385.714844 108.621094 424.285156 108.621094 450.265625 133.1875 C 484.296875 165.371094 475.515625 219.664062 432.90625 240.457031 L 420.027344 246.742188 L 433.792969 246.757812 C 451.535156 246.777344 461.53125 248.925781 476.183594 255.859375 C 491.953125 263.324219 509.964844 281 516.882812 295.8125 C 525.238281 313.691406 526.011719 319.613281 526.011719 365.535156 L 526.011719 407.578125 L 521.453125 413.554688 C 513.761719 423.640625 511.945312 423.941406 458.898438 423.941406 L 411.457031 423.941406 L 416.234375 431.628906 C 418.863281 435.855469 421.832031 443.617188 422.832031 448.878906 C 424.558594 457.96875 424.933594 458.527344 430.414062 460.171875 C 433.585938 461.121094 439.503906 464.824219 443.566406 468.398438 C 452.296875 476.082031 453.765625 476.03125 477.765625 467.15625 C 543.1875 442.96875 592.824219 387.527344 609.9375 319.53125 C 615.609375 297.003906 617.074219 258.046875 613.128906 234.753906 C 597.890625 144.796875 528.101562 75.730469 437.429688 60.875 C 420.414062 58.085938 388.238281 58.078125 371.78125 60.855469 M 96.113281 128.179688 C 55.097656 138.484375 41.105469 190.261719 71.488281 219.320312 C 93.054688 239.949219 125.863281 239.675781 146.84375 218.691406 C 157.328125 208.207031 162.058594 196.578125 162.125 181.125 C 162.191406 166.375 157.898438 155.175781 147.957031 144.171875 C 136.089844 131.039062 113.035156 123.925781 96.113281 128.179688 M 687.027344 128.746094 C 670.660156 134.109375 659.191406 144.222656 651.933594 159.695312 C 646.082031 172.167969 646.152344 189.9375 652.097656 202.789062 C 667.890625 236.929688 711.402344 245.25 738.511719 219.320312 C 765.65625 193.359375 757.90625 147.519531 723.726562 131.875 C 713.136719 127.027344 696.578125 125.613281 687.027344 128.746094 M 396.035156 140.648438 C 376.28125 145.648438 362.320312 164.847656 364.320312 184.25 C 367.746094 217.421875 406.574219 233.230469 431.261719 211.5 C 444.203125 200.109375 448.691406 185.171875 444 169.128906 C 442.621094 164.417969 439.40625 158.046875 436.859375 154.96875 C 427.726562 143.953125 408.972656 137.371094 396.035156 140.648438 M 52.667969 262.726562 C 32.097656 269.246094 12.828125 287.363281 4.566406 307.953125 C 1.0625 316.691406 0.84375 319.402344 0.359375 360.464844 C -0.285156 415.292969 -2.519531 411.289062 28.710938 411.289062 L 50.5 411.289062 L 50.972656 373.183594 L 51.449219 335.078125 L 56.058594 331.117188 C 59.636719 328.042969 61.757812 327.367188 65.550781 328.097656 C 75.617188 330.039062 75.96875 331.582031 75.96875 373.5 L 75.96875 411.289062 L 140.828125 411.289062 L 140.828125 336.695312 L 145.449219 332.074219 C 147.992188 329.527344 151.230469 327.449219 152.648438 327.449219 C 156.558594 327.449219 164.046875 331.753906 165.152344 334.636719 C 165.695312 336.046875 166.136719 353.867188 166.136719 374.242188 L 166.136719 411.289062 L 187.886719 411.265625 C 199.851562 411.25 210.582031 410.640625 211.734375 409.910156 C 213.347656 408.886719 212.210938 406.082031 206.789062 397.675781 C 184.433594 363.019531 171.777344 324.085938 169.574219 283.203125 L 168.507812 263.476562 L 162.183594 261.574219 C 157.882812 260.28125 140.890625 259.660156 109.1875 259.636719 C 67.058594 259.609375 61.566406 259.910156 52.667969 262.726562 M 647.816406 261.574219 L 641.492188 263.476562 L 640.425781 283.203125 C 638.222656 324.085938 625.566406 363.019531 603.210938 397.675781 C 597.789062 406.082031 596.652344 408.886719 598.265625 409.910156 C 599.417969 410.640625 610.152344 411.25 622.113281 411.265625 L 643.863281 411.289062 L 643.863281 374.242188 C 643.863281 353.867188 644.304688 336.046875 644.84375 334.636719 C 645.953125 331.753906 653.441406 327.449219 657.351562 327.449219 C 658.769531 327.449219 662.003906 329.527344 664.550781 332.074219 L 669.171875 336.695312 L 669.171875 411.289062 L 734.03125 411.289062 L 734.03125 373.5 C 734.03125 331.582031 734.382812 330.039062 744.449219 328.097656 C 748.242188 327.367188 750.363281 328.042969 753.941406 331.117188 L 758.550781 335.078125 L 759.027344 373.183594 L 759.5 411.289062 L 781.289062 411.289062 C 812.558594 411.289062 810.339844 415.273438 809.632812 360.441406 C 809.109375 319.574219 808.875 316.652344 805.40625 307.953125 C 797.109375 287.132812 777.800781 269.140625 756.785156 262.648438 C 747.253906 259.707031 742.367188 259.4375 700.25 259.550781 C 669.230469 259.632812 652.074219 260.292969 647.816406 261.574219 M 355.171875 274.257812 C 331.328125 281.984375 314.542969 300.550781 310.109375 324.105469 C 309.226562 328.792969 308.503906 347.476562 308.503906 365.628906 L 308.503906 398.632812 L 348.050781 398.632812 L 348.050781 367.171875 C 348.050781 338.789062 348.34375 335.351562 351.011719 332.054688 C 355.011719 327.113281 364.167969 327.042969 369.046875 331.917969 C 372.417969 335.285156 372.59375 336.816406 373.085938 367.035156 L 373.601562 398.632812 L 436.398438 398.632812 L 436.914062 367.035156 C 437.40625 336.816406 437.582031 335.285156 440.953125 331.917969 C 445.832031 327.042969 454.988281 327.113281 458.988281 332.054688 C 461.65625 335.351562 461.949219 338.789062 461.949219 367.171875 L 461.949219 398.632812 L 501.496094 398.632812 L 501.496094 365.628906 C 501.496094 347.476562 500.773438 328.792969 499.890625 324.105469 C 496.113281 304.027344 482.710938 286.832031 463.910156 277.925781 L 453.246094 272.875 L 407.371094 272.539062 C 373.324219 272.292969 359.867188 272.734375 355.171875 274.257812 M 371.953125 440.386719 C 363.988281 444.800781 363.988281 444.835938 363.925781 524.3125 C 363.894531 569.246094 363.300781 597.988281 362.421875 597.078125 C 361.628906 596.253906 355.523438 586.148438 348.859375 574.625 C 342.195312 563.101562 335.214844 552.601562 333.347656 551.292969 C 328.410156 547.835938 317.671875 548.257812 312.789062 552.101562 C 310.558594 553.851562 307.925781 557.738281 306.9375 560.738281 C 304.570312 567.902344 305.488281 569.871094 334.585938 620.078125 C 347.4375 642.257812 358.964844 663.253906 360.203125 666.746094 C 361.4375 670.234375 362.878906 680.027344 363.398438 688.511719 L 364.347656 703.933594 L 354.933594 703.933594 C 349.722656 703.933594 344.671875 704.78125 343.625 705.832031 C 340.992188 708.464844 340.992188 746.863281 343.625 749.492188 C 346.359375 752.226562 500.023438 752.226562 502.761719 749.492188 C 504.035156 748.21875 504.65625 741.058594 504.65625 727.664062 C 504.65625 714.269531 504.035156 707.109375 502.761719 705.832031 C 501.714844 704.789062 497.089844 703.933594 492.476562 703.933594 C 487.867188 703.933594 484.09375 703.320312 484.09375 702.570312 C 484.09375 701.820312 487.832031 692.390625 492.398438 681.613281 L 500.703125 662.015625 L 501.179688 597.632812 C 501.710938 526 501.699219 525.910156 491.316406 520.960938 C 484.015625 517.476562 475.917969 519.207031 470.742188 525.359375 L 466.691406 530.171875 L 466.691406 523.644531 C 466.691406 514.695312 462.867188 508.003906 456.140625 505.195312 C 449.179688 502.285156 442.898438 503.535156 437.542969 508.890625 L 433.472656 512.960938 L 433.472656 507.59375 C 433.472656 494.589844 427.4375 484.847656 418.332031 483.136719 C 411.730469 481.898438 407.902344 483.167969 402.785156 488.28125 L 398.671875 492.394531 L 398.671875 472.328125 C 398.671875 450.886719 397.253906 445.433594 390.417969 440.648438 C 386.148438 437.65625 377.113281 437.53125 371.953125 440.386719 "/></g></g></svg>