<svg xmlns="http://www.w3.org/2000/svg" xmlns:xlink="http://www.w3.org/1999/xlink" width="1080" zoomAndPan="magnify" viewBox="0 0 810 817.92" height="1080" preserveAspectRatio="xMidYMid meet" version="1.2"><defs><clipPath id="54a2c74c9e"><path d="M 1 1 L 809.960938 1 L 809.960938 809 L 1 809 Z M 1 1 "/></clipPath></defs><g id="7f4c0aa95c"><g clip-rule="nonzero" clip-path="url(#54a2c74c9e)"><path style=" stroke:none;fill-rule:evenodd;fill:currentColor;fill-opacity:1;" d="M 231.507812 3.859375 C 217.585938 8.214844 203.625 20.703125 197.238281 34.523438 C 193.851562 41.851562 193.816406 42.957031 193.382812 153.089844 L 192.945312 264.257812 L 206.132812 254.195312 C 270.484375 205.09375 357.65625 190.929688 435.46875 216.925781 C 443.507812 219.613281 457.203125 225.46875 465.902344 229.941406 L 481.722656 238.074219 L 590.359375 238.863281 C 696.992188 239.640625 699.082031 239.714844 703.367188 242.917969 C 711.207031 248.773438 714.074219 254.039062 714.074219 262.589844 C 714.074219 271.144531 711.207031 276.410156 703.367188 282.265625 C 699.113281 285.445312 696.960938 285.539062 620.097656 285.980469 L 541.195312 286.433594 L 551.226562 298.851562 C 556.738281 305.683594 564.242188 316.304688 567.898438 322.457031 L 574.539062 333.640625 L 636.769531 334.101562 C 696.777344 334.550781 699.15625 334.683594 703.367188 337.828125 C 711.207031 343.6875 714.074219 348.953125 714.074219 357.503906 C 714.074219 366.054688 711.207031 371.320312 703.367188 377.179688 C 699.199219 380.296875 696.664062 380.460938 646.761719 380.917969 L 594.523438 381.394531 L 595.632812 385.664062 C 598.589844 397.050781 602.695312 418.957031 602.714844 423.460938 L 602.734375 428.519531 L 650.871094 429 C 696.617188 429.457031 699.21875 429.640625 703.367188 432.742188 C 711.207031 438.597656 714.074219 443.863281 714.074219 452.417969 C 714.074219 460.96875 711.207031 466.234375 703.367188 472.09375 C 699.21875 475.191406 696.617188 475.378906 650.871094 475.835938 L 602.734375 476.316406 L 602.714844 481.371094 C 602.695312 485.875 598.589844 507.785156 595.632812 519.171875 L 594.523438 523.441406 L 646.761719 523.914062 C 696.664062 524.371094 699.199219 524.539062 703.367188 527.652344 C 711.207031 533.511719 714.074219 538.777344 714.074219 547.328125 C 714.074219 555.882812 711.207031 561.148438 703.367188 567.003906 C 699.15625 570.148438 696.777344 570.28125 636.832031 570.730469 L 574.667969 571.195312 L 566.703125 584.175781 C 537.960938 631.039062 487.308594 671.042969 435.121094 688.097656 C 405.417969 697.800781 391.605469 699.855469 355.960938 699.855469 C 319.753906 699.855469 305.144531 697.613281 275.289062 687.476562 L 259.800781 682.21875 L 226.179688 715.867188 L 192.5625 749.511719 L 193.417969 758.933594 C 193.886719 764.121094 195.722656 771.636719 197.492188 775.644531 C 201.992188 785.8125 213.9375 798.007812 224.46875 803.179688 L 233.367188 807.546875 L 769.621094 807.546875 L 777.085938 804.101562 C 791.375 797.5 807.996094 777.628906 808.535156 766.503906 C 808.675781 763.671875 808.875 763.761719 810.097656 767.210938 C 810.988281 769.734375 811.21875 764.929688 810.730469 753.914062 C 810.308594 744.425781 809.960938 614.003906 809.960938 464.085938 L 809.960938 191.511719 L 723.070312 191.0625 C 638.136719 190.625 636.085938 190.542969 631.816406 187.355469 C 629.414062 185.558594 625.980469 182.128906 624.1875 179.726562 C 621 175.457031 620.917969 173.402344 620.476562 88.472656 L 620.03125 1.582031 L 429.070312 1.6875 C 276.621094 1.773438 236.78125 2.210938 231.507812 3.859375 M 667.589844 79.886719 L 667.589844 143.949219 L 796.5 143.949219 L 732.449219 79.886719 C 697.21875 44.648438 668.214844 15.820312 667.996094 15.820312 C 667.773438 15.820312 667.589844 44.648438 667.589844 79.886719 M 304.714844 145.574219 C 298.097656 147.582031 291.300781 154.742188 289.4375 161.671875 C 285.871094 174.90625 295.0625 188.605469 308.835938 190.585938 C 312.570312 191.125 369.851562 191.351562 436.125 191.089844 C 554.992188 190.621094 556.6875 190.570312 560.996094 187.355469 C 568.839844 181.5 571.707031 176.230469 571.707031 167.679688 C 571.707031 159.125 568.839844 153.859375 560.996094 148.003906 C 556.679688 144.78125 555.179688 144.738281 432.960938 144.464844 C 364.945312 144.308594 307.234375 144.808594 304.714844 145.574219 M 332.234375 251.609375 C 244.5625 262.574219 174.21875 328.519531 157.199219 415.703125 C 153.890625 432.644531 153.523438 468.859375 156.492188 485.636719 C 160.484375 508.222656 169.683594 533.710938 180.605469 552.449219 C 187.519531 564.316406 205.273438 588.457031 207.085938 588.457031 C 207.726562 588.457031 209.1875 584.71875 210.339844 580.152344 C 217.570312 551.398438 239.695312 522.542969 265.335938 508.417969 C 271.246094 505.164062 276.304688 502.335938 276.582031 502.132812 C 276.859375 501.929688 274.457031 498.109375 271.246094 493.636719 C 258.230469 475.523438 251.410156 447.148438 254.519531 424.050781 C 259.875 384.246094 287.203125 351.304688 324.992188 339.109375 C 341.046875 333.925781 365.292969 333.203125 381.09375 337.441406 C 421.949219 348.394531 451.09375 381.347656 457.246094 423.546875 C 460.628906 446.765625 453.902344 475.230469 440.675781 493.636719 C 437.464844 498.109375 435.066406 501.929688 435.34375 502.132812 C 435.621094 502.335938 440.679688 505.164062 446.585938 508.417969 C 472.230469 522.542969 494.351562 551.398438 501.585938 580.152344 C 502.734375 584.71875 504.199219 588.457031 504.839844 588.457031 C 506.546875 588.457031 524.15625 564.707031 530.59375 553.722656 C 541.84375 534.53125 551.460938 508.152344 555.421875 485.636719 C 558.101562 470.398438 558.105469 434.472656 555.429688 419.199219 C 542.535156 345.566406 488.597656 283.089844 418.273438 260.324219 C 392.277344 251.90625 357.777344 248.414062 332.234375 251.609375 M 339.074219 383.417969 C 324.972656 388.023438 311.160156 400.421875 304.808594 414.171875 C 299.894531 424.804688 299.910156 448.425781 304.835938 459.085938 C 309.667969 469.546875 321.542969 481.648438 332.035156 486.804688 C 339.855469 490.644531 342.753906 491.171875 355.960938 491.171875 C 369.171875 491.171875 372.066406 490.644531 379.886719 486.804688 C 390.378906 481.648438 402.257812 469.546875 407.089844 459.085938 C 412.027344 448.390625 412.027344 424.804688 407.089844 414.109375 C 402.277344 403.695312 390.390625 391.546875 380.058594 386.492188 C 369.570312 381.363281 349.890625 379.882812 339.074219 383.417969 M 306.320312 541.125 C 288.890625 545.367188 267.734375 562.980469 260.132812 579.585938 C 256.363281 587.824219 253.011719 601.199219 250.710938 617.230469 L 249.644531 624.648438 L 265.234375 632.449219 C 296.539062 648.117188 320.992188 653.898438 355.960938 653.898438 C 390.738281 653.898438 415.667969 648.082031 445.839844 632.929688 L 461.15625 625.238281 L 460.765625 617.835938 C 460.097656 605.238281 455.859375 588.105469 450.921875 578.054688 C 444.730469 565.453125 430.539062 551.933594 416.527344 545.296875 L 405.789062 540.210938 L 359.125 539.921875 C 333.460938 539.761719 309.695312 540.304688 306.320312 541.125 M 78.015625 663.117188 C 29.179688 712.058594 5.730469 736.648438 4.0625 740.664062 C 0.25 749.847656 0.738281 773.875 4.910156 782.496094 C 9.371094 791.707031 22.027344 802.761719 31.855469 806.027344 C 42.492188 809.558594 58.503906 808.652344 68.058594 803.976562 C 73.117188 801.503906 95.703125 779.960938 146.105469 729.527344 L 217.035156 658.558594 L 209.253906 652.964844 C 189.324219 638.648438 169.257812 618.359375 152.691406 595.769531 L 149.527344 591.457031 Z M 557.816406 620.125 C 551.1875 622.152344 544.402344 629.308594 542.539062 636.234375 C 538.976562 649.464844 548.152344 663.152344 561.933594 665.167969 C 565.667969 665.710938 598.035156 665.9375 633.863281 665.667969 C 696.785156 665.195312 699.148438 665.066406 703.367188 661.917969 C 711.207031 656.0625 714.074219 650.792969 714.074219 642.242188 C 714.074219 633.691406 711.207031 628.421875 703.367188 622.566406 C 699.132812 619.402344 696.980469 619.296875 630.699219 619.011719 C 593.132812 618.851562 560.335938 619.351562 557.816406 620.125 "/></g></g></svg>