<svg xmlns="http://www.w3.org/2000/svg" xmlns:xlink="http://www.w3.org/1999/xlink" width="1080" zoomAndPan="magnify" viewBox="233 233 344 344" height="1080" preserveAspectRatio="xMidYMid meet" version="1.2"><defs><clipPath id="2f6251c8d0"><path d="M 243.015625 243 L 566.984375 243 L 566.984375 566.945312 L 243.015625 566.945312 Z M 243.015625 243 "/></clipPath></defs><g id="7b43027336"><g clip-rule="nonzero" clip-path="url(#2f6251c8d0)"><path style=" stroke:none;fill-rule:evenodd;fill:currentColor;fill-opacity:1;" d="M 261.683594 243.859375 C 254.339844 246.195312 248.585938 251.183594 245.351562 258.011719 L 243.332031 262.273438 L 243.144531 285.214844 L 242.957031 308.152344 L 567.300781 307.832031 L 567.46875 285.484375 C 567.578125 270.519531 567.421875 263.269531 566.992188 263.535156 C 566.640625 263.753906 566.351562 263.417969 566.351562 262.785156 C 566.351562 260.417969 562.5 253.617188 559.410156 250.527344 C 557.53125 248.652344 554.457031 246.5 551.949219 245.3125 L 547.683594 243.292969 L 405.949219 243.171875 C 292.6875 243.078125 263.703125 243.21875 261.683594 243.859375 M 243.300781 286.003906 C 243.300781 298.359375 243.386719 303.414062 243.488281 297.234375 C 243.59375 291.058594 243.59375 280.949219 243.488281 274.773438 C 243.386719 268.59375 243.300781 273.648438 243.300781 286.003906 M 280.277344 274.296875 C 276.808594 276.183594 276.398438 281.285156 279.484375 284.183594 L 281.082031 285.6875 L 415.65625 285.6875 L 417.253906 284.183594 C 420.390625 281.238281 419.914062 276.121094 416.332031 274.269531 C 413.695312 272.90625 282.789062 272.933594 280.277344 274.296875 M 459.367188 275.199219 C 458 276.566406 457.519531 277.648438 457.519531 279.351562 C 457.519531 284.007812 460.175781 286.003906 466.375 286.003906 C 472.675781 286.003906 475.234375 284.019531 475.234375 279.140625 C 475.234375 277.109375 474.863281 276.308594 473.289062 274.988281 C 471.550781 273.523438 470.800781 273.347656 466.28125 273.347656 C 461.527344 273.347656 461.105469 273.460938 459.367188 275.199219 M 489.226562 274.230469 C 485.683594 276.195312 485.046875 280.496094 487.839844 283.621094 C 489.65625 285.652344 489.773438 285.6875 495.167969 285.6875 C 500.558594 285.6875 500.679688 285.652344 502.496094 283.621094 C 505.304688 280.476562 504.644531 276.089844 501.085938 274.25 C 498.886719 273.113281 491.265625 273.097656 489.226562 274.230469 M 516.949219 275.199219 C 515.582031 276.566406 515.097656 277.648438 515.097656 279.351562 C 515.097656 284.007812 517.757812 286.003906 523.957031 286.003906 C 530.15625 286.003906 532.816406 284.007812 532.816406 279.351562 C 532.816406 277.648438 532.332031 276.566406 530.964844 275.199219 C 529.222656 273.457031 528.816406 273.347656 523.957031 273.347656 C 519.097656 273.347656 518.691406 273.457031 516.949219 275.199219 M 243.167969 434.226562 L 243.332031 547.644531 L 245.351562 551.910156 C 247.96875 557.429688 252.527344 561.992188 258.050781 564.609375 L 262.316406 566.628906 L 547.683594 566.628906 L 551.949219 564.609375 C 554.457031 563.421875 557.53125 561.269531 559.410156 559.394531 C 562.457031 556.34375 566.351562 549.511719 566.351562 547.207031 C 566.351562 546.621094 566.636719 545.960938 566.984375 545.746094 C 567.402344 545.488281 567.617188 507.195312 567.617188 432.921875 L 567.617188 320.488281 L 243 320.808594 Z M 243.324219 433.433594 C 243.324219 495.554688 243.398438 520.96875 243.492188 489.90625 C 243.582031 458.847656 243.582031 408.023438 243.492188 376.960938 C 243.398438 345.902344 243.324219 371.3125 243.324219 433.433594 M 482.824219 347.972656 C 479.804688 348.890625 476.773438 350.753906 467.324219 357.5 C 462.105469 361.226562 457.121094 364.644531 456.253906 365.097656 C 455.382812 365.550781 454.101562 366.5 453.40625 367.207031 C 452.710938 367.914062 422.386719 389.015625 386.023438 414.09375 L 319.910156 459.691406 L 303.3125 488.800781 C 294.179688 504.808594 286.398438 518.820312 286.019531 519.9375 C 284.699219 523.8125 287.835938 527.714844 292.269531 527.714844 C 294.457031 527.714844 358.039062 515.28125 359.757812 514.519531 C 360.453125 514.210938 390.5 493.625 426.523438 468.777344 C 462.546875 443.929688 492.902344 423.035156 493.980469 422.347656 C 495.054688 421.660156 499.003906 418.816406 502.757812 416.035156 C 506.507812 413.25 511.882812 409.261719 514.703125 407.175781 C 518.980469 404.003906 520.164062 402.71875 521.890625 399.367188 C 523.667969 395.917969 523.957031 394.714844 523.957031 390.746094 C 523.957031 388.210938 523.523438 384.910156 522.996094 383.410156 C 521.53125 379.261719 502.960938 353.660156 499.738281 351.351562 C 494.921875 347.894531 487.769531 346.464844 482.824219 347.972656 M 479.839844 364.242188 C 469.53125 371.25 468.222656 372.269531 468.527344 373.0625 C 468.804688 373.785156 491.273438 405.292969 492.34375 406.457031 C 492.839844 407 505.121094 398.867188 509.148438 395.332031 C 511.546875 393.226562 512.277344 390.761719 511.285156 388.144531 C 510.300781 385.558594 494.382812 363.453125 492.15625 361.574219 C 489.074219 358.984375 486.875 359.457031 479.839844 364.242188 M 395.835938 422.660156 C 362.085938 445.945312 334.382812 465.265625 334.277344 465.589844 C 334.082031 466.171875 357.964844 499.871094 358.570312 499.871094 C 358.890625 499.871094 480.84375 415.929688 481.816406 415.039062 C 482.320312 414.574219 458.703125 380.804688 457.628906 380.460938 C 457.394531 380.386719 429.589844 399.375 395.835938 422.660156 M 323.777344 478.484375 C 316.273438 491.367188 304.519531 512.234375 304.683594 512.394531 C 305.0625 512.777344 345.519531 504.679688 345.519531 504.222656 C 345.519531 503.851562 338.363281 493.722656 327.105469 478.167969 L 325.363281 475.765625 Z M 323.777344 478.484375 "/></g></g></svg>