<svg xmlns="http://www.w3.org/2000/svg" xmlns:xlink="http://www.w3.org/1999/xlink" width="1080" zoomAndPan="magnify" viewBox="233 233 344 344" height="1080" preserveAspectRatio="xMidYMid meet" version="1.2"><g id="5bb4699ac7"><path style=" stroke:none;fill-rule:evenodd;fill:currentColor;fill-opacity:1;" d="M 378.421875 260.042969 C 372.085938 261.996094 366.203125 266.964844 363.007812 273.058594 L 361.019531 276.855469 L 361.019531 502.136719 L 362.976562 506.25 C 365.464844 511.476562 369.398438 515.410156 374.625 517.898438 L 378.738281 519.855469 L 532.511719 519.855469 L 536.625 517.898438 C 541.851562 515.410156 545.785156 511.476562 548.273438 506.25 L 550.230469 502.136719 L 550.230469 277.488281 L 548.273438 273.375 C 545.785156 268.148438 541.851562 264.214844 536.625 261.726562 L 532.511719 259.769531 L 456.257812 259.660156 C 414.316406 259.601562 379.292969 259.773438 378.421875 260.042969 M 488.664062 300.378906 C 486.539062 300.820312 483.085938 304.554688 482.613281 306.921875 C 482.386719 308.046875 482.203125 341.835938 482.203125 382 C 482.203125 442.851562 482.347656 455.371094 483.082031 457.070312 C 484.363281 460.050781 494.585938 473.390625 496.605469 474.722656 C 498.886719 476.230469 503.5 476.21875 505.796875 474.707031 C 508.378906 473.003906 519.414062 457.890625 519.855469 455.457031 C 520.058594 454.332031 520.140625 420.234375 520.039062 379.6875 C 519.863281 309.617188 519.796875 305.878906 518.703125 304.269531 C 516.148438 300.5 515.242188 300.277344 502.136719 300.175781 C 495.523438 300.121094 489.460938 300.214844 488.664062 300.378906 M 489.796875 318.9375 L 489.796875 330.328125 L 512.578125 330.328125 L 512.578125 307.546875 L 489.796875 307.546875 Z M 393.152344 310.714844 C 391.460938 311.40625 390.710938 313.90625 391.664062 315.6875 C 392.050781 316.410156 393.265625 317.148438 394.40625 317.355469 C 395.535156 317.5625 410.183594 317.644531 426.960938 317.542969 C 449.859375 317.402344 457.652344 317.164062 458.230469 316.585938 C 459.222656 315.589844 459.222656 312.160156 458.230469 311.164062 C 457.289062 310.222656 395.40625 309.792969 393.152344 310.714844 M 277.171875 325.859375 C 270.773438 327.816406 264.980469 332.699219 261.769531 338.84375 L 259.769531 342.667969 L 259.574219 359.28125 L 259.375 375.890625 L 353.109375 375.890625 L 353.109375 325.265625 L 315.929688 325.320312 C 295.484375 325.351562 278.042969 325.59375 277.171875 325.859375 M 489.796875 389.8125 L 489.796875 441.703125 L 512.578125 441.703125 L 512.578125 337.921875 L 489.796875 337.921875 Z M 393.152344 341.089844 C 391.460938 341.78125 390.710938 344.28125 391.664062 346.0625 C 392.050781 346.785156 393.265625 347.523438 394.40625 347.730469 C 395.535156 347.9375 410.183594 348.019531 426.960938 347.917969 C 449.859375 347.777344 457.652344 347.539062 458.230469 346.960938 C 459.222656 345.964844 459.222656 342.535156 458.230469 341.539062 C 457.289062 340.597656 395.40625 340.167969 393.152344 341.089844 M 295.523438 347.863281 C 289.488281 350.949219 290.261719 359.457031 296.761719 361.402344 C 300.132812 362.414062 303.585938 360.738281 305.277344 357.277344 C 306.375 355.027344 306.402344 354.5625 305.59375 352.269531 C 304 347.769531 299.535156 345.8125 295.523438 347.863281 M 325.898438 347.863281 C 319.863281 350.949219 320.636719 359.457031 327.136719 361.402344 C 330.507812 362.414062 333.960938 360.738281 335.652344 357.277344 C 336.75 355.027344 336.777344 354.5625 335.96875 352.269531 C 334.375 347.769531 329.910156 345.8125 325.898438 347.863281 M 393.152344 371.464844 C 391.460938 372.15625 390.710938 374.65625 391.664062 376.4375 C 392.050781 377.160156 393.265625 377.898438 394.40625 378.105469 C 395.535156 378.3125 410.183594 378.394531 426.960938 378.292969 C 449.859375 378.152344 457.652344 377.914062 458.230469 377.335938 C 459.222656 376.339844 459.222656 372.910156 458.230469 371.914062 C 457.289062 370.972656 395.40625 370.542969 393.152344 371.464844 M 259.605469 460.53125 L 259.769531 537.574219 L 261.734375 541.6875 C 264.226562 546.894531 268.128906 550.792969 273.375 553.316406 L 277.488281 555.292969 L 492.011719 555.292969 L 496.125 553.335938 C 504.414062 549.386719 509.511719 541.769531 509.945312 532.667969 L 510.179688 527.765625 L 446.992188 527.761719 C 405.945312 527.757812 382.359375 527.523438 379.6875 527.09375 C 366.773438 525.007812 355.757812 514.003906 353.761719 501.1875 C 353.363281 498.636719 353.117188 475.496094 353.113281 440.28125 L 353.109375 383.484375 L 259.4375 383.484375 Z M 393.152344 401.839844 C 391.460938 402.53125 390.710938 405.03125 391.664062 406.8125 C 392.050781 407.535156 393.265625 408.273438 394.40625 408.480469 C 395.535156 408.6875 410.183594 408.769531 426.960938 408.667969 C 449.859375 408.527344 457.652344 408.289062 458.230469 407.710938 C 459.222656 406.714844 459.222656 403.285156 458.230469 402.289062 C 457.289062 401.347656 395.40625 400.917969 393.152344 401.839844 M 393.152344 432.214844 C 391.460938 432.90625 390.710938 435.40625 391.664062 437.1875 C 392.050781 437.910156 393.265625 438.648438 394.40625 438.855469 C 395.535156 439.0625 410.183594 439.144531 426.960938 439.042969 C 449.859375 438.902344 457.652344 438.664062 458.230469 438.085938 C 459.222656 437.089844 459.222656 433.660156 458.230469 432.664062 C 457.289062 431.722656 395.40625 431.292969 393.152344 432.214844 M 489.796875 451.929688 C 489.796875 454.253906 490.433594 455.414062 495.1875 461.738281 C 498.148438 465.683594 500.851562 468.914062 501.1875 468.914062 C 501.523438 468.914062 504.226562 465.683594 507.1875 461.738281 C 511.941406 455.414062 512.578125 454.253906 512.578125 451.929688 L 512.578125 449.296875 L 489.796875 449.296875 Z M 393.152344 462.589844 C 391.460938 463.28125 390.710938 465.78125 391.664062 467.5625 C 392.050781 468.285156 393.265625 469.023438 394.40625 469.230469 C 395.535156 469.4375 410.183594 469.519531 426.960938 469.417969 C 449.859375 469.277344 457.652344 469.039062 458.230469 468.460938 C 459.222656 467.464844 459.222656 464.035156 458.230469 463.039062 C 457.289062 462.097656 395.40625 461.667969 393.152344 462.589844 "/></g></svg>