<svg xmlns="http://www.w3.org/2000/svg" xmlns:xlink="http://www.w3.org/1999/xlink" width="1080" zoomAndPan="magnify" viewBox="233 233 344 344" height="1080" preserveAspectRatio="xMidYMid meet" version="1.2"><g id="584cbe816d"><path style=" stroke:none;fill-rule:evenodd;fill:currentColor;fill-opacity:1;" d="M 266.011719 249.957031 C 259.824219 251.191406 254.179688 255.777344 251.347656 261.863281 C 249.765625 265.269531 249.675781 266.027344 249.449219 277.9375 L 249.210938 290.433594 L 533.5625 290.433594 L 533.347656 277.621094 C 533.136719 265.097656 533.09375 264.726562 531.371094 261.222656 C 529.261719 256.929688 525.691406 253.546875 520.871094 251.289062 L 517.3125 249.621094 L 392.976562 249.527344 C 324.59375 249.476562 267.460938 249.667969 266.011719 249.957031 M 274.265625 263.84375 C 272.121094 264.710938 270.222656 267.609375 270.222656 270.015625 C 270.222656 273.117188 273.640625 276.511719 276.757812 276.511719 C 279.496094 276.511719 282.617188 274.078125 283.183594 271.5 C 283.808594 268.664062 282.066406 265.246094 279.441406 264.152344 C 276.957031 263.113281 276.191406 263.066406 274.265625 263.84375 M 300.972656 264.191406 C 298.316406 265.574219 297.476562 266.980469 297.453125 270.054688 C 297.421875 274.332031 301.21875 277.289062 305.394531 276.238281 C 311.464844 274.714844 311.796875 266.070312 305.871094 263.820312 C 303.769531 263.019531 303.125 263.066406 300.972656 264.191406 M 327.9375 264.152344 C 325.527344 265.230469 323.695312 268.84375 324.308594 271.304688 C 324.527344 272.171875 325.523438 273.695312 326.523438 274.695312 C 329.164062 277.335938 332.289062 277.214844 335.144531 274.359375 C 337.945312 271.5625 338.089844 268.542969 335.554688 265.761719 C 333.464844 263.46875 330.757812 262.894531 327.9375 264.152344 M 249.34375 404.960938 L 249.34375 506.199219 L 381.695312 506.199219 L 379.503906 503.195312 C 373.898438 495.503906 371.824219 488.949219 371.835938 478.992188 C 371.84375 472.792969 372.089844 471.015625 373.503906 466.96875 C 376.003906 459.800781 378.160156 456.394531 383.761719 450.773438 C 387.601562 446.921875 390.039062 445.082031 393.609375 443.351562 C 402.851562 438.863281 402.667969 438.882812 435.054688 438.796875 L 464.164062 438.714844 L 533.132812 410.902344 L 533.292969 357.3125 L 533.457031 303.71875 L 249.34375 303.71875 Z M 360.132812 339.632812 L 358.386719 341.378906 L 357.964844 367.261719 C 357.414062 400.980469 357.472656 418.085938 358.148438 423.925781 C 358.605469 427.882812 358.964844 428.890625 360.367188 430.09375 C 363.964844 433.1875 364.1875 433.089844 396.8125 413.632812 C 439.347656 388.269531 438.535156 388.832031 438.535156 384.710938 C 438.535156 380.59375 439.347656 381.15625 396.8125 355.789062 C 363.6875 336.035156 363.714844 336.050781 360.132812 339.632812 M 370.832031 384.710938 C 370.832031 400.371094 371.039062 413.1875 371.292969 413.1875 C 371.941406 413.1875 418.882812 385.101562 418.882812 384.710938 C 418.882812 384.324219 371.941406 356.238281 371.292969 356.238281 C 371.039062 356.238281 370.832031 369.050781 370.832031 384.710938 M 505.921875 435.929688 L 479.347656 446.59375 L 479.019531 511.648438 L 504.179688 521.691406 C 518.015625 527.214844 530.261719 532.113281 531.390625 532.578125 L 533.449219 533.425781 L 533.449219 479.316406 C 533.449219 449.558594 533.234375 425.222656 532.972656 425.238281 C 532.710938 425.253906 520.539062 430.066406 505.921875 435.929688 M 550.214844 425.941406 C 548.226562 427.027344 541.675781 433.570312 540.675781 435.457031 C 539.132812 438.390625 539.53125 440.910156 541.925781 443.304688 C 543.691406 445.070312 544.558594 445.457031 546.742188 445.457031 C 549.183594 445.457031 549.789062 445.082031 554.160156 440.867188 C 559.765625 435.46875 561.050781 433.0625 560.007812 429.910156 C 558.683594 425.894531 553.867188 423.941406 550.214844 425.941406 M 411.75 452.207031 C 411.515625 452.4375 411.328125 464.679688 411.328125 479.414062 L 411.328125 506.199219 L 465.742188 506.199219 L 465.742188 451.785156 L 438.957031 451.785156 C 424.226562 451.785156 411.980469 451.972656 411.75 452.207031 M 393.351562 459.433594 C 383.359375 468.566406 381.898438 484.207031 390.011719 495.207031 C 392.398438 498.445312 396.921875 502.402344 398.230469 502.402344 C 398.472656 502.402344 398.671875 492.011719 398.671875 479.308594 C 398.671875 459.785156 398.535156 456.214844 397.773438 456.214844 C 397.28125 456.214844 395.289062 457.664062 393.351562 459.433594 M 545.46875 472.445312 C 539.550781 474.394531 537.9375 480.59375 542.378906 484.332031 C 544.140625 485.816406 544.796875 485.953125 550.179688 485.953125 C 556.984375 485.953125 558.898438 484.996094 559.988281 481.042969 C 560.84375 477.941406 559.285156 474.667969 556.226562 473.140625 C 554.117188 472.085938 547.800781 471.675781 545.46875 472.445312 M 543.808594 513.535156 C 541.113281 514.863281 539.476562 518.019531 540.011719 520.867188 C 540.328125 522.539062 541.71875 524.335938 545.71875 528.242188 C 550.089844 532.511719 551.359375 533.410156 553.015625 533.410156 C 557.53125 533.410156 561.222656 529.207031 560.320312 525.097656 C 559.804688 522.738281 552.601562 514.953125 549.628906 513.542969 C 547.007812 512.296875 546.316406 512.296875 543.808594 513.535156 M 413.484375 521.859375 C 413.886719 524.425781 418.289062 559.582031 418.289062 560.226562 C 418.289062 560.441406 424.410156 560.617188 431.890625 560.617188 C 443.941406 560.617188 445.496094 560.5 445.496094 559.605469 C 445.496094 558.242188 441.109375 522.714844 440.71875 520.910156 C 440.410156 519.488281 440.402344 519.488281 426.761719 519.488281 L 413.113281 519.488281 Z M 413.484375 521.859375 "/></g></svg>