<svg xmlns="http://www.w3.org/2000/svg" xmlns:xlink="http://www.w3.org/1999/xlink" width="1080" zoomAndPan="magnify" viewBox="233 233 344 344" height="1080" preserveAspectRatio="xMidYMid meet" version="1.2"><g id="7dd62cfff9"><path style=" stroke:none;fill-rule:evenodd;fill:currentColor;fill-opacity:1;" d="M 298.699219 283.949219 C 298.699219 284.210938 315.351562 301.078125 335.707031 321.429688 L 372.714844 358.433594 L 377.136719 358.230469 C 382.8125 357.964844 386.910156 359.308594 390.742188 362.679688 C 392.351562 364.097656 394.433594 366.714844 395.367188 368.5 C 396.839844 371.308594 397.066406 372.5 397.078125 377.4375 C 397.09375 384.089844 395.8125 387.425781 391.636719 391.597656 C 387.464844 395.773438 384.128906 397.054688 377.476562 397.039062 C 372.539062 397.027344 371.347656 396.800781 368.539062 395.328125 C 366.757812 394.394531 364.136719 392.3125 362.71875 390.703125 C 359.347656 386.871094 358.007812 382.773438 358.269531 377.097656 L 358.472656 372.675781 L 321.175781 335.375 C 300.664062 314.859375 283.785156 298.171875 283.667969 298.292969 C 283.257812 298.703125 306.3125 435.03125 307.324219 438.179688 C 311.128906 449.992188 320.054688 459.46875 331.601562 463.945312 C 337.710938 466.316406 405.324219 483.003906 407.039062 482.566406 C 407.832031 482.363281 425.207031 465.453125 445.652344 444.988281 C 472.699219 417.921875 482.828125 407.394531 482.828125 406.363281 C 482.828125 404.199219 465.316406 334.664062 463.808594 330.832031 C 461.855469 325.878906 457.296875 319.375 453.253906 315.773438 C 449.515625 312.4375 441.867188 308.128906 437.585938 306.941406 C 435.488281 306.359375 300.460938 283.472656 299.125 283.472656 C 298.890625 283.472656 298.699219 283.6875 298.699219 283.949219 M 459.265625 459.226562 C 434.046875 484.445312 427.148438 491.683594 427.148438 492.917969 C 427.148438 494.128906 430.582031 497.929688 441.945312 509.308594 C 450.082031 517.460938 457.699219 524.636719 458.871094 525.261719 C 461.789062 526.816406 467.175781 526.789062 470.449219 525.199219 C 474.0625 523.445312 524.179688 473.199219 525.511719 469.996094 C 526.90625 466.632812 526.753906 461.757812 525.152344 458.5625 C 524.34375 456.941406 518.1875 450.25 509.464844 441.5 C 497.238281 429.242188 494.832031 427.105469 493.246094 427.105469 C 491.632812 427.105469 487.117188 431.371094 459.265625 459.226562 "/></g></svg>