<svg xmlns="http://www.w3.org/2000/svg" xmlns:xlink="http://www.w3.org/1999/xlink" width="1080" zoomAndPan="magnify" viewBox="233 233 344 344" height="1080" preserveAspectRatio="xMidYMid meet" version="1.2"><defs><clipPath id="50d6a80e36"><path d="M 243.015625 255 L 566.984375 255 L 566.984375 555 L 243.015625 555 Z M 243.015625 255 "/></clipPath></defs><g id="1666eca814"><g clip-rule="nonzero" clip-path="url(#50d6a80e36)"><path style=" stroke:none;fill-rule:evenodd;fill:currentColor;fill-opacity:1;" d="M 256.941406 257.03125 C 252.679688 258.667969 247.085938 264.0625 244.953125 268.601562 C 243.992188 270.644531 243.355469 273.390625 243.15625 276.355469 L 242.847656 280.945312 L 567.300781 280.625 L 567.492188 276.613281 C 567.617188 273.929688 567.460938 272.738281 567.015625 273.011719 C 566.652344 273.238281 566.351562 272.960938 566.351562 272.398438 C 566.351562 271.832031 565.582031 269.796875 564.640625 267.875 C 562.433594 263.371094 557.289062 258.648438 552.722656 256.941406 L 549.21875 255.632812 L 404.816406 255.664062 L 260.417969 255.695312 Z M 266.714844 266.675781 C 265.066406 268.324219 264.902344 268.820312 265.644531 269.929688 C 266.675781 271.472656 269.132812 272.082031 274.296875 272.082031 C 278.871094 272.082031 279.914062 271.886719 280.980469 270.816406 C 281.675781 270.121094 282.246094 269.125 282.246094 268.601562 C 282.246094 268.082031 281.675781 267.085938 280.980469 266.386719 C 279.902344 265.308594 278.871094 265.121094 273.992188 265.121094 C 268.757812 265.121094 268.136719 265.253906 266.714844 266.675781 M 292.371094 266.386719 C 291.675781 267.085938 291.105469 268.082031 291.105469 268.601562 C 291.105469 269.125 291.675781 270.121094 292.371094 270.816406 C 293.457031 271.90625 294.480469 272.082031 299.648438 272.082031 C 304.816406 272.082031 305.835938 271.90625 306.921875 270.816406 C 307.621094 270.121094 308.1875 269.125 308.1875 268.601562 C 308.1875 268.082031 307.621094 267.085938 306.921875 266.386719 C 305.835938 265.300781 304.816406 265.121094 299.648438 265.121094 C 294.480469 265.121094 293.457031 265.300781 292.371094 266.386719 M 318.3125 266.386719 C 317.617188 267.085938 317.046875 268.082031 317.046875 268.601562 C 317.046875 269.125 317.617188 270.121094 318.3125 270.816406 C 319.382812 271.886719 320.421875 272.082031 325 272.082031 C 330.160156 272.082031 332.621094 271.472656 333.648438 269.929688 C 334.390625 268.820312 334.226562 268.324219 332.578125 266.675781 C 331.160156 265.253906 330.535156 265.121094 325.300781 265.121094 C 320.421875 265.121094 319.390625 265.308594 318.3125 266.386719 M 243.21875 277.144531 C 243.21875 279.40625 243.332031 280.332031 243.472656 279.203125 C 243.613281 278.070312 243.613281 276.21875 243.472656 275.089844 C 243.332031 273.957031 243.21875 274.882812 243.21875 277.144531 M 243.015625 365.414062 L 243.015625 442.925781 L 303.128906 442.925781 L 303.128906 287.902344 L 243.015625 287.902344 Z M 309.453125 365.414062 L 309.453125 442.925781 L 566.984375 442.925781 L 566.984375 287.902344 L 309.453125 287.902344 Z M 251.875 304.984375 C 251.179688 305.683594 250.609375 306.535156 250.609375 306.882812 C 250.609375 307.230469 251.179688 308.085938 251.875 308.78125 C 253.085938 309.992188 253.984375 310.046875 272.972656 310.046875 C 291.382812 310.046875 292.882812 309.964844 293.855469 308.890625 C 295.214844 307.386719 295.179688 306.066406 293.742188 304.765625 C 292.71875 303.839844 290.328125 303.71875 272.863281 303.71875 C 253.984375 303.71875 253.085938 303.773438 251.875 304.984375 M 499.914062 305.171875 L 498.332031 305.972656 L 498.152344 325.886719 C 498.058594 336.835938 498.128906 346.429688 498.320312 347.203125 C 498.507812 347.976562 499.246094 348.921875 499.964844 349.304688 C 501.078125 349.902344 503.914062 348.589844 519.945312 340.054688 C 539.183594 329.808594 540.675781 328.726562 539.234375 326.039062 C 538.609375 324.871094 503.445312 304.339844 502.105469 304.363281 C 501.769531 304.367188 500.78125 304.730469 499.914062 305.171875 M 439.484375 307.476562 C 434.066406 308.796875 429.539062 313.308594 428.363281 318.5625 C 425.402344 331.789062 442.007812 341.9375 451.933594 332.96875 C 455.519531 329.726562 457.089844 326.339844 457.128906 321.753906 C 457.207031 312.246094 448.578125 305.261719 439.484375 307.476562 M 438.726562 314.453125 C 433.359375 317.722656 433.578125 325.824219 439.109375 328.683594 C 446.449219 332.480469 454.238281 324.226562 449.949219 317.199219 C 447.589844 313.328125 442.578125 312.101562 438.726562 314.453125 M 504.34375 327.132812 L 504.34375 341.164062 L 508.929688 338.679688 C 525.757812 329.570312 529.625 327.414062 529.625 327.132812 C 529.625 326.851562 525.757812 324.691406 508.929688 315.585938 L 504.34375 313.101562 Z M 251.875 334.09375 C 251.179688 334.789062 250.609375 335.640625 250.609375 335.992188 C 250.609375 336.339844 251.179688 337.191406 251.875 337.890625 C 253.085938 339.101562 253.984375 339.15625 272.972656 339.15625 C 291.382812 339.15625 292.882812 339.070312 293.855469 337.996094 C 295.214844 336.492188 295.179688 335.171875 293.742188 333.875 C 292.71875 332.945312 290.328125 332.828125 272.863281 332.828125 C 253.984375 332.828125 253.085938 332.882812 251.875 334.09375 M 404.109375 340.578125 C 403.230469 341.363281 400.082031 344.988281 397.113281 348.640625 C 391.703125 355.292969 390.726562 357.53125 392.472656 359.277344 C 394.238281 361.042969 395.855469 359.910156 401.835938 352.730469 L 407.847656 345.511719 L 416.585938 345.496094 C 423.414062 345.484375 425.21875 345.65625 424.839844 346.273438 C 424.570312 346.707031 421.753906 350.765625 418.574219 355.289062 C 415.394531 359.8125 412.464844 364.136719 412.058594 364.898438 C 411.59375 365.777344 411.328125 369.960938 411.328125 376.445312 L 411.328125 386.609375 L 397.503906 386.609375 C 384.917969 386.609375 383.589844 386.714844 382.636719 387.769531 C 381.273438 389.273438 381.308594 390.589844 382.746094 391.890625 C 383.757812 392.808594 385.914062 392.9375 400.046875 392.9375 C 414.777344 392.9375 416.28125 392.839844 417.222656 391.800781 C 418.042969 390.894531 418.285156 388.9375 418.425781 382.046875 L 418.605469 373.425781 L 426.976562 380.808594 L 435.351562 388.191406 L 435.359375 400.371094 C 435.371094 411.703125 435.460938 412.640625 436.636719 413.820312 C 437.332031 414.515625 438.1875 415.085938 438.535156 415.085938 C 438.882812 415.085938 439.738281 414.515625 440.433594 413.820312 C 441.621094 412.632812 441.699219 411.710938 441.699219 399.003906 L 441.699219 385.457031 L 430.785156 375.84375 C 424.78125 370.554688 419.871094 365.945312 419.871094 365.601562 C 419.871094 364.890625 431.71875 347.429688 432.207031 347.417969 C 432.382812 347.414062 434.800781 349.421875 437.585938 351.878906 C 440.371094 354.339844 444.027344 357.464844 445.710938 358.824219 L 448.773438 361.300781 L 459.375 361.300781 C 468.84375 361.300781 470.089844 361.175781 471.023438 360.144531 C 472.386719 358.640625 472.351562 357.320312 470.914062 356.019531 C 469.949219 355.144531 468.21875 354.972656 460.390625 354.972656 L 451.023438 354.972656 L 443.769531 348.804688 C 439.777344 345.410156 435.496094 341.851562 434.25 340.894531 L 431.984375 339.15625 L 418.84375 339.15625 C 406.109375 339.15625 405.652344 339.199219 404.109375 340.578125 M 252.164062 363.488281 C 250.511719 365.136719 250.351562 365.628906 251.09375 366.742188 C 252.359375 368.640625 254.605469 368.894531 270.183594 368.894531 C 285.199219 368.894531 286.109375 368.828125 287.308594 367.628906 C 288.003906 366.933594 288.574219 365.933594 288.574219 365.414062 C 288.574219 364.890625 288.003906 363.894531 287.308594 363.199219 C 286.109375 362 285.199219 361.933594 269.878906 361.933594 L 253.714844 361.933594 Z M 388.964844 365.621094 C 388.386719 366.257812 387.914062 367.121094 387.914062 367.535156 C 387.914062 368.796875 392.148438 376.789062 393.953125 378.933594 C 396.472656 381.925781 397.886719 382.515625 399.359375 381.183594 C 401.023438 379.679688 400.878906 377.980469 398.886719 375.628906 C 397.960938 374.535156 396.261719 371.574219 395.105469 369.050781 C 393.363281 365.238281 392.757812 364.464844 391.507812 364.464844 C 390.683594 364.464844 389.539062 364.984375 388.964844 365.621094 M 461.644531 366.589844 C 460.832031 367.183594 460.328125 368.667969 460.003906 371.40625 C 459.285156 377.519531 455.871094 383.8125 450.800781 388.390625 C 446.496094 392.277344 445.773438 394.207031 448.085938 395.65625 C 449.921875 396.804688 452.492188 395.476562 456.773438 391.175781 C 461.714844 386.207031 464.8125 380.746094 466.078125 374.757812 C 467.269531 369.140625 467.242188 368.492188 465.742188 366.996094 C 464.257812 365.507812 463.257812 365.410156 461.644531 366.589844 M 251.875 392.304688 C 250.234375 393.945312 250.277344 394.5625 252.164062 396.445312 L 253.714844 398 L 269.878906 398 C 285.199219 398 286.109375 397.933594 287.308594 396.734375 C 288.882812 395.160156 288.925781 393.453125 287.417969 392.085938 C 286.402344 391.167969 284.222656 391.039062 269.699219 391.039062 C 253.984375 391.039062 253.074219 391.105469 251.875 392.304688 M 481.878906 405.519531 C 480.488281 406.15625 478.859375 407.230469 478.265625 407.898438 C 476.574219 409.804688 475.234375 413.53125 475.234375 416.328125 L 475.234375 418.882812 L 414.589844 418.882812 C 356.640625 418.882812 353.898438 418.933594 352.894531 420.039062 C 351.535156 421.542969 351.570312 422.863281 353.007812 424.160156 C 354.066406 425.121094 359.257812 425.207031 414.699219 425.207031 L 475.234375 425.207031 L 475.238281 427.582031 C 475.246094 431.511719 476.402344 434.484375 478.71875 436.515625 C 481.800781 439.21875 485.285156 440.171875 488.535156 439.199219 C 493.773438 437.628906 496.738281 433.4375 496.746094 427.582031 L 496.75 425.207031 L 509.621094 425.207031 C 521.289062 425.207031 522.59375 425.101562 523.542969 424.050781 C 524.902344 422.546875 524.867188 421.226562 523.433594 419.929688 C 522.4375 419.027344 520.5 418.882812 509.511719 418.882812 L 496.75 418.882812 L 496.734375 416.191406 C 496.71875 413.191406 495.035156 409.007812 493.175781 407.355469 C 491.570312 405.933594 487.667969 404.324219 485.855469 404.339844 C 485.058594 404.347656 483.269531 404.878906 481.878906 405.519531 M 483.179688 412.0625 C 482.402344 413.171875 482.195312 415.339844 482.195312 422.402344 C 482.195312 430.257812 482.335938 431.46875 483.351562 432.386719 C 484.882812 433.769531 487.4375 433.71875 488.742188 432.277344 C 489.609375 431.316406 489.789062 429.617188 489.789062 422.292969 C 489.789062 412.339844 489.238281 410.65625 485.992188 410.65625 C 484.820312 410.65625 483.8125 411.160156 483.179688 412.0625 M 251.875 421.410156 C 251.179688 422.109375 250.609375 422.960938 250.609375 423.308594 C 250.609375 423.65625 251.179688 424.511719 251.875 425.207031 C 253.074219 426.410156 253.984375 426.472656 269.808594 426.472656 C 285.15625 426.472656 286.5625 426.382812 287.527344 425.316406 C 288.886719 423.8125 288.851562 422.492188 287.417969 421.195312 C 286.402344 420.277344 284.222656 420.144531 269.699219 420.144531 C 253.984375 420.144531 253.074219 420.210938 251.875 421.410156 M 243.109375 457.953125 C 243.3125 465.25 243.5 466.363281 245.09375 469.605469 C 247.230469 473.960938 251.050781 477.898438 255.324219 480.15625 L 258.519531 481.839844 L 303.128906 482.214844 L 303.128906 449.886719 L 242.886719 449.886719 Z M 309.453125 466.019531 L 309.453125 482.15625 L 500.546875 482.15625 L 500.546875 449.886719 L 309.453125 449.886719 Z M 506.871094 466.050781 L 506.871094 482.214844 L 551.480469 481.839844 L 554.675781 480.15625 C 558.949219 477.898438 562.769531 473.960938 564.90625 469.605469 C 566.5 466.363281 566.6875 465.25 566.890625 457.953125 L 567.109375 449.886719 L 506.871094 449.886719 Z M 521.839844 463.699219 C 520.480469 465.203125 520.515625 466.519531 521.949219 467.820312 C 522.933594 468.710938 524.75 468.867188 533.972656 468.867188 C 543.996094 468.867188 544.9375 468.769531 546.101562 467.601562 C 546.800781 466.90625 547.367188 466.050781 547.367188 465.703125 C 547.367188 465.355469 546.800781 464.503906 546.101562 463.804688 C 544.933594 462.636719 543.996094 462.539062 533.863281 462.539062 C 524.035156 462.539062 522.777344 462.660156 521.839844 463.699219 M 371.234375 488.976562 C 370.882812 489.542969 356.910156 528.953125 356.910156 529.375 C 356.910156 529.523438 361.382812 529.566406 366.847656 529.46875 L 376.785156 529.296875 L 380.140625 518.257812 C 381.984375 512.1875 383.851562 506.992188 384.28125 506.71875 C 384.714844 506.445312 393.910156 506.214844 404.722656 506.210938 C 420.007812 506.203125 424.628906 506.386719 425.515625 507.035156 C 426.265625 507.582031 427.671875 511.542969 429.617188 518.582031 L 432.574219 529.296875 L 442.832031 529.46875 C 448.472656 529.566406 453.074219 529.421875 453.054688 529.152344 C 453.03125 528.882812 449.824219 519.695312 445.921875 508.730469 L 438.828125 488.800781 L 405.1875 488.636719 C 386.683594 488.546875 371.40625 488.699219 371.234375 488.976562 M 336.019531 537.113281 C 332.039062 539.226562 330.96875 541.613281 330.96875 548.371094 L 330.96875 554.289062 L 479.03125 554.289062 L 479.03125 548.371094 C 479.03125 541.613281 477.960938 539.226562 473.980469 537.113281 C 471.875 535.992188 468.777344 535.941406 405 535.941406 C 341.222656 535.941406 338.125 535.992188 336.019531 537.113281 "/></g></g></svg>