<svg xmlns="http://www.w3.org/2000/svg" xmlns:xlink="http://www.w3.org/1999/xlink" width="1080" zoomAndPan="magnify" viewBox="233 233 344 344" height="1080" preserveAspectRatio="xMidYMid meet" version="1.2"><g id="7afb139e72"><path style=" stroke:none;fill-rule:evenodd;fill:currentColor;fill-opacity:1;" d="M 272.238281 254.0625 C 268.390625 255.730469 266.28125 257.699219 264.753906 261.03125 L 263.242188 264.335938 L 263.410156 317.136719 L 263.582031 369.941406 L 265.488281 373.027344 C 266.878906 375.273438 268.316406 376.59375 270.78125 377.882812 L 274.164062 379.648438 L 414.347656 379.648438 L 417.730469 377.882812 C 420.195312 376.59375 421.632812 375.273438 423.023438 373.027344 L 424.929688 369.941406 L 424.929688 262.808594 L 423.023438 259.722656 C 421.632812 257.476562 420.195312 256.15625 417.730469 254.867188 L 414.347656 253.101562 L 344.34375 253.125 C 284.816406 253.144531 274.023438 253.285156 272.238281 254.0625 M 447.050781 254.652344 L 445.496094 256.207031 L 445.496094 411.976562 L 447.050781 413.53125 L 448.601562 415.085938 L 553.753906 415.085938 L 555.308594 413.53125 L 556.859375 411.976562 L 556.859375 256.207031 L 555.308594 254.652344 L 553.753906 253.101562 L 448.601562 253.101562 Z M 320.859375 275.132812 L 318.945312 277.046875 L 318.945312 330.394531 L 320.796875 332.242188 C 323.886719 335.332031 321.71875 336.351562 351.097656 317.972656 C 368.671875 306.976562 370.257812 305.636719 369.296875 302.601562 C 369.085938 301.933594 368.277344 300.820312 367.5 300.121094 C 365.09375 297.960938 326.324219 274.085938 324.5 273.640625 C 323.109375 273.300781 322.402344 273.589844 320.859375 275.132812 M 467.59375 280.261719 C 466.574219 281.277344 465.742188 282.722656 465.742188 283.472656 C 465.742188 284.222656 466.574219 285.667969 467.59375 286.683594 L 469.441406 288.535156 L 532.914062 288.535156 L 534.761719 286.683594 C 537.101562 284.34375 537.101562 282.597656 534.761719 280.261719 L 532.914062 278.410156 L 469.441406 278.410156 Z M 467.59375 300.507812 C 466.574219 301.523438 465.742188 302.96875 465.742188 303.71875 C 465.742188 304.46875 466.574219 305.914062 467.59375 306.933594 C 469.394531 308.734375 469.609375 308.78125 475.867188 308.78125 C 482.125 308.78125 482.339844 308.734375 484.140625 306.933594 C 485.160156 305.914062 485.992188 304.46875 485.992188 303.71875 C 485.992188 302.96875 485.160156 301.523438 484.140625 300.507812 C 482.339844 298.707031 482.125 298.660156 475.867188 298.660156 C 469.609375 298.660156 469.394531 298.707031 467.59375 300.507812 M 503.027344 300.507812 C 502.011719 301.523438 501.179688 302.96875 501.179688 303.71875 C 501.179688 304.46875 502.011719 305.914062 503.027344 306.933594 L 504.878906 308.78125 L 532.914062 308.78125 L 534.761719 306.933594 C 535.78125 305.914062 536.613281 304.46875 536.613281 303.71875 C 536.613281 302.96875 535.78125 301.523438 534.761719 300.507812 L 532.914062 298.660156 L 504.878906 298.660156 Z M 467.59375 320.753906 C 466.574219 321.773438 465.742188 323.21875 465.742188 323.96875 C 465.742188 324.71875 466.574219 326.164062 467.59375 327.179688 L 469.441406 329.03125 L 532.914062 329.03125 L 534.761719 327.179688 C 537.101562 324.839844 537.101562 323.09375 534.761719 320.753906 L 532.914062 318.90625 L 469.441406 318.90625 Z M 360.214844 335.023438 C 356.632812 336.140625 353.441406 338.644531 351.691406 341.710938 L 350.265625 344.207031 L 287.210938 344.214844 L 285.363281 346.066406 C 283.023438 348.40625 283.023438 350.152344 285.363281 352.492188 L 287.210938 354.339844 L 318.738281 354.34375 L 350.265625 354.351562 L 351.71875 356.894531 C 354.78125 362.257812 361.6875 365.265625 367.65625 363.835938 C 371.652344 362.875 375.425781 360.15625 377.289062 356.894531 L 378.742188 354.351562 L 390.019531 354.34375 L 401.300781 354.339844 L 403.152344 352.492188 C 405.488281 350.152344 405.488281 348.40625 403.152344 346.066406 L 401.300781 344.214844 L 390.019531 344.210938 L 378.742188 344.207031 L 377.316406 341.710938 C 375.515625 338.554688 372.355469 336.136719 368.542969 334.988281 C 364.96875 333.910156 363.753906 333.917969 360.214844 335.023438 M 467.59375 341.003906 C 466.574219 342.019531 465.742188 343.464844 465.742188 344.214844 C 465.742188 344.964844 466.574219 346.410156 467.59375 347.429688 L 469.441406 349.277344 L 507.601562 349.277344 L 509.453125 347.429688 C 510.46875 346.410156 511.300781 344.964844 511.300781 344.214844 C 511.300781 343.464844 510.46875 342.019531 509.453125 341.003906 L 507.601562 339.15625 L 469.441406 339.15625 Z M 528.335938 341.003906 C 527.320312 342.019531 526.488281 343.464844 526.488281 344.214844 C 526.488281 345.976562 529.789062 349.277344 531.550781 349.277344 C 533.3125 349.277344 536.613281 345.976562 536.613281 344.214844 C 536.613281 342.453125 533.3125 339.15625 531.550781 339.15625 C 530.800781 339.15625 529.355469 339.988281 528.335938 341.003906 M 467.59375 361.25 C 466.574219 362.269531 465.742188 363.714844 465.742188 364.464844 C 465.742188 365.214844 466.574219 366.660156 467.59375 367.675781 L 469.441406 369.527344 L 532.914062 369.527344 L 534.761719 367.675781 C 537.101562 365.335938 537.101562 363.589844 534.761719 361.25 L 532.914062 359.402344 L 469.441406 359.402344 Z M 467.59375 381.5 C 466.574219 382.515625 465.742188 383.960938 465.742188 384.710938 C 465.742188 385.460938 466.574219 386.90625 467.59375 387.925781 L 469.441406 389.773438 L 497.480469 389.773438 L 499.328125 387.925781 C 500.347656 386.90625 501.179688 385.460938 501.179688 384.710938 C 501.179688 383.960938 500.347656 382.515625 499.328125 381.5 L 497.480469 379.648438 L 469.441406 379.648438 Z M 260.65625 391.542969 C 258.191406 392.828125 256.753906 394.148438 255.363281 396.394531 L 253.457031 399.480469 L 253.285156 439.773438 L 253.113281 480.0625 L 254.894531 483.472656 C 256.195312 485.960938 257.507812 487.398438 259.761719 488.789062 L 262.84375 490.699219 L 284.914062 490.878906 L 306.980469 491.0625 L 327.214844 506.222656 C 349.113281 522.632812 349.710938 522.949219 352.828125 519.832031 C 353.679688 518.980469 354.378906 517.617188 354.378906 516.808594 C 354.378906 516 352.550781 509.867188 350.3125 503.175781 L 346.246094 491.015625 L 359.964844 491 C 371.90625 490.988281 374.007812 490.835938 376.210938 489.824219 C 379.433594 488.347656 382.085938 485.695312 383.5625 482.472656 C 384.648438 480.105469 384.726562 477.394531 384.738281 440.359375 L 384.753906 400.78125 L 383.148438 397.5625 C 381.550781 394.359375 378.621094 391.777344 375.0625 390.441406 C 373.863281 389.992188 355.453125 389.773438 318.660156 389.773438 L 264.039062 389.773438 Z M 275.238281 416.933594 C 274.21875 417.953125 273.386719 419.398438 273.386719 420.144531 C 273.386719 420.894531 274.21875 422.339844 275.238281 423.359375 L 277.085938 425.207031 L 360.804688 425.207031 L 362.65625 423.359375 C 364.992188 421.019531 364.992188 419.273438 362.65625 416.933594 L 360.804688 415.085938 L 277.085938 415.085938 Z M 406.554688 426.761719 L 405 428.316406 L 405 515.308594 L 407.054688 513.363281 C 420.058594 501.066406 453.566406 471.304688 454.738281 471.011719 C 455.660156 470.777344 456.878906 471.03125 457.820312 471.648438 C 458.949219 472.390625 484.683594 500.875 495.492188 513.355469 C 495.738281 513.636719 501.5625 507.089844 508.4375 498.804688 C 515.3125 490.515625 521.527344 483.226562 522.242188 482.597656 C 523.097656 481.847656 524.3125 481.523438 525.800781 481.648438 C 527.863281 481.824219 529.269531 483.171875 542.300781 497.480469 L 556.542969 513.125 L 556.714844 470.589844 L 556.890625 428.054688 L 555.257812 426.632812 L 553.625 425.207031 L 408.105469 425.207031 Z M 285.363281 437.183594 C 284.34375 438.199219 283.511719 439.644531 283.511719 440.394531 C 283.511719 441.144531 284.34375 442.589844 285.363281 443.605469 L 287.210938 445.457031 L 350.679688 445.457031 L 352.53125 443.605469 C 354.871094 441.269531 354.871094 439.519531 352.53125 437.183594 L 350.679688 435.332031 L 287.210938 435.332031 Z M 491.023438 446.28125 C 485.292969 447.902344 480.09375 452.441406 477.566406 458.035156 C 475.730469 462.101562 475.738281 469.324219 477.582031 473.410156 C 479.464844 477.574219 483.617188 481.828125 487.796875 483.875 C 492.875 486.359375 499.359375 486.359375 504.433594 483.875 C 508.613281 481.828125 512.769531 477.574219 514.648438 473.410156 C 516.710938 468.847656 516.554688 462.023438 514.285156 457.386719 C 512.269531 453.265625 507.976562 449.039062 504.039062 447.292969 C 500.449219 445.707031 494.652344 445.253906 491.023438 446.28125 M 295.484375 457.429688 C 294.46875 458.449219 293.636719 459.894531 293.636719 460.640625 C 293.636719 461.390625 294.46875 462.835938 295.484375 463.855469 L 297.335938 465.703125 L 340.558594 465.703125 L 342.40625 463.855469 C 343.425781 462.835938 344.257812 461.390625 344.257812 460.640625 C 344.257812 459.894531 343.425781 458.449219 342.40625 457.429688 L 340.558594 455.582031 L 297.335938 455.582031 Z M 430.152344 505.636719 L 405 528.507812 L 405 541.109375 C 405 553.648438 405.007812 553.722656 406.554688 555.265625 L 408.105469 556.820312 L 480.816406 556.820312 C 553.417969 556.820312 553.527344 556.820312 555.191406 555.507812 L 556.859375 554.199219 L 556.84375 541.113281 L 556.828125 528.03125 L 541.617188 511.261719 C 533.25 502.039062 526.160156 494.40625 525.863281 494.300781 C 525.5625 494.191406 519.597656 500.953125 512.605469 509.320312 C 505.613281 517.6875 499.1875 524.996094 498.324219 525.5625 C 497.351562 526.199219 496.164062 526.4375 495.179688 526.191406 C 493.910156 525.875 472.441406 502.546875 456.820312 484.515625 L 455.304688 482.761719 Z M 430.152344 505.636719 "/></g></svg>