<svg xmlns="http://www.w3.org/2000/svg" xmlns:xlink="http://www.w3.org/1999/xlink" width="1080" zoomAndPan="magnify" viewBox="233 233 344 344" height="1080" preserveAspectRatio="xMidYMid meet" version="1.2"><g id="e2f392a1ac"><path style=" stroke:none;fill-rule:evenodd;fill:currentColor;fill-opacity:1;" d="M 269.90625 271.070312 C 262.792969 273.335938 256.242188 278.570312 252.957031 284.605469 C 250.054688 289.9375 249.34375 294.101562 249.34375 305.75 L 249.34375 316.375 L 560.65625 316.375 L 560.65625 305.75 C 560.65625 294.09375 559.945312 289.9375 557.035156 284.589844 C 554.402344 279.75 549.652344 275.371094 544.238281 272.785156 L 539.460938 270.5 L 405.949219 270.382812 C 299.21875 270.285156 271.929688 270.425781 269.90625 271.070312 M 475.425781 286.609375 C 469.574219 290.175781 470.445312 298.886719 476.878906 301.128906 C 480.148438 302.269531 482.460938 301.683594 485.09375 299.050781 C 487.734375 296.410156 488.390625 293.257812 486.933594 290.1875 C 484.839844 285.773438 479.511719 284.117188 475.425781 286.609375 M 501.753906 286.8125 C 497.796875 289.480469 496.839844 294.191406 499.457031 298.089844 C 501.15625 300.621094 505.074219 302.25 507.804688 301.566406 C 510.386719 300.917969 513.65625 297.398438 514.160156 294.71875 C 515.414062 288.03125 507.46875 282.964844 501.753906 286.8125 M 529.207031 286.609375 C 523.355469 290.175781 524.230469 298.886719 530.664062 301.128906 C 533.929688 302.269531 536.246094 301.683594 538.878906 299.050781 C 541.519531 296.410156 542.171875 293.257812 540.71875 290.1875 C 538.621094 285.773438 533.292969 284.117188 529.207031 286.609375 M 249.492188 420.9375 L 249.660156 518.539062 L 251.128906 522.070312 C 254.097656 529.195312 260.039062 535.136719 267.058594 538 L 270.539062 539.417969 L 403.417969 539.605469 C 525.65625 539.777344 536.613281 539.707031 540.269531 538.738281 C 547.453125 536.835938 554.433594 531.1875 557.546875 524.753906 C 560.757812 518.117188 560.640625 522.15625 560.648438 419.355469 L 560.65625 323.335938 L 249.324219 323.335938 Z M 283.511719 395.785156 L 283.511719 437.230469 L 390.445312 437.230469 L 390.445312 354.339844 L 283.511719 354.339844 Z M 412.59375 359.402344 L 412.59375 364.464844 L 525.855469 364.464844 L 525.855469 354.339844 L 412.59375 354.339844 Z M 412.59375 382.8125 L 412.59375 387.875 L 525.855469 387.875 L 525.855469 377.753906 L 412.59375 377.753906 Z M 412.59375 406.226562 L 412.59375 411.289062 L 525.855469 411.289062 L 525.855469 401.164062 L 412.59375 401.164062 Z M 412.59375 429.636719 L 412.59375 434.699219 L 525.855469 434.699219 L 525.855469 424.574219 L 412.59375 424.574219 Z M 412.59375 484.371094 L 412.59375 508.097656 L 459.417969 508.097656 L 459.417969 460.640625 L 412.59375 460.640625 Z M 480.296875 484.371094 L 480.296875 508.097656 L 527.121094 508.097656 L 527.121094 460.640625 L 480.296875 460.640625 Z M 282.878906 467.917969 L 282.878906 474.5625 L 391.078125 474.5625 L 391.078125 461.273438 L 282.878906 461.273438 Z M 282.878906 501.453125 L 282.878906 508.097656 L 391.078125 508.097656 L 391.078125 494.8125 L 282.878906 494.8125 Z M 282.878906 501.453125 "/></g></svg>