<svg xmlns="http://www.w3.org/2000/svg" xmlns:xlink="http://www.w3.org/1999/xlink" width="1080" zoomAndPan="magnify" viewBox="233 233 344 344" height="1080" preserveAspectRatio="xMidYMid meet" version="1.2"><g id="167025c9a7"><path style=" stroke:none;fill-rule:evenodd;fill:currentColor;fill-opacity:1;" d="M 258.117188 247.574219 C 253.515625 249.957031 249.941406 254.148438 248.609375 258.730469 C 247.917969 261.101562 247.761719 278.449219 247.761719 352.125 L 247.761719 442.609375 L 562.238281 442.609375 L 562.238281 351.808594 C 562.238281 266.3125 562.171875 260.820312 561.109375 257.777344 C 559.554688 253.328125 556.292969 249.753906 551.683594 247.449219 L 547.800781 245.507812 L 262.109375 245.507812 Z M 274.019531 271.449219 C 272.773438 272.695312 272.753906 273.558594 272.753906 326.429688 C 272.753906 378.371094 272.796875 380.191406 273.964844 381.636719 L 275.175781 383.128906 L 534.824219 383.128906 L 536.035156 381.636719 C 537.203125 380.191406 537.246094 378.371094 537.246094 326.429688 C 537.246094 273.558594 537.226562 272.695312 535.980469 271.449219 C 534.722656 270.191406 533.871094 270.183594 405 270.183594 C 276.128906 270.183594 275.277344 270.191406 274.019531 271.449219 M 282.246094 326.816406 L 282.246094 373.960938 L 400.253906 373.640625 L 400.253906 279.992188 L 341.25 279.832031 L 282.246094 279.667969 Z M 409.71875 280.464844 C 409.554688 280.902344 409.492188 302.042969 409.582031 327.449219 L 409.746094 373.640625 L 527.753906 373.960938 L 527.753906 279.675781 L 468.886719 279.675781 C 422.378906 279.675781 409.957031 279.839844 409.71875 280.464844 M 452.457031 287.632812 C 438.238281 291.367188 426.582031 303.21875 422.964844 317.628906 C 421.441406 323.703125 421.984375 334.179688 424.144531 340.296875 C 428.488281 352.601562 438.847656 362.285156 451.824219 366.175781 C 454.769531 367.058594 459.632812 367.253906 483.484375 367.464844 C 511.484375 367.707031 511.671875 367.699219 513.378906 366.355469 C 515.519531 364.671875 515.738281 361.308594 513.832031 359.402344 C 512.660156 358.226562 511.722656 358.136719 500.863281 358.136719 C 494.421875 358.136719 489.15625 358.050781 489.15625 357.941406 C 489.15625 357.835938 490.445312 356.363281 492.023438 354.667969 C 495.941406 350.460938 498.855469 345.484375 500.925781 339.464844 C 502.417969 335.128906 502.667969 333.375 502.691406 327.132812 C 502.710938 321.867188 502.402344 318.804688 501.574219 316.058594 C 497.40625 302.214844 485.953125 291.035156 472.414062 287.59375 C 467.667969 286.386719 457.117188 286.410156 452.457031 287.632812 M 453.6875 296.6875 C 445.347656 299.355469 437.976562 305.5625 434.550781 312.800781 C 429.835938 322.761719 430.648438 334.464844 436.6875 343.507812 C 451.871094 366.242188 486.398438 359.8125 492.6875 333.078125 C 495.769531 319.980469 489.277344 305.644531 477.308594 299.132812 C 470.613281 295.488281 460.65625 294.457031 453.6875 296.6875 M 321.160156 299.421875 C 318.351562 301.03125 318.355469 301.023438 318.355469 326.183594 C 318.355469 344.113281 318.550781 350.484375 319.125 351.230469 C 320.535156 353.066406 322.515625 353.761719 324.351562 353.0625 C 327.191406 351.984375 360.925781 330.882812 362.449219 329.234375 C 364.28125 327.253906 364.28125 324.554688 362.449219 322.90625 C 361.164062 321.75 328.171875 301.109375 324.839844 299.375 C 323.148438 298.496094 322.765625 298.503906 321.160156 299.421875 M 458.925781 299.644531 C 457.882812 300.371094 457.519531 301.265625 457.519531 303.078125 C 457.519531 309.316406 466.839844 310.0625 468.027344 303.921875 C 468.828125 299.777344 462.785156 296.941406 458.925781 299.644531 M 327.804688 326.429688 L 327.804688 340.429688 L 334.605469 336.214844 C 338.285156 333.933594 341.96875 331.664062 345.660156 329.40625 C 348 327.980469 349.921875 326.671875 349.933594 326.492188 C 349.941406 326.316406 345.609375 323.480469 340.300781 320.195312 C 336.605469 317.910156 332.917969 315.621094 329.226562 313.328125 L 327.804688 312.433594 Z M 437.855469 315.695312 C 435.375 318.171875 435.296875 321.421875 437.671875 323.289062 C 440.28125 325.339844 442.046875 324.984375 444.234375 321.964844 C 446.390625 318.988281 446.300781 317.515625 443.828125 315.269531 C 441.726562 313.359375 440.074219 313.476562 437.855469 315.695312 M 457.195312 314.984375 C 452.472656 317.207031 449.304688 322.214844 449.296875 327.484375 C 449.289062 330.597656 452.285156 335.859375 455.136719 337.746094 C 460.171875 341.078125 467.910156 340.21875 471.839844 335.894531 C 475.554688 331.808594 476.402344 325.117188 473.796875 320.515625 C 470.601562 314.875 462.894531 312.308594 457.195312 314.984375 M 482.828125 314.292969 C 479.179688 315.636719 478.535156 319.773438 481.515625 322.75 C 484.390625 325.628906 487.703125 324.945312 489.136719 321.175781 C 489.980469 318.949219 488.519531 315.597656 486.25 314.566406 C 484.539062 313.785156 484.265625 313.765625 482.828125 314.292969 M 459.769531 324.742188 C 459.226562 325.515625 458.785156 326.609375 458.785156 327.175781 C 458.785156 329.621094 463.210938 331.308594 464.984375 329.535156 C 466.058594 328.460938 465.925781 325.507812 464.75 324.328125 C 463.324219 322.902344 460.917969 323.101562 459.769531 324.742188 M 445.640625 340.566406 C 442.875 341.898438 443.011719 346.554688 445.871094 348.425781 C 449.355469 350.707031 453.722656 348.992188 453.722656 345.34375 C 453.722656 342.707031 452.773438 341.285156 450.476562 340.484375 C 448.082031 339.652344 447.519531 339.660156 445.640625 340.566406 M 472.949219 341.902344 C 469.773438 344.632812 471.324219 349.910156 475.304688 349.910156 C 479.238281 349.910156 481.53125 347.492188 481 343.898438 C 480.472656 340.34375 476.039062 339.242188 472.949219 341.902344 M 274.019531 409.390625 C 272.136719 411.273438 272.332031 414.660156 274.421875 416.304688 C 275.894531 417.460938 276.960938 417.617188 283.511719 417.617188 C 290.0625 417.617188 291.128906 417.460938 292.601562 416.304688 C 294.691406 414.660156 294.886719 411.273438 293.003906 409.390625 C 291.867188 408.253906 290.894531 408.125 283.511719 408.125 C 276.128906 408.125 275.15625 408.253906 274.019531 409.390625 M 312.5625 409.308594 C 311.503906 410.164062 311.101562 411.148438 311.101562 412.871094 C 311.101562 414.589844 311.503906 415.574219 312.5625 416.429688 C 313.890625 417.507812 315.285156 417.617188 327.84375 417.617188 C 336.769531 417.617188 342.222656 417.363281 343.234375 416.902344 C 346.445312 415.4375 346.730469 410.417969 343.695312 408.796875 C 342.917969 408.378906 337.039062 408.125 328.234375 408.125 C 315.292969 408.125 313.894531 408.230469 312.5625 409.308594 M 363.285156 409.792969 C 361.542969 412.003906 361.628906 414.164062 363.527344 416.0625 L 365.078125 417.617188 L 379.257812 417.617188 C 392.648438 417.617188 393.535156 417.542969 395.105469 416.304688 C 397.195312 414.660156 397.394531 411.273438 395.507812 409.390625 C 394.316406 408.195312 393.398438 408.125 379.417969 408.125 L 364.59375 408.125 Z M 414.601562 409.589844 C 412.65625 411.660156 412.785156 414.644531 414.894531 416.304688 C 416.464844 417.542969 417.351562 417.617188 430.742188 417.617188 L 444.921875 417.617188 L 446.472656 416.0625 C 447.328125 415.207031 448.027344 413.769531 448.027344 412.871094 C 448.027344 411.96875 447.328125 410.53125 446.472656 409.675781 L 444.921875 408.125 L 430.449219 408.125 C 416.140625 408.125 415.960938 408.140625 414.601562 409.589844 M 466.183594 408.828125 C 463.261719 410.527344 463.621094 415.464844 466.765625 416.902344 C 467.777344 417.363281 473.230469 417.617188 482.15625 417.617188 C 494.714844 417.617188 496.109375 417.507812 497.4375 416.429688 C 498.496094 415.574219 498.898438 414.589844 498.898438 412.871094 C 498.898438 411.148438 498.496094 410.164062 497.4375 409.308594 C 496.105469 408.226562 494.722656 408.125 481.652344 408.144531 C 472.828125 408.15625 466.886719 408.417969 466.183594 408.828125 M 517.398438 409.4375 C 515.09375 411.25 515.09375 414.492188 517.398438 416.304688 C 518.875 417.464844 519.9375 417.617188 526.601562 417.617188 C 533.761719 417.617188 534.214844 417.539062 535.691406 416.0625 C 537.609375 414.144531 537.738281 411.148438 535.980469 409.390625 C 534.851562 408.261719 533.871094 408.125 526.890625 408.125 C 519.933594 408.125 518.882812 408.269531 517.398438 409.4375 M 247.867188 452.839844 C 247.195312 453.511719 247.390625 471.308594 248.117188 475.828125 C 249.214844 482.625 253.09375 487.699219 259.433594 490.632812 L 262.316406 491.964844 L 404.367188 491.964844 C 542.863281 491.964844 546.5 491.933594 549.566406 490.75 C 553.710938 489.152344 558.261719 484.8125 560.097656 480.710938 C 561.449219 477.6875 561.59375 476.355469 561.804688 464.914062 L 562.035156 452.417969 L 405.164062 452.417969 C 318.882812 452.417969 248.097656 452.605469 247.867188 452.839844 M 383.488281 468.867188 C 381.589844 470.765625 381.800781 474.140625 383.917969 475.808594 C 385.578125 477.113281 386.085938 477.140625 405.492188 476.960938 L 425.359375 476.777344 L 426.570312 475.285156 C 428.207031 473.261719 428.101562 470.65625 426.316406 468.976562 C 424.875 467.625 424.515625 467.601562 404.800781 467.601562 C 385.59375 467.601562 384.699219 467.65625 383.488281 468.867188 M 355.066406 504.144531 C 354.722656 505.449219 353.109375 511.855469 351.484375 518.382812 L 348.527344 530.246094 L 332.507812 530.246094 C 316.789062 530.246094 316.457031 530.273438 314.886719 531.667969 C 313.664062 532.753906 312.304688 536.167969 309.15625 546.0625 C 306.886719 553.199219 305.027344 559.769531 305.027344 560.664062 C 305.027344 561.5625 305.683594 562.914062 306.488281 563.671875 L 307.953125 565.046875 L 503.132812 565.046875 L 504.6875 563.492188 C 505.539062 562.640625 506.238281 561.464844 506.238281 560.882812 C 506.238281 559.253906 497.496094 533.175781 496.484375 531.789062 C 495.644531 530.640625 494.484375 530.539062 478.609375 530.246094 L 461.632812 529.929688 L 458.378906 517.589844 C 456.589844 510.804688 454.957031 504.46875 454.753906 503.511719 L 454.386719 501.769531 L 355.695312 501.769531 Z M 355.066406 504.144531 "/></g></svg>