<svg xmlns="http://www.w3.org/2000/svg" xmlns:xlink="http://www.w3.org/1999/xlink" width="1080" zoomAndPan="magnify" viewBox="0 0 810 817.92" height="1080" preserveAspectRatio="xMidYMid meet" version="1.2"><g id="e44bc67f16"><path style=" stroke:none;fill-rule:evenodd;fill:currentColor;fill-opacity:1;" d="M 273.945312 61.742188 C 225.992188 66.835938 184.109375 103.613281 171.324219 151.859375 C 167.632812 165.796875 167.632812 194.871094 171.324219 208.808594 C 180.324219 242.769531 204.195312 272.117188 234.949219 287.039062 C 257.964844 298.207031 265.402344 299.453125 310.085938 299.621094 L 348.84375 299.765625 L 348.84375 230.164062 L 310.878906 229.371094 C 277.804688 228.683594 272.199219 228.199219 267.375 225.625 C 251.972656 217.40625 243.355469 206.625 239.410156 190.644531 C 237.074219 181.171875 237.074219 179.496094 239.410156 170.023438 C 243.355469 154.042969 251.972656 143.261719 267.375 135.042969 C 272.199219 132.46875 277.804688 131.984375 310.878906 131.296875 L 348.84375 130.503906 L 348.84375 60.902344 L 317.207031 60.707031 C 299.804688 60.597656 280.339844 61.066406 273.945312 61.742188 M 368.089844 61.167969 C 367.507812 61.746094 367.035156 77.761719 367.035156 96.757812 L 367.035156 131.296875 L 406.582031 131.296875 L 406.582031 60.109375 L 387.863281 60.109375 C 377.566406 60.109375 368.667969 60.585938 368.089844 61.167969 M 644.222656 61.894531 C 597.050781 69.613281 578.050781 128.757812 611.699219 163.152344 C 634.621094 186.582031 670.339844 187.402344 694.476562 165.058594 C 710.03125 150.65625 717.148438 130.710938 713.589844 111.476562 C 707.464844 78.328125 676.972656 56.535156 644.222656 61.894531 M 458.898438 76.933594 C 454.785156 82.164062 454.792969 82.308594 459.601562 91.800781 L 463.582031 99.660156 L 456.363281 99.660156 C 450.8125 99.660156 448.253906 100.554688 445.265625 103.542969 C 440.527344 108.277344 440.414062 110.652344 444.664062 116.054688 C 447.839844 120.09375 448.464844 120.222656 464.875 120.222656 C 477.640625 120.222656 482.671875 119.617188 485.324219 117.757812 C 489.761719 114.652344 489.917969 107.976562 485.742188 99.789062 L 482.644531 93.71875 L 490.4375 92.972656 C 500.046875 92.046875 503.078125 89.683594 503.078125 83.101562 C 503.078125 74.277344 499.660156 72.765625 479.734375 72.765625 C 462.652344 72.765625 462.089844 72.878906 458.898438 76.933594 M 584.328125 187.414062 C 566.96875 195.910156 553.617188 208.242188 546.578125 222.28125 L 541.832031 231.746094 L 541.324219 266.152344 L 540.820312 300.554688 L 767.472656 300.554688 L 766.964844 266.152344 C 766.457031 231.789062 766.453125 231.734375 761.828125 222.253906 C 754.972656 208.207031 741.871094 196.148438 724.0625 187.484375 C 715.980469 183.550781 708.578125 180.332031 707.621094 180.332031 C 706.660156 180.332031 702.253906 182.769531 697.828125 185.75 C 683.101562 195.660156 673.714844 198.371094 654.144531 198.371094 C 634.574219 198.371094 625.1875 195.660156 610.460938 185.75 C 606.039062 182.769531 601.597656 180.335938 600.597656 180.339844 C 599.597656 180.34375 592.277344 183.527344 584.328125 187.414062 M 367.398438 264.570312 L 367.824219 299.765625 L 406.582031 300.65625 L 406.582031 229.371094 L 366.976562 229.371094 Z M 444.664062 244.613281 C 440.414062 250.015625 440.527344 252.390625 445.265625 257.125 C 448.246094 260.109375 450.816406 261.007812 456.324219 261.007812 L 463.496094 261.007812 L 459.234375 269.691406 L 454.976562 278.378906 L 458.234375 282.742188 C 461.410156 287.003906 461.921875 287.121094 479.332031 287.558594 C 499.640625 288.070312 503.078125 286.625 503.078125 277.566406 C 503.078125 270.984375 500.046875 268.621094 490.4375 267.695312 L 482.644531 266.949219 L 485.742188 260.878906 C 489.917969 252.691406 489.761719 246.015625 485.324219 242.90625 C 482.671875 241.050781 477.640625 240.445312 464.875 240.445312 C 448.464844 240.445312 447.839844 240.574219 444.664062 244.613281 M 744.597656 342.105469 C 741.273438 344.050781 717.703125 368.234375 692.21875 395.851562 L 645.878906 446.058594 L 645.070312 456.179688 C 643.117188 480.472656 624.273438 502.824219 599.679688 510.015625 C 592.371094 512.152344 580.03125 512.527344 517.0625 512.527344 L 443.039062 512.527344 L 440.328125 508.390625 C 437.898438 504.679688 437.855469 503.824219 439.953125 500.085938 L 442.292969 495.917969 L 517.371094 495.128906 L 592.453125 494.335938 L 601.441406 489.921875 C 611.199219 485.128906 618.121094 478.238281 623.65625 467.796875 C 629.023438 457.679688 628.714844 438.691406 623.015625 427.898438 C 618.042969 418.484375 610.875 411.414062 601.152344 406.316406 L 594.035156 402.585938 L 509.214844 402.128906 L 424.398438 401.667969 L 408.765625 393 C 400.171875 388.234375 387.441406 382.410156 380.480469 380.058594 L 367.824219 375.785156 L 316.414062 375.742188 C 258.414062 375.6875 254.59375 376.222656 231.785156 387.515625 C 216.078125 395.292969 209.488281 400.960938 162.34375 447.25 L 124.542969 484.367188 L 201.824219 561.660156 L 279.101562 638.953125 L 288.972656 629.476562 C 294.460938 624.207031 302.914062 618.089844 308.023438 615.699219 L 317.207031 611.394531 L 451.664062 610.496094 C 570.992188 609.695312 587.253906 609.292969 596.140625 606.921875 C 622.75 599.828125 644.664062 585.875 661.054688 565.59375 C 668.082031 556.898438 776.171875 408.433594 788.144531 391.035156 C 800.070312 373.699219 793.585938 352.171875 773.246094 341.578125 C 765.046875 337.308594 752.40625 337.539062 744.597656 342.105469 M 48.28125 503.042969 L 15.082031 536.269531 L 227.816406 749.003906 L 261.839844 715.007812 L 295.859375 681.015625 L 190.269531 575.417969 C 132.195312 517.335938 83.957031 469.816406 83.078125 469.816406 C 82.199219 469.816406 66.539062 484.769531 48.28125 503.042969 "/></g></svg>