<svg xmlns="http://www.w3.org/2000/svg" xmlns:xlink="http://www.w3.org/1999/xlink" width="1080" zoomAndPan="magnify" viewBox="0 0 810 817.92" height="1080" preserveAspectRatio="xMidYMid meet" version="1.2"><g id="cb9f6d097b"><path style=" stroke:none;fill-rule:evenodd;fill:currentColor;fill-opacity:1;" d="M 436.738281 21.496094 C 412.179688 27.992188 391.625 36.976562 370.988281 50.226562 C 358.398438 58.316406 340.144531 72.707031 340.144531 74.546875 C 340.144531 77.507812 380.277344 96.496094 386.53125 96.496094 C 387.640625 96.496094 392.867188 90.265625 398.140625 82.652344 C 412.753906 61.574219 432.242188 40.945312 454.878906 22.59375 L 461.15625 17.507812 L 456.410156 17.527344 C 453.800781 17.542969 444.949219 19.328125 436.738281 21.496094 M 529.96875 21.765625 C 553.171875 39.910156 575.695312 63.949219 590.1875 86.039062 C 596.671875 95.914062 597.542969 96.652344 601.761719 95.8125 C 607.519531 94.667969 633.152344 83.457031 641.335938 78.503906 L 647.507812 74.769531 L 635.183594 64.976562 C 613.875 48.042969 593.015625 36.222656 569.515625 27.769531 C 555.917969 22.878906 534.207031 17.417969 528.386719 17.429688 C 524.550781 17.433594 524.597656 17.566406 529.96875 21.765625 M 236.949219 30.167969 C 235.441406 31.046875 218.179688 52.085938 198.589844 76.914062 C 160.742188 124.890625 158.851562 128.230469 166.488281 133.578125 C 169.058594 135.378906 173.957031 136.042969 184.679688 136.042969 L 199.355469 136.042969 L 199.355469 325.867188 L 281.613281 325.867188 L 281.613281 136.042969 L 296.710938 136.042969 C 310.636719 136.042969 312.117188 135.738281 315.695312 132.15625 C 317.832031 130.023438 319.578125 127.234375 319.578125 125.960938 C 319.578125 123.144531 249.796875 34.382812 244.867188 30.929688 C 240.792969 28.074219 240.578125 28.054688 236.949219 30.167969 M 471.203125 41.148438 C 450.035156 57.019531 410.125 101.992188 414.921875 104.570312 C 418.628906 106.558594 448.582031 110.949219 464.714844 111.867188 L 480.929688 112.789062 L 480.929688 73.796875 C 480.929688 52.347656 480.644531 34.800781 480.296875 34.800781 C 479.949219 34.800781 475.855469 37.65625 471.203125 41.148438 M 504.65625 73.796875 L 504.65625 112.789062 L 520.871094 111.867188 C 537.179688 110.9375 566.976562 106.550781 570.75 104.519531 C 573.640625 102.96875 556.28125 80.066406 539.472656 63.257812 C 527.339844 51.117188 507.894531 34.800781 505.570312 34.800781 C 505.066406 34.800781 504.65625 52.347656 504.65625 73.796875 M 654.9375 98.929688 C 650.152344 101.878906 638.40625 107.609375 628.835938 111.667969 C 619.265625 115.726562 611.203125 119.246094 610.917969 119.492188 C 610.636719 119.738281 613.625 128.007812 617.5625 137.875 C 626.472656 160.203125 632.089844 181.664062 635.164062 205.109375 C 636.46875 215.0625 637.535156 224.238281 637.535156 225.5 C 637.535156 227.441406 643.734375 227.789062 678.109375 227.789062 L 718.679688 227.789062 L 717.722656 215.53125 C 715.636719 188.765625 703.289062 151.726562 687.9375 126.1875 C 680.039062 113.046875 665.871094 93.34375 664.429688 93.492188 C 663.992188 93.535156 659.722656 95.984375 654.9375 98.929688 M 338.023438 107.664062 C 346.011719 119.734375 344.714844 137.050781 334.996094 148.121094 C 329.023438 154.925781 322.808594 158.214844 313.40625 159.558594 L 306.132812 160.597656 L 305.707031 194.195312 L 305.277344 227.789062 L 347.910156 227.789062 L 348.652344 222.648438 C 349.058594 219.824219 350.164062 211.007812 351.101562 203.0625 C 353.34375 184.058594 358.789062 162.992188 366.996094 141.578125 C 370.664062 132.007812 374.007812 123.035156 374.425781 121.644531 C 374.996094 119.761719 372.820312 118.167969 365.972656 115.449219 C 360.902344 113.4375 351.871094 109.414062 345.902344 106.515625 C 339.933594 103.613281 334.761719 101.238281 334.410156 101.238281 C 334.058594 101.238281 335.683594 104.128906 338.023438 107.664062 M 394.871094 137.832031 C 384.300781 160.855469 373.363281 203.871094 373.363281 222.410156 L 373.363281 227.789062 L 480.929688 227.789062 L 480.929688 137.851562 L 472.625 136.992188 C 468.058594 136.523438 459.335938 135.722656 453.246094 135.21875 C 442.648438 134.335938 411.292969 129.226562 403.796875 127.160156 C 400.605469 126.277344 399.652344 127.417969 394.871094 137.832031 M 567.933594 129.875 C 560.539062 131.46875 547.011719 133.535156 537.878906 134.46875 C 528.742188 135.402344 517.53125 136.550781 512.964844 137.011719 L 504.65625 137.851562 L 504.65625 227.789062 L 612.679688 227.789062 L 611.59375 214.761719 C 609.628906 191.214844 602.09375 162.675781 591.539062 138.839844 C 588.089844 131.050781 585.265625 126.679688 583.753906 126.796875 C 582.445312 126.902344 575.328125 128.285156 567.933594 129.875 M 306.398438 254.15625 C 305.816406 254.734375 305.339844 272.484375 305.339844 293.597656 C 305.339844 314.714844 304.703125 333.671875 303.921875 335.726562 C 303.140625 337.78125 300.660156 341.207031 298.410156 343.339844 C 296.164062 345.476562 294.3125 347.757812 294.296875 348.410156 C 294.28125 349.058594 311.351562 349.59375 332.234375 349.59375 C 353.113281 349.59375 370.199219 349.363281 370.199219 349.074219 C 370.199219 348.792969 368.394531 344.121094 366.191406 338.695312 C 360.46875 324.617188 353.148438 295.132812 351.125 278.023438 C 350.171875 269.972656 349.058594 261.066406 348.652344 258.242188 L 347.910156 253.101562 L 327.679688 253.101562 C 316.554688 253.101562 306.976562 253.574219 306.398438 254.15625 M 374.007812 265.359375 C 376.082031 288.828125 385.4375 324.03125 394.800781 343.585938 C 397.359375 348.9375 398.230469 349.480469 404.859375 349.914062 C 408.851562 350.171875 419.59375 349.128906 428.726562 347.59375 C 437.863281 346.054688 453.167969 344.273438 462.738281 343.636719 L 480.140625 342.476562 L 480.558594 297.789062 L 480.980469 253.101562 L 372.925781 253.101562 Z M 504.65625 297.363281 L 504.65625 341.625 L 508.21875 342.351562 C 510.175781 342.75 518.183594 343.488281 526.011719 343.996094 C 538.570312 344.808594 570.597656 349.417969 582.449219 352.117188 C 586.167969 352.964844 587.070312 352.332031 589.824219 346.933594 C 599.226562 328.5 609.605469 289.960938 611.597656 266.078125 L 612.679688 253.101562 L 504.65625 253.101562 Z M 636.800781 262.988281 C 633.613281 293.148438 627.609375 318.496094 617.773438 343.265625 C 614.839844 350.664062 612.210938 357.652344 611.9375 358.796875 C 611.628906 360.082031 615.082031 362.277344 620.925781 364.511719 C 632.078125 368.773438 655.53125 380.371094 661.4375 384.542969 L 665.5625 387.457031 L 670.246094 381.578125 C 685.890625 361.921875 700.773438 333.960938 708.527344 309.667969 C 713.925781 292.746094 718.210938 270.777344 718.210938 260.011719 L 718.210938 253.101562 L 637.847656 253.101562 Z M 278.503906 377.964844 C 277.460938 379.917969 276.867188 402.238281 276.867188 439.570312 L 276.867188 498.113281 L 280.382812 500.574219 C 283.417969 502.699219 292.25 503.035156 344.890625 503.035156 C 397.527344 503.035156 406.359375 502.699219 409.394531 500.574219 L 412.910156 498.113281 L 412.910156 439.570312 C 412.910156 402.238281 412.316406 379.917969 411.273438 377.964844 C 409.695312 375.015625 407.28125 374.90625 344.890625 374.90625 C 282.496094 374.90625 280.082031 375.015625 278.503906 377.964844 M 443.019531 377.964844 C 441.976562 379.914062 441.382812 402.019531 441.382812 438.867188 C 441.382812 494.601562 441.5 496.824219 444.546875 499.871094 C 447.601562 502.925781 449.820312 503.035156 509.050781 503.035156 C 562.011719 503.035156 570.875 502.699219 573.90625 500.574219 L 577.425781 498.113281 L 577.425781 438.40625 C 577.425781 394.078125 576.9375 378.210938 575.527344 376.804688 C 574.113281 375.390625 557.1875 374.90625 509.144531 374.90625 C 447.007812 374.90625 444.597656 375.015625 443.019531 377.964844 M 602.734375 411.183594 C 602.734375 426.03125 603.125 438.179688 603.601562 438.179688 C 606.324219 438.179688 629.164062 421.9375 644.449219 409.132812 L 648.988281 405.328125 L 638.914062 399.746094 C 629.3125 394.429688 613.953125 387.613281 606.292969 385.269531 L 602.734375 384.183594 Z M 94.984375 404.132812 C 90.296875 409.121094 90.359375 416.679688 95.128906 421.757812 C 98.265625 425.097656 100.058594 425.523438 110.933594 425.523438 L 123.203125 425.523438 L 125.585938 433.828125 C 126.898438 438.398438 145.496094 507.625 166.917969 587.667969 C 195.101562 692.980469 206.726562 734.074219 208.980469 736.363281 C 211.910156 739.339844 214.523438 739.554688 253.023438 739.996094 L 293.953125 740.46875 L 291.34375 745.535156 C 289.757812 748.605469 288.730469 754.382812 288.730469 760.214844 C 288.730469 792.878906 331.117188 805.351562 349.210938 778.011719 C 354.9375 769.359375 355.976562 754.851562 351.488281 746.25 L 348.394531 740.316406 L 420.199219 740.316406 C 486.300781 740.316406 495.960938 740.851562 490.550781 744.195312 C 487.429688 746.121094 485.605469 760.78125 487.53125 768.4375 C 490.207031 779.058594 501.417969 789.980469 511.964844 792.242188 C 536.234375 797.449219 557.871094 775.695312 551.921875 752.070312 C 550.945312 748.1875 549.519531 744.625 548.757812 744.152344 C 543.765625 741.066406 550.777344 740.316406 584.613281 740.316406 L 621.859375 740.316406 L 625.742188 736.433594 C 631.070312 731.105469 630.988281 723.164062 625.546875 718.050781 L 621.464844 714.21875 L 424.648438 713.761719 C 316.398438 713.511719 227.808594 713.15625 227.78125 712.972656 C 227.753906 712.789062 210.4375 648.214844 189.304688 569.476562 L 150.875 426.316406 L 159.6875 425.828125 C 170.785156 425.21875 175.628906 421.28125 175.628906 412.871094 C 175.628906 408.878906 174.496094 406.03125 171.96875 403.652344 C 168.4375 400.339844 167.058594 400.214844 133.488281 400.214844 L 98.667969 400.214844 Z M 250.765625 530.175781 C 243.558594 534.117188 243.648438 533.097656 243.648438 609.984375 C 243.648438 650.207031 244.089844 684.265625 244.632812 685.671875 C 247.28125 692.582031 250.578125 692.863281 329.113281 692.863281 L 403.660156 692.863281 L 412.910156 683.613281 L 412.910156 537.59375 L 408.285156 532.96875 L 403.660156 528.347656 L 328.796875 528.394531 C 277.671875 528.425781 252.929688 528.992188 250.765625 530.175781 M 446.007812 532.96875 L 441.382812 537.59375 L 441.382812 683.613281 L 446.007812 688.238281 L 450.628906 692.863281 L 525.179688 692.863281 C 607.386719 692.863281 607.085938 692.898438 610.472656 683.183594 C 611.648438 679.804688 612.226562 655.886719 612.226562 610.316406 C 612.226562 536.335938 611.875 533.101562 603.5 529.917969 C 600.972656 528.957031 570.429688 528.347656 524.996094 528.347656 L 450.628906 528.347656 Z M 446.007812 532.96875 "/></g></svg>