<svg xmlns="http://www.w3.org/2000/svg" xmlns:xlink="http://www.w3.org/1999/xlink" width="1080" zoomAndPan="magnify" viewBox="0 0 810 817.92" height="1080" preserveAspectRatio="xMidYMid meet" version="1.2"><defs><clipPath id="2c1a617b97"><path d="M 0.0390625 0 L 809.960938 0 L 809.960938 809.921875 L 0.0390625 809.921875 Z M 0.0390625 0 "/></clipPath></defs><g id="2578eced39"><g clip-rule="nonzero" clip-path="url(#2c1a617b97)"><path style=" stroke:none;fill-rule:evenodd;fill:currentColor;fill-opacity:1;" d="M 601.785156 3.003906 C 595.574219 6.789062 420.765625 211.800781 417.902344 218.65625 C 413.371094 229.507812 419.371094 243.25 430.945312 248.503906 C 436.375 250.972656 441.472656 251.457031 462.320312 251.484375 L 487.210938 251.519531 L 487.628906 300.160156 L 488.046875 348.804688 L 541.832031 349.605469 C 592.910156 350.367188 596.054688 350.589844 604.316406 353.953125 C 622.496094 361.363281 638.351562 378.535156 643.898438 396.820312 C 647.03125 407.15625 647.078125 410.683594 646.625 605.066406 C 646.375 713.820312 645.558594 804.441406 644.808594 806.445312 L 643.449219 810.085938 L 680.4375 809.609375 C 715.765625 809.152344 717.640625 808.972656 722.367188 805.601562 C 733.242188 797.84375 732.449219 820.203125 732.449219 521.503906 L 732.449219 251.761719 L 763.183594 251.242188 C 791.441406 250.769531 794.277344 250.460938 798.382812 247.417969 C 808.484375 239.925781 812.464844 228.257812 808.488281 217.800781 C 806.078125 211.457031 630.125 5.839844 624.480469 2.769531 C 617.839844 -0.847656 607.929688 -0.746094 601.785156 3.003906 M 222.292969 265.289062 C 216.914062 266.628906 209.421875 273.21875 206.664062 279.027344 C 204.433594 283.730469 204.101562 289.414062 204.464844 316.683594 L 204.894531 348.804688 L 252.347656 348.804688 L 253.246094 313.210938 L 352.695312 313.210938 L 353.140625 331.007812 L 353.589844 348.804688 L 377.796875 349.242188 L 402.007812 349.679688 L 401.527344 314.945312 C 400.996094 276.828125 400.847656 276.210938 390.15625 268.226562 C 385.890625 265.039062 383.9375 264.960938 305.625 264.730469 C 261.53125 264.605469 224.035156 264.855469 222.292969 265.289062 M 12.738281 397.472656 C -0.210938 404.320312 0.0390625 402.675781 0.0390625 480.46875 L 0.0390625 548.910156 L 125.007812 548.910156 L 125.007812 528.582031 C 125.007812 510.078125 125.332031 507.765625 128.597656 502.875 C 138.035156 488.75 157.855469 488.75 167.292969 502.875 C 170.558594 507.765625 170.882812 510.078125 170.882812 528.582031 L 170.882812 548.910156 L 431.890625 548.910156 L 431.890625 528.582031 C 431.890625 510.078125 432.214844 507.765625 435.484375 502.875 C 445.4375 487.972656 466.964844 488.984375 474.996094 504.730469 C 477.183594 509.019531 477.761719 514.210938 477.761719 529.53125 L 477.765625 548.910156 L 602.828125 548.910156 L 602.386719 479.421875 C 601.957031 412.066406 601.84375 409.800781 598.683594 405.566406 C 596.886719 403.167969 593.457031 399.734375 591.050781 397.941406 L 586.683594 394.679688 L 303.125 394.269531 L 19.566406 393.863281 Z M 0.0390625 694.210938 L 0.0390625 792.050781 L 3.597656 797.28125 C 5.558594 800.15625 9.167969 804 11.625 805.820312 L 16.089844 809.128906 L 586.371094 809.128906 L 592.347656 804.570312 C 603.0625 796.398438 602.734375 799.929688 602.734375 692.914062 L 602.734375 596.367188 L 477.765625 596.367188 L 477.765625 610.785156 C 477.765625 627.136719 474.757812 634.851562 466.472656 639.746094 C 460.371094 643.351562 448.988281 643.28125 442.722656 639.605469 C 434.535156 634.796875 431.890625 627.820312 431.890625 611.023438 L 431.890625 596.367188 L 324.324219 596.367188 L 324.324219 610.761719 C 324.324219 620.703125 323.539062 626.8125 321.785156 630.507812 C 314.238281 646.414062 288.539062 646.414062 280.992188 630.507812 C 279.234375 626.8125 278.449219 620.703125 278.449219 610.761719 L 278.449219 596.367188 L 170.882812 596.367188 L 170.882812 610.761719 C 170.882812 627.617188 168.449219 634.226562 160.425781 639.1875 C 153.777344 643.292969 142.742188 643.550781 136.300781 639.746094 C 128.015625 634.851562 125.007812 627.136719 125.007812 610.785156 L 125.007812 596.367188 L 0.0390625 596.367188 Z M 0.0390625 694.210938 "/></g></g></svg>