<svg xmlns="http://www.w3.org/2000/svg" xmlns:xlink="http://www.w3.org/1999/xlink" width="1080" zoomAndPan="magnify" viewBox="0 0 810 817.92" height="1080" preserveAspectRatio="xMidYMid meet" version="1.2"><g id="dd20cb98bc"><path style=" stroke:none;fill-rule:evenodd;fill:currentColor;fill-opacity:1;" d="M 550.8125 15.863281 C 532.140625 20.753906 519.464844 27.800781 506.878906 40.28125 C 492.9375 54.109375 488.398438 64.332031 488.238281 82.257812 C 488.070312 100.703125 490.078125 112.3125 493.425781 112.3125 C 494.953125 112.3125 510.152344 106.617188 527.207031 99.660156 C 544.257812 92.699219 559.433594 87.003906 560.933594 87.003906 C 562.429688 87.003906 569.488281 90.183594 576.617188 94.066406 C 583.746094 97.953125 596.277344 103.429688 604.460938 106.234375 C 618.085938 110.902344 621.375 111.390625 643.332031 111.988281 L 667.324219 112.644531 L 668.613281 103.382812 C 669.320312 98.289062 669.90625 88.394531 669.914062 81.390625 C 669.921875 70.214844 669.296875 67.386719 664.785156 58.222656 C 654.910156 38.164062 633.726562 22.734375 606.507812 15.773438 C 590.417969 11.65625 566.722656 11.695312 550.8125 15.863281 M 440.59375 86.050781 C 430.039062 89.390625 424.726562 92.828125 417.214844 101.183594 C 404.496094 115.332031 405 109.867188 405 233.328125 C 405 356.730469 404.503906 351.332031 417.15625 365.402344 C 421.070312 369.757812 424.875 373.324219 425.609375 373.324219 C 426.34375 373.324219 427.167969 355.703125 427.441406 334.171875 L 427.9375 295.019531 L 432.386719 286.574219 C 444.953125 262.714844 472.476562 246.046875 515.101562 236.488281 C 524.792969 234.3125 533.167969 232.535156 533.71875 232.535156 C 534.265625 232.535156 534.714844 231.015625 534.714844 229.160156 C 534.714844 227.148438 530.273438 221.113281 523.722656 214.214844 C 517.679688 207.851562 511.613281 200.472656 510.238281 197.820312 C 507.785156 193.070312 507.53125 192.988281 495.519531 192.953125 C 475.96875 192.898438 463.625 185.703125 456.226562 170.050781 C 449.191406 155.167969 451.621094 139.25 462.835938 126.777344 L 469.972656 118.835938 L 468.074219 101.339844 L 466.175781 83.839844 L 456.546875 83.945312 C 451.253906 84.003906 444.070312 84.953125 440.59375 86.050781 M 690.070312 101.394531 L 688.195312 119.355469 L 693.953125 124.929688 C 704.664062 135.296875 708.335938 150.921875 703.695312 166.402344 C 701.398438 174.070312 691.65625 185.390625 684.378906 188.84375 C 679.929688 190.953125 678.746094 192.570312 677.878906 197.707031 C 675.378906 212.492188 663.808594 221.394531 647.027344 221.4375 C 637.148438 221.460938 636.570312 221.683594 632.238281 227.109375 C 629.761719 230.214844 627.984375 232.929688 628.285156 233.148438 C 628.589844 233.363281 633.816406 234.472656 639.910156 235.609375 C 675.886719 242.320312 707.914062 259.417969 721.144531 278.976562 C 730.5625 292.898438 731.292969 296.679688 732.304688 336.941406 L 733.238281 374.113281 L 739.226562 368.011719 C 742.519531 364.652344 746.792969 358.960938 748.71875 355.355469 L 752.222656 348.804688 L 752.660156 236.625 C 753.152344 109.726562 753.65625 115.488281 740.8125 101.199219 C 730.664062 89.914062 720.703125 85.226562 704.746094 84.230469 L 691.949219 83.433594 Z M 173.78125 92.363281 C 168.273438 95.3125 159.003906 100.523438 153.191406 103.949219 L 142.617188 110.175781 L 194.621094 210.507812 C 223.222656 265.6875 247.25 310.839844 248.019531 310.839844 C 248.785156 310.839844 257.015625 306.210938 266.308594 300.554688 C 277.492188 293.753906 283.527344 289.085938 284.152344 286.757812 C 285.394531 282.144531 284.160156 278.695312 247.585938 184.289062 C 230.394531 139.917969 214.5625 101.238281 212.40625 98.335938 C 202.894531 85.550781 190.1875 83.585938 173.78125 92.363281 M 535.503906 119.199219 L 511.777344 128.976562 L 512.261719 136.558594 C 512.972656 147.699219 518.113281 166.382812 523.671875 178.027344 C 532.617188 196.769531 551.167969 212.871094 567.539062 216.097656 L 572.679688 217.113281 L 572.683594 210.191406 C 572.683594 208.144531 572.9375 206.132812 573.457031 204.148438 C 573.972656 202.167969 574.730469 200.285156 575.734375 198.503906 C 576.738281 196.71875 577.949219 195.089844 579.375 193.617188 C 580.796875 192.144531 582.382812 190.878906 584.132812 189.816406 C 588.351562 187.246094 592.113281 186.671875 604.816406 186.667969 C 613.355469 186.664062 621.832031 187.457031 623.648438 188.429688 C 628.0625 190.792969 631.203125 186.695312 637.65625 170.140625 C 641.585938 160.0625 647.753906 135.722656 646.519531 135.160156 C 646.363281 135.089844 638.761719 134.230469 629.625 133.246094 C 609.4375 131.074219 595.632812 126.984375 575.84375 117.3125 C 567.578125 113.273438 560.457031 109.847656 560.023438 109.695312 C 559.589844 109.542969 548.554688 113.820312 535.503906 119.199219 M 108.433594 131.761719 C 78.5 152.453125 67.308594 166.503906 59.617188 193.042969 C 51.53125 220.941406 50.132812 262.980469 56.179688 296.304688 C 64.132812 340.132812 91.375 411.054688 120.246094 463.089844 C 138.847656 496.617188 173.292969 548.121094 177.113281 548.121094 C 177.800781 548.121094 187.109375 538.867188 197.800781 527.554688 C 208.492188 516.246094 219.273438 505.96875 221.761719 504.71875 C 225.878906 502.648438 226.671875 502.734375 230.617188 505.675781 C 234.925781 508.890625 234.953125 509.019531 235.738281 532.46875 L 236.53125 556.03125 L 261.050781 556.820312 C 283.796875 557.554688 286.214844 557.929688 294.492188 561.992188 C 305.363281 567.332031 315.277344 577.757812 320.90625 589.761719 L 325.113281 598.738281 L 325.613281 645.46875 L 326.113281 692.191406 L 341.304688 702.269531 C 389.4375 734.199219 442.246094 759.667969 500.703125 779.140625 C 544.5 793.734375 559.804688 796.433594 598.78125 796.457031 C 633.878906 796.476562 647.5625 794.457031 669.148438 786.074219 C 682.746094 780.792969 691.984375 773.964844 702.871094 761.148438 C 712.074219 750.3125 728.546875 726.398438 727.515625 725.367188 C 726.085938 723.9375 528.328125 621.675781 526.992188 621.675781 C 526.25 621.675781 523.796875 624.46875 521.539062 627.875 C 509.191406 646.539062 488.773438 650.320312 464.664062 638.40625 C 429.859375 621.207031 374.800781 579.296875 328.972656 535.113281 C 270.007812 478.261719 207.425781 392.566406 204.578125 364.769531 C 203.03125 349.65625 208.933594 337.898438 223.3125 327.46875 L 229.078125 323.289062 L 176.839844 222.546875 C 148.109375 167.136719 124.160156 121.835938 123.617188 121.875 C 123.078125 121.910156 116.246094 126.363281 108.433594 131.761719 M 480.242188 139.324219 C 473.328125 145.398438 471.507812 153.078125 475.164062 160.746094 C 478.246094 167.210938 486.207031 172.410156 493.03125 172.417969 L 498.015625 172.425781 L 495.144531 161.273438 C 493.570312 155.140625 491.792969 146.597656 491.203125 142.292969 C 489.925781 133.007812 488.023438 132.492188 480.242188 139.324219 M 667.566406 138.019531 C 667.546875 139.976562 666.453125 146.5625 665.132812 152.652344 C 663.808594 158.742188 662.308594 165.679688 661.796875 168.074219 C 660.953125 172.027344 661.28125 172.425781 665.417969 172.417969 C 671.84375 172.410156 679.839844 167.054688 682.847656 160.746094 C 686.507812 153.078125 684.683594 145.398438 677.769531 139.324219 C 671.175781 133.539062 667.601562 133.082031 667.566406 138.019531 M 648.878906 196.304688 C 647.742188 198.132812 647.210938 200.027344 647.699219 200.519531 C 649.277344 202.097656 656.519531 197.890625 656.519531 195.394531 C 656.519531 191.84375 651.277344 192.472656 648.878906 196.304688 M 593.800781 209.632812 C 592.15625 213.914062 595.476562 215.320312 606.058594 214.820312 C 614.96875 214.402344 616.179688 213.964844 616.179688 211.179688 C 616.179688 208.375 614.96875 207.964844 605.480469 207.546875 C 596.808594 207.167969 594.597656 207.5625 593.800781 209.632812 M 556.859375 237.226562 C 556.859375 238.148438 562.304688 244.597656 568.964844 251.566406 C 582.910156 266.167969 580.28125 266.511719 596.785156 247.917969 L 606.300781 237.195312 L 587.511719 237.632812 C 577.179688 237.875 566.054688 237.507812 562.792969 236.816406 C 558.886719 235.984375 556.859375 236.125 556.859375 237.226562 M 537.878906 255.691406 C 537.878906 257.746094 544.515625 281.214844 548.269531 292.433594 C 549.089844 294.882812 563.980469 282.089844 563.980469 278.9375 C 563.980469 276.765625 541.371094 253.101562 539.296875 253.101562 C 538.515625 253.101562 537.878906 254.269531 537.878906 255.691406 M 608.570312 266.574219 L 596.433594 279.726562 L 604.710938 286.859375 C 609.261719 290.785156 613.160156 293.820312 613.371094 293.613281 C 613.835938 293.148438 624.878906 256.832031 624.878906 255.769531 C 624.878906 255.359375 623.941406 254.660156 622.792969 254.21875 C 621.582031 253.753906 615.601562 258.949219 608.570312 266.574219 M 500.703125 262.347656 C 474.785156 271.25 458.644531 282.402344 451.804688 296.125 C 447.730469 304.300781 447.710938 304.539062 447.710938 343.578125 L 447.710938 382.8125 L 484.09375 382.8125 L 484.09375 361.386719 C 484.09375 340.746094 484.234375 339.816406 487.976562 336.078125 C 492.640625 331.410156 496.699219 331.15625 501.714844 335.214844 C 505.269531 338.089844 505.472656 339.3125 505.964844 360.523438 L 506.480469 382.8125 L 511.175781 382.8125 C 514.054688 382.8125 517.378906 384.316406 519.757812 386.699219 C 523.511719 390.449219 523.640625 391.332031 523.703125 413.195312 L 523.761719 435.808594 L 549.40625 409.308594 L 575.050781 382.8125 L 651.46875 382.8125 L 652.015625 360.527344 C 652.535156 339.335938 652.746094 338.089844 656.296875 335.21875 C 661.316406 331.15625 665.371094 331.410156 670.035156 336.078125 C 673.777344 339.816406 673.917969 340.746094 673.917969 361.386719 L 673.917969 382.8125 L 710.300781 382.8125 L 710.285156 343.664062 C 710.273438 305.976562 710.132812 304.214844 706.578125 296.601562 C 702.550781 287.964844 694.113281 279.527344 682.996094 273.011719 C 675.78125 268.78125 651.765625 259.429688 648.125 259.429688 C 646.929688 259.429688 642.746094 270.855469 637.554688 288.296875 C 626.363281 325.886719 622.75 329.851562 609.449219 319.144531 C 605.9375 316.316406 598.15625 309.613281 592.160156 304.25 L 581.257812 294.496094 L 564.28125 309.390625 C 540.378906 330.363281 537.519531 329.863281 529.324219 303.292969 C 526.082031 292.769531 522.871094 282.234375 519.695312 271.6875 C 517.410156 264.074219 515.050781 257.878906 514.449219 257.921875 C 513.847656 257.964844 507.664062 259.957031 500.703125 262.347656 M 572.132812 319.269531 C 568.957031 322.777344 568.746094 328.957031 571.664062 332.945312 C 574.171875 336.375 582.375 336.890625 586.039062 333.84375 C 589.222656 331.203125 589.207031 322.054688 586.011719 318.859375 C 582.65625 315.503906 575.34375 315.71875 572.132812 319.269531 M 572.132812 350.90625 C 566.355469 357.292969 570.394531 367.523438 578.699219 367.523438 C 585.265625 367.523438 588.496094 364.496094 588.496094 358.347656 C 588.496094 349.226562 577.980469 344.445312 572.132812 350.90625 M 196.191406 560.050781 L 179.582031 577.453125 L 128.171875 577.425781 C 95.777344 577.410156 74.417969 578.042969 70.433594 579.132812 C 61.527344 581.570312 50.148438 593.605469 47.753906 603.125 C 46.480469 608.171875 45.914062 634.257812 45.914062 687.738281 C 45.914062 773.464844 46.195312 776.253906 55.761719 786.089844 C 67.03125 797.675781 61.839844 797.191406 175.28125 797.230469 C 263.6875 797.261719 277.738281 796.945312 282.851562 794.808594 C 290.265625 791.710938 296.859375 785.5 300.742188 777.949219 C 303.601562 772.390625 303.757812 767.667969 303.726562 687.785156 C 303.683594 593.171875 303.972656 595.660156 292.011719 585.800781 C 283.269531 578.59375 276.910156 577.386719 247.816406 577.386719 C 214.703125 577.386719 215.175781 577.683594 215.175781 556.820312 C 215.175781 548.988281 214.640625 542.597656 213.988281 542.613281 C 213.335938 542.632812 205.328125 550.480469 196.191406 560.050781 M 553.285156 577.617188 C 548.632812 584.882812 543.238281 593.445312 541.296875 596.644531 L 537.769531 602.453125 L 566.691406 617.496094 C 676.269531 674.476562 739.410156 706.996094 739.769531 706.628906 C 741.929688 704.472656 760.921875 669.96875 762.375 665.566406 C 766.921875 651.792969 758.625 639.195312 739.882812 631.414062 C 709.851562 618.953125 572.488281 566.417969 567.457031 565.476562 L 561.746094 564.402344 Z M 97.570312 627.734375 C 94.09375 631.574219 94.242188 639.527344 97.84375 642.789062 C 104.511719 648.820312 117.097656 643.808594 117.097656 635.125 C 117.097656 626.265625 103.542969 621.136719 97.570312 627.734375 M 151.898438 628.003906 C 150.160156 629.746094 148.734375 632.949219 148.734375 635.125 C 148.734375 637.296875 150.160156 640.5 151.898438 642.242188 C 154.921875 645.265625 157.171875 645.40625 202.519531 645.40625 C 247.867188 645.40625 250.117188 645.265625 253.140625 642.242188 C 254.878906 640.5 256.304688 637.296875 256.304688 635.125 C 256.304688 632.949219 254.878906 629.746094 253.140625 628.003906 C 250.117188 624.980469 247.867188 624.839844 202.519531 624.839844 C 157.171875 624.839844 154.921875 624.980469 151.898438 628.003906 M 98.46875 679.507812 C 94.035156 682.609375 93.6875 691.226562 97.84375 694.988281 C 100.453125 697.347656 108.191406 697.609375 176.058594 697.609375 L 251.378906 697.609375 L 253.839844 694.089844 C 257.199219 689.296875 256.933594 684 253.140625 680.207031 C 250.066406 677.132812 247.867188 677.042969 175.980469 677.042969 C 111.566406 677.042969 101.527344 677.363281 98.46875 679.507812 M 98.46875 731.707031 C 94.035156 734.8125 93.6875 743.429688 97.84375 747.191406 C 100.453125 749.550781 108.191406 749.808594 176.058594 749.808594 L 251.378906 749.808594 L 253.839844 746.292969 C 257.199219 741.5 256.933594 736.203125 253.140625 732.410156 C 250.066406 729.335938 247.867188 729.246094 175.980469 729.246094 C 111.566406 729.246094 101.527344 729.566406 98.46875 731.707031 "/></g></svg>