<svg xmlns="http://www.w3.org/2000/svg" xmlns:xlink="http://www.w3.org/1999/xlink" width="1080" zoomAndPan="magnify" viewBox="0 0 810 817.92" height="1080" preserveAspectRatio="xMidYMid meet" version="1.2"><g id="270be83c25"><path style=" stroke:none;fill-rule:evenodd;fill:currentColor;fill-opacity:1;" d="M 545.785156 65.824219 C 467.4375 75.527344 403.644531 127.601562 380.648438 200.628906 C 365.6875 248.132812 369.78125 301.589844 391.71875 345.183594 C 397.523438 356.722656 407.746094 372.910156 412.980469 378.859375 C 415.652344 381.894531 415.457031 383.683594 408.070312 423.152344 C 403.839844 445.773438 400.347656 465.226562 400.316406 466.378906 C 400.210938 470.011719 409.234375 477.726562 413.589844 477.726562 C 415.839844 477.726562 434.792969 469.164062 455.707031 458.699219 L 493.738281 439.671875 L 506.039062 443.558594 C 534.648438 452.59375 569.9375 455.03125 598.960938 449.96875 C 677.167969 436.332031 738.363281 376.605469 755.621094 297.070312 C 759.515625 279.132812 759.59375 239.96875 755.773438 222.15625 C 747.347656 182.875 731.441406 152.792969 704.191406 124.601562 C 667.984375 87.136719 623.558594 67.386719 571.886719 65.777344 C 560.578125 65.425781 548.832031 65.445312 545.785156 65.824219 M 161.832031 96.523438 C 149.003906 102.933594 98.285156 154.222656 85.179688 174.046875 C 59.484375 212.898438 49.621094 247.492188 51.132812 293.4375 C 52.578125 337.265625 64.085938 368.855469 93.203125 408.914062 C 174.992188 521.441406 277.507812 623.664062 388.898438 703.773438 C 412.355469 720.648438 436.980469 732.632812 461.410156 739.074219 C 479.015625 743.714844 481.847656 744.011719 508.613281 744.046875 C 546.425781 744.09375 568.566406 739.082031 598.902344 723.601562 C 621.175781 712.238281 635.261719 700.863281 667.957031 667.835938 C 695.496094 640.023438 699.078125 635.796875 701.578125 628.183594 C 705.066406 617.554688 704.152344 604.492188 699.238281 594.671875 C 694.378906 584.953125 603.019531 493.621094 593.289062 488.753906 C 583.492188 483.851562 569.09375 482.902344 558.261719 486.441406 C 550.554688 488.964844 546.199219 492.734375 512.566406 526 C 492.121094 546.222656 473.839844 563.566406 471.9375 564.539062 C 467.226562 566.957031 461.0625 566.765625 455.9375 564.046875 C 453.585938 562.796875 401.65625 511.710938 340.539062 450.519531 L 229.410156 339.261719 L 229.410156 323.707031 L 266.476562 286.425781 C 308.09375 244.566406 311.636719 239.53125 311.636719 222.253906 C 311.636719 204.355469 308.988281 200.789062 256.605469 148.242188 C 203.613281 95.078125 199.167969 91.75 181.164062 91.75 C 173.453125 91.75 169.367188 92.757812 161.832031 96.523438 M 508.347656 175.464844 C 478.636719 182.890625 468.050781 219.308594 489.40625 240.617188 C 500.796875 251.984375 518.804688 254.84375 534.109375 247.71875 C 562.890625 234.316406 561.773438 190.167969 532.339844 177.871094 C 525.746094 175.117188 514.320312 173.972656 508.347656 175.464844 M 562.019531 258.257812 C 475.695312 344.582031 477.867188 341.929688 486.492188 350.554688 C 494.542969 358.605469 493.332031 359.585938 577.140625 276.890625 C 619.871094 234.726562 655.652344 198.246094 656.65625 195.820312 C 659.964844 187.832031 653.335938 178.753906 644.203125 178.753906 C 642.730469 178.753906 605.75 214.53125 562.019531 258.257812 M 506.960938 203.199219 C 502.652344 207.503906 501.679688 217.144531 505.105469 221.601562 C 510.425781 228.53125 519.789062 229.59375 526.285156 224.003906 C 529.804688 220.976562 530.6875 218.878906 530.6875 213.554688 C 530.6875 208.226562 529.804688 206.128906 526.285156 203.101562 C 520.335938 197.988281 512.128906 198.027344 506.960938 203.199219 M 610.5 283.742188 C 584.355469 293.089844 576.589844 327.761719 596.234375 347.445312 C 604.195312 355.425781 611.566406 358.296875 624.089844 358.296875 C 633.386719 358.296875 636.382812 357.578125 642.742188 353.839844 C 657.683594 345.058594 665.191406 327.996094 661.28125 311.710938 C 655.921875 289.371094 631.851562 276.113281 610.5 283.742188 M 615.871094 308.328125 C 606.1875 314.363281 607.882812 329.820312 618.640625 333.570312 C 624.574219 335.636719 633.140625 332.707031 635.828125 327.6875 C 642.867188 314.527344 628.417969 300.511719 615.871094 308.328125 "/></g></svg>