<?xml version="1.0" encoding="UTF-8"?>
<svg id="Layer_2" data-name="Layer 2" xmlns="http://www.w3.org/2000/svg" viewBox="0 0 283.41 389.63">
  <g id="icons">
    <path d="M247.54,47.73C207.94,3.43,147.64-11.57,92.84,9.23c-28.2,10.7-52.6,30.1-69.3,55.3C8.44,87.23-.66,113.93.04,141.13c0,4.2.4,8.4,1,12.6,4.6,33.3,23.6,62.8,41,90.7,22.4,36,45.7,71.5,69.1,106.8,4.2,6.4,8.4,12.7,12.7,19.1,7,10.5,12.5,19.1,17.9,19.3,5.5.2,11-8.2,18-18.7,36.3-54.5,73-108.8,106.3-165.1,29.6-50,20-115.1-18.4-158.1h-.1ZM141.64,197.63c-34.3,0-62.1-27.8-62.1-62.1s27.8-62.1,62.1-62.1,62.1,27.8,62.1,62.1-27.8,62.1-62.1,62.1Z"/>
  </g>
</svg>