<?xml version="1.0" encoding="UTF-8"?>
<svg id="Layer_2" data-name="Layer 2" xmlns="http://www.w3.org/2000/svg" viewBox="0 0 407.86 335.22">
  <defs>
    <style>
      .cls-1 {
        fill: #14161e;
      }
    </style>
  </defs>
  <g id="Objects">
    <path class="cls-1" d="M376.29,16.46l-165.49,170.11c-3.76,3.86-9.97,3.86-13.73,0L31.58,16.46c-5.98-6.15-1.62-16.46,6.95-16.46h330.81c8.57,0,12.93,10.31,6.95,16.46ZM0,290.04V40.51c0-8.7,10.58-13,16.65-6.76l178.91,183.91c1.61,1.66,3.64,2.9,5.9,3.4,3.92.87,7.92-.38,10.63-3.17L391.22,33.75c6.07-6.24,16.65-1.94,16.65,6.76v249.53c0,24.95-20.23,45.18-45.18,45.18H45.18c-24.95,0-45.18-20.23-45.18-45.18Z"/>
  </g>
</svg>