<?xml version="1.0" encoding="UTF-8"?>
<svg id="Layer_2" data-name="Layer 2" xmlns="http://www.w3.org/2000/svg" viewBox="0 0 294.87 363.52">
  <g id="icons">
    <path d="M229.32,363.52c-46.1-2.4-80.5-16-108.6-41.3C56.72,264.72,9.92,196.02.52,108.42c-2.6-23.8,4.8-51.1,15.2-73.2,6.6-14,25.8-26,41.9-30.9,36.8-11.3,50-.9,55,36.6,1.7,12.7,1.7,25.7,4.1,38.2,4.1,22.2-2.1,38.6-23.2,48.4-13.4,6.3-17.8,15.9-9.5,29.2,19.1,30.6,37.9,61.5,58,91.5,11,16.4,25.5,20.5,41.7,5.3,13.3-12.6,28-12.6,43.8-4.6,12.1,6.1,24.7,11.2,36.8,17.3,14.6,7.4,31.5,12.7,30.5,34.4-1,22.7-8.7,42.1-29.7,52.3-13.1,6.4-28.3,8.5-35.6,10.5l-.2.1Z"/>
  </g>
</svg>