<?xml version="1.0" encoding="UTF-8"?>
<svg id="Layer_2" data-name="Layer 2" xmlns="http://www.w3.org/2000/svg" viewBox="0 0 297.78 296.47">
  <g id="icons">
    <path d="M266.41,236.05c-11.08-4.05-22.32-7.51-33.71-10.37-1.86-.47-2.96-2.4-2.42-4.25,5.87-19.91,9.27-41.9,9.95-64.77.05-1.83,1.57-3.28,3.4-3.28h50.74c1.98,0,3.51,1.62,3.4,3.6-1.62,28.28-11.1,55.08-27.4,77.85-.9,1.25-2.51,1.76-3.96,1.23ZM3.41,153.37h50.74c1.83,0,3.34,1.45,3.4,3.28.67,22.87,4.08,44.87,9.95,64.77.54,1.84-.55,3.78-2.42,4.25-11.39,2.87-22.63,6.32-33.71,10.37-1.45.53-3.06.02-3.96-1.23C11.11,212.05,1.63,185.25,0,156.97c-.11-1.98,1.42-3.6,3.4-3.6ZM31.36,60.42c11.08,4.05,22.32,7.51,33.71,10.37,1.86.47,2.96,2.4,2.42,4.25-5.87,19.91-9.27,41.9-9.95,64.77-.05,1.83-1.57,3.28-3.4,3.28H3.41c-1.98,0-3.51-1.62-3.4-3.6,1.62-28.28,11.1-55.08,27.4-77.85.9-1.25,2.51-1.76,3.96-1.23ZM157.36,81.02c19.9-.48,39.55-2.65,58.85-6.5,1.73-.34,3.43.68,3.94,2.36,5.76,19.17,9.12,40.47,9.82,62.69.06,1.92-1.48,3.52-3.4,3.52h-69.13c-1.88,0-3.4-1.52-3.4-3.4v-55.28c0-1.85,1.48-3.35,3.33-3.4ZM154.02,67.35V3.41c0-2.16,1.99-3.78,4.11-3.33,17.69,3.74,34.23,18.17,47.33,41.58,3.27,5.84,6.23,12.09,8.89,18.67.8,1.98-.42,4.19-2.52,4.59-17.83,3.42-35.98,5.37-54.34,5.84-1.9.05-3.47-1.5-3.47-3.4ZM143.75,3.41v63.94c0,1.91-1.57,3.45-3.47,3.4-18.36-.46-36.51-2.42-54.34-5.84-2.09-.4-3.31-2.61-2.52-4.59,2.65-6.58,5.62-12.83,8.89-18.67C105.41,18.25,121.96,3.82,139.64.08c2.12-.45,4.11,1.17,4.11,3.33ZM143.75,84.42v55.28c0,1.88-1.52,3.4-3.4,3.4h-69.13c-1.93,0-3.46-1.6-3.4-3.52.69-22.22,4.06-43.52,9.82-62.69.51-1.69,2.21-2.71,3.94-2.36,19.29,3.85,38.95,6.02,58.85,6.5,1.85.04,3.33,1.55,3.33,3.4ZM71.22,153.37h69.13c1.88,0,3.4,1.52,3.4,3.4v55.28c0,1.85-1.48,3.35-3.33,3.4-19.9.48-39.55,2.65-58.85,6.5-1.73.34-3.43-.68-3.94-2.36-5.76-19.17-9.12-40.47-9.82-62.69-.06-1.92,1.48-3.52,3.4-3.52ZM143.75,229.12v63.94c0,2.16-1.99,3.78-4.11,3.33-17.69-3.74-34.23-18.17-47.33-41.58-3.27-5.84-6.23-12.09-8.89-18.67-.8-1.98.42-4.19,2.52-4.59,17.83-3.42,35.98-5.37,54.34-5.84,1.9-.05,3.47,1.5,3.47,3.4ZM154.02,293.06v-63.94c0-1.91,1.57-3.45,3.47-3.4,18.36.46,36.51,2.42,54.34,5.84,2.09.4,3.31,2.61,2.52,4.59-2.65,6.58-5.62,12.83-8.89,18.67-13.1,23.41-29.64,37.84-47.33,41.58-2.12.45-4.11-1.17-4.11-3.33ZM154.02,212.05v-55.28c0-1.88,1.52-3.4,3.4-3.4h69.13c1.93,0,3.46,1.6,3.4,3.52-.69,22.22-4.06,43.52-9.82,62.69-.51,1.69-2.21,2.71-3.94,2.36-19.29-3.85-38.95-6.02-58.85-6.5-1.85-.04-3.33-1.55-3.33-3.4ZM240.24,139.82c-.67-22.87-4.08-44.87-9.95-64.77-.54-1.84.55-3.78,2.42-4.25,11.39-2.87,22.63-6.32,33.71-10.37,1.45-.53,3.06-.02,3.96,1.23,16.3,22.77,25.78,49.57,27.4,77.85.11,1.98-1.42,3.6-3.4,3.6h-50.74c-1.83,0-3.34-1.45-3.4-3.28ZM254.35,42.77c1.47,1.47,2.9,2.96,4.29,4.47,1.67,1.81.93,4.73-1.39,5.54-9.35,3.23-18.82,6.03-28.4,8.4-1.65.41-3.35-.48-3.96-2.07-3.07-7.96-6.56-15.48-10.47-22.47-4.72-8.43-9.89-15.82-15.42-22.12-2.36-2.69.44-6.72,3.78-5.43,19.11,7.39,36.64,18.76,51.56,33.69ZM43.43,42.77c14.92-14.92,32.45-26.29,51.56-33.69,3.34-1.29,6.15,2.74,3.78,5.43-5.53,6.29-10.7,13.69-15.42,22.12-3.91,6.99-7.41,14.51-10.47,22.47-.61,1.58-2.31,2.48-3.96,2.07-9.57-2.37-19.04-5.17-28.4-8.4-2.32-.8-3.06-3.73-1.39-5.54,1.4-1.51,2.83-3.01,4.29-4.47ZM43.43,253.69c-1.47-1.47-2.9-2.96-4.29-4.47-1.67-1.81-.93-4.73,1.39-5.54,9.35-3.23,18.82-6.03,28.4-8.4,1.65-.41,3.35.48,3.96,2.07,3.07,7.96,6.56,15.48,10.47,22.47,4.72,8.43,9.89,15.82,15.42,22.12,2.36,2.69-.44,6.72-3.78,5.43-19.11-7.39-36.64-18.76-51.56-33.69ZM254.35,253.69c-14.92,14.92-32.45,26.29-51.56,33.69-3.34,1.29-6.15-2.74-3.78-5.43,5.53-6.29,10.7-13.69,15.42-22.12,3.91-6.99,7.41-14.51,10.47-22.47.61-1.58,2.31-2.48,3.96-2.07,9.57,2.37,19.04,5.17,28.4,8.4,2.32.8,3.06,3.73,1.39,5.54-1.4,1.51-2.83,3.01-4.29,4.47Z"/>
  </g>
</svg>